<?xml version="1.0" encoding="utf-8"?>
<!-- Generator: Adobe Illustrator 24.1.0, SVG Export Plug-In . SVG Version: 6.00 Build 0)  -->
<svg version="1.1" id="Capa_1" xmlns="http://www.w3.org/2000/svg" xmlns:xlink="http://www.w3.org/1999/xlink" x="0px" y="0px"
	 viewBox="0 0 507.3 507.3" style="enable-background:new 0 0 507.3 507.3;" xml:space="preserve">
<style type="text/css">
	.st0{fill:#FFFFFF;stroke:#FFEC00;stroke-width:4.6688;stroke-miterlimit:10;}
</style>
<g>
	<g>
		<g>
			<path class="st0" d="M158.5,375.2L136.1,395c7.1,8,14.9,15.5,23.2,22.3l18.9-23.2C171.2,388.3,164.6,382,158.5,375.2z"/>
			<path class="st0" d="M129.1,328.9l-27.5,11.8c4.2,9.9,9.3,19.4,15.1,28.5l25.2-16C137,345.5,132.7,337.4,129.1,328.9z"/>
			<path class="st0" d="M388.1,86.7C357.4,68.9,322.5,59.5,287,59.5c-101,0.2-186.3,75-199.7,175.1l-51.2-51.2L15,204.5l85.3,85.3
				l85.3-85.3l-21.1-21.1l-46.2,46.1c17.6-93.1,107.3-154.4,200.5-136.9S473.1,200,455.5,293.1S348.2,447.5,255.1,430
				c-19.1-3.6-37.4-10.4-54.3-20.2l-15,25.8c96.4,55.9,219.8,23,275.6-73.3C517.3,266,484.5,142.6,388.1,86.7z"/>
			<polygon class="st0" points="264.6,126.7 264.6,291.1 330.4,340.4 348.3,316.5 294.5,276.1 294.5,126.7 			"/>
		</g>
	</g>
</g>
</svg>
