<svg xmlns="http://www.w3.org/2000/svg" xmlns:xlink="http://www.w3.org/1999/xlink" viewBox="0 0 247.18 155.81">
  <defs>
    <style>
      .cls-1 {
        fill: #fff;
        stroke: #000;
        stroke-width: 2px;
      }

      .cls-1, .cls-2 {
        stroke-miterlimit: 10;
      }

      .cls-2 {
        fill: #eeebe3;
        stroke: #c1beb8;
      }

      .cls-3 {
        font-size: 14px;
        font-family: MyriadPro-Regular, Myriad Pro;
      }

      .cls-4 {
        letter-spacing: -0.01em;
      }

      .cls-5 {
        letter-spacing: 0em;
      }

      .cls-6 {
        letter-spacing: 0.02em;
      }

      .cls-7 {
        letter-spacing: -0.07em;
      }

      .cls-8 {
        letter-spacing: -0.01em;
      }

      .cls-9 {
        letter-spacing: 0em;
      }

      .cls-10 {
        letter-spacing: -0.01em;
      }

      .cls-11 {
        letter-spacing: 0.01em;
      }
    </style>
  </defs>
  <title>Asset 23</title>
  <g id="Layer_2" data-name="Layer 2">
    <g id="assets">
      <path class="cls-1" d="M4.24,153.78l27-21s-45-167,106-125,101,105,101,105-67,55-196,32Z"/>
      <g id="skull">
        <path class="cls-2" d="M56.34,69.81c-15.21-52.37,73.27-52.13,55,0-1,8.78-2.78,16.22-7,19.72-3.56,4.68-5,9.91-6,15.43a14.3,14.3,0,0,1-10.67,11.56,20.42,20.42,0,0,1-7.22.37,14.78,14.78,0,0,1-12.35-12.27C66.84,97.8,64.81,91.88,62,88.13,58.47,84.05,57,77.48,56.34,69.81Z"/>
        <path class="cls-2" d="M78.07,91.54c3.78,3.68,7.47,4.07,11,.55A2.94,2.94,0,0,0,90,89.46,13.5,13.5,0,0,0,85.58,82a2.05,2.05,0,0,0-2.4-.35c-2.67,1.52-4.31,4.62-5.47,8.46A1.4,1.4,0,0,0,78.07,91.54Z"/>
        <path class="cls-2" d="M63.06,74.09c0,.15-.05.31-.07.46a6.92,6.92,0,0,0,2.19,5.59,19.41,19.41,0,0,0,3,2.48,6.63,6.63,0,0,0,7.68-.56,19.69,19.69,0,0,0,1.65-1.51c4-4.19,1.47-11.42-4.33-11.93a12.18,12.18,0,0,0-8.77,3A4.07,4.07,0,0,0,63.06,74.09Z"/>
        <path class="cls-2" d="M104.79,74.09l.06.46a6.92,6.92,0,0,1-2.19,5.59,18.91,18.91,0,0,1-3,2.48,6.65,6.65,0,0,1-7.69-.56,19.69,19.69,0,0,1-1.65-1.51c-4-4.19-1.46-11.42,4.34-11.93a12.18,12.18,0,0,1,8.77,3A4.12,4.12,0,0,1,104.79,74.09Z"/>
        <path class="cls-2" d="M70.43,99.4c8.13,9.56,16.59,9.27,25.36,0"/>
      </g>
      <image width="98" height="128" transform="translate(132.24 26.78) scale(0.52)" xlink:href="D:%5CDownloads%5Ciconfinder_Tick_Mark_Dark_1398912.png"/>
      <text class="cls-3" transform="translate(115.36 111.82)"><tspan class="cls-4">T</tspan><tspan x="6.86" y="0">h</tspan><tspan class="cls-5" x="14.63" y="0">a</tspan><tspan class="cls-6" x="21.32" y="0">t</tspan><tspan class="cls-7" x="26.25" y="0">’</tspan><tspan x="28.14" y="0">s </tspan><tspan class="cls-8" x="36.65" y="0">C</tspan><tspan x="44.62" y="0">o</tspan><tspan class="cls-9" x="52.3" y="0">r</tspan><tspan class="cls-10" x="56.94" y="0">r</tspan><tspan x="61.38" y="0">e</tspan><tspan class="cls-11" x="68.39" y="0">c</tspan><tspan x="74.84" y="0">t</tspan></text>
    </g>
  </g>
</svg>
