<svg xmlns="http://www.w3.org/2000/svg" viewBox="0 0 185.16 655.76">
  
    <style>
      .cls-1, .cls-4 {
        fill: #4d4d4d;
      }

      .cls-1, .cls-2, .cls-3, .cls-4 {
        stroke: #000;
        stroke-miterlimit: 10;
      }

      .cls-1 {
        stroke-width: 3.4px;
      }

      .cls-2, .cls-3 {
        fill: #666;
      }

      .cls-2 {
        stroke-width: 4.98px;
      }

      .cls-3 {
        stroke-width: 4.86px;
      }

      .cls-4 {
        stroke-width: 0.88px;
      }
    </style>
  
  <title>Asset 22</title>
  <g id="Layer_2" data-name="Layer 2">
    <g id="assets">
      <g id="elevator">
        <g>
          <g>
            <path class="cls-1" d="M32.77,395.92l61.55,20.52,66.35-26.54a.58.58,0,0,1,.7.87l-17.11,25.67,12.26,8.18a1,1,0,0,1,0,1.74l-21.3,12.78,16.16,12.12a1.4,1.4,0,0,1-.33,2.42l-20.37,12.69,17.57,13a.65.65,0,0,1-.13,1l-22,13.19,13.21,13.21a.42.42,0,0,1-.11.67l-17.64,13.36,13.08,8.54a.66.66,0,0,1-.07,1L117,548.08l8.73,8.56a.89.89,0,0,1,0,1L117,575.32l7.24,3.93a1.47,1.47,0,0,1,.77,2.22L112.48,598,116,611.11a1.13,1.13,0,0,1,.48,1.56L94.32,652.49,68,612.94a2.34,2.34,0,0,1,0-2.61l8.21-16.85L64,589.89a1.72,1.72,0,0,1-.47-2.38l8.13-16.73-16.74-12.2a2,2,0,0,1,0-2.84l12.2-12.2-15.54-7.77A2.1,2.1,0,0,1,51,532.4l16.09-16.09L45.58,507.7a.72.72,0,0,1-.16-1.24l17.13-12.85-26-13a.85.85,0,0,1-.13-1.45l17-12.79L31.92,453.44a1,1,0,0,1-.2-1.63L48.93,434.6l-25.6-8.54a.9.9,0,0,1-.26-1.57L39.85,411.9l-9.48-12.65A2.15,2.15,0,0,1,32.77,395.92Z"/>
            <line class="cls-1" x1="62.55" y1="493.61" x2="130.64" y2="466.37"/>
            <line class="cls-1" x1="53.47" y1="466.37" x2="135.18" y2="439.14"/>
            <line class="cls-1" x1="48.93" y1="434.6" x2="157.88" y2="393.74"/>
            <line class="cls-1" x1="67.09" y1="516.31" x2="126.1" y2="493.61"/>
            <line class="cls-1" x1="67.09" y1="543.54" x2="121.56" y2="520.85"/>
            <line class="cls-1" x1="71.63" y1="570.78" x2="117.02" y2="548.08"/>
            <line class="cls-1" x1="76.17" y1="593.48" x2="117.02" y2="575.32"/>
            <line class="cls-1" x1="69.77" y1="612.69" x2="112.48" y2="598.02"/>
          </g>
          <path class="cls-2" d="M2.49,2.49V374.86L79.73,433a17.23,17.23,0,0,0,20.34.3l82.6-58.44V2.49ZM149.11,263.93H37.82V48.42H149.11Z"/>
        </g>
        <path class="cls-3" d="M37.82,262.16V364.62H149.11V262.16S40.32,259.54,37.82,262.16Z"/>
        <circle class="cls-4" cx="133.21" cy="278.06" r="5.3"/>
      </g>
    </g>
  </g>
</svg>
