<svg xmlns="http://www.w3.org/2000/svg" viewBox="0 0 184.08 636.22">
  <defs>
    <style>
      .cls-1 {
        fill: #eeebe3;
      }

      .cls-1, .cls-2 {
        stroke: #c1beb8;
        stroke-miterlimit: 10;
      }

      .cls-2 {
        fill: #c1beb8;
      }
    </style>
  </defs>
  <title>Asset 20</title>
  <g id="Layer_2" data-name="Layer 2">
    <g id="assets">
      <g id="skeleton">
        <g id="leftArm">
          <path class="cls-1" d="M40.73,123.52l-5.64,2.82c-11.35,10-10.67,68.81-.36,91.09a5.41,5.41,0,0,1-1,6.13h0v1.56a3.71,3.71,0,0,1-4.44,3.63,21,21,0,0,0-8.64.36,10.21,10.21,0,0,1-9.46-2.74h0V223.6a16.34,16.34,0,0,1,2-7.63c3.72-7.07,5.43-15.44,4.78-25.34A105.59,105.59,0,0,1,18,177.68l2.33-40.77V127c-2.78-10.81.5-16,8.45-16.9,7.75-1.31,13.34-.37,14.09,5.63Z"/>
          <path class="cls-1" d="M28.75,238.35c1.51-5.52-2.82-8.45-7-4.23-4.23-2.81-8.59-.55-5.64,5.64A365.55,365.55,0,0,0,16,303.39a2.87,2.87,0,0,1-.56,2c-1.77,2.3-2.2,4.4-.74,6.23,5.43,2.53,10.34,1.74,14.93-1.05a1.28,1.28,0,0,0,.56-1C32.31,284.07,31.09,260.65,28.75,238.35Zm-3.94,66.44c-.61,2.45-3.83,2.6-4.12.09-1.57-13.85-2.1-49-1-61.23.2-2.29,3.12-2.25,3.81-.06C27.07,255.21,28.48,290,24.81,304.79Z"/>
          <path class="cls-1" d="M11.85,320.07c-8.28,9.25-11.93,22-11.28,38,1,1.67,1.92,1.29,2.82,0,.42-11,2.73-21.51,7.82-31.21a1.72,1.72,0,0,1,2.18-.82l.1.05a1.94,1.94,0,0,1,1,2.06,129.49,129.49,0,0,1-3.87,16.49,5.63,5.63,0,0,0-.21,1.52c-.06,8.73-1.69,18.47-4.23,28.82.65,1.63,1.57,1.73,2.82,0,2.63-6.68,4.24-15.77,5.63-25.36A19,19,0,0,0,16.07,344l1.41-15.5a1.94,1.94,0,0,1,2.82,0v18.32l-2.82,32.41c.88,1.65,1.83,1.47,2.82,0,2.19-11.15,3.95-21.59,4.23-29.59V329.93c.3-1.56.77-1.54,1.4,0L28.75,344a4.86,4.86,0,0,0,0,4.23,104.74,104.74,0,0,1,0,26.77c0,2.82,1.41,4.23,2.82,0a75.35,75.35,0,0,0,0-28.18c.83-1.19.77-2.61,0-4.23l-4.23-14.09a2,2,0,0,1,2.82-1.41l5.64,12.68a93.13,93.13,0,0,1,9.86,26.77c1.41,2.82,4.23,1.41,2.82-1.4l-7-21.14A7.71,7.71,0,0,0,40,338.39l-7-11.28c1.39-2.37,1.64-4.72,0-7h0a2.83,2.83,0,0,0-.9-4.6C23.38,311.77,16.23,312.22,11.85,320.07Z"/>
        </g>
        <g id="leftLeg">
          <path class="cls-1" d="M73.84,468h-7A3.74,3.74,0,0,1,64,465.19v-2.82H58.34v2.82c-.75,3-3.91,4.32-7.46,5.36a2.35,2.35,0,0,0-1.69,2.67l0,0a4.25,4.25,0,0,0,1.65,2.46c2.69,2,4.92,5.1,4.66,9.19l2.82,88.76a16.78,16.78,0,0,1-1.9,4.08,14.43,14.43,0,0,0-2.33,7.76v3.66c1.41,2.82,2.82,2.82,2.82,0,2.52-8.82,12.93-8.63,17.12-3.45a.87.87,0,0,0,1.55-.39l.78-5.46a4,4,0,0,0-1.13-3.38l1.41-98.63C78.49,472.67,78.56,468.68,73.84,468ZM71,572.27c-.92,2.24-1.86,2.14-2.82,0-4.87-43.39-5.58-75.79,0-91.58,1.43-2.36,2.84-4,4.23,0Z"/>
          <path class="cls-1" d="M59.75,600.45a9.93,9.93,0,0,0,1.41,8.46c1.4,6,3.46,11.44,7,15.49,7.38,4.15,14.31,6.94,19.42,4.15a4.86,4.86,0,0,0,1.85-6.67,8.34,8.34,0,0,0-1.32-1.81,6.11,6.11,0,0,1-1.56-3.48c-.55-4.22-4.6-10.2-9.1-16.4a5.49,5.49,0,0,1-1-2.56C74.37,579.33,57,579.83,59.75,600.45Z"/>
          <line class="cls-1" x1="78.07" y1="608.91" x2="87.93" y2="628.63"/>
          <line class="cls-1" x1="72.43" y1="608.91" x2="85.11" y2="630.04"/>
          <line class="cls-1" x1="68.2" y1="610.31" x2="79.48" y2="628.63"/>
          <line class="cls-1" x1="65.39" y1="613.13" x2="73.84" y2="627.22"/>
          <path class="cls-1" d="M61.16,311.62l-4.23,5.63c2,8.92,2.29,15.8,0,19.73,4.17,45.17,8.37,84.75,12.68,107.08,6.87,4.75,7,10.63,4.23,16.9C71,468,51.3,468,48.48,459.56c-.32-5.5,1.44-11.13,5.63-16.91-1.82-41.29-4.51-78.71-9.86-104.26-.57-7-2.49-12.57-7-15.5-3.37-5.61-3-10.63.95-15.08a2.71,2.71,0,0,1,3.64-.29c5.8,4.4,9-.08,10.91-8.58,1.39-3.93,3.63-6.65,8.71-5.38C69.36,301.19,68.2,310.21,61.16,311.62Z"/>
        </g>
        <g id="rightLeg">
          <path class="cls-1" d="M112.1,483.7l2.74,98.6a4,4,0,0,0-1.08,3.39l.86,5.46a.86.86,0,0,0,1.55.36c4.12-5.23,14.52-5.57,17.16,3.22,0,2.82,1.45,2.8,2.82,0L136.1,591a14.41,14.41,0,0,0-2.43-7.72,17.05,17.05,0,0,1-2-4.06l1.62-88.79c-.32-4.09,1.87-7.17,4.54-9.25a4.28,4.28,0,0,0,1.62-2.48v-.05a2.36,2.36,0,0,0-1.72-2.66c-3.57-1-6.74-2.26-7.53-5.25l0-2.82-5.64.08,0,2.82a3.75,3.75,0,0,1-2.78,2.85l-7,.1C110.07,474.53,110.2,478.52,112.1,483.7Zm4.27,2.76c1.33-4,2.77-2.4,4.22-.06,5.8,15.72,5.53,48.12,1.24,91.57-.93,2.15-1.87,2.27-2.82,0Z"/>
          <path class="cls-1" d="M130.66,606a9.91,9.91,0,0,1-1.29,8.47c-1.32,6-3.31,11.49-6.83,15.59-7.32,4.24-14.22,7.13-19.36,4.41a4.86,4.86,0,0,1-1.94-6.65,8.29,8.29,0,0,1,1.29-1.82,6.1,6.1,0,0,0,1.51-3.5c.5-4.23,4.47-10.27,8.88-16.53a5.23,5.23,0,0,0,.93-2.56C115.76,585.12,133.13,585.38,130.66,606Z"/>
          <line class="cls-1" x1="112.46" y1="614.74" x2="102.87" y2="634.59"/>
          <line class="cls-1" x1="118.1" y1="614.66" x2="105.71" y2="635.97"/>
          <line class="cls-1" x1="122.34" y1="616.01" x2="111.32" y2="634.48"/>
          <line class="cls-1" x1="125.2" y1="618.79" x2="116.94" y2="633"/>
          <path class="cls-1" d="M125.35,317.25l4.3,5.58c-1.9,8.94-2.07,15.82.27,19.72-3.55,45.22-7.22,84.85-11.23,107.24-6.8,4.84-6.88,10.73-4,17,2.91,7,22.64,6.74,25.34-1.75.25-5.5-1.59-11.11-5.86-16.83,1.26-41.31,3.44-78.76,8.45-104.38.48-7,2.32-12.6,6.83-15.6,3.29-5.65,2.86-10.66-1.15-15.06a2.71,2.71,0,0,0-3.64-.24c-5.74,4.48-9,0-11-8.44-1.44-3.9-3.72-6.59-8.79-5.25C117,306.93,118.29,315.93,125.35,317.25Z"/>
        </g>
        <g id="rightArm">
          <path class="cls-1" d="M161.79,123l5.21,3.56c9.9,11.45,1.31,69.62-11.91,90.3a5.42,5.42,0,0,0,.21,6.22h0l-.21,1.54a3.7,3.7,0,0,0,3.91,4.2,21.16,21.16,0,0,1,8.52,1.53,10.28,10.28,0,0,0,9.74-1.44h0l.37-2.75a16.47,16.47,0,0,0-.94-7.83c-2.74-7.51-3.3-16-1.33-25.75a106.39,106.39,0,0,0,1.69-12.84L180.23,139l1.33-9.77c4.21-10.34,1.66-16-6.1-17.9C168,109,162.3,109.15,160.74,115Z"/>
          <path class="cls-1" d="M147.21,308.71a1.33,1.33,0,0,0,.42,1.1c4.18,3.38,8.93,4.83,14.65,3.05,1.7-1.62,1.55-3.76.11-6.27a2.89,2.89,0,0,1-.29-2.06,364.27,364.27,0,0,0,8.47-63.06c3.75-5.73-.26-8.57-4.83-6.35-3.62-4.76-8.29-2.44-7.55,3.24C152.87,260.15,148.51,283.18,147.21,308.71Zm15.52-64.44c1-2.08,3.88-1.73,3.76.57-.59,12.23-5.85,47-9.28,60.53-.62,2.45-3.79,1.86-4.06-.65C151.5,289.6,157.59,255.3,162.73,244.27Z"/>
          <path class="cls-1" d="M163.93,321.61c7,10.28,8.85,23.42,6,39.22-1.21,1.52-2.08,1-2.79-.38,1.07-11,.19-21.68-3.54-32a1.73,1.73,0,0,0-2.05-1.11l-.11,0a2,2,0,0,0-1.3,1.91,128.43,128.43,0,0,0,1.61,16.86,5.67,5.67,0,0,1,0,1.54c-1.12,8.65-.82,18.53.31,29.12-.87,1.53-1.8,1.5-2.8-.38-1.71-7-2.08-16.19-2.16-25.89a19,19,0,0,1-.64-5.77l.69-15.55a1.93,1.93,0,0,0-2.79-.38L152,347l-1.57,32.49c-1.1,1.52-2,1.22-2.79-.38-.68-11.34-1-21.92-.21-29.89l1-7L150,329.68c-.09-1.59-.56-1.64-1.4-.19L144,343.07a4.84,4.84,0,0,1-.57,4.19,104.83,104.83,0,0,0-3.6,26.52c-.38,2.8-2,4-2.79-.38a75.41,75.41,0,0,1,3.79-27.92c-.66-1.28-.41-2.69.57-4.19l6.09-13.39a2,2,0,0,0-2.6-1.77l-7.3,11.8a93.08,93.08,0,0,0-13.38,25.2c-1.77,2.6-4.37.83-2.6-1.78l9.83-20a7.74,7.74,0,0,1,2.15-5.39l8.5-10.22c-1.06-2.54-1-4.91,1-7h0a2.83,2.83,0,0,1,1.51-4.44C153.63,311.84,160.65,313.25,163.93,321.61Z"/>
        </g>
        <g id="pelvis">
          <path class="cls-1" d="M80.88,263.71c2.23,2,4.1,2,5.64,0,6.68,2.65,12.1,2.11,16.91,0,1.73,3.71,3.65,3.32,5.63,1.41C104.84,287.66,79.48,290.48,80.88,263.71Z"/>
          <path id="pelvis-2" data-name="pelvis" class="cls-1" d="M78.73,261.32c-21.07-21.69-43,2.35-20.6,21.21a6.31,6.31,0,0,1,2,6.36l-.4,1.59c8,7.51,10.64,14.43,5.11,20.45a5.28,5.28,0,0,0-1,5.55c7.09,17.5,15.42,13.95,24.07,5,3.72-2.82,6.71-3.33,8.45,0,6.32,10.51,13.35,10.75,21.21-1.07a10.15,10.15,0,0,0,1.27-8.06c-1.26-5.18,1.6-10,5.74-14.72A5.52,5.52,0,0,0,126,294v-3.52l9.1-5.69A13.34,13.34,0,0,0,139,281.1c9.28-13.45,1.52-23.89-12.83-25.61a8,8,0,0,0-5.39,1.34l-11.73,7.82a7.16,7.16,0,0,0-3.07,4.66c-2.49,13.44-22.28,21.59-24.89-2.74A8.86,8.86,0,0,0,78.73,261.32Z"/>
        </g>
        <g id="torso">
          <path class="cls-2" d="M117.52,217.22c2.66.39,3.53-1.09,2.81-4.23l10.61,8.87c6.95-2.48,13.44-8.78,19-23,5.62-16,5.5-41.92,3.93-70.35L130.2,107.32l-69.33,6.07L52.71,135.5c-11,37-10.33,66.13,8.45,83.12l7.8-7.88,3.47,5.07L95,210.17C102.89,209.51,110.63,210.2,117.52,217.22Z"/>
          <path class="cls-1" d="M87.93,225.67a39.46,39.46,0,0,0,16.91,0c.53,1.26,2.37,1.34,4.22,1.41a2.11,2.11,0,1,1,0,4.23h-4.22v2.81a41,41,0,0,1-16.91,0v-2.81H83.7c-2.82,0-1.41-4.23,0-4.23C85.81,227.09,87.71,227,87.93,225.67Z"/>
          <path class="cls-1" d="M87.93,235.53a39.46,39.46,0,0,0,16.91,0c.53,1.26,2.37,1.34,4.22,1.41a2.11,2.11,0,0,1,0,4.23h-4.22V244a41.13,41.13,0,0,1-16.91,0v-2.82H83.7c-2.82,0-1.41-4.23,0-4.23C85.81,237,87.71,236.82,87.93,235.53Z"/>
          <path class="cls-1" d="M87.93,245.39a39.3,39.3,0,0,0,16.91,0c.53,1.26,2.37,1.34,4.22,1.41a2.12,2.12,0,0,1,0,4.23h-4.22v2.82a48,48,0,0,1-18.32,0V251H83.7c-2.82,0-1.41-4.23,0-4.23C85.81,246.82,87.71,246.69,87.93,245.39Z"/>
          <path class="cls-1" d="M86.52,255.26a39.61,39.61,0,0,0,16.91,0c.53,1.26,2.37,1.34,4.22,1.41a2.11,2.11,0,1,1,0,4.22h-4.22v2.82a41,41,0,0,1-16.91,0v-2.82H82.29c-2.81,0-1.41-4.22,0-4.22C84.4,256.68,86.3,256.55,86.52,255.26Z"/>
          <path class="cls-1" d="M87.93,215.81a39.61,39.61,0,0,0,16.91,0c.53,1.26,2.37,1.34,4.22,1.41a2.11,2.11,0,1,1,0,4.22h-4.22v2.82a41,41,0,0,1-16.91,0v-2.82H83.7c-2.82,0-1.41-4.22,0-4.22C85.81,217.23,87.71,217.1,87.93,215.81Z"/>
          <path class="cls-1" d="M96.38,96.05a39.61,39.61,0,0,0,16.91,0c.53,1.25,2.37,1.33,4.23,1.4a2.12,2.12,0,0,1,0,4.23h-4.23v2.82a41,41,0,0,1-16.91,0v-2.82H92.16c-2.82,0-1.41-4.23,0-4.23C94.27,97.47,96.16,97.34,96.38,96.05Z"/>
          <path class="cls-1" d="M96.38,86.18a39.46,39.46,0,0,0,16.91,0c.53,1.26,2.37,1.34,4.23,1.41a2.12,2.12,0,0,1,0,4.23h-4.23v2.82a41.13,41.13,0,0,1-16.91,0V91.82H92.16c-2.82,0-1.41-4.23,0-4.23C94.27,87.61,96.16,87.48,96.38,86.18Z"/>
          <path class="cls-1" d="M87.93,205.94a39.3,39.3,0,0,0,16.91,0c.53,1.26,2.37,1.34,4.22,1.41a2.11,2.11,0,1,1,0,4.23h-4.22v2.82a41,41,0,0,1-16.91,0v-2.82H83.7c-2.82,0-1.41-4.23,0-4.23C85.81,207.37,87.71,207.24,87.93,205.94Z"/>
          <g>
            <path class="cls-1" d="M110.47,161.7a.63.63,0,0,0-1,.4c-.25,1.1-1.45,2.13-.45,3,20.82,17.83,55.57-7.57,43.68-15.49C154.11,159.2,127.22,172.84,110.47,161.7Z"/>
            <path class="cls-1" d="M109.06,150.43a.63.63,0,0,0-1,.4c-.25,1.1-1.45,2.13-.45,3,20.82,17.83,55.57-7.57,43.68-15.5C152.71,147.93,125.81,161.56,109.06,150.43Z"/>
            <path class="cls-1" d="M109.06,137.75a.63.63,0,0,0-1,.4c-.25,1.1-1.45,2.13-.45,3,20.82,17.83,55.57-7.57,43.68-15.5C152.71,135.25,125.81,148.88,109.06,137.75Z"/>
            <path class="cls-1" d="M109.06,126.47a.64.64,0,0,0-1,.41c-.25,1.1-1.45,2.12-.45,3,20.82,17.83,55.57-7.57,43.68-15.5C152.71,124,125.81,137.61,109.06,126.47Z"/>
            <path class="cls-1" d="M107.65,172.13l1.41,11.27c11.09,12.63,19.8,25.66,24,39.45,3.33,1.39,5.47,0,7-2.82l1.41-4.22c3.63-1.63,5.46-5,5.64-9.87l3.4-6.8a.3.3,0,0,0-.47-.34c-5.25,4.66-13.18,3.86-23.36-1.55-.51-.27-.29-1.15.26-1,12.79,3.22,23.2.72,28.62-8.61v-6.15a.44.44,0,0,0-.84-.17c-6.49,14.27-26.31,15.31-39.8-.15a.57.57,0,0,1,.66-.9c18.09,8.18,32.42,6,41.39-10.95l-1.11-4.45a.42.42,0,0,0-.79-.06C148.06,180.14,129,180.23,107.65,172.13Z"/>
          </g>
          <g>
            <path class="cls-1" d="M93.75,162.6a.63.63,0,0,1,.88.55c.06,1.13,1.07,2.34-.06,3-23.5,14.1-53.52-16.75-40.48-22.58C51.13,152.85,75.37,170.78,93.75,162.6Z"/>
            <path class="cls-1" d="M97,151.72a.63.63,0,0,1,.88.55c.06,1.13,1.07,2.34-.06,3-23.5,14.1-53.52-16.75-40.47-22.57C54.41,142,78.64,159.9,97,151.72Z"/>
            <path class="cls-1" d="M99.14,139.21a.64.64,0,0,1,.88.56c.06,1.13,1.07,2.34-.06,3-23.5,14.1-53.52-16.75-40.48-22.58C56.52,129.46,80.76,147.4,99.14,139.21Z"/>
            <path class="cls-1" d="M101,128.1a.64.64,0,0,1,.88.56c.07,1.13,1.07,2.34-.06,3-23.5,14.09-53.52-16.75-40.47-22.58C58.41,118.35,82.64,136.29,101,128.1Z"/>
            <path class="cls-1" d="M96.38,172.13,93.56,182c-13,10.6-25.85,24.23-32.25,37.13-3.52.81-5.4-1-6.48-4l-.68-4.4c-3.31-2.21-4.56-5.8-3.91-10.67L48,192.83a.29.29,0,0,1,.51-.26c4.41,5.47,12.35,6,23.3,2.37.54-.18.48-1.09-.09-1-13.14,1-23-3.17-26.78-13.27l1-6.06a.43.43,0,0,1,.85,0c4,15.16,23.39,19.5,39.27,6.5a.57.57,0,0,0-.5-1c-19.2,5.05-33,.52-39-17.7l1.84-4.2a.42.42,0,0,1,.79.07C53.61,174.5,74,176.54,96.38,172.13Z"/>
          </g>
          <path class="cls-1" d="M100.61,117.18c-1,1.82-.73,4.21,0,6.77a5.87,5.87,0,0,0-1.19,6.25,2,2,0,0,1-.3,2.34c-3.85,3.79-2.46,7.46.08,10-2.82,1.41-5.64,7.05-1.41,12.68-4.52,3.83-4.17,7.73-1.41,11.27-3.58,2.63-3.23,6.09-1.41,9.87,3.64,5.65,9.87,4.22,12.68,1.4,0,0,3.64-5.59,0-9.86,4.23-1.41,4.23-8.45,1.41-12.68,2.75-.34,3.66-10.12,1.18-12.19a.45.45,0,0,1,.06-.77c2.94-1.49,2.53-8.33-1.24-9.58,2.79-2.66,3.36-5.44,0-8.46,2.53-1.58,2.52-4.1,1.41-7Z"/>
          <path class="cls-1" d="M118.93,104.5l-31-1.41-2.59-2.59a3.52,3.52,0,0,0-3.79-.78l-4.89,2H66.79c-9.25-3.93-18.19-7.17-22.54,0-7,7.9-4.47,16.55,0,25.36,4.17,1.15,7.53,3.29,8.46,8.46,7.1-9.59,14.47-18.82,28.17-19.73a24,24,0,0,1,11.28,8.45c3.56-.65,7-2.36,8.45-7h9.86c3,4.46,6.11,8.55,9.86,7a28.93,28.93,0,0,1,8.49-7,6.22,6.22,0,0,1,5.75-.21c10.79,5.1,16.74,13.36,16.76,25.49l11.27-9.86c8.46-9.86,13.73-27.24-4.22-31-12.29,2.83-23.31,4.42-28.18,0C125.14,98.89,121.78,101,118.93,104.5Z"/>
        </g>
        <g id="skull">
          <path class="cls-1" d="M76.66,39.69c-15.21-52.37,73.26-52.13,55,0-1,8.78-2.78,16.22-7.05,19.72-3.55,4.68-5,9.91-6,15.43a14.26,14.26,0,0,1-10.66,11.55,20.25,20.25,0,0,1-7.23.38A14.78,14.78,0,0,1,88.37,74.5c-1.22-6.83-3.24-12.74-6.08-16.5C78.78,53.93,77.28,47.36,76.66,39.69Z"/>
          <path class="cls-1" d="M98.38,61.42c3.79,3.68,7.48,4.07,11.05.55a3,3,0,0,0,.85-2.63,13.5,13.5,0,0,0-4.39-7.43,2,2,0,0,0-2.39-.35C100.83,53.08,99.18,56.18,98,60A1.42,1.42,0,0,0,98.38,61.42Z"/>
          <path class="cls-1" d="M83.37,44l-.06.47A6.93,6.93,0,0,0,85.5,50a18.31,18.31,0,0,0,3,2.47,6.63,6.63,0,0,0,7.69-.55,19.69,19.69,0,0,0,1.65-1.51c4-4.19,1.46-11.42-4.34-11.93a12.18,12.18,0,0,0-8.76,3A4.14,4.14,0,0,0,83.37,44Z"/>
          <path class="cls-1" d="M125.1,44c0,.16.05.32.07.47A6.93,6.93,0,0,1,123,50a18.78,18.78,0,0,1-3,2.47,6.61,6.61,0,0,1-7.68-.55,19.69,19.69,0,0,1-1.65-1.51c-4-4.19-1.47-11.42,4.33-11.93a12.22,12.22,0,0,1,8.77,3A4.13,4.13,0,0,1,125.1,44Z"/>
          <path class="cls-1" d="M90.75,69.28c8.12,9.56,16.59,9.26,25.36,0"/>
        </g>
      </g>
    </g>
  </g>
</svg>
