<svg xmlns="http://www.w3.org/2000/svg" viewBox="0 0 1024 515.95">
  <defs>
    <style>
      .cls-1 {
        fill: #55402f;
      }

      .cls-2 {
        fill: #4b3929;
      }

      .cls-3 {
        fill: #423124;
      }
    </style>
  </defs>
  <title>Asset 14</title>
  <g id="Layer_2" data-name="Layer 2">
    <g id="background">
      <g id="layeredSoil">
        <g id="soil2">
          <path class="cls-1" d="M1023,3c-51.76-4.21-98.63-5.7-118,8-44,21.27-82.45,27.78-114,16-54.52-13.2-98.12-12.78-135-4-39.31,18.55-73.27,18-104,6C487.94,10.49,438.76,6.64,405,18c-95.44,42.46-111.92,20.5-140,8-41-11.58-75.62-11.73-108-8-45.87,17.37-62.46,6.71-79-4L0,16,1,516H1024Z"/>
          <path class="cls-2" d="M112.37,172.45c1.06,2.58,3.87,3.39,8.13,2.73a3.66,3.66,0,0,0,3-2.94c1-5.47,1-9.8-2.34-10.41-4.06.26-7.4,2.15-8.94,8.14A3.91,3.91,0,0,0,112.37,172.45Z"/>
          <path class="cls-2" d="M272.81,172.45c-1.06,2.58-3.87,3.39-8.13,2.73a3.65,3.65,0,0,1-3-2.94c-1-5.47-1-9.8,2.34-10.41,4.06.26,7.4,2.15,8.94,8.14A3.91,3.91,0,0,1,272.81,172.45Z"/>
          <path class="cls-2" d="M272.59,222.09c-1.92,4.64-7,6.1-14.66,4.92a6.58,6.58,0,0,1-5.4-5.31c-1.84-9.86-1.82-17.65,4.21-18.76,7.31.48,13.33,3.88,16.11,14.67A7.16,7.16,0,0,1,272.59,222.09Z"/>
          <path class="cls-2" d="M389.59,222.09c-1.92,4.64-7,6.1-14.66,4.92a6.58,6.58,0,0,1-5.4-5.31c-1.84-9.86-1.82-17.65,4.21-18.76,7.31.48,13.33,3.88,16.11,14.67A7.16,7.16,0,0,1,389.59,222.09Z"/>
          <path class="cls-2" d="M330.81,222.77c-1.06-2.57-3.87-3.38-8.13-2.73a3.65,3.65,0,0,0-3,3c-1,5.47-1,9.79,2.34,10.41,4.06-.27,7.4-2.15,8.94-8.14A3.93,3.93,0,0,0,330.81,222.77Z"/>
          <path class="cls-2" d="M426.58,138.83c-1.86-4.5-6.78-5.91-14.22-4.77a6.37,6.37,0,0,0-5.23,5.14c-1.79,9.57-1.77,17.12,4.08,18.2,7.09-.47,12.93-3.76,15.62-14.22A7,7,0,0,0,426.58,138.83Z"/>
          <path class="cls-2" d="M218.58,79.83c-1.86-4.5-6.78-5.91-14.22-4.77a6.37,6.37,0,0,0-5.23,5.14c-1.79,9.57-1.77,17.12,4.08,18.2,7.09-.47,12.93-3.76,15.62-14.22A7,7,0,0,0,218.58,79.83Z"/>
          <path class="cls-2" d="M158.37,218.45c1.06,2.58,3.87,3.39,8.13,2.73a3.66,3.66,0,0,0,3-2.94c1-5.47,1-9.8-2.34-10.41-4.06.26-7.4,2.15-8.94,8.14A3.91,3.91,0,0,0,158.37,218.45Z"/>
          <path class="cls-2" d="M29.31,174c4.87,3.28,7.76,1.39,8.71-5.54a1.82,1.82,0,0,0-1.18-2c-5.88-2-8.08.68-8.28,6A1.75,1.75,0,0,0,29.31,174Z"/>
          <path class="cls-2" d="M25.05,110.46c.68,6.53,7.16,9.76,10.85,6.83a1.33,1.33,0,0,0,.45-1c-.1-7.22-4.32-8.45-10.25-7.21A1.33,1.33,0,0,0,25.05,110.46Z"/>
          <path class="cls-2" d="M59.05,76.46c.68,6.53,7.16,9.76,10.85,6.83a1.33,1.33,0,0,0,.45-1c-.1-7.22-4.32-8.45-10.25-7.21A1.33,1.33,0,0,0,59.05,76.46Z"/>
          <path class="cls-2" d="M58.05,215.41c1.1-10.53,11.54-15.73,17.49-11a2.09,2.09,0,0,1,.72,1.63c-.14,11.64-7,13.63-16.51,11.62A2.14,2.14,0,0,1,58.05,215.41Z"/>
          <path class="cls-2" d="M62.05,142.41c1.1-10.53,11.54-15.73,17.49-11a2.09,2.09,0,0,1,.72,1.63c-.14,11.64-7,13.63-16.51,11.62A2.14,2.14,0,0,1,62.05,142.41Z"/>
          <path class="cls-2" d="M104.55,99.91c1.1-10.53,11.54-15.73,17.49-11a2.09,2.09,0,0,1,.72,1.63c-.14,11.64-7,13.63-16.51,11.62A2.14,2.14,0,0,1,104.55,99.91Z"/>
          <path class="cls-2" d="M203.05,180.41c1.1-10.53,11.54-15.73,17.49-11a2.09,2.09,0,0,1,.72,1.63c-.14,11.64-6.95,13.63-16.51,11.62A2.14,2.14,0,0,1,203.05,180.41Z"/>
          <path class="cls-2" d="M114.55,268.91c1.1-10.53,11.54-15.73,17.49-11a2.09,2.09,0,0,1,.72,1.63c-.14,11.64-6.95,13.63-16.51,11.62A2.14,2.14,0,0,1,114.55,268.91Z"/>
          <path class="cls-2" d="M332.05,110.46c.68,6.53,7.16,9.76,10.85,6.83a1.33,1.33,0,0,0,.45-1c-.1-7.22-4.32-8.45-10.25-7.21A1.33,1.33,0,0,0,332.05,110.46Z"/>
          <path class="cls-2" d="M704.05,110.46c.68,6.53,7.16,9.76,10.85,6.83a1.33,1.33,0,0,0,.45-1c-.1-7.22-4.32-8.45-10.25-7.21A1.33,1.33,0,0,0,704.05,110.46Z"/>
          <path class="cls-2" d="M424.58,77.83c-1.86-4.5-6.78-5.91-14.22-4.77a6.37,6.37,0,0,0-5.23,5.14c-1.79,9.57-1.77,17.12,4.08,18.2,7.09-.47,12.93-3.76,15.62-14.22A7,7,0,0,0,424.58,77.83Z"/>
          <path class="cls-2" d="M406.05,184.46c.68,6.53,7.16,9.76,10.85,6.83a1.33,1.33,0,0,0,.45-1c-.1-7.22-4.32-8.45-10.25-7.21A1.33,1.33,0,0,0,406.05,184.46Z"/>
          <path class="cls-2" d="M264.55,119c.68,6.53,7.16,9.76,10.85,6.83a1.33,1.33,0,0,0,.45-1c-.1-7.22-4.32-8.45-10.25-7.21A1.33,1.33,0,0,0,264.55,119Z"/>
          <path class="cls-2" d="M317.55,192c.68,6.53,7.16,9.76,10.85,6.83a1.33,1.33,0,0,0,.45-1c-.1-7.22-4.32-8.45-10.25-7.21A1.33,1.33,0,0,0,317.55,192Z"/>
          <path class="cls-2" d="M168.06,112.87c1.58,15.17,16.63,22.68,25.21,15.87a3.07,3.07,0,0,0,1-2.35c-.22-16.79-10-19.65-23.81-16.76A3.1,3.1,0,0,0,168.06,112.87Z"/>
          <path class="cls-2" d="M204.56,250.37c1.58,15.17,16.63,22.68,25.21,15.87a3.07,3.07,0,0,0,1-2.35c-.22-16.79-10-19.65-23.81-16.76A3.1,3.1,0,0,0,204.56,250.37Z"/>
          <path class="cls-2" d="M297.06,142.87c1.58,15.17,16.63,22.68,25.21,15.87a3.07,3.07,0,0,0,1-2.35c-.22-16.79-10-19.65-23.81-16.76A3.1,3.1,0,0,0,297.06,142.87Z"/>
          <path class="cls-2" d="M351.06,172.87c1.58,15.17,16.63,22.68,25.21,15.87a3.07,3.07,0,0,0,1-2.35c-.22-16.79-10-19.65-23.81-16.76A3.1,3.1,0,0,0,351.06,172.87Z"/>
          <g>
            <path class="cls-2" d="M908.74,172.45c-1.06,2.58-3.88,3.39-8.13,2.73a3.65,3.65,0,0,1-3-2.94c-1-5.47-1-9.8,2.34-10.41,4,.26,7.39,2.15,8.94,8.14A4,4,0,0,1,908.74,172.45Z"/>
            <path class="cls-2" d="M748.29,172.45c1.07,2.58,3.88,3.39,8.14,2.73a3.65,3.65,0,0,0,3-2.94c1-5.47,1-9.8-2.33-10.41-4.06.26-7.4,2.15-8.94,8.14A4,4,0,0,0,748.29,172.45Z"/>
            <path class="cls-2" d="M763.52,229.09c1.91,4.64,7,6.1,14.66,4.92a6.56,6.56,0,0,0,5.39-5.31c1.85-9.86,1.83-17.65-4.21-18.76-7.3.48-13.33,3.88-16.11,14.67A7.16,7.16,0,0,0,763.52,229.09Z"/>
            <path class="cls-2" d="M631.52,222.09c1.91,4.64,7,6.1,14.66,4.92a6.56,6.56,0,0,0,5.39-5.31c1.85-9.86,1.83-17.65-4.21-18.76-7.3.48-13.33,3.88-16.11,14.67A7.16,7.16,0,0,0,631.52,222.09Z"/>
            <path class="cls-2" d="M690.29,222.77c1.07-2.57,3.88-3.38,8.14-2.73a3.65,3.65,0,0,1,3,3c1,5.47,1,9.79-2.33,10.41-4.06-.27-7.4-2.15-8.94-8.14A4,4,0,0,1,690.29,222.77Z"/>
            <path class="cls-2" d="M594.53,138.83c1.86-4.5,6.78-5.91,14.21-4.77A6.37,6.37,0,0,1,614,139.2c1.79,9.57,1.77,17.12-4.09,18.2-7.08-.47-12.92-3.76-15.62-14.22A7,7,0,0,1,594.53,138.83Z"/>
            <path class="cls-2" d="M862.74,218.45c-1.06,2.58-3.88,3.39-8.13,2.73a3.65,3.65,0,0,1-3-2.94c-1-5.47-1-9.8,2.34-10.41,4,.26,7.39,2.15,8.94,8.14A4,4,0,0,1,862.74,218.45Z"/>
            <path class="cls-2" d="M991.8,174c-4.88,3.28-7.77,1.39-8.72-5.54a1.84,1.84,0,0,1,1.18-2c5.88-2,8.09.68,8.29,6A1.78,1.78,0,0,1,991.8,174Z"/>
            <path class="cls-2" d="M996.06,110.46c-.68,6.53-7.16,9.76-10.85,6.83a1.33,1.33,0,0,1-.45-1c.09-7.22,4.32-8.45,10.25-7.21A1.34,1.34,0,0,1,996.06,110.46Z"/>
            <path class="cls-2" d="M914.06,113.46c-.68,6.53-7.16,9.76-10.85,6.83a1.33,1.33,0,0,1-.45-1c.09-7.22,4.32-8.45,10.25-7.21A1.34,1.34,0,0,1,914.06,113.46Z"/>
            <path class="cls-2" d="M963.05,215.41c-1.09-10.53-11.53-15.73-17.49-11a2.16,2.16,0,0,0-.72,1.63c.15,11.64,7,13.63,16.52,11.62A2.13,2.13,0,0,0,963.05,215.41Z"/>
            <path class="cls-2" d="M959.05,142.41c-1.09-10.53-11.53-15.73-17.49-11a2.16,2.16,0,0,0-.72,1.63c.15,11.64,7,13.63,16.52,11.62A2.13,2.13,0,0,0,959.05,142.41Z"/>
            <path class="cls-2" d="M818.05,180.41c-1.09-10.53-11.53-15.73-17.49-11a2.16,2.16,0,0,0-.72,1.63c.15,11.64,7,13.63,16.52,11.62A2.13,2.13,0,0,0,818.05,180.41Z"/>
            <path class="cls-2" d="M660.06,112.46c-.68,6.53-7.16,9.76-10.85,6.83a1.33,1.33,0,0,1-.45-1c.09-7.22,4.32-8.45,10.25-7.21A1.34,1.34,0,0,1,660.06,112.46Z"/>
            <path class="cls-2" d="M756.56,119c-.68,6.53-7.16,9.76-10.85,6.83a1.33,1.33,0,0,1-.45-1c.09-7.22,4.32-8.45,10.25-7.21A1.34,1.34,0,0,1,756.56,119Z"/>
            <path class="cls-2" d="M703.56,192c-.68,6.53-7.16,9.76-10.85,6.83a1.33,1.33,0,0,1-.45-1c.09-7.22,4.32-8.45,10.25-7.21A1.34,1.34,0,0,1,703.56,192Z"/>
            <path class="cls-2" d="M853.05,112.87c-1.58,15.17-16.63,22.68-25.21,15.87a3,3,0,0,1-1-2.35c.21-16.79,10-19.65,23.81-16.76A3.1,3.1,0,0,1,853.05,112.87Z"/>
            <path class="cls-2" d="M724.05,142.87c-1.58,15.17-16.63,22.68-25.21,15.87a3,3,0,0,1-1-2.35c.21-16.79,10-19.65,23.81-16.76A3.1,3.1,0,0,1,724.05,142.87Z"/>
          </g>
          <g id="secondRockGroup">
            <g id="undergroundRocks">
              <path class="cls-3" d="M112.37,373.45c1.06,2.58,3.87,3.39,8.13,2.73a3.66,3.66,0,0,0,3-2.94c1-5.47,1-9.8-2.34-10.41-4.06.26-7.4,2.15-8.94,8.14A3.91,3.91,0,0,0,112.37,373.45Z"/>
              <path class="cls-3" d="M272.81,373.45c-1.06,2.58-3.87,3.39-8.13,2.73a3.65,3.65,0,0,1-3-2.94c-1-5.47-1-9.8,2.34-10.41,4.06.26,7.4,2.15,8.94,8.14A3.91,3.91,0,0,1,272.81,373.45Z"/>
              <path class="cls-3" d="M272.59,423.09c-1.92,4.64-7,6.1-14.66,4.92a6.58,6.58,0,0,1-5.4-5.31c-1.84-9.86-1.82-17.65,4.21-18.76,7.31.48,13.33,3.88,16.11,14.67A7.16,7.16,0,0,1,272.59,423.09Z"/>
              <path class="cls-3" d="M389.59,423.09c-1.92,4.64-7,6.1-14.66,4.92a6.58,6.58,0,0,1-5.4-5.31c-1.84-9.86-1.82-17.65,4.21-18.76,7.31.48,13.33,3.88,16.11,14.67A7.16,7.16,0,0,1,389.59,423.09Z"/>
              <path class="cls-3" d="M330.81,423.77c-1.06-2.57-3.87-3.38-8.13-2.73a3.65,3.65,0,0,0-3,2.95c-1,5.47-1,9.79,2.34,10.41,4.06-.27,7.4-2.15,8.94-8.14A3.93,3.93,0,0,0,330.81,423.77Z"/>
              <path class="cls-3" d="M426.58,339.83c-1.86-4.5-6.78-5.91-14.22-4.77a6.37,6.37,0,0,0-5.23,5.14c-1.79,9.57-1.77,17.12,4.08,18.2,7.09-.47,12.93-3.76,15.62-14.22A7,7,0,0,0,426.58,339.83Z"/>
              <path class="cls-3" d="M158.37,419.45c1.06,2.58,3.87,3.39,8.13,2.73a3.66,3.66,0,0,0,3-2.94c1-5.47,1-9.8-2.34-10.41-4.06.26-7.4,2.15-8.94,8.14A3.91,3.91,0,0,0,158.37,419.45Z"/>
              <path class="cls-3" d="M29.31,375c4.87,3.28,7.76,1.39,8.71-5.54a1.82,1.82,0,0,0-1.18-2c-5.88-2.05-8.08.68-8.28,6A1.75,1.75,0,0,0,29.31,375Z"/>
              <path class="cls-3" d="M25.05,311.46c.68,6.53,7.16,9.76,10.85,6.83a1.33,1.33,0,0,0,.45-1c-.1-7.22-4.32-8.45-10.25-7.21A1.33,1.33,0,0,0,25.05,311.46Z"/>
              <path class="cls-3" d="M59.05,277.46c.68,6.53,7.16,9.76,10.85,6.83a1.33,1.33,0,0,0,.45-1c-.1-7.22-4.32-8.45-10.25-7.21A1.33,1.33,0,0,0,59.05,277.46Z"/>
              <path class="cls-3" d="M58.05,416.41c1.1-10.53,11.54-15.73,17.49-11a2.09,2.09,0,0,1,.72,1.63c-.14,11.64-7,13.63-16.51,11.62A2.14,2.14,0,0,1,58.05,416.41Z"/>
              <path class="cls-3" d="M62.05,343.41c1.1-10.53,11.54-15.73,17.49-11a2.09,2.09,0,0,1,.72,1.63c-.14,11.64-7,13.63-16.51,11.62A2.14,2.14,0,0,1,62.05,343.41Z"/>
              <path class="cls-3" d="M203.05,381.41c1.1-10.53,11.54-15.73,17.49-11a2.09,2.09,0,0,1,.72,1.63c-.14,11.64-6.95,13.63-16.51,11.62A2.14,2.14,0,0,1,203.05,381.41Z"/>
              <path class="cls-3" d="M332.05,311.46c.68,6.53,7.16,9.76,10.85,6.83a1.33,1.33,0,0,0,.45-1c-.1-7.22-4.32-8.45-10.25-7.21A1.33,1.33,0,0,0,332.05,311.46Z"/>
              <path class="cls-3" d="M264.55,320c.68,6.53,7.16,9.76,10.85,6.83a1.33,1.33,0,0,0,.45-1c-.1-7.22-4.32-8.45-10.25-7.21A1.33,1.33,0,0,0,264.55,320Z"/>
              <path class="cls-3" d="M317.55,393c.68,6.53,7.16,9.76,10.85,6.83a1.33,1.33,0,0,0,.45-1c-.1-7.22-4.32-8.45-10.25-7.21A1.33,1.33,0,0,0,317.55,393Z"/>
              <path class="cls-3" d="M168.06,313.87c1.58,15.17,16.63,22.68,25.21,15.87a3.07,3.07,0,0,0,1-2.35c-.22-16.79-10-19.65-23.81-16.76A3.1,3.1,0,0,0,168.06,313.87Z"/>
              <path class="cls-3" d="M297.06,343.87c1.58,15.17,16.63,22.68,25.21,15.87a3.07,3.07,0,0,0,1-2.35c-.22-16.79-10-19.65-23.81-16.76A3.1,3.1,0,0,0,297.06,343.87Z"/>
            </g>
            <g>
              <path class="cls-3" d="M908.74,373.45c-1.06,2.58-3.88,3.39-8.13,2.73a3.65,3.65,0,0,1-3-2.94c-1-5.47-1-9.8,2.34-10.41,4,.26,7.39,2.15,8.94,8.14A4,4,0,0,1,908.74,373.45Z"/>
              <path class="cls-3" d="M748.29,373.45c1.07,2.58,3.88,3.39,8.14,2.73a3.65,3.65,0,0,0,3-2.94c1-5.47,1-9.8-2.33-10.41-4.06.26-7.4,2.15-8.94,8.14A4,4,0,0,0,748.29,373.45Z"/>
              <path class="cls-3" d="M763.52,430.09c1.91,4.64,7,6.1,14.66,4.92a6.56,6.56,0,0,0,5.39-5.31c1.85-9.86,1.83-17.65-4.21-18.76-7.3.48-13.33,3.88-16.11,14.67A7.16,7.16,0,0,0,763.52,430.09Z"/>
              <path class="cls-3" d="M631.52,423.09c1.91,4.64,7,6.1,14.66,4.92a6.56,6.56,0,0,0,5.39-5.31c1.85-9.86,1.83-17.65-4.21-18.76-7.3.48-13.33,3.88-16.11,14.67A7.16,7.16,0,0,0,631.52,423.09Z"/>
              <path class="cls-3" d="M690.29,423.77c1.07-2.57,3.88-3.38,8.14-2.73a3.65,3.65,0,0,1,3,2.95c1,5.47,1,9.79-2.33,10.41-4.06-.27-7.4-2.15-8.94-8.14A4,4,0,0,1,690.29,423.77Z"/>
              <path class="cls-3" d="M594.53,339.83c1.86-4.5,6.78-5.91,14.21-4.77A6.37,6.37,0,0,1,614,340.2c1.79,9.57,1.77,17.12-4.09,18.2-7.08-.47-12.92-3.76-15.62-14.22A7,7,0,0,1,594.53,339.83Z"/>
              <path class="cls-3" d="M862.74,419.45c-1.06,2.58-3.88,3.39-8.13,2.73a3.65,3.65,0,0,1-3-2.94c-1-5.47-1-9.8,2.34-10.41,4,.26,7.39,2.15,8.94,8.14A4,4,0,0,1,862.74,419.45Z"/>
              <path class="cls-3" d="M991.8,375c-4.88,3.28-7.77,1.39-8.72-5.54a1.84,1.84,0,0,1,1.18-2c5.88-2.05,8.09.68,8.29,6A1.78,1.78,0,0,1,991.8,375Z"/>
              <path class="cls-3" d="M996.06,311.46c-.68,6.53-7.16,9.76-10.85,6.83a1.33,1.33,0,0,1-.45-1c.09-7.22,4.32-8.45,10.25-7.21A1.34,1.34,0,0,1,996.06,311.46Z"/>
              <path class="cls-3" d="M914.06,314.46c-.68,6.53-7.16,9.76-10.85,6.83a1.33,1.33,0,0,1-.45-1c.09-7.22,4.32-8.45,10.25-7.21A1.34,1.34,0,0,1,914.06,314.46Z"/>
              <path class="cls-3" d="M963.05,416.41c-1.09-10.53-11.53-15.73-17.49-11a2.16,2.16,0,0,0-.72,1.63c.15,11.64,7,13.63,16.52,11.62A2.13,2.13,0,0,0,963.05,416.41Z"/>
              <path class="cls-3" d="M959.05,343.41c-1.09-10.53-11.53-15.73-17.49-11a2.16,2.16,0,0,0-.72,1.63c.15,11.64,7,13.63,16.52,11.62A2.13,2.13,0,0,0,959.05,343.41Z"/>
              <path class="cls-3" d="M818.05,381.41c-1.09-10.53-11.53-15.73-17.49-11a2.16,2.16,0,0,0-.72,1.63c.15,11.64,7,13.63,16.52,11.62A2.13,2.13,0,0,0,818.05,381.41Z"/>
              <path class="cls-3" d="M660.06,313.46c-.68,6.53-7.16,9.76-10.85,6.83a1.33,1.33,0,0,1-.45-1c.09-7.22,4.32-8.45,10.25-7.21A1.34,1.34,0,0,1,660.06,313.46Z"/>
              <path class="cls-3" d="M756.56,320c-.68,6.53-7.16,9.76-10.85,6.83a1.33,1.33,0,0,1-.45-1c.09-7.22,4.32-8.45,10.25-7.21A1.34,1.34,0,0,1,756.56,320Z"/>
              <path class="cls-3" d="M703.56,393c-.68,6.53-7.16,9.76-10.85,6.83a1.33,1.33,0,0,1-.45-1c.09-7.22,4.32-8.45,10.25-7.21A1.34,1.34,0,0,1,703.56,393Z"/>
              <path class="cls-3" d="M853.05,313.87c-1.58,15.17-16.63,22.68-25.21,15.87a3,3,0,0,1-1-2.35c.21-16.79,10-19.65,23.81-16.76A3.1,3.1,0,0,1,853.05,313.87Z"/>
              <path class="cls-3" d="M724.05,343.87c-1.58,15.17-16.63,22.68-25.21,15.87a3,3,0,0,1-1-2.35c.21-16.79,10-19.65,23.81-16.76A3.1,3.1,0,0,1,724.05,343.87Z"/>
            </g>
          </g>
        </g>
      </g>
    </g>
  </g>
</svg>
