<svg xmlns="http://www.w3.org/2000/svg" viewBox="0 0 1024 515.95">
  <defs>
    <style>
      .cls-1 {
        fill: #4b3929;
      }

      .cls-2 {
        fill: #423124;
      }

      .cls-3 {
        fill: #392a1f;
      }
    </style>
  </defs>
  <title>Asset 15</title>
  <g id="Layer_2" data-name="Layer 2">
    <g id="background">
      <g id="layeredSoil">
        <g id="soil3">
          <path class="cls-1" d="M1023,3c-51.76-4.21-98.63-5.7-118,8-44,21.27-82.45,27.78-114,16-54.52-13.2-98.12-12.78-135-4-39.31,18.55-73.27,18-104,6C487.94,10.49,438.76,6.64,405,18c-95.16-24.07-111.81-7.17-140,8-36.22,7.39-66.74,15-89.52,5.61-14.62-6-30.55-8.37-46.13-5.68-15.8,2.72-26.69.75-35.66-3.06a106.35,106.35,0,0,0-44.38-8.14L0,16,1,516H1024Z"/>
          <path class="cls-1" d="M116.55,86.75c1.1-10.53,11.54-15.74,17.49-11a2.09,2.09,0,0,1,.72,1.63C134.62,89,127.81,91,118.25,89A2.14,2.14,0,0,1,116.55,86.75Z"/>
          <path class="cls-1" d="M206.56,68.21c1.58,15.17,16.63,22.68,25.21,15.87a3.07,3.07,0,0,0,1-2.35c-.22-16.79-10-19.65-23.81-16.76A3.1,3.1,0,0,0,206.56,68.21Z"/>
          <g id="secondRockGroup">
            <g id="undergroundRocks">
              <path class="cls-2" d="M114.37,191.29c1.06,2.58,3.87,3.38,8.13,2.73a3.66,3.66,0,0,0,3-2.94c1-5.47,1-9.8-2.34-10.41-4.06.26-7.4,2.15-8.94,8.13A3.93,3.93,0,0,0,114.37,191.29Z"/>
              <path class="cls-2" d="M274.81,191.29c-1.06,2.58-3.87,3.38-8.13,2.73a3.65,3.65,0,0,1-3-2.94c-1-5.47-1-9.8,2.34-10.41,4.06.26,7.4,2.15,8.94,8.13A3.93,3.93,0,0,1,274.81,191.29Z"/>
              <path class="cls-2" d="M274.59,240.93c-1.92,4.64-7,6.1-14.66,4.92a6.58,6.58,0,0,1-5.4-5.31c-1.84-9.86-1.82-17.65,4.21-18.76,7.31.48,13.33,3.88,16.11,14.67A7.16,7.16,0,0,1,274.59,240.93Z"/>
              <path class="cls-2" d="M391.59,240.93c-1.92,4.64-7,6.1-14.66,4.92a6.58,6.58,0,0,1-5.4-5.31c-1.84-9.86-1.82-17.65,4.21-18.76,7.31.48,13.33,3.88,16.11,14.67A7.16,7.16,0,0,1,391.59,240.93Z"/>
              <path class="cls-2" d="M332.81,241.61c-1.06-2.57-3.87-3.38-8.13-2.73a3.65,3.65,0,0,0-3,2.94c-1,5.48-1,9.8,2.34,10.42,4.06-.27,7.4-2.16,8.94-8.14A3.93,3.93,0,0,0,332.81,241.61Z"/>
              <path class="cls-2" d="M428.58,157.67c-1.86-4.5-6.78-5.91-14.22-4.77a6.37,6.37,0,0,0-5.23,5.14c-1.79,9.56-1.77,17.12,4.08,18.2,7.09-.47,12.93-3.76,15.62-14.22A7,7,0,0,0,428.58,157.67Z"/>
              <path class="cls-2" d="M160.37,237.29c1.06,2.58,3.87,3.38,8.13,2.73a3.66,3.66,0,0,0,3-2.94c1-5.47,1-9.8-2.34-10.41-4.06.26-7.4,2.15-8.94,8.13A3.93,3.93,0,0,0,160.37,237.29Z"/>
              <path class="cls-2" d="M31.31,192.85c4.87,3.28,7.76,1.39,8.71-5.54a1.82,1.82,0,0,0-1.18-2c-5.88-2-8.08.68-8.28,6A1.78,1.78,0,0,0,31.31,192.85Z"/>
              <path class="cls-2" d="M27.05,129.3c.68,6.53,7.16,9.76,10.85,6.83a1.33,1.33,0,0,0,.45-1c-.1-7.22-4.32-8.46-10.25-7.21A1.33,1.33,0,0,0,27.05,129.3Z"/>
              <path class="cls-2" d="M61.05,95.3c.68,6.53,7.16,9.76,10.85,6.83a1.33,1.33,0,0,0,.45-1c-.1-7.22-4.32-8.46-10.25-7.21A1.33,1.33,0,0,0,61.05,95.3Z"/>
              <path class="cls-2" d="M60.05,234.25c1.1-10.53,11.54-15.74,17.49-11a2.09,2.09,0,0,1,.72,1.63c-.14,11.64-7,13.63-16.51,11.62A2.14,2.14,0,0,1,60.05,234.25Z"/>
              <path class="cls-2" d="M64.05,161.25c1.1-10.53,11.54-15.74,17.49-11a2.09,2.09,0,0,1,.72,1.63c-.14,11.64-7,13.63-16.51,11.62A2.14,2.14,0,0,1,64.05,161.25Z"/>
              <path class="cls-2" d="M205.05,199.25c1.1-10.53,11.54-15.74,17.49-11a2.09,2.09,0,0,1,.72,1.63c-.14,11.64-6.95,13.63-16.51,11.62A2.14,2.14,0,0,1,205.05,199.25Z"/>
              <path class="cls-2" d="M334.05,129.3c.68,6.53,7.16,9.76,10.85,6.83a1.33,1.33,0,0,0,.45-1c-.1-7.22-4.32-8.46-10.25-7.21A1.33,1.33,0,0,0,334.05,129.3Z"/>
              <path class="cls-2" d="M266.55,137.8c.68,6.53,7.16,9.76,10.85,6.83a1.33,1.33,0,0,0,.45-1c-.1-7.22-4.32-8.46-10.25-7.21A1.33,1.33,0,0,0,266.55,137.8Z"/>
              <path class="cls-2" d="M319.55,210.8c.68,6.53,7.16,9.76,10.85,6.83a1.33,1.33,0,0,0,.45-1c-.1-7.22-4.32-8.46-10.25-7.21A1.33,1.33,0,0,0,319.55,210.8Z"/>
              <path class="cls-2" d="M170.06,131.71c1.58,15.17,16.63,22.68,25.21,15.87a3.07,3.07,0,0,0,1-2.35c-.22-16.79-10-19.65-23.81-16.76A3.1,3.1,0,0,0,170.06,131.71Z"/>
              <path class="cls-2" d="M299.06,161.71c1.58,15.17,16.63,22.68,25.21,15.87a3.07,3.07,0,0,0,1-2.35c-.22-16.79-10-19.65-23.81-16.76A3.1,3.1,0,0,0,299.06,161.71Z"/>
            </g>
            <g>
              <path class="cls-2" d="M910.74,191.29c-1.06,2.58-3.88,3.38-8.13,2.73a3.65,3.65,0,0,1-3-2.94c-1-5.47-1-9.8,2.34-10.41,4,.26,7.39,2.15,8.94,8.13A4,4,0,0,1,910.74,191.29Z"/>
              <path class="cls-2" d="M750.29,191.29c1.07,2.58,3.88,3.38,8.14,2.73a3.65,3.65,0,0,0,3-2.94c1-5.47,1-9.8-2.33-10.41-4.06.26-7.4,2.15-8.94,8.13A4,4,0,0,0,750.29,191.29Z"/>
              <path class="cls-2" d="M765.52,247.93c1.91,4.64,7,6.1,14.66,4.92a6.56,6.56,0,0,0,5.39-5.31c1.85-9.86,1.83-17.65-4.21-18.76-7.3.48-13.33,3.88-16.11,14.67A7.16,7.16,0,0,0,765.52,247.93Z"/>
              <path class="cls-2" d="M633.52,240.93c1.91,4.64,7,6.1,14.66,4.92a6.56,6.56,0,0,0,5.39-5.31c1.85-9.86,1.83-17.65-4.21-18.76-7.3.48-13.33,3.88-16.11,14.67A7.16,7.16,0,0,0,633.52,240.93Z"/>
              <path class="cls-2" d="M692.29,241.61c1.07-2.57,3.88-3.38,8.14-2.73a3.65,3.65,0,0,1,3,2.94c1,5.48,1,9.8-2.33,10.42-4.06-.27-7.4-2.16-8.94-8.14A4,4,0,0,1,692.29,241.61Z"/>
              <path class="cls-2" d="M596.53,157.67c1.86-4.5,6.78-5.91,14.21-4.77A6.37,6.37,0,0,1,616,158c1.79,9.56,1.77,17.12-4.09,18.2-7.08-.47-12.92-3.76-15.62-14.22A7,7,0,0,1,596.53,157.67Z"/>
              <path class="cls-2" d="M864.74,237.29c-1.06,2.58-3.88,3.38-8.13,2.73a3.65,3.65,0,0,1-3-2.94c-1-5.47-1-9.8,2.34-10.41,4,.26,7.39,2.15,8.94,8.13A4,4,0,0,1,864.74,237.29Z"/>
              <path class="cls-2" d="M993.8,192.85c-4.88,3.28-7.77,1.39-8.72-5.54a1.84,1.84,0,0,1,1.18-2c5.88-2,8.09.68,8.29,6A1.8,1.8,0,0,1,993.8,192.85Z"/>
              <path class="cls-2" d="M998.06,129.3c-.68,6.53-7.16,9.76-10.85,6.83a1.33,1.33,0,0,1-.45-1c.09-7.22,4.32-8.46,10.25-7.21A1.34,1.34,0,0,1,998.06,129.3Z"/>
              <path class="cls-2" d="M916.06,132.3c-.68,6.53-7.16,9.76-10.85,6.83a1.33,1.33,0,0,1-.45-1c.09-7.22,4.32-8.46,10.25-7.21A1.34,1.34,0,0,1,916.06,132.3Z"/>
              <path class="cls-2" d="M965.05,234.25c-1.09-10.53-11.53-15.74-17.49-11a2.16,2.16,0,0,0-.72,1.63c.15,11.64,7,13.63,16.52,11.62A2.13,2.13,0,0,0,965.05,234.25Z"/>
              <path class="cls-2" d="M961.05,161.25c-1.09-10.53-11.53-15.74-17.49-11a2.16,2.16,0,0,0-.72,1.63c.15,11.64,7,13.63,16.52,11.62A2.13,2.13,0,0,0,961.05,161.25Z"/>
              <path class="cls-2" d="M820.05,199.25c-1.09-10.53-11.53-15.74-17.49-11a2.16,2.16,0,0,0-.72,1.63c.15,11.64,7,13.63,16.52,11.62A2.13,2.13,0,0,0,820.05,199.25Z"/>
              <path class="cls-2" d="M662.06,131.3c-.68,6.53-7.16,9.76-10.85,6.83a1.33,1.33,0,0,1-.45-1c.09-7.22,4.32-8.46,10.25-7.21A1.34,1.34,0,0,1,662.06,131.3Z"/>
              <path class="cls-2" d="M758.56,137.8c-.68,6.53-7.16,9.76-10.85,6.83a1.33,1.33,0,0,1-.45-1c.09-7.22,4.32-8.46,10.25-7.21A1.34,1.34,0,0,1,758.56,137.8Z"/>
              <path class="cls-2" d="M705.56,210.8c-.68,6.53-7.16,9.76-10.85,6.83a1.33,1.33,0,0,1-.45-1c.09-7.22,4.32-8.46,10.25-7.21A1.34,1.34,0,0,1,705.56,210.8Z"/>
              <path class="cls-2" d="M855.05,131.71c-1.58,15.17-16.63,22.68-25.21,15.87a3,3,0,0,1-1-2.35c.21-16.79,10-19.65,23.81-16.76A3.1,3.1,0,0,1,855.05,131.71Z"/>
              <path class="cls-2" d="M726.05,161.71c-1.58,15.17-16.63,22.68-25.21,15.87a3,3,0,0,1-1-2.35c.21-16.79,10-19.65,23.81-16.76A3.1,3.1,0,0,1,726.05,161.71Z"/>
            </g>
          </g>
          <g id="secondRockGroup-2" data-name="secondRockGroup">
            <g id="undergroundRocks-2" data-name="undergroundRocks">
              <path class="cls-3" d="M114.37,377.29c1.06,2.58,3.87,3.38,8.13,2.73a3.66,3.66,0,0,0,3-2.94c1-5.47,1-9.8-2.34-10.41-4.06.26-7.4,2.15-8.94,8.13A3.93,3.93,0,0,0,114.37,377.29Z"/>
              <path class="cls-3" d="M274.81,377.29c-1.06,2.58-3.87,3.38-8.13,2.73a3.65,3.65,0,0,1-3-2.94c-1-5.47-1-9.8,2.34-10.41,4.06.26,7.4,2.15,8.94,8.13A3.93,3.93,0,0,1,274.81,377.29Z"/>
              <path class="cls-3" d="M274.59,426.93c-1.92,4.64-7,6.1-14.66,4.92a6.58,6.58,0,0,1-5.4-5.31c-1.84-9.86-1.82-17.65,4.21-18.76,7.31.48,13.33,3.88,16.11,14.67A7.16,7.16,0,0,1,274.59,426.93Z"/>
              <path class="cls-3" d="M391.59,426.93c-1.92,4.64-7,6.1-14.66,4.92a6.58,6.58,0,0,1-5.4-5.31c-1.84-9.86-1.82-17.65,4.21-18.76,7.31.48,13.33,3.88,16.11,14.67A7.16,7.16,0,0,1,391.59,426.93Z"/>
              <path class="cls-3" d="M332.81,427.61c-1.06-2.57-3.87-3.38-8.13-2.73a3.65,3.65,0,0,0-3,2.94c-1,5.48-1,9.8,2.34,10.42,4.06-.27,7.4-2.16,8.94-8.14A3.93,3.93,0,0,0,332.81,427.61Z"/>
              <path class="cls-3" d="M428.58,343.67c-1.86-4.5-6.78-5.91-14.22-4.77a6.37,6.37,0,0,0-5.23,5.14c-1.79,9.56-1.77,17.12,4.08,18.2,7.09-.47,12.93-3.76,15.62-14.22A7,7,0,0,0,428.58,343.67Z"/>
              <path class="cls-3" d="M160.37,423.29c1.06,2.58,3.87,3.38,8.13,2.73a3.66,3.66,0,0,0,3-2.94c1-5.47,1-9.8-2.34-10.41-4.06.26-7.4,2.15-8.94,8.13A3.93,3.93,0,0,0,160.37,423.29Z"/>
              <path class="cls-3" d="M31.31,378.85c4.87,3.28,7.76,1.39,8.71-5.54a1.82,1.82,0,0,0-1.18-2c-5.88-2.05-8.08.68-8.28,6A1.78,1.78,0,0,0,31.31,378.85Z"/>
              <path class="cls-3" d="M27.05,315.3c.68,6.53,7.16,9.76,10.85,6.83a1.33,1.33,0,0,0,.45-1c-.1-7.22-4.32-8.46-10.25-7.21A1.33,1.33,0,0,0,27.05,315.3Z"/>
              <path class="cls-3" d="M61.05,281.3c.68,6.53,7.16,9.76,10.85,6.83a1.33,1.33,0,0,0,.45-1c-.1-7.22-4.32-8.46-10.25-7.21A1.33,1.33,0,0,0,61.05,281.3Z"/>
              <path class="cls-3" d="M60.05,420.25c1.1-10.53,11.54-15.74,17.49-11a2.09,2.09,0,0,1,.72,1.63c-.14,11.64-7,13.63-16.51,11.62A2.14,2.14,0,0,1,60.05,420.25Z"/>
              <path class="cls-3" d="M64.05,347.25c1.1-10.53,11.54-15.74,17.49-11a2.09,2.09,0,0,1,.72,1.63c-.14,11.64-7,13.63-16.51,11.62A2.14,2.14,0,0,1,64.05,347.25Z"/>
              <path class="cls-3" d="M205.05,385.25c1.1-10.53,11.54-15.74,17.49-11a2.09,2.09,0,0,1,.72,1.63c-.14,11.64-6.95,13.63-16.51,11.62A2.14,2.14,0,0,1,205.05,385.25Z"/>
              <path class="cls-3" d="M334.05,315.3c.68,6.53,7.16,9.76,10.85,6.83a1.33,1.33,0,0,0,.45-1c-.1-7.22-4.32-8.46-10.25-7.21A1.33,1.33,0,0,0,334.05,315.3Z"/>
              <path class="cls-3" d="M266.55,323.8c.68,6.53,7.16,9.76,10.85,6.83a1.33,1.33,0,0,0,.45-1c-.1-7.22-4.32-8.46-10.25-7.21A1.33,1.33,0,0,0,266.55,323.8Z"/>
              <path class="cls-3" d="M319.55,396.8c.68,6.53,7.16,9.76,10.85,6.83a1.33,1.33,0,0,0,.45-1c-.1-7.22-4.32-8.46-10.25-7.21A1.33,1.33,0,0,0,319.55,396.8Z"/>
              <path class="cls-3" d="M170.06,317.71c1.58,15.17,16.63,22.68,25.21,15.87a3.07,3.07,0,0,0,1-2.35c-.22-16.79-10-19.65-23.81-16.76A3.1,3.1,0,0,0,170.06,317.71Z"/>
              <path class="cls-3" d="M299.06,347.71c1.58,15.17,16.63,22.68,25.21,15.87a3.07,3.07,0,0,0,1-2.35c-.22-16.79-10-19.65-23.81-16.76A3.1,3.1,0,0,0,299.06,347.71Z"/>
            </g>
            <g>
              <path class="cls-3" d="M910.74,377.29c-1.06,2.58-3.88,3.38-8.13,2.73a3.65,3.65,0,0,1-3-2.94c-1-5.47-1-9.8,2.34-10.41,4,.26,7.39,2.15,8.94,8.13A4,4,0,0,1,910.74,377.29Z"/>
              <path class="cls-3" d="M750.29,377.29c1.07,2.58,3.88,3.38,8.14,2.73a3.65,3.65,0,0,0,3-2.94c1-5.47,1-9.8-2.33-10.41-4.06.26-7.4,2.15-8.94,8.13A4,4,0,0,0,750.29,377.29Z"/>
              <path class="cls-3" d="M765.52,433.93c1.91,4.64,7,6.1,14.66,4.92a6.56,6.56,0,0,0,5.39-5.31c1.85-9.86,1.83-17.65-4.21-18.76-7.3.48-13.33,3.88-16.11,14.67A7.16,7.16,0,0,0,765.52,433.93Z"/>
              <path class="cls-3" d="M633.52,426.93c1.91,4.64,7,6.1,14.66,4.92a6.56,6.56,0,0,0,5.39-5.31c1.85-9.86,1.83-17.65-4.21-18.76-7.3.48-13.33,3.88-16.11,14.67A7.16,7.16,0,0,0,633.52,426.93Z"/>
              <path class="cls-3" d="M692.29,427.61c1.07-2.57,3.88-3.38,8.14-2.73a3.65,3.65,0,0,1,3,2.94c1,5.48,1,9.8-2.33,10.42-4.06-.27-7.4-2.16-8.94-8.14A4,4,0,0,1,692.29,427.61Z"/>
              <path class="cls-3" d="M596.53,343.67c1.86-4.5,6.78-5.91,14.21-4.77A6.37,6.37,0,0,1,616,344c1.79,9.56,1.77,17.12-4.09,18.2-7.08-.47-12.92-3.76-15.62-14.22A7,7,0,0,1,596.53,343.67Z"/>
              <path class="cls-3" d="M864.74,423.29c-1.06,2.58-3.88,3.38-8.13,2.73a3.65,3.65,0,0,1-3-2.94c-1-5.47-1-9.8,2.34-10.41,4,.26,7.39,2.15,8.94,8.13A4,4,0,0,1,864.74,423.29Z"/>
              <path class="cls-3" d="M993.8,378.85c-4.88,3.28-7.77,1.39-8.72-5.54a1.84,1.84,0,0,1,1.18-2c5.88-2.05,8.09.68,8.29,6A1.8,1.8,0,0,1,993.8,378.85Z"/>
              <path class="cls-3" d="M998.06,315.3c-.68,6.53-7.16,9.76-10.85,6.83a1.33,1.33,0,0,1-.45-1c.09-7.22,4.32-8.46,10.25-7.21A1.34,1.34,0,0,1,998.06,315.3Z"/>
              <path class="cls-3" d="M916.06,318.3c-.68,6.53-7.16,9.76-10.85,6.83a1.33,1.33,0,0,1-.45-1c.09-7.22,4.32-8.46,10.25-7.21A1.34,1.34,0,0,1,916.06,318.3Z"/>
              <path class="cls-3" d="M965.05,420.25c-1.09-10.53-11.53-15.74-17.49-11a2.16,2.16,0,0,0-.72,1.63c.15,11.64,7,13.63,16.52,11.62A2.13,2.13,0,0,0,965.05,420.25Z"/>
              <path class="cls-3" d="M961.05,347.25c-1.09-10.53-11.53-15.74-17.49-11a2.16,2.16,0,0,0-.72,1.63c.15,11.64,7,13.63,16.52,11.62A2.13,2.13,0,0,0,961.05,347.25Z"/>
              <path class="cls-3" d="M820.05,385.25c-1.09-10.53-11.53-15.74-17.49-11a2.16,2.16,0,0,0-.72,1.63c.15,11.64,7,13.63,16.52,11.62A2.13,2.13,0,0,0,820.05,385.25Z"/>
              <path class="cls-3" d="M662.06,317.3c-.68,6.53-7.16,9.76-10.85,6.83a1.33,1.33,0,0,1-.45-1c.09-7.22,4.32-8.46,10.25-7.21A1.34,1.34,0,0,1,662.06,317.3Z"/>
              <path class="cls-3" d="M758.56,323.8c-.68,6.53-7.16,9.76-10.85,6.83a1.33,1.33,0,0,1-.45-1c.09-7.22,4.32-8.46,10.25-7.21A1.34,1.34,0,0,1,758.56,323.8Z"/>
              <path class="cls-3" d="M705.56,396.8c-.68,6.53-7.16,9.76-10.85,6.83a1.33,1.33,0,0,1-.45-1c.09-7.22,4.32-8.46,10.25-7.21A1.34,1.34,0,0,1,705.56,396.8Z"/>
              <path class="cls-3" d="M855.05,317.71c-1.58,15.17-16.63,22.68-25.21,15.87a3,3,0,0,1-1-2.35c.21-16.79,10-19.65,23.81-16.76A3.1,3.1,0,0,1,855.05,317.71Z"/>
              <path class="cls-3" d="M726.05,347.71c-1.58,15.17-16.63,22.68-25.21,15.87a3,3,0,0,1-1-2.35c.21-16.79,10-19.65,23.81-16.76A3.1,3.1,0,0,1,726.05,347.71Z"/>
            </g>
          </g>
        </g>
      </g>
    </g>
  </g>
</svg>
