<svg xmlns="http://www.w3.org/2000/svg" viewBox="0 0 1024 451.95">
  <defs>
    <style>
      .cls-1 {
        fill: #2f231a;
      }

      .cls-2 {
        fill: #1c160f;
      }
    </style>
  </defs>
  <title>Asset 18</title>
  <g id="Layer_2" data-name="Layer 2">
    <g id="background">
      <g id="layeredSoil">
        <g id="soil6">
          <path class="cls-1" d="M1023,2.58c-51.76-3.68-98.63-5-118,7-44,18.63-82.45,24.34-114,14-54.52-11.55-98.12-11.19-135-3.5-39.31,16.25-73.27,15.79-104,5.26C487.94,9.19,438.76,5.82,405,15.72c-95.16-21.08-111.81-6.28-140,7-36.22,6.47-66.74,13.12-89.52,4.92a94.77,94.77,0,0,0-46.13-5c-15.8,2.39-26.69.66-35.66-2.68a119.8,119.8,0,0,0-44.38-7.13L0,14,1,452H1024Z"/>
          <g id="secondRockGroup">
            <g id="undergroundRocks">
              <path class="cls-2" d="M114.37,159c1.06,2.57,3.87,3.38,8.13,2.73a3.66,3.66,0,0,0,3-2.95c1-5.47,1-9.79-2.34-10.41-4.06.27-7.4,2.16-8.94,8.14A3.93,3.93,0,0,0,114.37,159Z"/>
              <path class="cls-2" d="M274.81,159c-1.06,2.57-3.87,3.38-8.13,2.73a3.65,3.65,0,0,1-3-2.95c-1-5.47-1-9.79,2.34-10.41,4.06.27,7.4,2.16,8.94,8.14A3.93,3.93,0,0,1,274.81,159Z"/>
              <path class="cls-2" d="M274.59,208.63c-1.92,4.65-7,6.1-14.66,4.93a6.59,6.59,0,0,1-5.4-5.31c-1.84-9.86-1.82-17.66,4.21-18.77,7.31.48,13.33,3.89,16.11,14.67A7.16,7.16,0,0,1,274.59,208.63Z"/>
              <path class="cls-2" d="M391.59,208.63c-1.92,4.65-7,6.1-14.66,4.93a6.59,6.59,0,0,1-5.4-5.31c-1.84-9.86-1.82-17.66,4.21-18.77,7.31.48,13.33,3.89,16.11,14.67A7.16,7.16,0,0,1,391.59,208.63Z"/>
              <path class="cls-2" d="M332.81,209.32c-1.06-2.58-3.87-3.39-8.13-2.73a3.65,3.65,0,0,0-3,2.94c-1,5.47-1,9.8,2.34,10.41,4.06-.26,7.4-2.15,8.94-8.13A3.93,3.93,0,0,0,332.81,209.32Z"/>
              <path class="cls-2" d="M428.58,125.38c-1.86-4.5-6.78-5.92-14.22-4.78a6.39,6.39,0,0,0-5.23,5.15c-1.79,9.56-1.77,17.12,4.08,18.19,7.09-.46,12.93-3.76,15.62-14.22A6.93,6.93,0,0,0,428.58,125.38Z"/>
              <path class="cls-2" d="M160.37,205c1.06,2.57,3.87,3.38,8.13,2.73a3.66,3.66,0,0,0,3-2.95c1-5.47,1-9.79-2.34-10.41-4.06.27-7.4,2.16-8.94,8.14A3.93,3.93,0,0,0,160.37,205Z"/>
              <path class="cls-2" d="M31.31,160.55c4.87,3.29,7.76,1.4,8.71-5.54a1.83,1.83,0,0,0-1.18-2c-5.88-2-8.08.68-8.28,6A1.75,1.75,0,0,0,31.31,160.55Z"/>
              <path class="cls-2" d="M27.05,97c.68,6.53,7.16,9.76,10.85,6.83a1.33,1.33,0,0,0,.45-1c-.1-7.23-4.32-8.46-10.25-7.21A1.33,1.33,0,0,0,27.05,97Z"/>
              <path class="cls-2" d="M61.05,63c.68,6.53,7.16,9.76,10.85,6.83a1.33,1.33,0,0,0,.45-1c-.1-7.23-4.32-8.46-10.25-7.21A1.33,1.33,0,0,0,61.05,63Z"/>
              <path class="cls-2" d="M60.05,202c1.1-10.53,11.54-15.74,17.49-11a2.12,2.12,0,0,1,.72,1.63c-.14,11.65-7,13.64-16.51,11.63A2.15,2.15,0,0,1,60.05,202Z"/>
              <path class="cls-2" d="M64.05,129c1.1-10.53,11.54-15.74,17.49-11a2.12,2.12,0,0,1,.72,1.63c-.14,11.65-7,13.64-16.51,11.63A2.15,2.15,0,0,1,64.05,129Z"/>
              <path class="cls-2" d="M205.05,167c1.1-10.53,11.54-15.74,17.49-11a2.12,2.12,0,0,1,.72,1.63c-.14,11.65-6.95,13.64-16.51,11.63A2.15,2.15,0,0,1,205.05,167Z"/>
              <path class="cls-2" d="M334.05,97c.68,6.53,7.16,9.76,10.85,6.83a1.33,1.33,0,0,0,.45-1c-.1-7.23-4.32-8.46-10.25-7.21A1.33,1.33,0,0,0,334.05,97Z"/>
              <path class="cls-2" d="M266.55,105.51c.68,6.53,7.16,9.76,10.85,6.83a1.33,1.33,0,0,0,.45-1c-.1-7.23-4.32-8.46-10.25-7.21A1.33,1.33,0,0,0,266.55,105.51Z"/>
              <path class="cls-2" d="M319.55,178.51c.68,6.53,7.16,9.76,10.85,6.83a1.33,1.33,0,0,0,.45-1c-.1-7.23-4.32-8.46-10.25-7.21A1.33,1.33,0,0,0,319.55,178.51Z"/>
              <path class="cls-2" d="M170.06,99.41c1.58,15.18,16.63,22.69,25.21,15.88a3.07,3.07,0,0,0,1-2.35c-.22-16.79-10-19.65-23.81-16.76A3.09,3.09,0,0,0,170.06,99.41Z"/>
              <path class="cls-2" d="M299.06,129.41c1.58,15.18,16.63,22.69,25.21,15.88a3.07,3.07,0,0,0,1-2.35c-.22-16.79-10-19.65-23.81-16.76A3.09,3.09,0,0,0,299.06,129.41Z"/>
            </g>
            <g>
              <path class="cls-2" d="M910.74,159c-1.06,2.57-3.88,3.38-8.13,2.73a3.65,3.65,0,0,1-3-2.95c-1-5.47-1-9.79,2.34-10.41,4,.27,7.39,2.16,8.94,8.14A4,4,0,0,1,910.74,159Z"/>
              <path class="cls-2" d="M750.29,159c1.07,2.57,3.88,3.38,8.14,2.73a3.65,3.65,0,0,0,3-2.95c1-5.47,1-9.79-2.33-10.41-4.06.27-7.4,2.16-8.94,8.14A4,4,0,0,0,750.29,159Z"/>
              <path class="cls-2" d="M765.52,215.63c1.91,4.65,7,6.1,14.66,4.93a6.57,6.57,0,0,0,5.39-5.31c1.85-9.86,1.83-17.66-4.21-18.77-7.31.48-13.33,3.89-16.11,14.67A7.16,7.16,0,0,0,765.52,215.63Z"/>
              <path class="cls-2" d="M633.52,208.63c1.91,4.65,7,6.1,14.66,4.93a6.57,6.57,0,0,0,5.39-5.31c1.85-9.86,1.83-17.66-4.21-18.77-7.31.48-13.33,3.89-16.11,14.67A7.16,7.16,0,0,0,633.52,208.63Z"/>
              <path class="cls-2" d="M692.29,209.32c1.07-2.58,3.88-3.39,8.14-2.73a3.65,3.65,0,0,1,3,2.94c1,5.47,1,9.8-2.33,10.41-4.06-.26-7.4-2.15-8.94-8.13A4,4,0,0,1,692.29,209.32Z"/>
              <path class="cls-2" d="M596.53,125.38c1.86-4.5,6.77-5.92,14.21-4.78a6.39,6.39,0,0,1,5.24,5.15c1.78,9.56,1.77,17.12-4.09,18.19-7.08-.46-12.92-3.76-15.62-14.22A7,7,0,0,1,596.53,125.38Z"/>
              <path class="cls-2" d="M864.74,205c-1.06,2.57-3.88,3.38-8.13,2.73a3.65,3.65,0,0,1-3-2.95c-1-5.47-1-9.79,2.34-10.41,4,.27,7.39,2.16,8.94,8.14A4,4,0,0,1,864.74,205Z"/>
              <path class="cls-2" d="M993.8,160.55c-4.88,3.29-7.77,1.4-8.72-5.54a1.85,1.85,0,0,1,1.18-2c5.88-2,8.09.68,8.29,6A1.77,1.77,0,0,1,993.8,160.55Z"/>
              <path class="cls-2" d="M998.06,97c-.68,6.53-7.16,9.76-10.85,6.83a1.33,1.33,0,0,1-.45-1c.09-7.23,4.32-8.46,10.25-7.21A1.34,1.34,0,0,1,998.06,97Z"/>
              <path class="cls-2" d="M916.06,100c-.68,6.53-7.16,9.76-10.85,6.83a1.33,1.33,0,0,1-.45-1c.09-7.23,4.32-8.46,10.25-7.21A1.34,1.34,0,0,1,916.06,100Z"/>
              <path class="cls-2" d="M965.05,202c-1.09-10.53-11.53-15.74-17.49-11a2.19,2.19,0,0,0-.72,1.63c.15,11.65,7,13.64,16.52,11.63A2.14,2.14,0,0,0,965.05,202Z"/>
              <path class="cls-2" d="M961.05,129c-1.09-10.53-11.53-15.74-17.49-11a2.19,2.19,0,0,0-.72,1.63c.15,11.65,7,13.64,16.52,11.63A2.14,2.14,0,0,0,961.05,129Z"/>
              <path class="cls-2" d="M820.05,167c-1.09-10.53-11.53-15.74-17.49-11a2.19,2.19,0,0,0-.72,1.63c.15,11.65,7,13.64,16.52,11.63A2.14,2.14,0,0,0,820.05,167Z"/>
              <path class="cls-2" d="M662.06,99c-.68,6.53-7.16,9.76-10.85,6.83a1.33,1.33,0,0,1-.45-1c.09-7.23,4.32-8.46,10.25-7.21A1.34,1.34,0,0,1,662.06,99Z"/>
              <path class="cls-2" d="M758.56,105.51c-.68,6.53-7.16,9.76-10.85,6.83a1.33,1.33,0,0,1-.45-1c.09-7.23,4.32-8.46,10.25-7.21A1.34,1.34,0,0,1,758.56,105.51Z"/>
              <path class="cls-2" d="M705.56,178.51c-.68,6.53-7.16,9.76-10.85,6.83a1.33,1.33,0,0,1-.45-1c.09-7.23,4.32-8.46,10.25-7.21A1.34,1.34,0,0,1,705.56,178.51Z"/>
              <path class="cls-2" d="M855.05,99.41c-1.58,15.18-16.63,22.69-25.21,15.88a3,3,0,0,1-1-2.35c.21-16.79,10-19.65,23.81-16.76A3.09,3.09,0,0,1,855.05,99.41Z"/>
              <path class="cls-2" d="M726.05,129.41c-1.58,15.18-16.63,22.69-25.21,15.88a3,3,0,0,1-1-2.35c.21-16.79,10-19.65,23.81-16.76A3.09,3.09,0,0,1,726.05,129.41Z"/>
            </g>
          </g>
          <g id="secondRockGroup-2" data-name="secondRockGroup">
            <g id="undergroundRocks-2" data-name="undergroundRocks">
              <path class="cls-2" d="M114.37,333c1.06,2.57,3.87,3.38,8.13,2.73a3.66,3.66,0,0,0,3-3c1-5.47,1-9.79-2.34-10.41-4.06.27-7.4,2.16-8.94,8.14A3.93,3.93,0,0,0,114.37,333Z"/>
              <path class="cls-2" d="M274.81,333c-1.06,2.57-3.87,3.38-8.13,2.73a3.65,3.65,0,0,1-3-3c-1-5.47-1-9.79,2.34-10.41,4.06.27,7.4,2.16,8.94,8.14A3.93,3.93,0,0,1,274.81,333Z"/>
              <path class="cls-2" d="M274.59,382.63c-1.92,4.65-7,6.1-14.66,4.93a6.59,6.59,0,0,1-5.4-5.31c-1.84-9.86-1.82-17.66,4.21-18.77,7.31.48,13.33,3.89,16.11,14.67A7.16,7.16,0,0,1,274.59,382.63Z"/>
              <path class="cls-2" d="M391.59,382.63c-1.92,4.65-7,6.1-14.66,4.93a6.59,6.59,0,0,1-5.4-5.31c-1.84-9.86-1.82-17.66,4.21-18.77,7.31.48,13.33,3.89,16.11,14.67A7.16,7.16,0,0,1,391.59,382.63Z"/>
              <path class="cls-2" d="M332.81,383.32c-1.06-2.58-3.87-3.39-8.13-2.73a3.65,3.65,0,0,0-3,2.94c-1,5.47-1,9.8,2.34,10.41,4.06-.26,7.4-2.15,8.94-8.13A3.93,3.93,0,0,0,332.81,383.32Z"/>
              <path class="cls-2" d="M428.58,299.38c-1.86-4.5-6.78-5.92-14.22-4.78a6.39,6.39,0,0,0-5.23,5.15c-1.79,9.56-1.77,17.12,4.08,18.19,7.09-.46,12.93-3.76,15.62-14.22A6.93,6.93,0,0,0,428.58,299.38Z"/>
              <path class="cls-2" d="M160.37,379c1.06,2.57,3.87,3.38,8.13,2.73a3.66,3.66,0,0,0,3-3c1-5.47,1-9.79-2.34-10.41-4.06.27-7.4,2.16-8.94,8.14A3.93,3.93,0,0,0,160.37,379Z"/>
              <path class="cls-2" d="M31.31,334.55c4.87,3.29,7.76,1.4,8.71-5.54a1.83,1.83,0,0,0-1.18-2c-5.88-2-8.08.68-8.28,6A1.75,1.75,0,0,0,31.31,334.55Z"/>
              <path class="cls-2" d="M27.05,271c.68,6.53,7.16,9.76,10.85,6.83a1.33,1.33,0,0,0,.45-1c-.1-7.23-4.32-8.46-10.25-7.21A1.33,1.33,0,0,0,27.05,271Z"/>
              <path class="cls-2" d="M61.05,237c.68,6.53,7.16,9.76,10.85,6.83a1.33,1.33,0,0,0,.45-1c-.1-7.23-4.32-8.46-10.25-7.21A1.33,1.33,0,0,0,61.05,237Z"/>
              <path class="cls-2" d="M60.05,376c1.1-10.53,11.54-15.74,17.49-11a2.12,2.12,0,0,1,.72,1.63c-.14,11.65-7,13.64-16.51,11.63A2.15,2.15,0,0,1,60.05,376Z"/>
              <path class="cls-2" d="M64.05,303c1.1-10.53,11.54-15.74,17.49-11a2.12,2.12,0,0,1,.72,1.63c-.14,11.65-7,13.64-16.51,11.63A2.15,2.15,0,0,1,64.05,303Z"/>
              <path class="cls-2" d="M205.05,341c1.1-10.53,11.54-15.74,17.49-11a2.12,2.12,0,0,1,.72,1.63c-.14,11.65-6.95,13.64-16.51,11.63A2.15,2.15,0,0,1,205.05,341Z"/>
              <path class="cls-2" d="M334.05,271c.68,6.53,7.16,9.76,10.85,6.83a1.33,1.33,0,0,0,.45-1c-.1-7.23-4.32-8.46-10.25-7.21A1.33,1.33,0,0,0,334.05,271Z"/>
              <path class="cls-2" d="M266.55,279.51c.68,6.53,7.16,9.76,10.85,6.83a1.33,1.33,0,0,0,.45-1c-.1-7.23-4.32-8.46-10.25-7.21A1.33,1.33,0,0,0,266.55,279.51Z"/>
              <path class="cls-2" d="M319.55,352.51c.68,6.53,7.16,9.76,10.85,6.83a1.33,1.33,0,0,0,.45-1c-.1-7.23-4.32-8.46-10.25-7.21A1.33,1.33,0,0,0,319.55,352.51Z"/>
              <path class="cls-2" d="M170.06,273.41c1.58,15.18,16.63,22.69,25.21,15.88a3.07,3.07,0,0,0,1-2.35c-.22-16.79-10-19.65-23.81-16.76A3.09,3.09,0,0,0,170.06,273.41Z"/>
              <path class="cls-2" d="M299.06,303.41c1.58,15.18,16.63,22.69,25.21,15.88a3.07,3.07,0,0,0,1-2.35c-.22-16.79-10-19.65-23.81-16.76A3.09,3.09,0,0,0,299.06,303.41Z"/>
            </g>
            <g>
              <path class="cls-2" d="M910.74,333c-1.06,2.57-3.88,3.38-8.13,2.73a3.65,3.65,0,0,1-3-3c-1-5.47-1-9.79,2.34-10.41,4,.27,7.39,2.16,8.94,8.14A4,4,0,0,1,910.74,333Z"/>
              <path class="cls-2" d="M750.29,333c1.07,2.57,3.88,3.38,8.14,2.73a3.65,3.65,0,0,0,3-3c1-5.47,1-9.79-2.33-10.41-4.06.27-7.4,2.16-8.94,8.14A4,4,0,0,0,750.29,333Z"/>
              <path class="cls-2" d="M765.52,389.63c1.91,4.65,7,6.1,14.66,4.93a6.57,6.57,0,0,0,5.39-5.31c1.85-9.86,1.83-17.66-4.21-18.77-7.31.48-13.33,3.89-16.11,14.67A7.16,7.16,0,0,0,765.52,389.63Z"/>
              <path class="cls-2" d="M633.52,382.63c1.91,4.65,7,6.1,14.66,4.93a6.57,6.57,0,0,0,5.39-5.31c1.85-9.86,1.83-17.66-4.21-18.77-7.31.48-13.33,3.89-16.11,14.67A7.16,7.16,0,0,0,633.52,382.63Z"/>
              <path class="cls-2" d="M692.29,383.32c1.07-2.58,3.88-3.39,8.14-2.73a3.65,3.65,0,0,1,3,2.94c1,5.47,1,9.8-2.33,10.41-4.06-.26-7.4-2.15-8.94-8.13A4,4,0,0,1,692.29,383.32Z"/>
              <path class="cls-2" d="M596.53,299.38c1.86-4.5,6.77-5.92,14.21-4.78a6.39,6.39,0,0,1,5.24,5.15c1.78,9.56,1.77,17.12-4.09,18.19-7.08-.46-12.92-3.76-15.62-14.22A7,7,0,0,1,596.53,299.38Z"/>
              <path class="cls-2" d="M864.74,379c-1.06,2.57-3.88,3.38-8.13,2.73a3.65,3.65,0,0,1-3-3c-1-5.47-1-9.79,2.34-10.41,4,.27,7.39,2.16,8.94,8.14A4,4,0,0,1,864.74,379Z"/>
              <path class="cls-2" d="M993.8,334.55c-4.88,3.29-7.77,1.4-8.72-5.54a1.85,1.85,0,0,1,1.18-2c5.88-2,8.09.68,8.29,6A1.77,1.77,0,0,1,993.8,334.55Z"/>
              <path class="cls-2" d="M998.06,271c-.68,6.53-7.16,9.76-10.85,6.83a1.33,1.33,0,0,1-.45-1c.09-7.23,4.32-8.46,10.25-7.21A1.34,1.34,0,0,1,998.06,271Z"/>
              <path class="cls-2" d="M916.06,274c-.68,6.53-7.16,9.76-10.85,6.83a1.33,1.33,0,0,1-.45-1c.09-7.23,4.32-8.46,10.25-7.21A1.34,1.34,0,0,1,916.06,274Z"/>
              <path class="cls-2" d="M965.05,376c-1.09-10.53-11.53-15.74-17.49-11a2.19,2.19,0,0,0-.72,1.63c.15,11.65,7,13.64,16.52,11.63A2.14,2.14,0,0,0,965.05,376Z"/>
              <path class="cls-2" d="M961.05,303c-1.09-10.53-11.53-15.74-17.49-11a2.19,2.19,0,0,0-.72,1.63c.15,11.65,7,13.64,16.52,11.63A2.14,2.14,0,0,0,961.05,303Z"/>
              <path class="cls-2" d="M820.05,341c-1.09-10.53-11.53-15.74-17.49-11a2.19,2.19,0,0,0-.72,1.63c.15,11.65,7,13.64,16.52,11.63A2.14,2.14,0,0,0,820.05,341Z"/>
              <path class="cls-2" d="M662.06,273c-.68,6.53-7.16,9.76-10.85,6.83a1.33,1.33,0,0,1-.45-1c.09-7.23,4.32-8.46,10.25-7.21A1.34,1.34,0,0,1,662.06,273Z"/>
              <path class="cls-2" d="M758.56,279.51c-.68,6.53-7.16,9.76-10.85,6.83a1.33,1.33,0,0,1-.45-1c.09-7.23,4.32-8.46,10.25-7.21A1.34,1.34,0,0,1,758.56,279.51Z"/>
              <path class="cls-2" d="M705.56,352.51c-.68,6.53-7.16,9.76-10.85,6.83a1.33,1.33,0,0,1-.45-1c.09-7.23,4.32-8.46,10.25-7.21A1.34,1.34,0,0,1,705.56,352.51Z"/>
              <path class="cls-2" d="M855.05,273.41c-1.58,15.18-16.63,22.69-25.21,15.88a3,3,0,0,1-1-2.35c.21-16.79,10-19.65,23.81-16.76A3.09,3.09,0,0,1,855.05,273.41Z"/>
              <path class="cls-2" d="M726.05,303.41c-1.58,15.18-16.63,22.69-25.21,15.88a3,3,0,0,1-1-2.35c.21-16.79,10-19.65,23.81-16.76A3.09,3.09,0,0,1,726.05,303.41Z"/>
            </g>
          </g>
        </g>
      </g>
    </g>
  </g>
</svg>
