<svg xmlns="http://www.w3.org/2000/svg" viewBox="0 0 1024 515.95">
  <defs>
    <style>
      .cls-1 {
        fill: #624631;
      }

      .cls-2 {
        fill: #55402f;
      }

      .cls-3 {
        fill: #4b3929;
      }
    </style>
  </defs>
  <title>Asset 13</title>
  <g id="Layer_2" data-name="Layer 2">
    <g id="background">
      <g id="layeredSoil">
        <g id="soil1">
          <path class="cls-1" d="M1,3c51.76-4.21,98.63-5.7,118,8,44,21.27,82.45,27.78,114,16,54.52-13.2,98.12-12.78,135-4,39.31,18.55,73.27,18,104,6C536.06,10.49,585.24,6.64,619,18c95.44,42.46,111.92,20.5,140,8,41-11.58,75.62-11.73,108-8,36,13.65,54,10,68.07,2.6a52.74,52.74,0,0,1,25.87-6.22L1024,16l-1,500H0Z"/>
          <g id="secondRockGroup">
            <g id="undergroundRocks">
              <path class="cls-2" d="M114.37,170.5c1.06,2.57,3.87,3.38,8.13,2.73a3.66,3.66,0,0,0,3-2.94c1-5.48,1-9.8-2.34-10.42-4.06.27-7.4,2.16-8.94,8.14A3.93,3.93,0,0,0,114.37,170.5Z"/>
              <path class="cls-2" d="M274.81,170.5c-1.06,2.57-3.87,3.38-8.13,2.73a3.65,3.65,0,0,1-3-2.94c-1-5.48-1-9.8,2.34-10.42,4.06.27,7.4,2.16,8.94,8.14A3.93,3.93,0,0,1,274.81,170.5Z"/>
              <path class="cls-2" d="M274.59,220.13c-1.92,4.65-7,6.1-14.66,4.93a6.59,6.59,0,0,1-5.4-5.31c-1.84-9.86-1.82-17.66,4.21-18.77,7.31.48,13.33,3.89,16.11,14.67A7.16,7.16,0,0,1,274.59,220.13Z"/>
              <path class="cls-2" d="M391.59,220.13c-1.92,4.65-7,6.1-14.66,4.93a6.59,6.59,0,0,1-5.4-5.31c-1.84-9.86-1.82-17.66,4.21-18.77,7.31.48,13.33,3.89,16.11,14.67A7.16,7.16,0,0,1,391.59,220.13Z"/>
              <path class="cls-2" d="M332.81,220.82c-1.06-2.58-3.87-3.38-8.13-2.73a3.65,3.65,0,0,0-3,2.94c-1,5.47-1,9.8,2.34,10.41,4.06-.26,7.4-2.15,8.94-8.13A3.93,3.93,0,0,0,332.81,220.82Z"/>
              <path class="cls-2" d="M428.58,136.88c-1.86-4.5-6.78-5.92-14.22-4.78a6.39,6.39,0,0,0-5.23,5.15c-1.79,9.56-1.77,17.12,4.08,18.19,7.09-.46,12.93-3.76,15.62-14.22A6.93,6.93,0,0,0,428.58,136.88Z"/>
              <path class="cls-2" d="M160.37,216.5c1.06,2.57,3.87,3.38,8.13,2.73a3.66,3.66,0,0,0,3-2.94c1-5.48,1-9.8-2.34-10.42-4.06.27-7.4,2.16-8.94,8.14A3.93,3.93,0,0,0,160.37,216.5Z"/>
              <path class="cls-2" d="M31.31,172.05c4.87,3.29,7.76,1.4,8.71-5.54a1.83,1.83,0,0,0-1.18-2c-5.88-2-8.08.68-8.28,6A1.75,1.75,0,0,0,31.31,172.05Z"/>
              <path class="cls-2" d="M27.05,108.51c.68,6.53,7.16,9.76,10.85,6.83a1.33,1.33,0,0,0,.45-1c-.1-7.23-4.32-8.46-10.25-7.21A1.33,1.33,0,0,0,27.05,108.51Z"/>
              <path class="cls-2" d="M61.05,74.51c.68,6.53,7.16,9.76,10.85,6.83a1.33,1.33,0,0,0,.45-1c-.1-7.23-4.32-8.46-10.25-7.21A1.33,1.33,0,0,0,61.05,74.51Z"/>
              <path class="cls-2" d="M60.05,213.46c1.1-10.53,11.54-15.74,17.49-11a2.08,2.08,0,0,1,.72,1.62c-.14,11.65-7,13.64-16.51,11.63A2.15,2.15,0,0,1,60.05,213.46Z"/>
              <path class="cls-2" d="M64.05,140.46c1.1-10.53,11.54-15.74,17.49-11a2.08,2.08,0,0,1,.72,1.62c-.14,11.65-7,13.64-16.51,11.63A2.15,2.15,0,0,1,64.05,140.46Z"/>
              <path class="cls-2" d="M205.05,178.46c1.1-10.53,11.54-15.74,17.49-11a2.08,2.08,0,0,1,.72,1.62c-.14,11.65-6.95,13.64-16.51,11.63A2.15,2.15,0,0,1,205.05,178.46Z"/>
              <path class="cls-2" d="M334.05,108.51c.68,6.53,7.16,9.76,10.85,6.83a1.33,1.33,0,0,0,.45-1c-.1-7.23-4.32-8.46-10.25-7.21A1.33,1.33,0,0,0,334.05,108.51Z"/>
              <path class="cls-2" d="M266.55,117c.68,6.53,7.16,9.76,10.85,6.83a1.33,1.33,0,0,0,.45-1c-.1-7.23-4.32-8.46-10.25-7.21A1.33,1.33,0,0,0,266.55,117Z"/>
              <path class="cls-2" d="M319.55,190c.68,6.53,7.16,9.76,10.85,6.83a1.33,1.33,0,0,0,.45-1c-.1-7.23-4.32-8.46-10.25-7.21A1.33,1.33,0,0,0,319.55,190Z"/>
              <path class="cls-2" d="M170.06,110.91c1.58,15.18,16.63,22.69,25.21,15.88a3.07,3.07,0,0,0,1-2.35c-.22-16.79-10-19.65-23.81-16.76A3.09,3.09,0,0,0,170.06,110.91Z"/>
              <path class="cls-2" d="M299.06,140.91c1.58,15.18,16.63,22.69,25.21,15.88a3.07,3.07,0,0,0,1-2.35c-.22-16.79-10-19.65-23.81-16.76A3.09,3.09,0,0,0,299.06,140.91Z"/>
            </g>
            <g>
              <path class="cls-2" d="M910.74,170.5c-1.06,2.57-3.88,3.38-8.13,2.73a3.65,3.65,0,0,1-3-2.94c-1-5.48-1-9.8,2.34-10.42,4,.27,7.39,2.16,8.94,8.14A4,4,0,0,1,910.74,170.5Z"/>
              <path class="cls-2" d="M750.29,170.5c1.07,2.57,3.88,3.38,8.14,2.73a3.65,3.65,0,0,0,3-2.94c1-5.48,1-9.8-2.33-10.42-4.06.27-7.4,2.16-8.94,8.14A4,4,0,0,0,750.29,170.5Z"/>
              <path class="cls-2" d="M765.52,227.13c1.91,4.65,7,6.1,14.66,4.93a6.57,6.57,0,0,0,5.39-5.31c1.85-9.86,1.83-17.66-4.21-18.77-7.3.48-13.33,3.89-16.11,14.67A7.16,7.16,0,0,0,765.52,227.13Z"/>
              <path class="cls-2" d="M633.52,220.13c1.91,4.65,7,6.1,14.66,4.93a6.57,6.57,0,0,0,5.39-5.31c1.85-9.86,1.83-17.66-4.21-18.77-7.3.48-13.33,3.89-16.11,14.67A7.16,7.16,0,0,0,633.52,220.13Z"/>
              <path class="cls-2" d="M692.29,220.82c1.07-2.58,3.88-3.38,8.14-2.73a3.65,3.65,0,0,1,3,2.94c1,5.47,1,9.8-2.33,10.41-4.06-.26-7.4-2.15-8.94-8.13A4,4,0,0,1,692.29,220.82Z"/>
              <path class="cls-2" d="M596.53,136.88c1.86-4.5,6.78-5.92,14.21-4.78a6.39,6.39,0,0,1,5.24,5.15c1.79,9.56,1.77,17.12-4.09,18.19-7.08-.46-12.92-3.76-15.62-14.22A7,7,0,0,1,596.53,136.88Z"/>
              <path class="cls-2" d="M864.74,216.5c-1.06,2.57-3.88,3.38-8.13,2.73a3.65,3.65,0,0,1-3-2.94c-1-5.48-1-9.8,2.34-10.42,4,.27,7.39,2.16,8.94,8.14A4,4,0,0,1,864.74,216.5Z"/>
              <path class="cls-2" d="M993.8,172.05c-4.88,3.29-7.77,1.4-8.72-5.54a1.85,1.85,0,0,1,1.18-2c5.88-2,8.09.68,8.29,6A1.77,1.77,0,0,1,993.8,172.05Z"/>
              <path class="cls-2" d="M998.06,108.51c-.68,6.53-7.16,9.76-10.85,6.83a1.33,1.33,0,0,1-.45-1c.09-7.23,4.32-8.46,10.25-7.21A1.34,1.34,0,0,1,998.06,108.51Z"/>
              <path class="cls-2" d="M916.06,111.51c-.68,6.53-7.16,9.76-10.85,6.83a1.33,1.33,0,0,1-.45-1c.09-7.23,4.32-8.46,10.25-7.21A1.34,1.34,0,0,1,916.06,111.51Z"/>
              <path class="cls-2" d="M965.05,213.46c-1.09-10.53-11.53-15.74-17.49-11a2.15,2.15,0,0,0-.72,1.62c.15,11.65,7,13.64,16.52,11.63A2.14,2.14,0,0,0,965.05,213.46Z"/>
              <path class="cls-2" d="M961.05,140.46c-1.09-10.53-11.53-15.74-17.49-11a2.15,2.15,0,0,0-.72,1.62c.15,11.65,7,13.64,16.52,11.63A2.14,2.14,0,0,0,961.05,140.46Z"/>
              <path class="cls-2" d="M820.05,178.46c-1.09-10.53-11.53-15.74-17.49-11a2.15,2.15,0,0,0-.72,1.62c.15,11.65,7,13.64,16.52,11.63A2.14,2.14,0,0,0,820.05,178.46Z"/>
              <path class="cls-2" d="M662.06,110.51c-.68,6.53-7.16,9.76-10.85,6.83a1.33,1.33,0,0,1-.45-1c.09-7.23,4.32-8.46,10.25-7.21A1.34,1.34,0,0,1,662.06,110.51Z"/>
              <path class="cls-2" d="M758.56,117c-.68,6.53-7.16,9.76-10.85,6.83a1.33,1.33,0,0,1-.45-1c.09-7.23,4.32-8.46,10.25-7.21A1.34,1.34,0,0,1,758.56,117Z"/>
              <path class="cls-2" d="M705.56,190c-.68,6.53-7.16,9.76-10.85,6.83a1.33,1.33,0,0,1-.45-1c.09-7.23,4.32-8.46,10.25-7.21A1.34,1.34,0,0,1,705.56,190Z"/>
              <path class="cls-2" d="M855.05,110.91c-1.58,15.18-16.63,22.69-25.21,15.88a3,3,0,0,1-1-2.35c.21-16.79,10-19.65,23.81-16.76A3.09,3.09,0,0,1,855.05,110.91Z"/>
              <path class="cls-2" d="M726.05,140.91c-1.58,15.18-16.63,22.69-25.21,15.88a3,3,0,0,1-1-2.35c.21-16.79,10-19.65,23.81-16.76A3.09,3.09,0,0,1,726.05,140.91Z"/>
            </g>
          </g>
          <path class="cls-3" d="M114.37,359.5c1.06,2.57,3.87,3.38,8.13,2.73a3.66,3.66,0,0,0,3-2.94c1-5.48,1-9.8-2.34-10.42-4.06.27-7.4,2.16-8.94,8.14A3.93,3.93,0,0,0,114.37,359.5Z"/>
          <path class="cls-3" d="M274.81,359.5c-1.06,2.57-3.87,3.38-8.13,2.73a3.65,3.65,0,0,1-3-2.94c-1-5.48-1-9.8,2.34-10.42,4.06.27,7.4,2.16,8.94,8.14A3.93,3.93,0,0,1,274.81,359.5Z"/>
          <path class="cls-3" d="M274.59,409.13c-1.92,4.65-7,6.1-14.66,4.93a6.59,6.59,0,0,1-5.4-5.31c-1.84-9.86-1.82-17.66,4.21-18.77,7.31.48,13.33,3.89,16.11,14.67A7.16,7.16,0,0,1,274.59,409.13Z"/>
          <path class="cls-3" d="M391.59,409.13c-1.92,4.65-7,6.1-14.66,4.93a6.59,6.59,0,0,1-5.4-5.31c-1.84-9.86-1.82-17.66,4.21-18.77,7.31.48,13.33,3.89,16.11,14.67A7.16,7.16,0,0,1,391.59,409.13Z"/>
          <path class="cls-3" d="M332.81,409.82c-1.06-2.58-3.87-3.38-8.13-2.73a3.65,3.65,0,0,0-3,2.94c-1,5.47-1,9.8,2.34,10.41,4.06-.26,7.4-2.15,8.94-8.13A3.93,3.93,0,0,0,332.81,409.82Z"/>
          <path class="cls-3" d="M428.58,325.88c-1.86-4.5-6.78-5.92-14.22-4.78a6.39,6.39,0,0,0-5.23,5.15c-1.79,9.56-1.77,17.12,4.08,18.19,7.09-.46,12.93-3.76,15.62-14.22A6.93,6.93,0,0,0,428.58,325.88Z"/>
          <path class="cls-3" d="M220.58,266.88c-1.86-4.5-6.78-5.92-14.22-4.78a6.39,6.39,0,0,0-5.23,5.15c-1.79,9.56-1.77,17.12,4.08,18.19,7.09-.46,12.93-3.76,15.62-14.22A6.93,6.93,0,0,0,220.58,266.88Z"/>
          <path class="cls-3" d="M160.37,405.5c1.06,2.57,3.87,3.38,8.13,2.73a3.66,3.66,0,0,0,3-2.94c1-5.48,1-9.8-2.34-10.42-4.06.27-7.4,2.16-8.94,8.14A3.93,3.93,0,0,0,160.37,405.5Z"/>
          <path class="cls-3" d="M31.31,361.05c4.87,3.29,7.76,1.4,8.71-5.54a1.83,1.83,0,0,0-1.18-2c-5.88-2-8.08.68-8.28,6A1.75,1.75,0,0,0,31.31,361.05Z"/>
          <path class="cls-3" d="M27.05,297.51c.68,6.53,7.16,9.76,10.85,6.83a1.33,1.33,0,0,0,.45-1c-.1-7.23-4.32-8.46-10.25-7.21A1.33,1.33,0,0,0,27.05,297.51Z"/>
          <path class="cls-3" d="M61.05,263.51c.68,6.53,7.16,9.76,10.85,6.83a1.33,1.33,0,0,0,.45-1c-.1-7.23-4.32-8.46-10.25-7.21A1.33,1.33,0,0,0,61.05,263.51Z"/>
          <path class="cls-3" d="M60.05,402.46c1.1-10.53,11.54-15.74,17.49-11a2.08,2.08,0,0,1,.72,1.62c-.14,11.65-7,13.64-16.51,11.63A2.15,2.15,0,0,1,60.05,402.46Z"/>
          <path class="cls-3" d="M64.05,329.46c1.1-10.53,11.54-15.74,17.49-11a2.08,2.08,0,0,1,.72,1.62c-.14,11.65-7,13.64-16.51,11.63A2.15,2.15,0,0,1,64.05,329.46Z"/>
          <path class="cls-3" d="M106.55,287c1.1-10.53,11.54-15.74,17.49-11a2.08,2.08,0,0,1,.72,1.62c-.14,11.65-7,13.64-16.51,11.63A2.15,2.15,0,0,1,106.55,287Z"/>
          <path class="cls-3" d="M205.05,367.46c1.1-10.53,11.54-15.74,17.49-11a2.08,2.08,0,0,1,.72,1.62c-.14,11.65-6.95,13.64-16.51,11.63A2.15,2.15,0,0,1,205.05,367.46Z"/>
          <path class="cls-3" d="M334.05,297.51c.68,6.53,7.16,9.76,10.85,6.83a1.33,1.33,0,0,0,.45-1c-.1-7.23-4.32-8.46-10.25-7.21A1.33,1.33,0,0,0,334.05,297.51Z"/>
          <path class="cls-3" d="M706.05,297.51c.68,6.53,7.16,9.76,10.85,6.83a1.33,1.33,0,0,0,.45-1c-.1-7.23-4.32-8.46-10.25-7.21A1.33,1.33,0,0,0,706.05,297.51Z"/>
          <path class="cls-3" d="M426.58,264.88c-1.86-4.5-6.78-5.92-14.22-4.78a6.39,6.39,0,0,0-5.23,5.15c-1.79,9.56-1.77,17.12,4.08,18.19,7.09-.46,12.93-3.76,15.62-14.22A6.93,6.93,0,0,0,426.58,264.88Z"/>
          <path class="cls-3" d="M408.05,371.51c.68,6.53,7.16,9.76,10.85,6.83a1.33,1.33,0,0,0,.45-1c-.1-7.23-4.32-8.46-10.25-7.21A1.33,1.33,0,0,0,408.05,371.51Z"/>
          <path class="cls-3" d="M266.55,306c.68,6.53,7.16,9.76,10.85,6.83a1.33,1.33,0,0,0,.45-1c-.1-7.23-4.32-8.46-10.25-7.21A1.33,1.33,0,0,0,266.55,306Z"/>
          <path class="cls-3" d="M319.55,379c.68,6.53,7.16,9.76,10.85,6.83a1.33,1.33,0,0,0,.45-1c-.1-7.23-4.32-8.46-10.25-7.21A1.33,1.33,0,0,0,319.55,379Z"/>
          <path class="cls-3" d="M170.06,299.91c1.58,15.18,16.63,22.69,25.21,15.88a3.07,3.07,0,0,0,1-2.35c-.22-16.79-10-19.65-23.81-16.76A3.09,3.09,0,0,0,170.06,299.91Z"/>
          <path class="cls-3" d="M299.06,329.91c1.58,15.18,16.63,22.69,25.21,15.88a3.07,3.07,0,0,0,1-2.35c-.22-16.79-10-19.65-23.81-16.76A3.09,3.09,0,0,0,299.06,329.91Z"/>
          <path class="cls-3" d="M353.06,359.91c1.58,15.18,16.63,22.69,25.21,15.88a3.07,3.07,0,0,0,1-2.35c-.22-16.79-10-19.65-23.81-16.76A3.09,3.09,0,0,0,353.06,359.91Z"/>
          <g>
            <path class="cls-3" d="M910.74,359.5c-1.06,2.57-3.88,3.38-8.13,2.73a3.65,3.65,0,0,1-3-2.94c-1-5.48-1-9.8,2.34-10.42,4,.27,7.39,2.16,8.94,8.14A4,4,0,0,1,910.74,359.5Z"/>
            <path class="cls-3" d="M750.29,359.5c1.07,2.57,3.88,3.38,8.14,2.73a3.65,3.65,0,0,0,3-2.94c1-5.48,1-9.8-2.33-10.42-4.06.27-7.4,2.16-8.94,8.14A4,4,0,0,0,750.29,359.5Z"/>
            <path class="cls-3" d="M765.52,416.13c1.91,4.65,7,6.1,14.66,4.93a6.57,6.57,0,0,0,5.39-5.31c1.85-9.86,1.83-17.66-4.21-18.77-7.3.48-13.33,3.89-16.11,14.67A7.16,7.16,0,0,0,765.52,416.13Z"/>
            <path class="cls-3" d="M633.52,409.13c1.91,4.65,7,6.1,14.66,4.93a6.57,6.57,0,0,0,5.39-5.31c1.85-9.86,1.83-17.66-4.21-18.77-7.3.48-13.33,3.89-16.11,14.67A7.16,7.16,0,0,0,633.52,409.13Z"/>
            <path class="cls-3" d="M692.29,409.82c1.07-2.58,3.88-3.38,8.14-2.73a3.65,3.65,0,0,1,3,2.94c1,5.47,1,9.8-2.33,10.41-4.06-.26-7.4-2.15-8.94-8.13A4,4,0,0,1,692.29,409.82Z"/>
            <path class="cls-3" d="M596.53,325.88c1.86-4.5,6.78-5.92,14.21-4.78a6.39,6.39,0,0,1,5.24,5.15c1.79,9.56,1.77,17.12-4.09,18.19-7.08-.46-12.92-3.76-15.62-14.22A7,7,0,0,1,596.53,325.88Z"/>
            <path class="cls-3" d="M864.74,405.5c-1.06,2.57-3.88,3.38-8.13,2.73a3.65,3.65,0,0,1-3-2.94c-1-5.48-1-9.8,2.34-10.42,4,.27,7.39,2.16,8.94,8.14A4,4,0,0,1,864.74,405.5Z"/>
            <path class="cls-3" d="M993.8,361.05c-4.88,3.29-7.77,1.4-8.72-5.54a1.85,1.85,0,0,1,1.18-2c5.88-2,8.09.68,8.29,6A1.77,1.77,0,0,1,993.8,361.05Z"/>
            <path class="cls-3" d="M998.06,297.51c-.68,6.53-7.16,9.76-10.85,6.83a1.33,1.33,0,0,1-.45-1c.09-7.23,4.32-8.46,10.25-7.21A1.34,1.34,0,0,1,998.06,297.51Z"/>
            <path class="cls-3" d="M916.06,300.51c-.68,6.53-7.16,9.76-10.85,6.83a1.33,1.33,0,0,1-.45-1c.09-7.23,4.32-8.46,10.25-7.21A1.34,1.34,0,0,1,916.06,300.51Z"/>
            <path class="cls-3" d="M965.05,402.46c-1.09-10.53-11.53-15.74-17.49-11a2.15,2.15,0,0,0-.72,1.62c.15,11.65,7,13.64,16.52,11.63A2.14,2.14,0,0,0,965.05,402.46Z"/>
            <path class="cls-3" d="M961.05,329.46c-1.09-10.53-11.53-15.74-17.49-11a2.15,2.15,0,0,0-.72,1.62c.15,11.65,7,13.64,16.52,11.63A2.14,2.14,0,0,0,961.05,329.46Z"/>
            <path class="cls-3" d="M820.05,367.46c-1.09-10.53-11.53-15.74-17.49-11a2.15,2.15,0,0,0-.72,1.62c.15,11.65,7,13.64,16.52,11.63A2.14,2.14,0,0,0,820.05,367.46Z"/>
            <path class="cls-3" d="M662.06,299.51c-.68,6.53-7.16,9.76-10.85,6.83a1.33,1.33,0,0,1-.45-1c.09-7.23,4.32-8.46,10.25-7.21A1.34,1.34,0,0,1,662.06,299.51Z"/>
            <path class="cls-3" d="M758.56,306c-.68,6.53-7.16,9.76-10.85,6.83a1.33,1.33,0,0,1-.45-1c.09-7.23,4.32-8.46,10.25-7.21A1.34,1.34,0,0,1,758.56,306Z"/>
            <path class="cls-3" d="M705.56,379c-.68,6.53-7.16,9.76-10.85,6.83a1.33,1.33,0,0,1-.45-1c.09-7.23,4.32-8.46,10.25-7.21A1.34,1.34,0,0,1,705.56,379Z"/>
            <path class="cls-3" d="M855.05,299.91c-1.58,15.18-16.63,22.69-25.21,15.88a3,3,0,0,1-1-2.35c.21-16.79,10-19.65,23.81-16.76A3.09,3.09,0,0,1,855.05,299.91Z"/>
            <path class="cls-3" d="M726.05,329.91c-1.58,15.18-16.63,22.69-25.21,15.88a3,3,0,0,1-1-2.35c.21-16.79,10-19.65,23.81-16.76A3.09,3.09,0,0,1,726.05,329.91Z"/>
          </g>
        </g>
      </g>
    </g>
  </g>
</svg>
