<svg xmlns="http://www.w3.org/2000/svg" viewBox="0 0 1029 515.95">
  <defs>
    <style>
      .cls-1 {
        fill: #423124;
      }

      .cls-2 {
        fill: #392a1f;
      }

      .cls-3 {
        fill: #2f231a;
      }
    </style>
  </defs>
  <title>Asset 16</title>
  <g id="Layer_2" data-name="Layer 2">
    <g id="background">
      <g id="layeredSoil">
        <g id="soil4">
          <path class="cls-1" d="M1028,3c-52-4.21-99.1-5.7-118.57,8-44.21,21.27-82.85,27.78-114.55,16-21.42-22.74-106-25.68-240.15,2-51.81-.37-81.68,42.2-128.57,6.88-18.41-13.87-32-33.08-62.58-27-25,5-58.46,4.88-82.62,11.51a60.55,60.55,0,0,1-31.45.16C199.94,7.42,112.7,4,94.2,22.82,68.52,48.93-2.34-2,.06,16l1,500H1029Z"/>
          <g id="secondRockGroup">
            <g id="undergroundRocks">
              <path class="cls-2" d="M113.36,175.5c1.07,2.57,3.88,3.38,8.14,2.73a3.65,3.65,0,0,0,3-2.94c1-5.48,1-9.8-2.33-10.42-4.06.27-7.4,2.16-8.94,8.14A4,4,0,0,0,113.36,175.5Z"/>
              <path class="cls-2" d="M273.81,175.5c-1.06,2.57-3.88,3.38-8.13,2.73a3.65,3.65,0,0,1-3-2.94c-1-5.48-1-9.8,2.34-10.42,4.05.27,7.39,2.16,8.94,8.14A4,4,0,0,1,273.81,175.5Z"/>
              <path class="cls-2" d="M273.59,225.13c-1.92,4.65-7,6.1-14.66,4.93a6.59,6.59,0,0,1-5.4-5.31c-1.84-9.86-1.83-17.66,4.21-18.77,7.31.48,13.33,3.89,16.11,14.67A7.16,7.16,0,0,1,273.59,225.13Z"/>
              <path class="cls-2" d="M390.59,225.13c-1.92,4.65-7,6.1-14.66,4.93a6.59,6.59,0,0,1-5.4-5.31c-1.84-9.86-1.83-17.66,4.21-18.77,7.31.48,13.33,3.89,16.11,14.67A7.16,7.16,0,0,1,390.59,225.13Z"/>
              <path class="cls-2" d="M331.81,225.82c-1.06-2.58-3.88-3.38-8.13-2.73a3.65,3.65,0,0,0-3,2.94c-1,5.47-1,9.8,2.34,10.41,4.05-.26,7.39-2.15,8.94-8.13A4,4,0,0,0,331.81,225.82Z"/>
              <path class="cls-2" d="M427.58,141.88c-1.87-4.5-6.78-5.92-14.22-4.78a6.38,6.38,0,0,0-5.23,5.15c-1.79,9.56-1.77,17.12,4.08,18.19,7.09-.46,12.92-3.76,15.62-14.22A6.93,6.93,0,0,0,427.58,141.88Z"/>
              <path class="cls-2" d="M159.36,221.5c1.07,2.57,3.88,3.38,8.14,2.73a3.65,3.65,0,0,0,3-2.94c1-5.48,1-9.8-2.33-10.42-4.06.27-7.4,2.16-8.94,8.14A4,4,0,0,0,159.36,221.5Z"/>
              <path class="cls-2" d="M30.31,177.05c4.87,3.29,7.76,1.4,8.71-5.54a1.83,1.83,0,0,0-1.18-2c-5.88-2-8.09.68-8.29,6A1.76,1.76,0,0,0,30.31,177.05Z"/>
              <path class="cls-2" d="M26.05,113.51c.68,6.53,7.15,9.76,10.85,6.83a1.28,1.28,0,0,0,.44-1c-.09-7.23-4.31-8.46-10.24-7.21A1.32,1.32,0,0,0,26.05,113.51Z"/>
              <path class="cls-2" d="M60.05,79.51c.68,6.53,7.15,9.76,10.85,6.83a1.28,1.28,0,0,0,.44-1C71.25,78.1,67,76.87,61.1,78.12A1.32,1.32,0,0,0,60.05,79.51Z"/>
              <path class="cls-2" d="M59.05,218.46c1.1-10.53,11.54-15.74,17.49-11a2.08,2.08,0,0,1,.72,1.62c-.15,11.65-7,13.64-16.52,11.63A2.14,2.14,0,0,1,59.05,218.46Z"/>
              <path class="cls-2" d="M63.05,145.46c1.1-10.53,11.54-15.74,17.49-11a2.08,2.08,0,0,1,.72,1.62c-.15,11.65-7,13.64-16.52,11.63A2.14,2.14,0,0,1,63.05,145.46Z"/>
              <path class="cls-2" d="M204.05,183.46c1.1-10.53,11.54-15.74,17.49-11a2.08,2.08,0,0,1,.72,1.62c-.15,11.65-6.95,13.64-16.52,11.63A2.14,2.14,0,0,1,204.05,183.46Z"/>
              <path class="cls-2" d="M333.05,113.51c.68,6.53,7.15,9.76,10.85,6.83a1.28,1.28,0,0,0,.44-1c-.09-7.23-4.31-8.46-10.24-7.21A1.32,1.32,0,0,0,333.05,113.51Z"/>
              <path class="cls-2" d="M265.55,122c.68,6.53,7.15,9.76,10.85,6.83a1.28,1.28,0,0,0,.44-1c-.09-7.23-4.31-8.46-10.24-7.21A1.32,1.32,0,0,0,265.55,122Z"/>
              <path class="cls-2" d="M318.55,195c.68,6.53,7.15,9.76,10.85,6.83a1.28,1.28,0,0,0,.44-1c-.09-7.23-4.31-8.46-10.24-7.21A1.32,1.32,0,0,0,318.55,195Z"/>
              <path class="cls-2" d="M169.05,115.91c1.59,15.18,16.63,22.69,25.22,15.88a3.07,3.07,0,0,0,1-2.35c-.22-16.79-10-19.65-23.81-16.76A3.1,3.1,0,0,0,169.05,115.91Z"/>
              <path class="cls-2" d="M298.05,145.91c1.59,15.18,16.63,22.69,25.22,15.88a3.07,3.07,0,0,0,1-2.35c-.22-16.79-10-19.65-23.81-16.76A3.1,3.1,0,0,0,298.05,145.91Z"/>
            </g>
            <g>
              <path class="cls-2" d="M909.74,175.5c-1.07,2.57-3.88,3.38-8.14,2.73a3.65,3.65,0,0,1-3-2.94c-1-5.48-1-9.8,2.33-10.42,4.06.27,7.4,2.16,8.94,8.14A4,4,0,0,1,909.74,175.5Z"/>
              <path class="cls-2" d="M749.29,175.5c1.06,2.57,3.88,3.38,8.13,2.73a3.65,3.65,0,0,0,3-2.94c1-5.48,1-9.8-2.34-10.42-4.05.27-7.39,2.16-8.94,8.14A4,4,0,0,0,749.29,175.5Z"/>
              <path class="cls-2" d="M764.51,232.13c1.92,4.65,7,6.1,14.66,4.93a6.59,6.59,0,0,0,5.4-5.31c1.84-9.86,1.83-17.66-4.21-18.77-7.31.48-13.33,3.89-16.11,14.67A7.16,7.16,0,0,0,764.51,232.13Z"/>
              <path class="cls-2" d="M632.51,225.13c1.92,4.65,7,6.1,14.66,4.93a6.59,6.59,0,0,0,5.4-5.31c1.84-9.86,1.83-17.66-4.21-18.77-7.31.48-13.33,3.89-16.11,14.67A7.16,7.16,0,0,0,632.51,225.13Z"/>
              <path class="cls-2" d="M691.29,225.82c1.06-2.58,3.88-3.38,8.13-2.73a3.65,3.65,0,0,1,3,2.94c1,5.47,1,9.8-2.34,10.41-4.05-.26-7.39-2.15-8.94-8.13A4,4,0,0,1,691.29,225.82Z"/>
              <path class="cls-2" d="M595.53,141.88c1.86-4.5,6.77-5.92,14.21-4.78a6.38,6.38,0,0,1,5.23,5.15c1.79,9.56,1.78,17.12-4.08,18.19-7.08-.46-12.92-3.76-15.62-14.22A6.87,6.87,0,0,1,595.53,141.88Z"/>
              <path class="cls-2" d="M863.74,221.5c-1.07,2.57-3.88,3.38-8.14,2.73a3.65,3.65,0,0,1-3-2.94c-1-5.48-1-9.8,2.33-10.42,4.06.27,7.4,2.16,8.94,8.14A4,4,0,0,1,863.74,221.5Z"/>
              <path class="cls-2" d="M992.79,177.05c-4.87,3.29-7.76,1.4-8.71-5.54a1.83,1.83,0,0,1,1.18-2c5.88-2,8.09.68,8.29,6A1.76,1.76,0,0,1,992.79,177.05Z"/>
              <path class="cls-2" d="M997.06,113.51c-.69,6.53-7.16,9.76-10.86,6.83a1.28,1.28,0,0,1-.44-1c.09-7.23,4.31-8.46,10.24-7.21A1.34,1.34,0,0,1,997.06,113.51Z"/>
              <path class="cls-2" d="M915.06,116.51c-.69,6.53-7.16,9.76-10.86,6.83a1.28,1.28,0,0,1-.44-1c.09-7.23,4.31-8.46,10.24-7.21A1.34,1.34,0,0,1,915.06,116.51Z"/>
              <path class="cls-2" d="M964.05,218.46c-1.1-10.53-11.54-15.74-17.49-11a2.08,2.08,0,0,0-.72,1.62c.15,11.65,7,13.64,16.52,11.63A2.14,2.14,0,0,0,964.05,218.46Z"/>
              <path class="cls-2" d="M960.05,145.46c-1.1-10.53-11.54-15.74-17.49-11a2.08,2.08,0,0,0-.72,1.62c.15,11.65,7,13.64,16.52,11.63A2.14,2.14,0,0,0,960.05,145.46Z"/>
              <path class="cls-2" d="M819.05,183.46c-1.1-10.53-11.54-15.74-17.49-11a2.08,2.08,0,0,0-.72,1.62c.15,11.65,7,13.64,16.52,11.63A2.14,2.14,0,0,0,819.05,183.46Z"/>
              <path class="cls-2" d="M661.06,115.51c-.69,6.53-7.16,9.76-10.86,6.83a1.28,1.28,0,0,1-.44-1c.09-7.23,4.31-8.46,10.24-7.21A1.34,1.34,0,0,1,661.06,115.51Z"/>
              <path class="cls-2" d="M757.56,122c-.69,6.53-7.16,9.76-10.86,6.83a1.28,1.28,0,0,1-.44-1c.09-7.23,4.31-8.46,10.24-7.21A1.34,1.34,0,0,1,757.56,122Z"/>
              <path class="cls-2" d="M704.56,195c-.69,6.53-7.16,9.76-10.86,6.83a1.28,1.28,0,0,1-.44-1c.09-7.23,4.31-8.46,10.24-7.21A1.34,1.34,0,0,1,704.56,195Z"/>
              <path class="cls-2" d="M854.05,115.91c-1.59,15.18-16.63,22.69-25.22,15.88a3,3,0,0,1-1-2.35c.21-16.79,10-19.65,23.8-16.76A3.1,3.1,0,0,1,854.05,115.91Z"/>
              <path class="cls-2" d="M725.05,145.91c-1.59,15.18-16.63,22.69-25.22,15.88a3,3,0,0,1-1-2.35c.21-16.79,10-19.65,23.8-16.76A3.1,3.1,0,0,1,725.05,145.91Z"/>
            </g>
          </g>
          <g id="secondRockGroup-2" data-name="secondRockGroup">
            <g id="undergroundRocks-2" data-name="undergroundRocks">
              <path class="cls-3" d="M113.36,362.5c1.07,2.57,3.88,3.38,8.14,2.73a3.65,3.65,0,0,0,3-2.94c1-5.48,1-9.8-2.33-10.42-4.06.27-7.4,2.16-8.94,8.14A4,4,0,0,0,113.36,362.5Z"/>
              <path class="cls-3" d="M273.81,362.5c-1.06,2.57-3.88,3.38-8.13,2.73a3.65,3.65,0,0,1-3-2.94c-1-5.48-1-9.8,2.34-10.42,4.05.27,7.39,2.16,8.94,8.14A4,4,0,0,1,273.81,362.5Z"/>
              <path class="cls-3" d="M273.59,412.13c-1.92,4.65-7,6.1-14.66,4.93a6.59,6.59,0,0,1-5.4-5.31c-1.84-9.86-1.83-17.66,4.21-18.77,7.31.48,13.33,3.89,16.11,14.67A7.16,7.16,0,0,1,273.59,412.13Z"/>
              <path class="cls-3" d="M390.59,412.13c-1.92,4.65-7,6.1-14.66,4.93a6.59,6.59,0,0,1-5.4-5.31c-1.84-9.86-1.83-17.66,4.21-18.77,7.31.48,13.33,3.89,16.11,14.67A7.16,7.16,0,0,1,390.59,412.13Z"/>
              <path class="cls-3" d="M331.81,412.82c-1.06-2.58-3.88-3.38-8.13-2.73a3.65,3.65,0,0,0-3,2.94c-1,5.47-1,9.8,2.34,10.41,4.05-.26,7.39-2.15,8.94-8.13A4,4,0,0,0,331.81,412.82Z"/>
              <path class="cls-3" d="M427.58,328.88c-1.87-4.5-6.78-5.92-14.22-4.78a6.38,6.38,0,0,0-5.23,5.15c-1.79,9.56-1.77,17.12,4.08,18.19,7.09-.46,12.92-3.76,15.62-14.22A6.93,6.93,0,0,0,427.58,328.88Z"/>
              <path class="cls-3" d="M159.36,408.5c1.07,2.57,3.88,3.38,8.14,2.73a3.65,3.65,0,0,0,3-2.94c1-5.48,1-9.8-2.33-10.42-4.06.27-7.4,2.16-8.94,8.14A4,4,0,0,0,159.36,408.5Z"/>
              <path class="cls-3" d="M30.31,364.05c4.87,3.29,7.76,1.4,8.71-5.54a1.83,1.83,0,0,0-1.18-2c-5.88-2-8.09.68-8.29,6A1.76,1.76,0,0,0,30.31,364.05Z"/>
              <path class="cls-3" d="M26.05,300.51c.68,6.53,7.15,9.76,10.85,6.83a1.28,1.28,0,0,0,.44-1c-.09-7.23-4.31-8.46-10.24-7.21A1.32,1.32,0,0,0,26.05,300.51Z"/>
              <path class="cls-3" d="M60.05,266.51c.68,6.53,7.15,9.76,10.85,6.83a1.28,1.28,0,0,0,.44-1c-.09-7.23-4.31-8.46-10.24-7.21A1.32,1.32,0,0,0,60.05,266.51Z"/>
              <path class="cls-3" d="M59.05,405.46c1.1-10.53,11.54-15.74,17.49-11a2.08,2.08,0,0,1,.72,1.62c-.15,11.65-7,13.64-16.52,11.63A2.14,2.14,0,0,1,59.05,405.46Z"/>
              <path class="cls-3" d="M63.05,332.46c1.1-10.53,11.54-15.74,17.49-11a2.08,2.08,0,0,1,.72,1.62c-.15,11.65-7,13.64-16.52,11.63A2.14,2.14,0,0,1,63.05,332.46Z"/>
              <path class="cls-3" d="M204.05,370.46c1.1-10.53,11.54-15.74,17.49-11a2.08,2.08,0,0,1,.72,1.62c-.15,11.65-6.95,13.64-16.52,11.63A2.14,2.14,0,0,1,204.05,370.46Z"/>
              <path class="cls-3" d="M333.05,300.51c.68,6.53,7.15,9.76,10.85,6.83a1.28,1.28,0,0,0,.44-1c-.09-7.23-4.31-8.46-10.24-7.21A1.32,1.32,0,0,0,333.05,300.51Z"/>
              <path class="cls-3" d="M265.55,309c.68,6.53,7.15,9.76,10.85,6.83a1.28,1.28,0,0,0,.44-1c-.09-7.23-4.31-8.46-10.24-7.21A1.32,1.32,0,0,0,265.55,309Z"/>
              <path class="cls-3" d="M318.55,382c.68,6.53,7.15,9.76,10.85,6.83a1.28,1.28,0,0,0,.44-1c-.09-7.23-4.31-8.46-10.24-7.21A1.32,1.32,0,0,0,318.55,382Z"/>
              <path class="cls-3" d="M169.05,302.91c1.59,15.18,16.63,22.69,25.22,15.88a3.07,3.07,0,0,0,1-2.35c-.22-16.79-10-19.65-23.81-16.76A3.1,3.1,0,0,0,169.05,302.91Z"/>
              <path class="cls-3" d="M298.05,332.91c1.59,15.18,16.63,22.69,25.22,15.88a3.07,3.07,0,0,0,1-2.35c-.22-16.79-10-19.65-23.81-16.76A3.1,3.1,0,0,0,298.05,332.91Z"/>
            </g>
            <g>
              <path class="cls-3" d="M909.74,362.5c-1.07,2.57-3.88,3.38-8.14,2.73a3.65,3.65,0,0,1-3-2.94c-1-5.48-1-9.8,2.33-10.42,4.06.27,7.4,2.16,8.94,8.14A4,4,0,0,1,909.74,362.5Z"/>
              <path class="cls-3" d="M749.29,362.5c1.06,2.57,3.88,3.38,8.13,2.73a3.65,3.65,0,0,0,3-2.94c1-5.48,1-9.8-2.34-10.42-4.05.27-7.39,2.16-8.94,8.14A4,4,0,0,0,749.29,362.5Z"/>
              <path class="cls-3" d="M764.51,419.13c1.92,4.65,7,6.1,14.66,4.93a6.59,6.59,0,0,0,5.4-5.31c1.84-9.86,1.83-17.66-4.21-18.77-7.31.48-13.33,3.89-16.11,14.67A7.16,7.16,0,0,0,764.51,419.13Z"/>
              <path class="cls-3" d="M632.51,412.13c1.92,4.65,7,6.1,14.66,4.93a6.59,6.59,0,0,0,5.4-5.31c1.84-9.86,1.83-17.66-4.21-18.77-7.31.48-13.33,3.89-16.11,14.67A7.16,7.16,0,0,0,632.51,412.13Z"/>
              <path class="cls-3" d="M691.29,412.82c1.06-2.58,3.88-3.38,8.13-2.73a3.65,3.65,0,0,1,3,2.94c1,5.47,1,9.8-2.34,10.41-4.05-.26-7.39-2.15-8.94-8.13A4,4,0,0,1,691.29,412.82Z"/>
              <path class="cls-3" d="M595.53,328.88c1.86-4.5,6.77-5.92,14.21-4.78a6.38,6.38,0,0,1,5.23,5.15c1.79,9.56,1.78,17.12-4.08,18.19-7.08-.46-12.92-3.76-15.62-14.22A6.87,6.87,0,0,1,595.53,328.88Z"/>
              <path class="cls-3" d="M863.74,408.5c-1.07,2.57-3.88,3.38-8.14,2.73a3.65,3.65,0,0,1-3-2.94c-1-5.48-1-9.8,2.33-10.42,4.06.27,7.4,2.16,8.94,8.14A4,4,0,0,1,863.74,408.5Z"/>
              <path class="cls-3" d="M992.79,364.05c-4.87,3.29-7.76,1.4-8.71-5.54a1.83,1.83,0,0,1,1.18-2c5.88-2,8.09.68,8.29,6A1.76,1.76,0,0,1,992.79,364.05Z"/>
              <path class="cls-3" d="M997.06,300.51c-.69,6.53-7.16,9.76-10.86,6.83a1.28,1.28,0,0,1-.44-1c.09-7.23,4.31-8.46,10.24-7.21A1.34,1.34,0,0,1,997.06,300.51Z"/>
              <path class="cls-3" d="M915.06,303.51c-.69,6.53-7.16,9.76-10.86,6.83a1.28,1.28,0,0,1-.44-1c.09-7.23,4.31-8.46,10.24-7.21A1.34,1.34,0,0,1,915.06,303.51Z"/>
              <path class="cls-3" d="M964.05,405.46c-1.1-10.53-11.54-15.74-17.49-11a2.08,2.08,0,0,0-.72,1.62c.15,11.65,7,13.64,16.52,11.63A2.14,2.14,0,0,0,964.05,405.46Z"/>
              <path class="cls-3" d="M960.05,332.46c-1.1-10.53-11.54-15.74-17.49-11a2.08,2.08,0,0,0-.72,1.62c.15,11.65,7,13.64,16.52,11.63A2.14,2.14,0,0,0,960.05,332.46Z"/>
              <path class="cls-3" d="M819.05,370.46c-1.1-10.53-11.54-15.74-17.49-11a2.08,2.08,0,0,0-.72,1.62c.15,11.65,7,13.64,16.52,11.63A2.14,2.14,0,0,0,819.05,370.46Z"/>
              <path class="cls-3" d="M661.06,302.51c-.69,6.53-7.16,9.76-10.86,6.83a1.28,1.28,0,0,1-.44-1c.09-7.23,4.31-8.46,10.24-7.21A1.34,1.34,0,0,1,661.06,302.51Z"/>
              <path class="cls-3" d="M757.56,309c-.69,6.53-7.16,9.76-10.86,6.83a1.28,1.28,0,0,1-.44-1c.09-7.23,4.31-8.46,10.24-7.21A1.34,1.34,0,0,1,757.56,309Z"/>
              <path class="cls-3" d="M704.56,382c-.69,6.53-7.16,9.76-10.86,6.83a1.28,1.28,0,0,1-.44-1c.09-7.23,4.31-8.46,10.24-7.21A1.34,1.34,0,0,1,704.56,382Z"/>
              <path class="cls-3" d="M854.05,302.91c-1.59,15.18-16.63,22.69-25.22,15.88a3,3,0,0,1-1-2.35c.21-16.79,10-19.65,23.8-16.76A3.1,3.1,0,0,1,854.05,302.91Z"/>
              <path class="cls-3" d="M725.05,332.91c-1.59,15.18-16.63,22.69-25.22,15.88a3,3,0,0,1-1-2.35c.21-16.79,10-19.65,23.8-16.76A3.1,3.1,0,0,1,725.05,332.91Z"/>
            </g>
          </g>
        </g>
      </g>
    </g>
  </g>
</svg>
