<svg xmlns="http://www.w3.org/2000/svg" viewBox="0 0 1024 515.95">
  <defs>
    <style>
      .cls-1 {
        fill: #392a1f;
      }

      .cls-2 {
        fill: #2f231a;
      }
    </style>
  </defs>
  <title>Asset 17</title>
  <g id="Layer_2" data-name="Layer 2">
    <g id="background">
      <g id="layeredSoil">
        <g id="soil5">
          <path class="cls-1" d="M1023,3c-51.76-4.21-98.63-5.7-118,8-44,21.27-82.45,27.78-114,16-54.52-13.2-98.12-12.78-135-4-39.31,18.55-73.27,18-104,6C487.94,10.49,438.76,6.64,405,18c-95.16-24.07-111.81-7.17-140,8-36.22,7.39-66.74,15-89.52,5.61-14.62-6-30.55-8.37-46.13-5.68-15.8,2.72-26.69.75-35.66-3.06a106.35,106.35,0,0,0-44.38-8.14L0,16,1,516H1024Z"/>
          <g id="secondRockGroup">
            <g id="undergroundRocks">
              <path class="cls-2" d="M117.37,168c1.06,2.57,3.87,3.38,8.13,2.73a3.66,3.66,0,0,0,3-2.94c1-5.48,1-9.8-2.34-10.42-4.06.27-7.4,2.16-8.94,8.14A3.93,3.93,0,0,0,117.37,168Z"/>
              <path class="cls-2" d="M277.81,168c-1.06,2.57-3.87,3.38-8.13,2.73a3.65,3.65,0,0,1-3-2.94c-1-5.48-1-9.8,2.34-10.42,4.06.27,7.4,2.16,8.94,8.14A3.93,3.93,0,0,1,277.81,168Z"/>
              <path class="cls-2" d="M277.59,217.63c-1.92,4.65-7,6.1-14.66,4.93a6.59,6.59,0,0,1-5.4-5.31c-1.84-9.86-1.82-17.66,4.21-18.77,7.31.48,13.33,3.89,16.11,14.67A7.16,7.16,0,0,1,277.59,217.63Z"/>
              <path class="cls-2" d="M394.59,217.63c-1.92,4.65-7,6.1-14.66,4.93a6.59,6.59,0,0,1-5.4-5.31c-1.84-9.86-1.82-17.66,4.21-18.77,7.31.48,13.33,3.89,16.11,14.67A7.16,7.16,0,0,1,394.59,217.63Z"/>
              <path class="cls-2" d="M335.81,218.32c-1.06-2.58-3.87-3.38-8.13-2.73a3.65,3.65,0,0,0-3,2.94c-1,5.47-1,9.8,2.34,10.41,4.06-.26,7.4-2.15,8.94-8.13A3.93,3.93,0,0,0,335.81,218.32Z"/>
              <path class="cls-2" d="M431.58,134.38c-1.86-4.5-6.78-5.92-14.22-4.78a6.39,6.39,0,0,0-5.23,5.15c-1.79,9.56-1.77,17.12,4.08,18.19,7.09-.46,12.93-3.76,15.62-14.22A6.93,6.93,0,0,0,431.58,134.38Z"/>
              <path class="cls-2" d="M163.37,214c1.06,2.57,3.87,3.38,8.13,2.73a3.66,3.66,0,0,0,3-2.94c1-5.48,1-9.8-2.34-10.42-4.06.27-7.4,2.16-8.94,8.14A3.93,3.93,0,0,0,163.37,214Z"/>
              <path class="cls-2" d="M34.31,169.55c4.87,3.29,7.76,1.4,8.71-5.54a1.83,1.83,0,0,0-1.18-2c-5.88-2-8.08.68-8.28,6A1.75,1.75,0,0,0,34.31,169.55Z"/>
              <path class="cls-2" d="M30.05,106c.68,6.53,7.16,9.76,10.85,6.83a1.33,1.33,0,0,0,.45-1c-.1-7.23-4.32-8.46-10.25-7.21A1.33,1.33,0,0,0,30.05,106Z"/>
              <path class="cls-2" d="M64.05,72c.68,6.53,7.16,9.76,10.85,6.83a1.33,1.33,0,0,0,.45-1c-.1-7.23-4.32-8.46-10.25-7.21A1.33,1.33,0,0,0,64.05,72Z"/>
              <path class="cls-2" d="M63.05,211c1.1-10.53,11.54-15.74,17.49-11a2.08,2.08,0,0,1,.72,1.62c-.14,11.65-7,13.64-16.51,11.63A2.15,2.15,0,0,1,63.05,211Z"/>
              <path class="cls-2" d="M67.05,138c1.1-10.53,11.54-15.74,17.49-11a2.08,2.08,0,0,1,.72,1.62c-.14,11.65-7,13.64-16.51,11.63A2.15,2.15,0,0,1,67.05,138Z"/>
              <path class="cls-2" d="M208.05,176c1.1-10.53,11.54-15.74,17.49-11a2.08,2.08,0,0,1,.72,1.62c-.14,11.65-6.95,13.64-16.51,11.63A2.15,2.15,0,0,1,208.05,176Z"/>
              <path class="cls-2" d="M337.05,106c.68,6.53,7.16,9.76,10.85,6.83a1.33,1.33,0,0,0,.45-1c-.1-7.23-4.32-8.46-10.25-7.21A1.33,1.33,0,0,0,337.05,106Z"/>
              <path class="cls-2" d="M269.55,114.51c.68,6.53,7.16,9.76,10.85,6.83a1.33,1.33,0,0,0,.45-1c-.1-7.23-4.32-8.46-10.25-7.21A1.33,1.33,0,0,0,269.55,114.51Z"/>
              <path class="cls-2" d="M322.55,187.51c.68,6.53,7.16,9.76,10.85,6.83a1.33,1.33,0,0,0,.45-1c-.1-7.23-4.32-8.46-10.25-7.21A1.33,1.33,0,0,0,322.55,187.51Z"/>
              <path class="cls-2" d="M173.06,108.41c1.58,15.18,16.63,22.69,25.21,15.88a3.07,3.07,0,0,0,1-2.35c-.22-16.79-10-19.65-23.81-16.76A3.09,3.09,0,0,0,173.06,108.41Z"/>
              <path class="cls-2" d="M302.06,138.41c1.58,15.18,16.63,22.69,25.21,15.88a3.07,3.07,0,0,0,1-2.35c-.22-16.79-10-19.65-23.81-16.76A3.09,3.09,0,0,0,302.06,138.41Z"/>
            </g>
            <g>
              <path class="cls-2" d="M913.74,168c-1.06,2.57-3.88,3.38-8.13,2.73a3.65,3.65,0,0,1-3-2.94c-1-5.48-1-9.8,2.34-10.42,4,.27,7.39,2.16,8.94,8.14A4,4,0,0,1,913.74,168Z"/>
              <path class="cls-2" d="M753.29,168c1.07,2.57,3.88,3.38,8.14,2.73a3.65,3.65,0,0,0,3-2.94c1-5.48,1-9.8-2.33-10.42-4.06.27-7.4,2.16-8.94,8.14A4,4,0,0,0,753.29,168Z"/>
              <path class="cls-2" d="M768.52,224.63c1.91,4.65,7,6.1,14.66,4.93a6.57,6.57,0,0,0,5.39-5.31c1.85-9.86,1.83-17.66-4.21-18.77-7.3.48-13.33,3.89-16.11,14.67A7.16,7.16,0,0,0,768.52,224.63Z"/>
              <path class="cls-2" d="M636.52,217.63c1.91,4.65,7,6.1,14.66,4.93a6.57,6.57,0,0,0,5.39-5.31c1.85-9.86,1.83-17.66-4.21-18.77-7.3.48-13.33,3.89-16.11,14.67A7.16,7.16,0,0,0,636.52,217.63Z"/>
              <path class="cls-2" d="M695.29,218.32c1.07-2.58,3.88-3.38,8.14-2.73a3.65,3.65,0,0,1,3,2.94c1,5.47,1,9.8-2.33,10.41-4.06-.26-7.4-2.15-8.94-8.13A4,4,0,0,1,695.29,218.32Z"/>
              <path class="cls-2" d="M599.53,134.38c1.86-4.5,6.78-5.92,14.21-4.78a6.39,6.39,0,0,1,5.24,5.15c1.79,9.56,1.77,17.12-4.09,18.19-7.08-.46-12.92-3.76-15.62-14.22A7,7,0,0,1,599.53,134.38Z"/>
              <path class="cls-2" d="M867.74,214c-1.06,2.57-3.88,3.38-8.13,2.73a3.65,3.65,0,0,1-3-2.94c-1-5.48-1-9.8,2.34-10.42,4,.27,7.39,2.16,8.94,8.14A4,4,0,0,1,867.74,214Z"/>
              <path class="cls-2" d="M996.8,169.55c-4.88,3.29-7.77,1.4-8.72-5.54a1.85,1.85,0,0,1,1.18-2c5.88-2,8.09.68,8.29,6A1.77,1.77,0,0,1,996.8,169.55Z"/>
              <path class="cls-2" d="M1001.06,106c-.68,6.53-7.16,9.76-10.85,6.83a1.33,1.33,0,0,1-.45-1c.09-7.23,4.32-8.46,10.25-7.21A1.34,1.34,0,0,1,1001.06,106Z"/>
              <path class="cls-2" d="M919.06,109c-.68,6.53-7.16,9.76-10.85,6.83a1.33,1.33,0,0,1-.45-1c.09-7.23,4.32-8.46,10.25-7.21A1.34,1.34,0,0,1,919.06,109Z"/>
              <path class="cls-2" d="M968.05,211c-1.09-10.53-11.53-15.74-17.49-11a2.15,2.15,0,0,0-.72,1.62c.15,11.65,7,13.64,16.52,11.63A2.14,2.14,0,0,0,968.05,211Z"/>
              <path class="cls-2" d="M964.05,138c-1.09-10.53-11.53-15.74-17.49-11a2.15,2.15,0,0,0-.72,1.62c.15,11.65,7,13.64,16.52,11.63A2.14,2.14,0,0,0,964.05,138Z"/>
              <path class="cls-2" d="M823.05,176c-1.09-10.53-11.53-15.74-17.49-11a2.15,2.15,0,0,0-.72,1.62c.15,11.65,7,13.64,16.52,11.63A2.14,2.14,0,0,0,823.05,176Z"/>
              <path class="cls-2" d="M665.06,108c-.68,6.53-7.16,9.76-10.85,6.83a1.33,1.33,0,0,1-.45-1c.09-7.23,4.32-8.46,10.25-7.21A1.34,1.34,0,0,1,665.06,108Z"/>
              <path class="cls-2" d="M761.56,114.51c-.68,6.53-7.16,9.76-10.85,6.83a1.33,1.33,0,0,1-.45-1c.09-7.23,4.32-8.46,10.25-7.21A1.34,1.34,0,0,1,761.56,114.51Z"/>
              <path class="cls-2" d="M708.56,187.51c-.68,6.53-7.16,9.76-10.85,6.83a1.33,1.33,0,0,1-.45-1c.09-7.23,4.32-8.46,10.25-7.21A1.34,1.34,0,0,1,708.56,187.51Z"/>
              <path class="cls-2" d="M858.05,108.41c-1.58,15.18-16.63,22.69-25.21,15.88a3,3,0,0,1-1-2.35c.21-16.79,10-19.65,23.81-16.76A3.09,3.09,0,0,1,858.05,108.41Z"/>
              <path class="cls-2" d="M729.05,138.41c-1.58,15.18-16.63,22.69-25.21,15.88a3,3,0,0,1-1-2.35c.21-16.79,10-19.65,23.81-16.76A3.09,3.09,0,0,1,729.05,138.41Z"/>
            </g>
          </g>
          <g id="secondRockGroup-2" data-name="secondRockGroup">
            <g id="undergroundRocks-2" data-name="undergroundRocks">
              <path class="cls-2" d="M114.37,356c1.06,2.57,3.87,3.38,8.13,2.73a3.66,3.66,0,0,0,3-2.94c1-5.48,1-9.8-2.34-10.42-4.06.27-7.4,2.16-8.94,8.14A3.93,3.93,0,0,0,114.37,356Z"/>
              <path class="cls-2" d="M274.81,356c-1.06,2.57-3.87,3.38-8.13,2.73a3.65,3.65,0,0,1-3-2.94c-1-5.48-1-9.8,2.34-10.42,4.06.27,7.4,2.16,8.94,8.14A3.93,3.93,0,0,1,274.81,356Z"/>
              <path class="cls-2" d="M274.59,405.63c-1.92,4.65-7,6.1-14.66,4.93a6.59,6.59,0,0,1-5.4-5.31c-1.84-9.86-1.82-17.66,4.21-18.77,7.31.48,13.33,3.89,16.11,14.67A7.16,7.16,0,0,1,274.59,405.63Z"/>
              <path class="cls-2" d="M391.59,405.63c-1.92,4.65-7,6.1-14.66,4.93a6.59,6.59,0,0,1-5.4-5.31c-1.84-9.86-1.82-17.66,4.21-18.77,7.31.48,13.33,3.89,16.11,14.67A7.16,7.16,0,0,1,391.59,405.63Z"/>
              <path class="cls-2" d="M332.81,406.32c-1.06-2.58-3.87-3.38-8.13-2.73a3.65,3.65,0,0,0-3,2.94c-1,5.47-1,9.8,2.34,10.41,4.06-.26,7.4-2.15,8.94-8.13A3.93,3.93,0,0,0,332.81,406.32Z"/>
              <path class="cls-2" d="M428.58,322.38c-1.86-4.5-6.78-5.92-14.22-4.78a6.39,6.39,0,0,0-5.23,5.15c-1.79,9.56-1.77,17.12,4.08,18.19,7.09-.46,12.93-3.76,15.62-14.22A6.93,6.93,0,0,0,428.58,322.38Z"/>
              <path class="cls-2" d="M160.37,402c1.06,2.57,3.87,3.38,8.13,2.73a3.66,3.66,0,0,0,3-2.94c1-5.48,1-9.8-2.34-10.42-4.06.27-7.4,2.16-8.94,8.14A3.93,3.93,0,0,0,160.37,402Z"/>
              <path class="cls-2" d="M31.31,357.55c4.87,3.29,7.76,1.4,8.71-5.54a1.83,1.83,0,0,0-1.18-2c-5.88-2-8.08.68-8.28,6A1.75,1.75,0,0,0,31.31,357.55Z"/>
              <path class="cls-2" d="M27.05,294c.68,6.53,7.16,9.76,10.85,6.83a1.33,1.33,0,0,0,.45-1c-.1-7.23-4.32-8.46-10.25-7.21A1.33,1.33,0,0,0,27.05,294Z"/>
              <path class="cls-2" d="M61.05,260c.68,6.53,7.16,9.76,10.85,6.83a1.33,1.33,0,0,0,.45-1c-.1-7.23-4.32-8.46-10.25-7.21A1.33,1.33,0,0,0,61.05,260Z"/>
              <path class="cls-2" d="M60.05,399c1.1-10.53,11.54-15.74,17.49-11a2.08,2.08,0,0,1,.72,1.62c-.14,11.65-7,13.64-16.51,11.63A2.15,2.15,0,0,1,60.05,399Z"/>
              <path class="cls-2" d="M64.05,326c1.1-10.53,11.54-15.74,17.49-11a2.08,2.08,0,0,1,.72,1.62c-.14,11.65-7,13.64-16.51,11.63A2.15,2.15,0,0,1,64.05,326Z"/>
              <path class="cls-2" d="M205.05,364c1.1-10.53,11.54-15.74,17.49-11a2.08,2.08,0,0,1,.72,1.62c-.14,11.65-6.95,13.64-16.51,11.63A2.15,2.15,0,0,1,205.05,364Z"/>
              <path class="cls-2" d="M334.05,294c.68,6.53,7.16,9.76,10.85,6.83a1.33,1.33,0,0,0,.45-1c-.1-7.23-4.32-8.46-10.25-7.21A1.33,1.33,0,0,0,334.05,294Z"/>
              <path class="cls-2" d="M266.55,302.51c.68,6.53,7.16,9.76,10.85,6.83a1.33,1.33,0,0,0,.45-1c-.1-7.23-4.32-8.46-10.25-7.21A1.33,1.33,0,0,0,266.55,302.51Z"/>
              <path class="cls-2" d="M319.55,375.51c.68,6.53,7.16,9.76,10.85,6.83a1.33,1.33,0,0,0,.45-1c-.1-7.23-4.32-8.46-10.25-7.21A1.33,1.33,0,0,0,319.55,375.51Z"/>
              <path class="cls-2" d="M170.06,296.41c1.58,15.18,16.63,22.69,25.21,15.88a3.07,3.07,0,0,0,1-2.35c-.22-16.79-10-19.65-23.81-16.76A3.09,3.09,0,0,0,170.06,296.41Z"/>
              <path class="cls-2" d="M299.06,326.41c1.58,15.18,16.63,22.69,25.21,15.88a3.07,3.07,0,0,0,1-2.35c-.22-16.79-10-19.65-23.81-16.76A3.09,3.09,0,0,0,299.06,326.41Z"/>
            </g>
            <g>
              <path class="cls-2" d="M910.74,356c-1.06,2.57-3.88,3.38-8.13,2.73a3.65,3.65,0,0,1-3-2.94c-1-5.48-1-9.8,2.34-10.42,4,.27,7.39,2.16,8.94,8.14A4,4,0,0,1,910.74,356Z"/>
              <path class="cls-2" d="M750.29,356c1.07,2.57,3.88,3.38,8.14,2.73a3.65,3.65,0,0,0,3-2.94c1-5.48,1-9.8-2.33-10.42-4.06.27-7.4,2.16-8.94,8.14A4,4,0,0,0,750.29,356Z"/>
              <path class="cls-2" d="M765.52,412.63c1.91,4.65,7,6.1,14.66,4.93a6.57,6.57,0,0,0,5.39-5.31c1.85-9.86,1.83-17.66-4.21-18.77-7.3.48-13.33,3.89-16.11,14.67A7.16,7.16,0,0,0,765.52,412.63Z"/>
              <path class="cls-2" d="M633.52,405.63c1.91,4.65,7,6.1,14.66,4.93a6.57,6.57,0,0,0,5.39-5.31c1.85-9.86,1.83-17.66-4.21-18.77-7.3.48-13.33,3.89-16.11,14.67A7.16,7.16,0,0,0,633.52,405.63Z"/>
              <path class="cls-2" d="M692.29,406.32c1.07-2.58,3.88-3.38,8.14-2.73a3.65,3.65,0,0,1,3,2.94c1,5.47,1,9.8-2.33,10.41-4.06-.26-7.4-2.15-8.94-8.13A4,4,0,0,1,692.29,406.32Z"/>
              <path class="cls-2" d="M596.53,322.38c1.86-4.5,6.78-5.92,14.21-4.78a6.39,6.39,0,0,1,5.24,5.15c1.79,9.56,1.77,17.12-4.09,18.19-7.08-.46-12.92-3.76-15.62-14.22A7,7,0,0,1,596.53,322.38Z"/>
              <path class="cls-2" d="M864.74,402c-1.06,2.57-3.88,3.38-8.13,2.73a3.65,3.65,0,0,1-3-2.94c-1-5.48-1-9.8,2.34-10.42,4,.27,7.39,2.16,8.94,8.14A4,4,0,0,1,864.74,402Z"/>
              <path class="cls-2" d="M993.8,357.55c-4.88,3.29-7.77,1.4-8.72-5.54a1.85,1.85,0,0,1,1.18-2c5.88-2,8.09.68,8.29,6A1.77,1.77,0,0,1,993.8,357.55Z"/>
              <path class="cls-2" d="M998.06,294c-.68,6.53-7.16,9.76-10.85,6.83a1.33,1.33,0,0,1-.45-1c.09-7.23,4.32-8.46,10.25-7.21A1.34,1.34,0,0,1,998.06,294Z"/>
              <path class="cls-2" d="M916.06,297c-.68,6.53-7.16,9.76-10.85,6.83a1.33,1.33,0,0,1-.45-1c.09-7.23,4.32-8.46,10.25-7.21A1.34,1.34,0,0,1,916.06,297Z"/>
              <path class="cls-2" d="M965.05,399c-1.09-10.53-11.53-15.74-17.49-11a2.15,2.15,0,0,0-.72,1.62c.15,11.65,7,13.64,16.52,11.63A2.14,2.14,0,0,0,965.05,399Z"/>
              <path class="cls-2" d="M961.05,326c-1.09-10.53-11.53-15.74-17.49-11a2.15,2.15,0,0,0-.72,1.62c.15,11.65,7,13.64,16.52,11.63A2.14,2.14,0,0,0,961.05,326Z"/>
              <path class="cls-2" d="M820.05,364c-1.09-10.53-11.53-15.74-17.49-11a2.15,2.15,0,0,0-.72,1.62c.15,11.65,7,13.64,16.52,11.63A2.14,2.14,0,0,0,820.05,364Z"/>
              <path class="cls-2" d="M662.06,296c-.68,6.53-7.16,9.76-10.85,6.83a1.33,1.33,0,0,1-.45-1c.09-7.23,4.32-8.46,10.25-7.21A1.34,1.34,0,0,1,662.06,296Z"/>
              <path class="cls-2" d="M758.56,302.51c-.68,6.53-7.16,9.76-10.85,6.83a1.33,1.33,0,0,1-.45-1c.09-7.23,4.32-8.46,10.25-7.21A1.34,1.34,0,0,1,758.56,302.51Z"/>
              <path class="cls-2" d="M705.56,375.51c-.68,6.53-7.16,9.76-10.85,6.83a1.33,1.33,0,0,1-.45-1c.09-7.23,4.32-8.46,10.25-7.21A1.34,1.34,0,0,1,705.56,375.51Z"/>
              <path class="cls-2" d="M855.05,296.41c-1.58,15.18-16.63,22.69-25.21,15.88a3,3,0,0,1-1-2.35c.21-16.79,10-19.65,23.81-16.76A3.09,3.09,0,0,1,855.05,296.41Z"/>
              <path class="cls-2" d="M726.05,326.41c-1.58,15.18-16.63,22.69-25.21,15.88a3,3,0,0,1-1-2.35c.21-16.79,10-19.65,23.81-16.76A3.09,3.09,0,0,1,726.05,326.41Z"/>
            </g>
          </g>
        </g>
      </g>
    </g>
  </g>
</svg>
