<svg id="Layer_1" data-name="Layer 1" xmlns="http://www.w3.org/2000/svg" viewBox="0 0 2208 1242">
  <defs>
    <style>
      .cls-1 {
        fill: #ebc98f;
      }

      .cls-2, .cls-5, .cls-6 {
        fill: none;
        stroke: #000;
        stroke-miterlimit: 10;
      }

      .cls-2 {
        stroke-width: 3.67px;
      }

      .cls-3 {
        fill: #883715;
      }

      .cls-4 {
        fill: #f1f1f1;
      }

      .cls-5 {
        stroke-width: 4.03px;
      }

      .cls-6 {
        stroke-width: 3.8px;
      }

      .cls-7 {
        fill: #1a1a1a;
      }

      .cls-8 {
        fill: #d13c09;
      }
    </style>
  </defs>
  <title>car</title>
  <g id="streetcar">
    <path class="cls-1" d="M1222,911l1-140c1-88-51-149.6-139-159-.5,0-157.93-19.07-264.72-10.8-90,7-178.23,13.49-262.12,11.95-12.79-.24-42.65-1-55.62.18-37.38,3.28-80,15.56-85.54,52.67l-3,59L886,904Z"/>
    <path class="cls-2" d="M1222,911l1-140c1-88-51-149.6-139-159-.5,0-157.93-19.07-264.72-10.8-90,7-178.23,13.49-262.12,11.95-12.79-.24-42.65-1-55.62.18-37.38,3.28-80,15.56-85.54,52.67l-3,59L886,904Z"/>
    <path class="cls-3" d="M866.08,709.82l.47-17.93a5.43,5.43,0,0,0-1.67-4.09c-42.25-40.31-235.74-32.23-431.39-36.22a1.75,1.75,0,0,0-1.78,1.72v.06L432,667c198.08,1.25,383.4-1.92,431.76,43.78a1.36,1.36,0,0,0,2.3-.95"/>
    <path class="cls-2" d="M866.08,709.82l.47-17.93a5.43,5.43,0,0,0-1.67-4.09c-42.25-40.31-235.74-32.23-431.39-36.22a1.75,1.75,0,0,0-1.78,1.72v.06L432,667c198.08,1.25,383.4-1.92,431.76,43.78a1.36,1.36,0,0,0,2.32-1Z"/>
    <line class="cls-2" x1="1182" y1="726" x2="958" y2="741"/>
    <path class="cls-2" d="M810,602l-11.4-25.67C730.4,558,658.44,559.75,583.41,578l-10.13,20.92-26.46,4L544,613C609,615,706.51,610.07,810,602Z"/>
    <path class="cls-1" d="M810,602l-11.4-25.67C730.4,558,658.44,559.75,583.41,578l-10.13,20.92-26.46,4L544,613c65,2,162.51-2.93,266-11"/>
    <path class="cls-3" d="M1201,715,936,730.8V712.39A22.43,22.43,0,0,1,957.37,690L1173,679.79a26.78,26.78,0,0,1,28,25.53c0,.41,0,.81,0,1.22Z"/>
    <path class="cls-2" d="M1201,715,936,730.8V712.39A22.43,22.43,0,0,1,957.37,690L1173,679.79a26.78,26.78,0,0,1,28,25.53c0,.41,0,.81,0,1.22Z"/>
    <path class="cls-4" d="M1051,851,937.33,862.4a11.2,11.2,0,0,1-12.27-10,10.69,10.69,0,0,1-.06-1.13V814.83a67.1,67.1,0,0,1,62.7-67l45.5-3A16.69,16.69,0,0,1,1051,760.37c0,.37,0,.75,0,1.12Z"/>
    <path class="cls-5" d="M1051,851,937.33,862.4a11.2,11.2,0,0,1-12.27-10,10.69,10.69,0,0,1-.06-1.13V814.83a67.1,67.1,0,0,1,62.7-67l45.5-3A16.69,16.69,0,0,1,1051,760.37c0,.37,0,.75,0,1.12Z"/>
    <path class="cls-4" d="M1165.22,836.47,1067,846.22v-85.3a18.08,18.08,0,0,1,16.88-18l47.61-3.16a45.49,45.49,0,0,1,48.41,42.37c.07,1,.1,2,.1,3v35a16.41,16.41,0,0,1-14.78,16.33"/>
    <path class="cls-5" d="M1165.22,836.47,1067,846.22v-85.3a18.08,18.08,0,0,1,16.88-18l47.61-3.16a45.49,45.49,0,0,1,48.41,42.37c.07,1,.1,2,.1,3v35A16.41,16.41,0,0,1,1165.22,836.47Z"/>
    <polygon class="cls-4" points="439 718 458 724.65 458 682 439 676.87 439 718"/>
    <polygon class="cls-6" points="439 718 458 724.65 458 682 439 676.87 439 718"/>
    <polygon class="cls-4" points="489.86 680.89 511.29 686.27 511.29 741.84 489.86 734.4 489.86 680.89"/>
    <polygon class="cls-6" points="489.86 680.89 511.29 686.27 511.29 741.84 489.86 734.4 489.86 680.89"/>
    <polygon class="cls-4" points="540.71 684.91 564.57 690.55 564.57 759.03 540.71 750.8 540.71 684.91"/>
    <polygon class="cls-6" points="540.71 684.91 564.57 690.55 564.57 759.03 540.71 750.8 540.71 684.91"/>
    <polygon class="cls-4" points="591.57 688.92 617.86 694.82 617.86 776.23 591.57 767.2 591.57 688.92"/>
    <polygon class="cls-6" points="591.57 688.92 617.86 694.82 617.86 776.23 591.57 767.2 591.57 688.92"/>
    <polygon class="cls-4" points="642.43 692.94 671.14 699.09 671.14 793.42 642.43 783.6 642.43 692.94"/>
    <polygon class="cls-6" points="642.43 692.94 671.14 699.09 671.14 793.42 642.43 783.6 642.43 692.94"/>
    <polygon class="cls-4" points="693.29 696.96 724.43 703.37 724.43 810.61 693.29 800 693.29 696.96"/>
    <polygon class="cls-6" points="693.29 696.96 724.43 703.37 724.43 810.61 693.29 800 693.29 696.96"/>
    <polygon class="cls-4" points="744.14 700.98 777.71 707.64 777.71 827.81 744.14 816.4 744.14 700.98"/>
    <polygon class="cls-6" points="744.14 700.98 777.71 707.64 777.71 827.81 744.14 816.4 744.14 700.98"/>
    <polygon class="cls-4" points="795 705 831 711.91 831 845 795 832.81 795 705"/>
    <polygon class="cls-6" points="795 705 831 711.91 831 845 795 832.81 795 705"/>
    <line class="cls-2" x1="881" y1="704.79" x2="879" y2="894"/>
    <path class="cls-7" d="M699.2,1036.78c-3,23.15,16.58,44.77,43.75,48.31s51.65-12.38,54.65-35.52-16.58-44.78-43.75-48.31-51.65,12.37-54.65,35.52"/>
    <path class="cls-7" d="M464.2,872.78c-3,23.15,16.58,44.77,43.75,48.31s51.65-12.38,54.65-35.52-16.6-44.78-43.75-48.31-51.65,12.37-54.65,35.52"/>
    <path class="cls-8" d="M1222,1103l-72,15c-4.06-52.32-172.73-33.15-168,31l-101,19.29L879,892l343-34.89Z"/>
    <path class="cls-2" d="M1222,1103l-72,15c-4.06-52.32-172.73-33.15-168,31l-101,19.29L879,892l343-34.89Z"/>
    <path class="cls-8" d="M413,719,879,891.7V1167l-97.71-64.38C799,1075,700,1019,691.93,1043.75L528.79,936.26C536,910,465,868,457.83,889.51L413,860Z"/>
    <path class="cls-2" d="M413,719,879,891.7V1167l-97.71-64.38C799,1075,700,1019,691.93,1043.75L528.79,936.26C536,910,465,868,457.83,889.51L413,860Z"/>
    <line class="cls-2" x1="414" y1="805" x2="880" y2="1050"/>
    <line class="cls-2" x1="880" y1="1050" x2="1224" y2="990"/>
    <path class="cls-4" d="M1045.5,934.9a23.89,23.89,0,1,0,26.77-20.61h0a23.89,23.89,0,0,0-26.77,20.61"/>
    <path class="cls-5" d="M1045.5,934.9a23.89,23.89,0,1,0,26.77-20.61h0A23.89,23.89,0,0,0,1045.5,934.9Z"/>
  </g>
</svg>
