<svg xmlns="http://www.w3.org/2000/svg" viewBox="0 0 2214.03 1243.37">
  <defs>
    <style>
      .cls-1 {
        fill: #aed6df;
      }

      .cls-2 {
        fill: #bfd19a;
      }

      .cls-10, .cls-12, .cls-14, .cls-15, .cls-17, .cls-19, .cls-20, .cls-21, .cls-22, .cls-23, .cls-25, .cls-26, .cls-28, .cls-29, .cls-3, .cls-30, .cls-31, .cls-33, .cls-6 {
        fill: none;
        stroke-miterlimit: 10;
      }

      .cls-10, .cls-14, .cls-17, .cls-19, .cls-20, .cls-21, .cls-22, .cls-23, .cls-25, .cls-26, .cls-28, .cls-29, .cls-3, .cls-30, .cls-31, .cls-33, .cls-6 {
        stroke: #000;
      }

      .cls-4 {
        fill: #fff;
      }

      .cls-5 {
        fill: #979797;
      }

      .cls-17, .cls-19, .cls-6 {
        stroke-linecap: round;
      }

      .cls-7 {
        fill: #7e321c;
      }

      .cls-8 {
        fill: #924127;
      }

      .cls-9 {
        fill: #603813;
      }

      .cls-10 {
        stroke-width: 1.01px;
      }

      .cls-11 {
        fill: #b3b3b3;
      }

      .cls-12 {
        stroke: #603813;
      }

      .cls-12, .cls-15 {
        stroke-width: 3px;
      }

      .cls-13 {
        fill: #754c24;
      }

      .cls-14 {
        stroke-width: 0.73px;
      }

      .cls-15 {
        stroke: #754c24;
      }

      .cls-16 {
        fill: #8c6239;
      }

      .cls-17 {
        stroke-width: 1.04px;
      }

      .cls-18 {
        fill: #a67c52;
      }

      .cls-19 {
        stroke-width: 0.9px;
      }

      .cls-20 {
        stroke-width: 1.17px;
      }

      .cls-21 {
        stroke-width: 1px;
      }

      .cls-22 {
        stroke-width: 1.05px;
      }

      .cls-23 {
        stroke-width: 0.75px;
      }

      .cls-24 {
        fill: #42210b;
      }

      .cls-25 {
        stroke-width: 1.01px;
      }

      .cls-26 {
        stroke-width: 1.01px;
      }

      .cls-27 {
        fill: gray;
      }

      .cls-28 {
        stroke-width: 1.03px;
      }

      .cls-29 {
        stroke-width: 0.97px;
      }

      .cls-30 {
        stroke-width: 0.99px;
      }

      .cls-31 {
        stroke-width: 1.09px;
      }

      .cls-32 {
        fill: #4d4d4d;
      }

      .cls-33 {
        stroke-width: 1.09px;
      }

      .cls-34 {
        fill: #c7b299;
      }
    </style>
  </defs>
  <title>Asset 2</title>
  <g id="Layer_2" data-name="Layer 2">
    <g id="Layer_1-2" data-name="Layer 1">
      <polygon class="cls-1" points="4.53 0 4.53 781.5 2211.53 781 2211.53 0 4.53 0"/>
      <g>
        <path class="cls-2" d="M1138,1242,4.53,1240.25v-695L46.22,571.1c37.13,38.08,69.24,61.9,90.84,55.83,5.47,26.32,111.47,85.32,133.61,82.1l63.1,38.78c17.14,33.94,53.63,51.38,99.3,61,8.4,9.12,18.67,18,41.24,25.34Z"/>
        <path class="cls-2" d="M1550.5,1242h662.91a.12.12,0,0,0,.12-.12L2212,743.5c0-.06-3.05-1-3.11-1L5,511.5c-.13,0-1,20-1,20l145,66L1550.5,1242"/>
        <path class="cls-3" d="M1550.5,1242h662.91a.12.12,0,0,0,.12-.12L2212,743.5c0-.06-3.05-1-3.11-1L5,511.5c-.13,0-1,20-1,20l145,66Z"/>
        <path class="cls-4" d="M188.53,211c4.58-31.94,28-51,70-34,30.61-42.78,62.73-38.5,96,2,28.46-4.86,44.89,6.93,51,33Z"/>
        <path class="cls-4" d="M413.53,292h242c1.93-29.24-8.95-45.7-32-50-6.67-32.95-27.43-48.26-68-40-41.16-19.49-72-3.39-88,33-38.28,15.6-56.28,24.87-54,57"/>
        <path class="cls-5" d="M741.61,774l679.92,236.54V1191L741,867.5l.5-93.41s0-.08.08-.06"/>
        <path class="cls-6" d="M741.61,774l679.92,236.54V1191L741,867.5l.5-93.41S741.57,774,741.61,774Z"/>
        <path class="cls-5" d="M944.53,757l783,200-306,54L741.93,774.14a.09.09,0,0,1,0-.17Z"/>
        <path class="cls-6" d="M944.53,757l783,200-306,54L741.93,774.14a.09.09,0,0,1,0-.17Z"/>
        <polygon class="cls-7" points="944.03 305.5 1725.03 114.5 1728.03 349.5 944.03 426.68 944.03 305.5"/>
        <polygon class="cls-3" points="944.03 305.5 1725.03 114.5 1728.03 349.5 944.03 426.68 944.03 305.5"/>
        <polygon class="cls-8" points="2212.03 178.5 1724.03 106.44 1725.03 405.5 2211.03 428.5 2212.03 178.5"/>
        <polygon class="cls-3" points="2212.03 178.5 1724.03 106.44 1725.03 405.5 2211.03 428.5 2212.03 178.5"/>
        <polygon class="cls-7" points="945.53 453 1726.53 397.43 1726.53 956 945.53 759.31 945.53 453"/>
        <polygon class="cls-3" points="945.53 453 1726.53 397.43 1726.53 956 945.53 759.31 945.53 453"/>
        <polygon class="cls-8" points="2212.03 421.5 1727.53 397.37 1727.53 957 2212.53 865.35 2212.03 421.5"/>
        <polygon class="cls-3" points="2212.03 421.5 1727.53 397.37 1727.53 957 2212.53 865.35 2212.03 421.5"/>
        <polygon class="cls-5" points="2211.53 1006 1421.53 1193.4 1421.53 1010 2212.53 866 2211.53 1006"/>
        <polygon class="cls-6" points="2211.53 1006 1421.53 1193.4 1421.53 1010 2212.53 866 2211.53 1006"/>
        <polygon class="cls-9" points="1144.03 683.5 1007.03 664.12 1007.03 524.5 1144.03 525.01 1144.03 683.5"/>
        <polygon class="cls-10" points="1144.03 683.5 1007.03 664.12 1007.03 524.5 1144.03 525.01 1144.03 683.5"/>
        <polygon class="cls-11" points="1133.03 668.5 1015.03 653.2 1015.03 534.5 1133.03 536.09 1133.03 668.5"/>
        <polygon class="cls-3" points="1133.03 668.5 1015.03 653.2 1015.03 534.5 1133.03 536.09 1133.03 668.5"/>
        <line class="cls-12" x1="1050.03" y1="535.5" x2="1050.03" y2="656.76"/>
        <line class="cls-12" x1="1094.03" y1="535.5" x2="1094.03" y2="663.5"/>
        <line class="cls-12" x1="1015.03" y1="589.5" x2="1136.03" y2="597.64"/>
        <polygon class="cls-9" points="1353.03 522.5 1584.03 522.8 1584.03 741.5 1353.03 709.44 1353.03 522.5"/>
        <polygon class="cls-10" points="1353.03 522.5 1584.03 522.8 1584.03 741.5 1353.03 709.44 1353.03 522.5"/>
        <polygon class="cls-11" points="1567.03 718.5 1368.03 693.49 1368.03 539.5 1567.03 542.22 1567.03 718.5"/>
        <polygon class="cls-3" points="1567.03 718.5 1368.03 693.49 1368.03 539.5 1567.03 542.22 1567.03 718.5"/>
        <line class="cls-12" x1="1426.03" y1="540.5" x2="1426.03" y2="703.5"/>
        <line class="cls-12" x1="1497.03" y1="541.5" x2="1497.03" y2="711.25"/>
        <line class="cls-12" x1="1366.03" y1="608.5" x2="1573.03" y2="621.73"/>
        <polygon class="cls-9" points="1310.03 848.5 1208.03 823.11 1208.03 586.5 1310.03 592.02 1310.03 848.5"/>
        <polygon class="cls-6" points="1310.03 848.5 1208.03 823.11 1208.03 586.5 1310.03 592.02 1310.03 848.5"/>
        <polygon class="cls-13" points="1300.03 845.5 1215.03 824.37 1215.03 594.5 1300.03 599.63 1300.03 845.5"/>
        <polygon class="cls-6" points="1300.03 845.5 1215.03 824.37 1215.03 594.5 1300.03 599.63 1300.03 845.5"/>
        <path d="M1294.53,733.76c0,2.48-1.13,4.34-2.51,4.18s-2.49-2.3-2.49-4.76,1.11-4.33,2.49-4.17,2.51,2.28,2.51,4.75"/>
        <path class="cls-14" d="M1294.53,733.76c0,2.48-1.13,4.34-2.51,4.18s-2.49-2.3-2.49-4.76,1.11-4.33,2.49-4.17S1294.53,731.29,1294.53,733.76Z"/>
        <polygon class="cls-11" points="1287.03 706.5 1228.03 698.03 1228.03 613.5 1287.03 617.93 1287.03 706.5"/>
        <polygon class="cls-3" points="1287.03 706.5 1228.03 698.03 1228.03 613.5 1287.03 617.93 1287.03 706.5"/>
        <line class="cls-15" x1="1249.03" y1="614" x2="1249.03" y2="704"/>
        <line class="cls-15" x1="1271.03" y1="615" x2="1271.03" y2="708"/>
        <line class="cls-15" x1="1226.03" y1="638.5" x2="1288.03" y2="643.5"/>
        <line class="cls-15" x1="1226.03" y1="673.5" x2="1292.03" y2="681.5"/>
        <polygon class="cls-9" points="1726.03 404.5 945.03 452.5 827.03 452.5 921.03 427.5 1727.03 350.5 1726.03 404.5"/>
        <polygon class="cls-3" points="1726.03 404.5 945.03 452.5 827.03 452.5 921.03 427.5 1727.03 350.5 1726.03 404.5"/>
        <polygon class="cls-16" points="1046.03 854.42 1038.03 855.32 1038.03 799.17 1046.03 798.41 1046.03 854.42"/>
        <polygon class="cls-17" points="1046.03 854.42 1038.03 855.32 1038.03 799.17 1046.03 798.41 1046.03 854.42"/>
        <path class="cls-18" d="M1037.63,855.36l-7.6-2.58V797l8,2.29v55.79a.3.3,0,0,1-.4.28"/>
        <path class="cls-17" d="M1037.63,855.36l-7.6-2.58V797l8,2.29v55.79A.3.3,0,0,1,1037.63,855.36Z"/>
        <path class="cls-18" d="M1113.83,828.43l-6.3-2.44V774.5l6.5,2.11v51.68a.15.15,0,0,1-.2.14"/>
        <path class="cls-19" d="M1113.83,828.43l-6.3-2.44V774.5l6.5,2.11v51.68A.15.15,0,0,1,1113.83,828.43Z"/>
        <path class="cls-18" d="M908.87,814.45,902,812.31V766.5l7,1.84v46a.12.12,0,0,1-.16.12"/>
        <path class="cls-6" d="M908.87,814.45,902,812.31V766.5l7,1.84v46A.12.12,0,0,1,908.87,814.45Z"/>
        <path class="cls-16" d="M915,813.48l-5.82,1a.16.16,0,0,1-.18-.16V768.5l6-.44Z"/>
        <path class="cls-6" d="M915,813.48l-5.82,1a.16.16,0,0,1-.18-.16V768.5l6-.44Z"/>
        <path class="cls-16" d="M1036,790.5,902.7,758.42a.54.54,0,0,1,.09-1.07L974,752.5l144,30.8a.36.36,0,0,1,0,.7Z"/>
        <path class="cls-3" d="M1036,790.5,902.7,758.42a.54.54,0,0,1,.09-1.07L974,752.5l144,30.8a.36.36,0,0,1,0,.7Z"/>
        <path class="cls-16" d="M1118.89,794.75l-81.7,7.73a.14.14,0,0,1-.16-.15V790.11a.15.15,0,0,1,.13-.15l81.7-6.93a.15.15,0,0,1,.17.15V794.6a.16.16,0,0,1-.14.15"/>
        <path class="cls-20" d="M1118.89,794.75l-81.7,7.73a.14.14,0,0,1-.16-.15V790.11a.15.15,0,0,1,.13-.15l81.7-6.93a.15.15,0,0,1,.17.15V794.6A.16.16,0,0,1,1118.89,794.75Z"/>
        <path class="cls-18" d="M1036.81,802.6,902,766.5v-7.81a.15.15,0,0,1,.18-.15L1037,790.1v12.34a.17.17,0,0,1-.22.16"/>
        <path class="cls-3" d="M1036.81,802.6,902,766.5v-7.81a.15.15,0,0,1,.18-.15L1037,790.1v12.34A.17.17,0,0,1,1036.81,802.6Z"/>
        <polygon class="cls-18" points="1115.03 783.5 971.03 752.5 971.53 698.5 1116.03 723.63 1115.03 783.5"/>
        <polygon class="cls-21" points="1115.03 783.5 971.03 752.5 971.53 698.5 1116.03 723.63 1115.03 783.5"/>
        <path class="cls-16" d="M1122,827.36l-7.34,1a.58.58,0,0,1-.66-.58l1-104.28,7-.5Z"/>
        <path class="cls-22" d="M1122,827.36l-7.34,1a.58.58,0,0,1-.66-.58l1-104.28,7-.5Z"/>
        <path class="cls-16" d="M1121.08,721.34,979,697.5l-7.23.89a.12.12,0,0,0,0,.24L1115,724.5h7c0,.38,0-1.29,0-2,0-1-.39-1.07-1-1.16"/>
        <path class="cls-23" d="M1121.08,721.34,979,697.5l-7.23.89a.12.12,0,0,0,0,.24L1115,724.5h7c0,.38,0-1.29,0-2C1122,721.5,1121.64,721.43,1121.08,721.34Z"/>
        <path class="cls-24" d="M1531,973.5l-53.15,9.84a.72.72,0,0,1-.85-.71V397.5l54,5Z"/>
        <path class="cls-21" d="M1531,973.5l-53.15,9.84a.72.72,0,0,1-.85-.71V397.5l54,5Z"/>
        <path class="cls-9" d="M1418,964.3l58.14,18.92a.66.66,0,0,0,.86-.62V397.5l-59,7.67Z"/>
        <path class="cls-25" d="M1418,964.3l58.14,18.92a.66.66,0,0,0,.86-.62V397.5l-59,7.67Z"/>
        <polygon class="cls-9" points="1477.03 400.5 761.53 457.72 761.53 423.5 1476.03 331.5 1477.03 400.5"/>
        <polygon class="cls-10" points="1477.03 400.5 761.53 457.72 761.53 423.5 1476.03 331.5 1477.03 400.5"/>
        <polygon class="cls-9" points="2212.03 384.5 1476.03 331.5 1477.03 400.5 2212.03 431.5 2212.03 384.5"/>
        <polygon class="cls-26" points="2212.03 384.5 1476.03 331.5 1477.03 400.5 2212.03 431.5 2212.03 384.5"/>
        <polygon class="cls-9" points="942.03 287.5 1724.03 83.99 1724.03 113.5 941.03 307.5 942.03 287.5"/>
        <polygon class="cls-10" points="942.03 287.5 1724.03 83.99 1724.03 113.5 941.03 307.5 942.03 287.5"/>
        <polygon class="cls-9" points="2212.03 177.5 1724.03 113.05 1724.03 84.5 2212.03 154.5 2212.03 177.5"/>
        <polygon class="cls-26" points="2212.03 177.5 1724.03 113.05 1724.03 84.5 2212.03 154.5 2212.03 177.5"/>
        <path class="cls-24" d="M827,786.5l-30.77,2a.22.22,0,0,1-.23-.22V454.5l31-2.42Z"/>
        <path class="cls-21" d="M827,786.5l-30.77,2a.22.22,0,0,1-.23-.22V454.5l31-2.42Z"/>
        <path class="cls-9" d="M796,454l-30,2.56V778.39l29.64,9.93a.27.27,0,0,0,.36-.25Z"/>
        <path class="cls-21" d="M796,454l-30,2.56V778.39l29.64,9.93a.27.27,0,0,0,.36-.25Z"/>
        <polygon class="cls-9" points="2163.87 740.17 2057.87 751.22 2057.87 480.17 2163.87 482.04 2163.87 740.17"/>
        <polygon class="cls-10" points="2163.87 740.17 2057.87 751.22 2057.87 480.17 2163.87 482.04 2163.87 740.17"/>
        <polygon class="cls-11" points="2150.87 719.17 2072.87 726.48 2072.87 498.17 2150.87 498.92 2150.87 719.17"/>
        <polygon class="cls-3" points="2150.87 719.17 2072.87 726.48 2072.87 498.17 2150.87 498.92 2150.87 719.17"/>
        <line class="cls-12" x1="2113.87" y1="498.17" x2="2113.87" y2="723.07"/>
        <line class="cls-12" x1="2071.87" y1="610.17" x2="2151.87" y2="607.15"/>
        <line class="cls-12" x1="2072.37" y1="552.17" x2="2151.37" y2="551.08"/>
        <line class="cls-12" x1="2071.87" y1="671.17" x2="2150.87" y2="665.53"/>
        <polygon class="cls-9" points="1993.03 756.5 1864.03 770.01 1864.03 478.5 1993.03 480.79 1993.03 756.5"/>
        <polygon class="cls-10" points="1993.03 756.5 1864.03 770.01 1864.03 478.5 1993.03 480.79 1993.03 756.5"/>
        <polygon class="cls-11" points="1982.03 738.01 1878.03 748.7 1878.03 497.5 1982.03 497.86 1982.03 738.01"/>
        <polygon class="cls-3" points="1982.03 738.01 1878.03 748.7 1878.03 497.5 1982.03 497.86 1982.03 738.01"/>
        <line class="cls-12" x1="1930.03" y1="496.5" x2="1930.03" y2="744.4"/>
        <line class="cls-12" x1="1877.03" y1="549.5" x2="1984.03" y2="548.26"/>
        <line class="cls-12" x1="1877.03" y1="624.5" x2="1983.03" y2="619.94"/>
        <line class="cls-12" x1="1877.03" y1="687.5" x2="1983.03" y2="681.17"/>
        <polygon class="cls-27" points="3.53 564.23 870.53 1242 1553.53 1241.71 4.53 527 3.53 564.23"/>
        <polygon class="cls-9" points="551.17 965.5 519.53 941.58 800.63 912.5 845.11 933.05 551.17 965.5"/>
        <polygon class="cls-22" points="551.17 965.5 519.53 941.58 800.63 912.5 845.11 933.05 551.17 965.5"/>
        <polygon class="cls-9" points="759.21 1117 729.53 1094.14 1071.83 1038.5 1110.61 1057.17 759.21 1117"/>
        <polygon class="cls-28" points="759.21 1117 729.53 1094.14 1071.83 1038.5 1110.61 1057.17 759.21 1117"/>
        <polygon class="cls-9" points="827.03 1169.5 794.1 1143.88 1156.03 1078.5 1198.63 1098.94 827.03 1169.5"/>
        <polygon class="cls-28" points="827.03 1169.5 794.1 1143.88 1156.03 1078.5 1198.63 1098.94 827.03 1169.5"/>
        <polygon class="cls-9" points="890.03 1214.5 859 1190.5 1238.03 1115.5 1277.48 1134.35 890.03 1214.5"/>
        <polygon class="cls-28" points="890.03 1214.5 859 1190.5 1238.03 1115.5 1277.48 1134.35 890.03 1214.5"/>
        <polygon class="cls-9" points="930.39 1241.47 1321.03 1156.5 1356.69 1173.58 1054.78 1241.85 930.39 1241.47"/>
        <polygon class="cls-28" points="930.39 1241.47 1321.03 1156.5 1356.69 1173.58 1054.78 1241.85 930.39 1241.47"/>
        <polygon class="cls-9" points="1183.97 1241.88 1385.03 1194.5 1426.98 1214.81 1317.56 1241.77 1183.97 1241.88"/>
        <polygon class="cls-28" points="1183.97 1241.88 1385.03 1194.5 1426.98 1214.81 1317.56 1241.77 1183.97 1241.88"/>
        <polygon class="cls-9" points="700.03 1069.5 670.45 1046.62 986.03 1001.5 1025.69 1020.46 700.03 1069.5"/>
        <polygon class="cls-28" points="700.03 1069.5 670.45 1046.62 986.03 1001.5 1025.69 1020.46 700.03 1069.5"/>
        <polygon class="cls-9" points="624.03 1016.5 589.85 989.63 887.03 951.5 933.84 974.07 624.03 1016.5"/>
        <polygon class="cls-28" points="624.03 1016.5 589.85 989.63 887.03 951.5 933.84 974.07 624.03 1016.5"/>
        <polygon class="cls-9" points="484.03 917.5 460.98 898.69 729.03 872.5 762.95 888.69 484.03 917.5"/>
        <polygon class="cls-3" points="484.03 917.5 460.98 898.69 729.03 872.5 762.95 888.69 484.03 917.5"/>
        <polygon class="cls-9" points="428.8 877.26 405.81 859.18 652.02 839 686.61 854.78 428.8 877.26"/>
        <polygon class="cls-29" points="428.8 877.26 405.81 859.18 652.02 839 686.61 854.78 428.8 877.26"/>
        <polygon class="cls-9" points="380.91 839.88 362.84 825.39 588.02 808.25 615.43 821.03 380.91 839.88"/>
        <polygon class="cls-30" points="380.91 839.88 362.84 825.39 588.02 808.25 615.43 821.03 380.91 839.88"/>
        <polygon class="cls-9" points="333.03 802.5 319.88 791.59 524.03 777.5 544.24 787.28 333.03 802.5"/>
        <polygon class="cls-3" points="333.03 802.5 319.88 791.59 524.03 777.5 544.24 787.28 333.03 802.5"/>
        <polygon class="cls-9" points="288.53 772 274.54 759.98 463.53 749 486.16 759.88 288.53 772"/>
        <polygon class="cls-3" points="288.53 772 274.54 759.98 463.53 749 486.16 759.88 288.53 772"/>
        <polygon class="cls-9" points="253.03 744.5 239.94 733.22 412.03 724 433.23 734.3 253.03 744.5"/>
        <polygon class="cls-3" points="253.03 744.5 239.94 733.22 412.03 724 433.23 734.3 253.03 744.5"/>
        <polygon class="cls-9" points="217.53 717 205.35 706.47 360.53 699 380.31 708.72 217.53 717"/>
        <polygon class="cls-3" points="217.53 717 205.35 706.47 360.53 699 380.31 708.72 217.53 717"/>
        <polygon class="cls-9" points="174.53 686 163.76 676.17 299.53 671 318.2 680.17 174.53 686"/>
        <polygon class="cls-3" points="174.53 686 163.76 676.17 299.53 671 318.2 680.17 174.53 686"/>
        <polygon class="cls-9" points="142.03 664.5 132.44 655.17 258.03 651 275.8 659.75 142.03 664.5"/>
        <polygon class="cls-3" points="142.03 664.5 132.44 655.17 258.03 651 275.8 659.75 142.03 664.5"/>
        <polygon class="cls-9" points="109.53 643 101.13 634.16 216.53 631 233.4 639.34 109.53 643"/>
        <polygon class="cls-3" points="109.53 643 101.13 634.16 216.53 631 233.4 639.34 109.53 643"/>
        <polygon class="cls-9" points="85.12 624.66 77.33 615.83 178.09 613.72 194.81 622.15 85.12 624.66"/>
        <polygon class="cls-31" points="85.12 624.66 77.33 615.83 178.09 613.72 194.81 622.15 85.12 624.66"/>
        <polygon class="cls-9" points="54.43 599.46 146.89 597.84 161.84 605.36 60.43 607.32 54.43 599.46"/>
        <polygon class="cls-31" points="54.43 599.46 146.89 597.84 161.84 605.36 60.43 607.32 54.43 599.46"/>
        <polygon class="cls-9" points="31.53 583.1 35.74 589.97 128.87 588.57 115.69 581.95 31.53 583.1"/>
        <polygon class="cls-31" points="31.53 583.1 35.74 589.97 128.87 588.57 115.69 581.95 31.53 583.1"/>
        <polygon class="cls-9" points="4.53 561.24 5.87 566.74 77.53 565.88 68.93 560.55 4.53 561.24"/>
        <polygon class="cls-3" points="4.53 561.24 5.87 566.74 77.53 565.88 68.93 560.55 4.53 561.24"/>
        <polygon class="cls-9" points="4.2 553.87 2.65 549.16 45.23 548.77 52.88 553.38 4.2 553.87"/>
        <polygon class="cls-3" points="4.2 553.87 2.65 549.16 45.23 548.77 52.88 553.38 4.2 553.87"/>
        <polygon class="cls-9" points="2.53 541 0.77 537.08 21.53 537 28.22 540.88 2.53 541"/>
        <polygon class="cls-3" points="2.53 541 0.77 537.08 21.53 537 28.22 540.88 2.53 541"/>
        <polygon class="cls-9" points="18.53 576 16.2 570.87 89.53 570 99.17 574.95 18.53 576"/>
        <polygon class="cls-3" points="18.53 576 16.2 570.87 89.53 570 99.17 574.95 18.53 576"/>
        <polygon class="cls-32" points="1554.03 1241.5 4.03 526.5 4.03 531.5 1482.37 1242.87 1554.03 1241.5"/>
        <polygon class="cls-3" points="1554.03 1241.5 4.03 526.5 4.03 531.5 1482.37 1242.87 1554.03 1241.5"/>
        <polygon class="cls-32" points="870.03 1241.5 3.03 564.5 3.03 559.5 941.15 1242.3 870.03 1241.5"/>
        <polygon class="cls-3" points="870.03 1241.5 3.03 564.5 3.03 559.5 941.15 1242.3 870.03 1241.5"/>
        <polygon class="cls-9" points="1462.67 207.5 1014.03 305.5 1017.03 376.5 1464.77 313.16 1462.67 207.5"/>
        <polygon class="cls-33" points="1462.67 207.5 1014.03 305.5 1017.03 376.5 1464.77 313.16 1462.67 207.5"/>
        <polygon class="cls-34" points="1453.03 220.5 1020.03 312.5 1022.03 366.5 1455.03 306.5 1453.03 220.5"/>
        <polygon class="cls-28" points="1453.03 220.5 1020.03 312.5 1022.03 366.5 1455.03 306.5 1453.03 220.5"/>
        <path d="M1052.47,318.23l23.35-3.71,2.17,13.63-3.2.51-.49-3c-.51-3.2-1.88-6.61-4.22-6.23-2.06.32-1.77,3.56-1.44,5.63l2.76,17.38c.4,2.5,1.09,4,2.54,4.05h1.73l.49,3.09L1063,351.64l-.49-3.09,1.7-.55c1.31-.49,1.5-2.13,1.1-4.63L1062.56,326c-.33-2.06-1.06-5.23-3.12-4.9-2.34.37-2.59,4-2.08,7.23l.48,3.05-3.21.51Z"/>
        <path d="M1094.83,331.33l1.14,7.17c.39,2.49,1.27,4.14,3.26,4l1.27,0,.5,3.1-13.42,2.13-.49-3.1,1.69-.55c1.26-.48,1.45-2.12,1-4.62l-3-18.79c-.41-2.56-1.31-4-2.43-4.07h-1.78l-.49-3.09,15.32-2.44c7-1.11,10.76,1.85,11.65,7.45.69,4.34-.82,7.09-2.7,8.56v.11c2.07,1.06,3.1,3,3.85,6s1.21,4.48,2.08,4.35.75-2,.56-3.16l-.4-2.49,3.15-.51.4,2.5c1.2,7.55-.55,9.84-3.76,10.35-3.91.62-5.81-1.19-7.63-7.7-.83-3.1-2.24-6.38-4.74-6Zm-.48-14.91c-1.14.18-1.74.94-1.33,3.55l1,6.2,5.7-.91c1.79-.29,3.43-2.27,3-5.21-.54-3.42-2.67-4.53-4.46-4.24Z"/>
        <path d="M1130.73,329.52l-.17,1.7c-.31,3.33.88,5.54,2.14,5.78l1.47.16.5,3.09-11.52,1.83-.49-3.09,1.13-.57c1.29-.65,2-2.43,2.59-8.27l2.57-24.08,5.06-.8,10.35,23.81c1.58,3.64,2.76,5.07,3.74,5.25l1.61.36.49,3.09-13.36,2.13-.49-3.1,1.35-.6c1.34-.66,1.77-2.18.24-6.17l-.64-1.57Zm4.77-5.72-3.11-8-.22,0-1,8.67Z"/>
        <path d="M1155.21,309.81c-.4-2.55-1.31-4-2.43-4.07H1151l-.49-3.09,13.09-2.08.49,3.09-1.69.55c-1.05.39-1.46,2.07-1.05,4.62l3,18.8c.4,2.5,1.08,4,2.48,4.06h1.78l.5,3.1L1156,336.87l-.49-3.1,1.69-.54c1.26-.48,1.45-2.13,1-4.63Z"/>
        <path d="M1180.48,325.06c.4,2.5,1.08,3.95,2.49,4.06l1.24.08.49,3.1-9.94,1.58-.5-3.1,1.7-.54c1.26-.48,1.44-2.13,1-4.63l-3-18.79c-.41-2.55-1.31-4-2.43-4.07h-1.78l-.49-3.09,12.16-1.94,10.27,18.36h.06l-1.88-11.79c-.4-2.55-1.3-4-2.42-4.07h-1.79l-.49-3.09,10.43-1.66.49,3.1-1.64.53c-1.1.4-1.5,2.08-1.1,4.64l4.22,26.5-6.3,1-13.73-25-.1,0Z"/>
        <path d="M1242.71,297.2a12.51,12.51,0,0,0-2.79-4.3,10.05,10.05,0,0,0-7.15-2.3,4.81,4.81,0,0,0-4.13,5.72c.49,3.44,2.83,4.17,7.6,4.75,8.25,1.08,12.26,3.76,13.42,11,1.1,6.78-2.85,12.11-9,13.09a13,13,0,0,1-5.87-.53,9.16,9.16,0,0,0-3.62-.64c-1,.15-1.43,1.46-1.8,2.63l-3,.48-2.08-12.91,3-.49a11.94,11.94,0,0,0,2.58,4.15,10.06,10.06,0,0,0,9.3,3,4.54,4.54,0,0,0,3.64-5.28c-.55-3.42-4-4.35-6.08-4.87l-5-1.17c-5.77-1.41-8.48-4.42-9.45-10.43-1-6.36,3.2-11.11,9.14-12.07a18.9,18.9,0,0,1,5.11-.09,9.69,9.69,0,0,0,2.86.16,2.36,2.36,0,0,0,1.47-1.17l2.95-.47,1.82,11.29Z"/>
        <path d="M1252.36,284.05l25.83-4.17,2.44,15.08-3.55.57-.54-3.36c-.57-3.55-2.11-7.31-4.69-6.89-2.28.37-1.95,4-1.58,6.23l3.1,19.23c.45,2.76,1.21,4.42,2.82,4.47h1.91l.56,3.42L1264.12,321l-.55-3.42,1.87-.61c1.45-.55,1.65-2.37,1.21-5.13l-3.11-19.22c-.36-2.28-1.18-5.79-3.46-5.42-2.58.42-2.85,4.47-2.28,8l.54,3.37-3.54.57Z"/>
        <path d="M1295.18,303.39l-.19,1.88c-.33,3.69,1,6.13,2.39,6.4l1.63.17.55,3.42-12.73,2.06-.56-3.43,1.26-.63c1.42-.72,2.15-2.69,2.83-9.15l2.79-26.64,5.59-.91,11.52,26.31c1.76,4,3.06,5.61,4.14,5.8l1.79.39.55,3.43L1302,314.87l-.55-3.42,1.49-.67c1.49-.74,2-2.42.26-6.83l-.71-1.73Zm5.26-6.33-3.46-8.87-.24,0-1,9.59Z"/>
        <path d="M1313.46,274.19l25.83-4.17,2.43,15.07-3.54.58-.54-3.37c-.58-3.54-2.11-7.3-4.69-6.88-2.28.37-2,3.95-1.58,6.23l3.1,19.22c.45,2.77,1.21,4.43,2.82,4.48h1.91l.55,3.42-14.53,2.35-.56-3.43,1.88-.61c1.45-.54,1.65-2.36,1.2-5.12l-3.1-19.22c-.37-2.29-1.18-5.79-3.46-5.42-2.59.42-2.86,4.47-2.28,8l.54,3.36-3.54.58Z"/>
        <path d="M1351,276.88c-.46-2.82-1.46-4.45-2.7-4.5h-2l-.55-3.42,14.47-2.34.56,3.43-1.88.61c-1.16.43-1.6,2.29-1.14,5.11l3.35,20.79c.45,2.76,1.21,4.42,2.76,4.48h2l.55,3.43-14.53,2.34-.56-3.42,1.88-.61c1.39-.54,1.59-2.35,1.14-5.12Z"/>
        <path d="M1396.66,285.59c1.28,7.56-2.6,14.78-10.17,16s-13.43-3.38-14.69-11.56L1370,278.56c-1.14-7.09,2.73-14.37,10.24-15.59s13.35,4.07,14.63,11.57Zm-16.39,4.62c.71,4.39,2,8.12,5.6,7.54s3.59-4.83,2.93-8.92l-2.58-16c-.54-3.37-1.79-6.55-5.34-6s-3.73,4-3.19,7.35Z"/>
        <path d="M1412.81,288.23c.45,2.76,1.2,4.36,2.76,4.48l1.37.09.55,3.42-11,1.78-.55-3.43,1.87-.61c1.39-.53,1.59-2.35,1.15-5.11l-3.36-20.79c-.45-2.82-1.46-4.45-2.7-4.49h-2l-.55-3.43,13.46-2.17,11.41,20.29h.06l-2.11-13c-.45-2.82-1.46-4.45-2.7-4.49h-2l-.55-3.43,11.53-1.86.56,3.42-1.82.61c-1.22.44-1.66,2.3-1.2,5.12l4.73,29.31-7,1.13-15.24-27.62-.12,0Z"/>
      </g>
    </g>
  </g>
</svg>
