<?xml version="1.0" encoding="utf-8"?>
<!-- Generator: Adobe Illustrator 23.0.1, SVG Export Plug-In . SVG Version: 6.00 Build 0)  -->
<svg version="1.1" id="Layer_1" xmlns="http://www.w3.org/2000/svg" xmlns:xlink="http://www.w3.org/1999/xlink" x="0px" y="0px"
	 viewBox="0 0 2208 1242" style="enable-background:new 0 0 2208 1242;" xml:space="preserve">
<style type="text/css">
	.st0{clip-path:url(#SVGID_2_);fill:#AED6DF;}
	.st1{clip-path:url(#SVGID_2_);fill:#BFD19A;}
	.st2{clip-path:url(#SVGID_2_);fill:none;stroke:#000000;stroke-miterlimit:10;}
	.st3{clip-path:url(#SVGID_2_);fill:#FFFFFF;}
	.st4{clip-path:url(#SVGID_2_);fill:#979797;}
	.st5{clip-path:url(#SVGID_2_);fill:none;stroke:#000000;stroke-linecap:round;stroke-miterlimit:10;}
	.st6{clip-path:url(#SVGID_2_);fill:#7E321C;}
	.st7{clip-path:url(#SVGID_2_);fill:#924127;}
	.st8{clip-path:url(#SVGID_2_);fill:#603813;}
	.st9{clip-path:url(#SVGID_2_);fill:none;stroke:#000000;stroke-width:1.007;stroke-miterlimit:10;}
	.st10{clip-path:url(#SVGID_2_);fill:#B3B3B3;}
	.st11{clip-path:url(#SVGID_2_);fill:none;stroke:#603813;stroke-width:3;stroke-miterlimit:10;}
	.st12{clip-path:url(#SVGID_2_);fill:#754C24;}
	.st13{clip-path:url(#SVGID_2_);}
	.st14{clip-path:url(#SVGID_2_);fill:none;stroke:#000000;stroke-width:0.729;stroke-miterlimit:10;}
	.st15{clip-path:url(#SVGID_2_);fill:none;stroke:#754C24;stroke-width:3;stroke-miterlimit:10;}
	.st16{clip-path:url(#SVGID_2_);fill:#8C6239;}
	.st17{clip-path:url(#SVGID_2_);fill:none;stroke:#000000;stroke-width:1.041;stroke-linecap:round;stroke-miterlimit:10;}
	.st18{clip-path:url(#SVGID_2_);fill:#A67C52;}
	.st19{clip-path:url(#SVGID_2_);fill:none;stroke:#000000;stroke-width:0.901;stroke-linecap:round;stroke-miterlimit:10;}
	.st20{clip-path:url(#SVGID_2_);fill:none;stroke:#000000;stroke-width:1.175;stroke-miterlimit:10;}
	.st21{clip-path:url(#SVGID_2_);fill:none;stroke:#000000;stroke-width:1.005;stroke-miterlimit:10;}
	.st22{clip-path:url(#SVGID_2_);fill:none;stroke:#000000;stroke-width:1.054;stroke-miterlimit:10;}
	.st23{clip-path:url(#SVGID_2_);fill:none;stroke:#000000;stroke-width:0.75;stroke-miterlimit:10;}
	.st24{clip-path:url(#SVGID_2_);fill:#42210B;}
	.st25{clip-path:url(#SVGID_2_);fill:none;stroke:#000000;stroke-width:1.01;stroke-miterlimit:10;}
	.st26{clip-path:url(#SVGID_2_);fill:none;stroke:#000000;stroke-width:1.011;stroke-miterlimit:10;}
	.st27{clip-path:url(#SVGID_2_);fill:#808080;}
	.st28{clip-path:url(#SVGID_2_);fill:none;stroke:#000000;stroke-width:1.026;stroke-miterlimit:10;}
	.st29{clip-path:url(#SVGID_2_);fill:none;stroke:#000000;stroke-width:0.97;stroke-miterlimit:10;}
	.st30{clip-path:url(#SVGID_2_);fill:none;stroke:#000000;stroke-width:0.985;stroke-miterlimit:10;}
	.st31{clip-path:url(#SVGID_2_);fill:none;stroke:#000000;stroke-width:1.094;stroke-miterlimit:10;}
	.st32{clip-path:url(#SVGID_2_);fill:#4D4D4D;}
	.st33{clip-path:url(#SVGID_2_);fill:none;stroke:#000000;stroke-width:1.093;stroke-miterlimit:10;}
	.st34{clip-path:url(#SVGID_2_);fill:#C7B299;}
	.st35{fill:#EBC98F;}
	.st36{fill:none;stroke:#000000;stroke-width:3.675;stroke-miterlimit:10;}
	.st37{fill:#883715;}
	.st38{fill:#F1F1F1;}
	.st39{fill:none;stroke:#000000;stroke-width:4.026;stroke-miterlimit:10;}
	.st40{fill:none;stroke:#000000;stroke-width:3.796;stroke-miterlimit:10;}
	.st41{fill:#1A1A1A;}
	.st42{fill:#D13C09;}
</style>
<g>
	<defs>
		<rect id="SVGID_1_" width="2208" height="1242"/>
	</defs>
	<clipPath id="SVGID_2_">
		<use xlink:href="#SVGID_1_"  style="overflow:visible;"/>
	</clipPath>
	<polygon class="st0" points="0,0 0,781.5 2207,781 2207,0 	"/>
	<path class="st1" d="M1133.4,1242L0,1240.3v-695l41.7,25.8c37.1,38.1,69.2,61.9,90.8,55.8C138,653.3,244,712.3,266.1,709l63.1,38.8
		c17.1,33.9,53.6,51.4,99.3,61c8.4,9.1,18.7,18,41.2,25.3L1133.4,1242z"/>
	<path class="st1" d="M1546,1242C1546,1242,1546,1242,1546,1242l662.9,0c0.1,0,0.1-0.1,0.1-0.1l-1.5-498.4c0-0.1-3-1-3.1-1
		L0.5,511.5c-0.1,0-1,20-1,20l145,66C144.5,597.5,1546,1242,1546,1242"/>
	<path class="st2" d="M1546,1242C1546,1242,1546,1242,1546,1242l662.9,0c0.1,0,0.1-0.1,0.1-0.1l-1.5-498.4c0-0.1-3-1-3.1-1
		L0.5,511.5c-0.1,0-1,20-1,20l145,66C144.5,597.5,1546,1242,1546,1242z"/>
	<path class="st3" d="M184,211c4.6-31.9,28-51,70-34c30.6-42.8,62.7-38.5,96,2c28.5-4.9,44.9,6.9,51,33L184,211z"/>
	<path class="st3" d="M409,292h242c1.9-29.2-8.9-45.7-32-50c-6.7-32.9-27.4-48.3-68-40c-41.2-19.5-72-3.4-88,33
		C424.7,250.6,406.7,259.9,409,292"/>
	<path class="st4" d="M737.1,774l679.9,236.5V1191L736.5,867.5L737.1,774C737,774,737,774,737.1,774"/>
	<path class="st5" d="M737.1,774l679.9,236.5V1191L736.5,867.5L737.1,774C737,774,737,774,737.1,774z"/>
	<path class="st4" d="M940,757l783,200l-306,54L737.4,774.1c-0.1,0-0.1-0.2,0-0.2L940,757z"/>
	<path class="st5" d="M940,757l783,200l-306,54L737.4,774.1c-0.1,0-0.1-0.2,0-0.2L940,757z"/>
	<polygon class="st6" points="939.5,305.5 1720.5,114.5 1723.5,349.5 939.5,426.7 	"/>
	<polygon class="st2" points="939.5,305.5 1720.5,114.5 1723.5,349.5 939.5,426.7 	"/>
	<polygon class="st7" points="2207.5,178.5 1719.5,106.4 1720.5,405.5 2206.5,428.5 	"/>
	<polygon class="st2" points="2207.5,178.5 1719.5,106.4 1720.5,405.5 2206.5,428.5 	"/>
	<polygon class="st6" points="941,453 1722,397.4 1722,956 941,759.3 	"/>
	<polygon class="st2" points="941,453 1722,397.4 1722,956 941,759.3 	"/>
	<polygon class="st7" points="2207.5,421.5 1723,397.4 1723,957 2208,865.4 	"/>
	<polygon class="st2" points="2207.5,421.5 1723,397.4 1723,957 2208,865.4 	"/>
	<polygon class="st4" points="2207,1006 1417,1193.4 1417,1010 2208,866 	"/>
	<polygon class="st5" points="2207,1006 1417,1193.4 1417,1010 2208,866 	"/>
	<polygon class="st8" points="1139.5,683.5 1002.5,664.1 1002.5,524.5 1139.5,525 	"/>
	<polygon class="st9" points="1139.5,683.5 1002.5,664.1 1002.5,524.5 1139.5,525 	"/>
	<polygon class="st10" points="1128.5,668.5 1010.5,653.2 1010.5,534.5 1128.5,536.1 	"/>
	<polygon class="st2" points="1128.5,668.5 1010.5,653.2 1010.5,534.5 1128.5,536.1 	"/>
	<line class="st11" x1="1045.5" y1="535.5" x2="1045.5" y2="656.8"/>
	<line class="st11" x1="1089.5" y1="535.5" x2="1089.5" y2="663.5"/>
	<line class="st11" x1="1010.5" y1="589.5" x2="1131.5" y2="597.6"/>
	<polygon class="st8" points="1348.5,522.5 1579.5,522.8 1579.5,741.5 1348.5,709.4 	"/>
	<polygon class="st9" points="1348.5,522.5 1579.5,522.8 1579.5,741.5 1348.5,709.4 	"/>
	<polygon class="st10" points="1562.5,718.5 1363.5,693.5 1363.5,539.5 1562.5,542.2 	"/>
	<polygon class="st2" points="1562.5,718.5 1363.5,693.5 1363.5,539.5 1562.5,542.2 	"/>
	<line class="st11" x1="1421.5" y1="540.5" x2="1421.5" y2="703.5"/>
	<line class="st11" x1="1492.5" y1="541.5" x2="1492.5" y2="711.2"/>
	<line class="st11" x1="1361.5" y1="608.5" x2="1568.5" y2="621.7"/>
	<polygon class="st8" points="1305.5,848.5 1203.5,823.1 1203.5,586.5 1305.5,592 	"/>
	<polygon class="st5" points="1305.5,848.5 1203.5,823.1 1203.5,586.5 1305.5,592 	"/>
	<polygon class="st12" points="1295.5,845.5 1210.5,824.4 1210.5,594.5 1295.5,599.6 	"/>
	<polygon class="st5" points="1295.5,845.5 1210.5,824.4 1210.5,594.5 1295.5,599.6 	"/>
	<path class="st13" d="M1290,733.8c0,2.5-1.1,4.3-2.5,4.2c-1.4-0.2-2.5-2.3-2.5-4.8s1.1-4.3,2.5-4.2
		C1288.9,729.2,1290,731.3,1290,733.8"/>
	<path class="st14" d="M1290,733.8c0,2.5-1.1,4.3-2.5,4.2c-1.4-0.2-2.5-2.3-2.5-4.8s1.1-4.3,2.5-4.2
		C1288.9,729.2,1290,731.3,1290,733.8z"/>
	<polygon class="st10" points="1282.5,706.5 1223.5,698 1223.5,613.5 1282.5,617.9 	"/>
	<polygon class="st2" points="1282.5,706.5 1223.5,698 1223.5,613.5 1282.5,617.9 	"/>
	<line class="st15" x1="1244.5" y1="614" x2="1244.5" y2="704"/>
	<line class="st15" x1="1266.5" y1="615" x2="1266.5" y2="708"/>
	<line class="st15" x1="1221.5" y1="638.5" x2="1283.5" y2="643.5"/>
	<line class="st15" x1="1221.5" y1="673.5" x2="1287.5" y2="681.5"/>
	<polygon class="st8" points="1721.5,404.5 940.5,452.5 822.5,452.5 916.5,427.5 1722.5,350.5 	"/>
	<polygon class="st2" points="1721.5,404.5 940.5,452.5 822.5,452.5 916.5,427.5 1722.5,350.5 	"/>
	<polygon class="st16" points="1041.5,854.4 1033.5,855.3 1033.5,799.2 1041.5,798.4 	"/>
	<polygon class="st17" points="1041.5,854.4 1033.5,855.3 1033.5,799.2 1041.5,798.4 	"/>
	<path class="st18" d="M1033.1,855.4l-7.6-2.6V797l8,2.3v55.8C1033.5,855.3,1033.3,855.4,1033.1,855.4"/>
	<path class="st17" d="M1033.1,855.4l-7.6-2.6V797l8,2.3v55.8C1033.5,855.3,1033.3,855.4,1033.1,855.4z"/>
	<path class="st18" d="M1109.3,828.4l-6.3-2.4v-51.5l6.5,2.1v51.7C1109.5,828.4,1109.4,828.5,1109.3,828.4"/>
	<path class="st19" d="M1109.3,828.4l-6.3-2.4v-51.5l6.5,2.1v51.7C1109.5,828.4,1109.4,828.5,1109.3,828.4z"/>
	<path class="st18" d="M904.3,814.5l-6.8-2.1v-45.8l7,1.8v46C904.5,814.4,904.4,814.5,904.3,814.5"/>
	<path class="st5" d="M904.3,814.5l-6.8-2.1v-45.8l7,1.8v46C904.5,814.4,904.4,814.5,904.3,814.5z"/>
	<path class="st16" d="M910.5,813.5l-5.8,1c-0.1,0-0.2-0.1-0.2-0.2v-45.8l6-0.4V813.5z"/>
	<path class="st5" d="M910.5,813.5l-5.8,1c-0.1,0-0.2-0.1-0.2-0.2v-45.8l6-0.4V813.5z"/>
	<path class="st16" d="M1031.5,790.5l-133.3-32.1c-0.6-0.1-0.5-1,0.1-1.1l71.2-4.9l144,30.8c0.4,0.1,0.4,0.7,0,0.7L1031.5,790.5z"/>
	<path class="st2" d="M1031.5,790.5l-133.3-32.1c-0.6-0.1-0.5-1,0.1-1.1l71.2-4.9l144,30.8c0.4,0.1,0.4,0.7,0,0.7L1031.5,790.5z"/>
	<path class="st16" d="M1114.4,794.7l-81.7,7.7c-0.1,0-0.2-0.1-0.2-0.2v-12.2c0-0.1,0.1-0.1,0.1-0.2l81.7-6.9c0.1,0,0.2,0.1,0.2,0.2
		v11.4C1114.5,794.7,1114.4,794.7,1114.4,794.7"/>
	<path class="st20" d="M1114.4,794.7l-81.7,7.7c-0.1,0-0.2-0.1-0.2-0.2v-12.2c0-0.1,0.1-0.1,0.1-0.2l81.7-6.9c0.1,0,0.2,0.1,0.2,0.2
		v11.4C1114.5,794.7,1114.4,794.7,1114.4,794.7z"/>
	<path class="st18" d="M1032.3,802.6l-134.8-36.1v-7.8c0-0.1,0.1-0.2,0.2-0.1l134.8,31.6v12.3
		C1032.5,802.5,1032.4,802.6,1032.3,802.6"/>
	<path class="st2" d="M1032.3,802.6l-134.8-36.1v-7.8c0-0.1,0.1-0.2,0.2-0.1l134.8,31.6v12.3
		C1032.5,802.5,1032.4,802.6,1032.3,802.6z"/>
	<polygon class="st18" points="1110.5,783.5 966.5,752.5 967,698.5 1111.5,723.6 	"/>
	<polygon class="st21" points="1110.5,783.5 966.5,752.5 967,698.5 1111.5,723.6 	"/>
	<path class="st16" d="M1117.5,827.4l-7.3,1c-0.3,0-0.7-0.2-0.7-0.6l1-104.3l7-0.5V827.4z"/>
	<path class="st22" d="M1117.5,827.4l-7.3,1c-0.3,0-0.7-0.2-0.7-0.6l1-104.3l7-0.5V827.4z"/>
	<path class="st16" d="M1116.5,721.3c-12.4-2.1-142-23.8-142.1-23.8l-7.2,0.9c-0.1,0-0.1,0.2,0,0.2l143.2,25.9c0,0,7,0,7,0
		c0,0.4,0-1.3,0-2C1117.5,721.5,1117.1,721.4,1116.5,721.3"/>
	<path class="st23" d="M1116.5,721.3c-12.4-2.1-142-23.8-142.1-23.8l-7.2,0.9c-0.1,0-0.1,0.2,0,0.2l143.2,25.9c0,0,7,0,7,0
		c0,0.4,0-1.3,0-2C1117.5,721.5,1117.1,721.4,1116.5,721.3z"/>
	<path class="st24" d="M1526.5,973.5l-53.1,9.8c-0.4,0.1-0.9-0.3-0.9-0.7V397.5l54,5V973.5z"/>
	<path class="st21" d="M1526.5,973.5l-53.1,9.8c-0.4,0.1-0.9-0.3-0.9-0.7V397.5l54,5V973.5z"/>
	<path class="st8" d="M1413.5,964.3l58.1,18.9c0.4,0.1,0.9-0.2,0.9-0.6V397.5l-59,7.7V964.3z"/>
	<path class="st25" d="M1413.5,964.3l58.1,18.9c0.4,0.1,0.9-0.2,0.9-0.6V397.5l-59,7.7V964.3z"/>
	<polygon class="st8" points="1472.5,400.5 757,457.7 757,423.5 1471.5,331.5 	"/>
	<polygon class="st9" points="1472.5,400.5 757,457.7 757,423.5 1471.5,331.5 	"/>
	<polygon class="st8" points="2207.5,384.5 1471.5,331.5 1472.5,400.5 2207.5,431.5 	"/>
	<polygon class="st26" points="2207.5,384.5 1471.5,331.5 1472.5,400.5 2207.5,431.5 	"/>
	<polygon class="st8" points="937.5,287.5 1719.5,84 1719.5,113.5 936.5,307.5 	"/>
	<polygon class="st9" points="937.5,287.5 1719.5,84 1719.5,113.5 936.5,307.5 	"/>
	<polygon class="st8" points="2207.5,177.5 1719.5,113 1719.5,84.5 2207.5,154.5 	"/>
	<polygon class="st26" points="2207.5,177.5 1719.5,113 1719.5,84.5 2207.5,154.5 	"/>
	<path class="st24" d="M822.5,786.5l-30.8,2c-0.1,0-0.2-0.1-0.2-0.2V454.5l31-2.4V786.5z"/>
	<path class="st21" d="M822.5,786.5l-30.8,2c-0.1,0-0.2-0.1-0.2-0.2V454.5l31-2.4V786.5z"/>
	<path class="st8" d="M791.5,454l-30,2.6v321.8l29.6,9.9c0.2,0.1,0.4-0.1,0.4-0.3V454z"/>
	<path class="st21" d="M791.5,454l-30,2.6v321.8l29.6,9.9c0.2,0.1,0.4-0.1,0.4-0.3V454z"/>
	<polygon class="st8" points="2159.3,740.2 2053.3,751.2 2053.3,480.2 2159.3,482 	"/>
	<polygon class="st9" points="2159.3,740.2 2053.3,751.2 2053.3,480.2 2159.3,482 	"/>
	<polygon class="st10" points="2146.3,719.2 2068.3,726.5 2068.3,498.2 2146.3,498.9 	"/>
	<polygon class="st2" points="2146.3,719.2 2068.3,726.5 2068.3,498.2 2146.3,498.9 	"/>
	<line class="st11" x1="2109.3" y1="498.2" x2="2109.3" y2="723.1"/>
	<line class="st11" x1="2067.3" y1="610.2" x2="2147.3" y2="607.1"/>
	<line class="st11" x1="2067.8" y1="552.2" x2="2146.8" y2="551.1"/>
	<line class="st11" x1="2067.3" y1="671.2" x2="2146.3" y2="665.5"/>
	<polygon class="st8" points="1988.5,756.5 1859.5,770 1859.5,478.5 1988.5,480.8 	"/>
	<polygon class="st9" points="1988.5,756.5 1859.5,770 1859.5,478.5 1988.5,480.8 	"/>
	<polygon class="st10" points="1977.5,738 1873.5,748.7 1873.5,497.5 1977.5,497.9 	"/>
	<polygon class="st2" points="1977.5,738 1873.5,748.7 1873.5,497.5 1977.5,497.9 	"/>
	<line class="st11" x1="1925.5" y1="496.5" x2="1925.5" y2="744.4"/>
	<line class="st11" x1="1872.5" y1="549.5" x2="1979.5" y2="548.3"/>
	<line class="st11" x1="1872.5" y1="624.5" x2="1978.5" y2="619.9"/>
	<line class="st11" x1="1872.5" y1="687.5" x2="1978.5" y2="681.2"/>
	<polygon class="st27" points="-1,564.2 866,1242 1549,1241.7 0,527 	"/>
	<polygon class="st8" points="546.6,965.5 515,941.6 796.1,912.5 840.6,933.1 	"/>
	<polygon class="st22" points="546.6,965.5 515,941.6 796.1,912.5 840.6,933.1 	"/>
	<polygon class="st8" points="754.7,1117 725,1094.1 1067.3,1038.5 1106.1,1057.2 	"/>
	<polygon class="st28" points="754.7,1117 725,1094.1 1067.3,1038.5 1106.1,1057.2 	"/>
	<polygon class="st8" points="822.5,1169.5 789.6,1143.9 1151.5,1078.5 1194.1,1098.9 	"/>
	<polygon class="st28" points="822.5,1169.5 789.6,1143.9 1151.5,1078.5 1194.1,1098.9 	"/>
	<polygon class="st8" points="885.5,1214.5 854.5,1190.5 1233.5,1115.5 1273,1134.4 	"/>
	<polygon class="st28" points="885.5,1214.5 854.5,1190.5 1233.5,1115.5 1273,1134.4 	"/>
	<polygon class="st8" points="925.9,1241.5 1316.5,1156.5 1352.2,1173.6 1050.3,1241.8 	"/>
	<polygon class="st28" points="925.9,1241.5 1316.5,1156.5 1352.2,1173.6 1050.3,1241.8 	"/>
	<polygon class="st8" points="1179.4,1241.9 1380.5,1194.5 1422.5,1214.8 1313,1241.8 	"/>
	<polygon class="st28" points="1179.4,1241.9 1380.5,1194.5 1422.5,1214.8 1313,1241.8 	"/>
	<polygon class="st8" points="695.5,1069.5 665.9,1046.6 981.5,1001.5 1021.2,1020.5 	"/>
	<polygon class="st28" points="695.5,1069.5 665.9,1046.6 981.5,1001.5 1021.2,1020.5 	"/>
	<polygon class="st8" points="619.5,1016.5 585.3,989.6 882.5,951.5 929.3,974.1 	"/>
	<polygon class="st28" points="619.5,1016.5 585.3,989.6 882.5,951.5 929.3,974.1 	"/>
	<polygon class="st8" points="479.5,917.5 456.5,898.7 724.5,872.5 758.4,888.7 	"/>
	<polygon class="st2" points="479.5,917.5 456.5,898.7 724.5,872.5 758.4,888.7 	"/>
	<polygon class="st8" points="424.3,877.3 401.3,859.2 647.5,839 682.1,854.8 	"/>
	<polygon class="st29" points="424.3,877.3 401.3,859.2 647.5,839 682.1,854.8 	"/>
	<polygon class="st8" points="376.4,839.9 358.3,825.4 583.5,808.2 610.9,821 	"/>
	<polygon class="st30" points="376.4,839.9 358.3,825.4 583.5,808.2 610.9,821 	"/>
	<polygon class="st8" points="328.5,802.5 315.4,791.6 519.5,777.5 539.7,787.3 	"/>
	<polygon class="st2" points="328.5,802.5 315.4,791.6 519.5,777.5 539.7,787.3 	"/>
	<polygon class="st8" points="284,772 270,760 459,749 481.6,759.9 	"/>
	<polygon class="st2" points="284,772 270,760 459,749 481.6,759.9 	"/>
	<polygon class="st8" points="248.5,744.5 235.4,733.2 407.5,724 428.7,734.3 	"/>
	<polygon class="st2" points="248.5,744.5 235.4,733.2 407.5,724 428.7,734.3 	"/>
	<polygon class="st8" points="213,717 200.8,706.5 356,699 375.8,708.7 	"/>
	<polygon class="st2" points="213,717 200.8,706.5 356,699 375.8,708.7 	"/>
	<polygon class="st8" points="170,686 159.2,676.2 295,671 313.7,680.2 	"/>
	<polygon class="st2" points="170,686 159.2,676.2 295,671 313.7,680.2 	"/>
	<polygon class="st8" points="137.5,664.5 127.9,655.2 253.5,651 271.3,659.8 	"/>
	<polygon class="st2" points="137.5,664.5 127.9,655.2 253.5,651 271.3,659.8 	"/>
	<polygon class="st8" points="105,643 96.6,634.2 212,631 228.9,639.3 	"/>
	<polygon class="st2" points="105,643 96.6,634.2 212,631 228.9,639.3 	"/>
	<polygon class="st8" points="80.6,624.7 72.8,615.8 173.6,613.7 190.3,622.2 	"/>
	<polygon class="st31" points="80.6,624.7 72.8,615.8 173.6,613.7 190.3,622.2 	"/>
	<polygon class="st8" points="49.9,599.5 142.4,597.8 157.3,605.4 55.9,607.3 	"/>
	<polygon class="st31" points="49.9,599.5 142.4,597.8 157.3,605.4 55.9,607.3 	"/>
	<polygon class="st8" points="27,583.1 31.2,590 124.3,588.6 111.2,582 	"/>
	<polygon class="st31" points="27,583.1 31.2,590 124.3,588.6 111.2,582 	"/>
	<polygon class="st8" points="0,561.2 1.3,566.7 73,565.9 64.4,560.5 	"/>
	<polygon class="st2" points="0,561.2 1.3,566.7 73,565.9 64.4,560.5 	"/>
	<polygon class="st8" points="-0.3,553.9 -1.9,549.2 40.7,548.8 48.3,553.4 	"/>
	<polygon class="st2" points="-0.3,553.9 -1.9,549.2 40.7,548.8 48.3,553.4 	"/>
	<polygon class="st8" points="-2,541 -3.8,537.1 17,537 23.7,540.9 	"/>
	<polygon class="st2" points="-2,541 -3.8,537.1 17,537 23.7,540.9 	"/>
	<polygon class="st8" points="14,576 11.7,570.9 85,570 94.6,574.9 	"/>
	<polygon class="st2" points="14,576 11.7,570.9 85,570 94.6,574.9 	"/>
	<polygon class="st32" points="1549.5,1241.5 -0.5,526.5 -0.5,531.5 1477.8,1242.9 	"/>
	<polygon class="st2" points="1549.5,1241.5 -0.5,526.5 -0.5,531.5 1477.8,1242.9 	"/>
	<polygon class="st32" points="865.5,1241.5 -1.5,564.5 -1.5,559.5 936.6,1242.3 	"/>
	<polygon class="st2" points="865.5,1241.5 -1.5,564.5 -1.5,559.5 936.6,1242.3 	"/>
	<polygon class="st8" points="1458.1,207.5 1009.5,305.5 1012.5,376.5 1460.2,313.2 	"/>
	<polygon class="st33" points="1458.1,207.5 1009.5,305.5 1012.5,376.5 1460.2,313.2 	"/>
	<polygon class="st34" points="1448.5,220.5 1015.5,312.5 1017.5,366.5 1450.5,306.5 	"/>
	<polygon class="st28" points="1448.5,220.5 1015.5,312.5 1017.5,366.5 1450.5,306.5 	"/>
	<path class="st13" d="M1047.9,318.2l23.4-3.7l2.2,13.6l-3.2,0.5l-0.5-3c-0.5-3.2-1.9-6.6-4.2-6.2c-2.1,0.3-1.8,3.6-1.4,5.6
		l2.8,17.4c0.4,2.5,1.1,4,2.5,4.1l1.7,0l0.5,3.1l-13.1,2.1l-0.5-3.1l1.7-0.5c1.3-0.5,1.5-2.1,1.1-4.6L1058,326
		c-0.3-2.1-1.1-5.2-3.1-4.9c-2.3,0.4-2.6,4-2.1,7.2l0.5,3l-3.2,0.5L1047.9,318.2z"/>
	<path class="st13" d="M1090.3,331.3l1.1,7.2c0.4,2.5,1.3,4.1,3.3,4l1.3,0l0.5,3.1l-13.4,2.1l-0.5-3.1l1.7-0.5
		c1.3-0.5,1.4-2.1,1-4.6l-3-18.8c-0.4-2.6-1.3-4-2.4-4.1l-1.8,0l-0.5-3.1l15.3-2.4c7-1.1,10.8,1.9,11.7,7.4c0.7,4.3-0.8,7.1-2.7,8.6
		l0,0.1c2.1,1.1,3.1,3,3.8,6c0.8,3.1,1.2,4.5,2.1,4.3c0.8-0.1,0.7-2,0.6-3.2l-0.4-2.5l3.2-0.5l0.4,2.5c1.2,7.6-0.6,9.8-3.8,10.3
		c-3.9,0.6-5.8-1.2-7.6-7.7c-0.8-3.1-2.2-6.4-4.7-6L1090.3,331.3z M1089.8,316.4c-1.1,0.2-1.7,0.9-1.3,3.6l1,6.2l5.7-0.9
		c1.8-0.3,3.4-2.3,3-5.2c-0.5-3.4-2.7-4.5-4.5-4.2L1089.8,316.4z"/>
	<path class="st13" d="M1126.2,329.5l-0.2,1.7c-0.3,3.3,0.9,5.5,2.1,5.8l1.5,0.2l0.5,3.1l-11.5,1.8l-0.5-3.1l1.1-0.6
		c1.3-0.7,2-2.4,2.6-8.3l2.6-24.1l5.1-0.8l10.4,23.8c1.6,3.6,2.8,5.1,3.7,5.3l1.6,0.4l0.5,3.1l-13.4,2.1l-0.5-3.1l1.4-0.6
		c1.3-0.7,1.8-2.2,0.2-6.2l-0.6-1.6L1126.2,329.5z M1131,323.8l-3.1-8l-0.2,0l-1,8.7L1131,323.8z"/>
	<path class="st13" d="M1150.7,309.8c-0.4-2.6-1.3-4-2.4-4.1l-1.8,0l-0.5-3.1l13.1-2.1l0.5,3.1l-1.7,0.5c-1.1,0.4-1.5,2.1-1,4.6
		l3,18.8c0.4,2.5,1.1,4,2.5,4.1l1.8,0l0.5,3.1l-13.1,2.1l-0.5-3.1l1.7-0.5c1.3-0.5,1.4-2.1,1-4.6L1150.7,309.8z"/>
	<path class="st13" d="M1176,325.1c0.4,2.5,1.1,4,2.5,4.1l1.2,0.1l0.5,3.1l-9.9,1.6l-0.5-3.1l1.7-0.5c1.3-0.5,1.4-2.1,1-4.6l-3-18.8
		c-0.4-2.6-1.3-4-2.4-4.1l-1.8,0l-0.5-3.1l12.2-1.9l10.3,18.4l0.1,0l-1.9-11.8c-0.4-2.6-1.3-4-2.4-4.1l-1.8,0l-0.5-3.1l10.4-1.7
		l0.5,3.1l-1.6,0.5c-1.1,0.4-1.5,2.1-1.1,4.6l4.2,26.5l-6.3,1l-13.7-25l-0.1,0L1176,325.1z"/>
	<path class="st13" d="M1238.2,297.2c-0.7-1.7-1.7-3.3-2.8-4.3c-1.3-1.2-4.6-2.7-7.2-2.3c-3.4,0.5-4.5,3.4-4.1,5.7
		c0.5,3.4,2.8,4.2,7.6,4.8c8.2,1.1,12.3,3.8,13.4,11c1.1,6.8-2.9,12.1-9,13.1c-2.3,0.4-4.5-0.1-5.9-0.5c-1.5-0.4-2.7-0.8-3.6-0.6
		c-1,0.2-1.4,1.5-1.8,2.6l-3,0.5l-2.1-12.9l3-0.5c0.6,1.6,1.4,2.8,2.6,4.1c1.9,2.2,5.2,3.7,9.3,3c2.5-0.4,4-2.9,3.6-5.3
		c-0.6-3.4-4-4.4-6.1-4.9l-5-1.2c-5.8-1.4-8.5-4.4-9.4-10.4c-1-6.4,3.2-11.1,9.1-12.1c1.9-0.3,3.9-0.3,5.1-0.1c1,0.1,2,0.3,2.9,0.2
		c0.7-0.1,1.1-0.7,1.5-1.2l2.9-0.5l1.8,11.3L1238.2,297.2z"/>
	<path class="st13" d="M1247.8,284.1l25.8-4.2l2.4,15.1l-3.5,0.6l-0.5-3.4c-0.6-3.5-2.1-7.3-4.7-6.9c-2.3,0.4-1.9,4-1.6,6.2
		l3.1,19.2c0.4,2.8,1.2,4.4,2.8,4.5l1.9,0l0.6,3.4l-14.5,2.3l-0.6-3.4l1.9-0.6c1.5-0.5,1.7-2.4,1.2-5.1l-3.1-19.2
		c-0.4-2.3-1.2-5.8-3.5-5.4c-2.6,0.4-2.9,4.5-2.3,8l0.5,3.4l-3.5,0.6L1247.8,284.1z"/>
	<path class="st13" d="M1290.7,303.4l-0.2,1.9c-0.3,3.7,1,6.1,2.4,6.4l1.6,0.2l0.6,3.4l-12.7,2.1l-0.6-3.4l1.3-0.6
		c1.4-0.7,2.2-2.7,2.8-9.1l2.8-26.6l5.6-0.9l11.5,26.3c1.8,4,3.1,5.6,4.1,5.8l1.8,0.4l0.6,3.4l-14.8,2.4l-0.6-3.4l1.5-0.7
		c1.5-0.7,2-2.4,0.3-6.8l-0.7-1.7L1290.7,303.4z M1295.9,297.1l-3.5-8.9l-0.2,0l-1,9.6L1295.9,297.1z"/>
	<path class="st13" d="M1308.9,274.2l25.8-4.2l2.4,15.1l-3.5,0.6l-0.5-3.4c-0.6-3.5-2.1-7.3-4.7-6.9c-2.3,0.4-1.9,4-1.6,6.2
		l3.1,19.2c0.4,2.8,1.2,4.4,2.8,4.5h1.9l0.6,3.4l-14.5,2.3l-0.6-3.4l1.9-0.6c1.5-0.5,1.7-2.4,1.2-5.1l-3.1-19.2
		c-0.4-2.3-1.2-5.8-3.5-5.4c-2.6,0.4-2.9,4.5-2.3,8l0.5,3.4l-3.5,0.6L1308.9,274.2z"/>
	<path class="st13" d="M1346.5,276.9c-0.5-2.8-1.5-4.4-2.7-4.5l-2,0l-0.6-3.4l14.5-2.3l0.6,3.4l-1.9,0.6c-1.2,0.4-1.6,2.3-1.1,5.1
		l3.4,20.8c0.4,2.8,1.2,4.4,2.8,4.5l2,0l0.6,3.4l-14.5,2.3l-0.6-3.4l1.9-0.6c1.4-0.5,1.6-2.4,1.1-5.1L1346.5,276.9z"/>
	<path class="st13" d="M1392.1,285.6c1.3,7.6-2.6,14.8-10.2,16c-7.5,1.2-13.4-3.4-14.7-11.6l-1.8-11.5c-1.1-7.1,2.7-14.4,10.2-15.6
		c7.5-1.2,13.4,4.1,14.6,11.6L1392.1,285.6z M1375.7,290.2c0.7,4.4,2,8.1,5.6,7.5c3.5-0.6,3.6-4.8,2.9-8.9l-2.6-16
		c-0.5-3.4-1.8-6.6-5.3-6c-3.6,0.6-3.7,4-3.2,7.4L1375.7,290.2z"/>
	<path class="st13" d="M1408.3,288.2c0.4,2.8,1.2,4.4,2.8,4.5l1.4,0.1l0.6,3.4l-11,1.8l-0.6-3.4l1.9-0.6c1.4-0.5,1.6-2.4,1.1-5.1
		l-3.4-20.8c-0.5-2.8-1.5-4.4-2.7-4.5l-2,0l-0.6-3.4l13.5-2.2l11.4,20.3l0.1,0l-2.1-13c-0.5-2.8-1.5-4.4-2.7-4.5l-2,0l-0.6-3.4
		l11.5-1.9l0.6,3.4l-1.8,0.6c-1.2,0.4-1.7,2.3-1.2,5.1l4.7,29.3l-7,1.1l-15.2-27.6l-0.1,0L1408.3,288.2z"/>
	<g id="streetcar" class="st13">
		<path class="st35" d="M1222,911l1-140c1-88-51-149.6-139-159c-0.5-0.1-157.9-19.1-264.7-10.8c-90,7-178.2,13.5-262.1,12
			c-12.8-0.2-42.7-1-55.6,0.2c-37.4,3.3-80,15.6-85.5,52.7l-3,59l473,179L1222,911z"/>
		<path class="st36" d="M1222,911l1-140c1-88-51-149.6-139-159c-0.5-0.1-157.9-19.1-264.7-10.8c-90,7-178.2,13.5-262.1,12
			c-12.8-0.2-42.7-1-55.6,0.2c-37.4,3.3-80,15.6-85.5,52.7l-3,59l473,179L1222,911z"/>
		<path class="st37" d="M866.1,709.8l0.5-17.9c0-1.5-0.6-3-1.7-4.1c-42.3-40.3-235.7-32.2-431.4-36.2c-1,0-1.8,0.8-1.8,1.8L432,667
			c198.1,1.2,383.4-1.9,431.8,43.8C864.6,711.6,866.1,711,866.1,709.8"/>
		<path class="st36" d="M866.1,709.8l0.5-17.9c0-1.5-0.6-3-1.7-4.1c-42.3-40.3-235.7-32.2-431.4-36.2c-1,0-1.8,0.8-1.8,1.8L432,667
			c198.1,1.2,383.4-1.9,431.8,43.8C864.6,711.6,866.1,711,866.1,709.8z"/>
		<line class="st36" x1="1182" y1="726" x2="958" y2="741"/>
		<path class="st36" d="M810,602l-11.4-25.7c-68.2-18.4-140.2-16.6-215.2,1.7l-10.1,20.9l-26.5,4L544,613
			C609,615,706.5,610.1,810,602z"/>
		<path class="st35" d="M810,602l-11.4-25.7c-68.2-18.4-140.2-16.6-215.2,1.7l-10.1,20.9l-26.5,4L544,613
			C609,615,706.5,610.1,810,602"/>
		<path class="st37" d="M1201,715l-265,15.8v-18.4c0-12,9.4-21.8,21.4-22.4l215.6-10.2c15.3-0.7,28,11.5,28,26.8V715z"/>
		<path class="st36" d="M1201,715l-265,15.8v-18.4c0-12,9.4-21.8,21.4-22.4l215.6-10.2c15.3-0.7,28,11.5,28,26.8V715z"/>
		<path class="st38" d="M1051,851l-113.7,11.4c-6.6,0.7-12.3-4.5-12.3-11.2v-36.4c0-35.4,27.4-64.6,62.7-67l45.5-3
			c9.6-0.6,17.8,7,17.8,16.7V851z"/>
		<path class="st39" d="M1051,851l-113.7,11.4c-6.6,0.7-12.3-4.5-12.3-11.2v-36.4c0-35.4,27.4-64.6,62.7-67l45.5-3
			c9.6-0.6,17.8,7,17.8,16.7V851z"/>
		<path class="st38" d="M1165.2,836.5l-98.2,9.8v-85.3c0-9.5,7.4-17.4,16.9-18l47.6-3.2c26.3-1.7,48.5,19.1,48.5,45.4v35
			C1180,828.6,1173.6,835.6,1165.2,836.5"/>
		<path class="st39" d="M1165.2,836.5l-98.2,9.8v-85.3c0-9.5,7.4-17.4,16.9-18l47.6-3.2c26.3-1.7,48.5,19.1,48.5,45.4v35
			C1180,828.6,1173.6,835.6,1165.2,836.5z"/>
		<polygon class="st38" points="439,718 458,724.6 458,682 439,676.9 		"/>
		<polygon class="st40" points="439,718 458,724.6 458,682 439,676.9 		"/>
		<polygon class="st38" points="489.9,680.9 511.3,686.3 511.3,741.8 489.9,734.4 		"/>
		<polygon class="st40" points="489.9,680.9 511.3,686.3 511.3,741.8 489.9,734.4 		"/>
		<polygon class="st38" points="540.7,684.9 564.6,690.5 564.6,759 540.7,750.8 		"/>
		<polygon class="st40" points="540.7,684.9 564.6,690.5 564.6,759 540.7,750.8 		"/>
		<polygon class="st38" points="591.6,688.9 617.9,694.8 617.9,776.2 591.6,767.2 		"/>
		<polygon class="st40" points="591.6,688.9 617.9,694.8 617.9,776.2 591.6,767.2 		"/>
		<polygon class="st38" points="642.4,692.9 671.1,699.1 671.1,793.4 642.4,783.6 		"/>
		<polygon class="st40" points="642.4,692.9 671.1,699.1 671.1,793.4 642.4,783.6 		"/>
		<polygon class="st38" points="693.3,697 724.4,703.4 724.4,810.6 693.3,800 		"/>
		<polygon class="st40" points="693.3,697 724.4,703.4 724.4,810.6 693.3,800 		"/>
		<polygon class="st38" points="744.1,701 777.7,707.6 777.7,827.8 744.1,816.4 		"/>
		<polygon class="st40" points="744.1,701 777.7,707.6 777.7,827.8 744.1,816.4 		"/>
		<polygon class="st38" points="795,705 831,711.9 831,845 795,832.8 		"/>
		<polygon class="st40" points="795,705 831,711.9 831,845 795,832.8 		"/>
		<line class="st36" x1="881" y1="704.8" x2="879" y2="894"/>
		<path class="st41" d="M699.2,1036.8c-3,23.1,16.6,44.8,43.8,48.3c27.2,3.5,51.6-12.4,54.7-35.5c3-23.1-16.6-44.8-43.8-48.3
			C726.7,997.7,702.2,1013.6,699.2,1036.8"/>
		<path class="st41" d="M464.2,872.8c-3,23.1,16.6,44.8,43.8,48.3c27.2,3.5,51.6-12.4,54.7-35.5c3-23.1-16.6-44.8-43.8-48.3
			C491.7,833.7,467.2,849.6,464.2,872.8"/>
		<path class="st42" d="M1222,1103l-72,15c-4.1-52.3-172.7-33.2-168,31l-101,19.3L879,892l343-34.9V1103z"/>
		<path class="st36" d="M1222,1103l-72,15c-4.1-52.3-172.7-33.2-168,31l-101,19.3L879,892l343-34.9V1103z"/>
		<path class="st42" d="M413,719l466,172.7V1167l-97.7-64.4c17.7-27.6-81.3-83.6-89.4-58.9L528.8,936.3c7.2-26.3-63.8-68.3-71-46.7
			L413,860V719z"/>
		<path class="st36" d="M413,719l466,172.7V1167l-97.7-64.4c17.7-27.6-81.3-83.6-89.4-58.9L528.8,936.3c7.2-26.3-63.8-68.3-71-46.7
			L413,860V719z"/>
		<line class="st36" x1="414" y1="805" x2="880" y2="1050"/>
		<line class="st36" x1="880" y1="1050" x2="1224" y2="990"/>
		<path class="st38" d="M1045.5,934.9c-1.7,13.1,7.5,25.1,20.6,26.8c13.1,1.7,25.1-7.5,26.8-20.6c1.7-13.1-7.5-25.1-20.6-26.8
			C1059.2,912.6,1047.2,921.8,1045.5,934.9"/>
		<path class="st39" d="M1045.5,934.9c-1.7,13.1,7.5,25.1,20.6,26.8c13.1,1.7,25.1-7.5,26.8-20.6c1.7-13.1-7.5-25.1-20.6-26.8
			C1059.2,912.6,1047.2,921.8,1045.5,934.9z"/>
	</g>
</g>
</svg>
