<svg xmlns="http://www.w3.org/2000/svg" viewBox="0 0 366.59 345.75">
  <defs>
    <style>
      .cls-1 {
        fill: #d8ae8d;
        stroke-width: 0.68px;
      }

      .cls-1, .cls-2, .cls-3, .cls-4, .cls-5, .cls-7 {
        stroke: #000;
      }

      .cls-1, .cls-2, .cls-3, .cls-4, .cls-5, .cls-6, .cls-7 {
        stroke-miterlimit: 10;
      }

      .cls-2 {
        fill: #fff;
        stroke-width: 0.87px;
      }

      .cls-3 {
        fill: #bebebe;
        stroke-width: 0.71px;
      }

      .cls-4 {
        fill: #eb0000;
      }

      .cls-4, .cls-5 {
        stroke-width: 0.81px;
      }

      .cls-5 {
        fill: #f20000;
      }

      .cls-6 {
        fill: none;
        stroke: #754c24;
        stroke-width: 5.85px;
      }

      .cls-7 {
        fill: #f15a24;
        stroke-width: 0.49px;
      }
    </style>
  </defs>
  <title>beach</title>
  <g id="Layer_2" data-name="Layer 2">
    <g id="Layer_1-2" data-name="Layer 1">
      <g>
        <ellipse class="cls-1" cx="220.29" cy="272.43" rx="145.96" ry="72.98"/>
        <g>
          <path class="cls-2" d="M274.77,48.85C230.68-53.5-20.94,20.6,1.9,139.42c12.6-11.57,29.72-17.55,51.91-17.23a96.47,96.47,0,0,1,55-18.25c16.36-12,34.41-18.21,54.33-18,15.12-14,32.68-22.17,55.25-18.34C233.05,54.26,251.65,47.68,274.77,48.85Z"/>
          <g>
            <path class="cls-3" d="M193.71,271c1.52,5.9-7.18,8.43-8.92,2.78L121.6,70.93l8.93-2.78Z"/>
            <path class="cls-4" d="M53.91,122.09c-19.54-1.14-38,3.77-52.46,17.62C-7.54,78.42,47,33.9,107.82,12.82Z"/>
            <path class="cls-4" d="M218.42,68c15.39-12.1,37.41-21.8,57.15-18.66-27.63-55.44-102-55.36-164-37.91Z"/>
            <path class="cls-4" d="M109.83,11.71l-.9,92.67C124.38,91.84,142.3,85,163.4,85.67Z"/>
            <circle class="cls-5" cx="110.74" cy="8.6" r="4.46"/>
          </g>
        </g>
        <g>
          <line class="cls-6" x1="202.23" y1="153.16" x2="230.96" y2="271.04"/>
          <line class="cls-6" x1="281.22" y1="209.63" x2="332.21" y2="214.76"/>
          <line class="cls-6" x1="340.3" y1="274.85" x2="328.74" y2="215.92"/>
          <line class="cls-6" x1="225.91" y1="247.12" x2="289.46" y2="234.41"/>
          <polygon class="cls-7" points="210.99 156.57 237.3 246.2 278.48 263.87 325.86 248.85 279.67 237.92 257.75 155.6 210.99 156.57"/>
          <line class="cls-6" x1="203.91" y1="157.51" x2="264.04" y2="154.68"/>
          <path class="cls-6" d="M226,248.31l41,17.37,67.58-19.41a.26.26,0,0,0,0-.51l-45.1-11.35-26.58-85.5"/>
          <polyline class="cls-6" points="216.84 215.51 254.8 222.85 269.82 291.02"/>
        </g>
      </g>
    </g>
  </g>
</svg>
