<svg xmlns="http://www.w3.org/2000/svg" viewBox="0 0 481.51 178.31">
  <defs>
    <style>
      .cls-1 {
        fill: #fff;
      }

      .cls-1, .cls-2, .cls-5, .cls-6, .cls-7, .cls-8 {
        stroke: #000;
        stroke-miterlimit: 10;
      }

      .cls-2 {
        fill: #bebebe;
      }

      .cls-3 {
        fill: #171b1e;
      }

      .cls-4 {
        fill: #a74135;
      }

      .cls-5, .cls-8 {
        fill: #b3b3b3;
      }

      .cls-6 {
        fill: none;
      }

      .cls-7 {
        fill: #f2f2f2;
      }

      .cls-8 {
        stroke-width: 0.84px;
      }
    </style>
  </defs>
  <title>boat</title>
  <g id="Layer_2" data-name="Layer 2">
    <g id="Layer_1-2" data-name="Layer 1">
      <g>
        <path class="cls-1" d="M210.81,1.56c-7.62,41.3-7.49,76.25-6.49,89.25l156,19v-42h-84V5.21a2.68,2.68,0,0,0-2.59-2.69C261.61,2.05,211.06.2,210.81,1.56Z"/>
        <path class="cls-2" d="M.82,68.31l25,52.17,168,28.83,255-4,22-15,10-33c-88.93,6.14-174.91,7.81-246-13.08a68.71,68.71,0,0,0-15.38-2.71Z"/>
        <g>
          <path class="cls-3" d="M25.42,110.83l102.69,9.42a6.59,6.59,0,0,1,1.39.28L193.78,141a7.35,7.35,0,0,0,2.13.34l232.91,1c4.21-9.32,10.39-14.38,20-12h22l-1,11c-5.77,13.55-22.8,20.24-43,25l-372,12C45.36,154.9,35,133.32,22.94,115A2.67,2.67,0,0,1,25.42,110.83Z"/>
          <path class="cls-4" d="M44.82,155.31l418.2-4a37.44,37.44,0,0,1-13.91,8.14l-398.29,8.9Z"/>
        </g>
        <path class="cls-5" d="M206.32,31.81l19.5-.5,1,19-21.5.5C205.32,39.81,205.32,40.81,206.32,31.81Z"/>
        <g>
          <line class="cls-6" x1="276.32" y1="53.81" x2="276.32" y2="67.81"/>
          <line class="cls-6" x1="285.54" y1="53.87" x2="285.54" y2="67.87"/>
          <line class="cls-6" x1="294.76" y1="53.92" x2="294.76" y2="67.92"/>
          <line class="cls-6" x1="303.99" y1="53.98" x2="303.99" y2="67.98"/>
          <line class="cls-6" x1="313.21" y1="54.04" x2="313.21" y2="68.04"/>
          <line class="cls-6" x1="322.43" y1="54.09" x2="322.43" y2="68.09"/>
          <line class="cls-6" x1="331.65" y1="54.15" x2="331.65" y2="68.15"/>
          <line class="cls-6" x1="340.87" y1="54.2" x2="340.87" y2="68.2"/>
          <line class="cls-6" x1="350.1" y1="54.26" x2="350.1" y2="68.26"/>
          <line class="cls-6" x1="359.32" y1="54.31" x2="359.32" y2="68.31"/>
        </g>
        <line class="cls-6" x1="276.82" y1="53.81" x2="359.82" y2="53.81"/>
        <path class="cls-7" d="M212.32,1.53c8.62-1.75,50.28-1.09,61.41.62a.63.63,0,0,1,0,1.24C254,7.66,232.17,6.91,212.32,1.88A.18.18,0,0,1,212.32,1.53Z"/>
        <path class="cls-5" d="M230.62,34.94l.7,14.87,15-1C245.19,43,242,39,236.67,32.65A3.42,3.42,0,0,0,230.62,34.94Z"/>
        <rect class="cls-8" x="275.32" y="72.81" width="12" height="9" rx="4.5"/>
        <rect class="cls-8" x="296.32" y="72.81" width="12" height="9" rx="4.5"/>
        <rect class="cls-8" x="317.32" y="72.81" width="12" height="9" rx="4.5"/>
        <rect class="cls-8" x="338.32" y="72.81" width="12" height="9" rx="4.5"/>
      </g>
    </g>
  </g>
</svg>
