<svg xmlns="http://www.w3.org/2000/svg" viewBox="0 0 686.83 475.9">
  <defs>
    <style>
      .cls-1 {
        fill: #976a4b;
      }

      .cls-1, .cls-2, .cls-3, .cls-4, .cls-5 {
        stroke: #000;
        stroke-miterlimit: 10;
      }

      .cls-2 {
        fill: #624631;
      }

      .cls-3 {
        fill: #bb936f;
      }

      .cls-4 {
        fill: #ac7d53;
      }

      .cls-5 {
        fill: none;
      }
    </style>
  </defs>
  <title>buffalo</title>
  <g id="Layer_2" data-name="Layer 2">
    <g id="Layer_1-2" data-name="Layer 1">
      <g>
        <path class="cls-1" d="M609.25,105.72c42.32,7.13,68.41,38.65,69.28,108.11l-14,6c4.48-33.75,2.4-60.7-15.95-68.5Z"/>
        <path class="cls-1" d="M92,60.33c20-49.67,50.74-65.69,89-58a157.89,157.89,0,0,0,66,9c37.49-12.64,65.06,3.73,93,19,50.5,11.31,90.4,26.22,116,46l88,17c112.29,5.94,135,67.27,81,176-10.45,39.14-5.62,71.06,14,96l-22,110H575c-32.5,1.5-23.12-20.85-2-35,18.34-2.62,22.57-24.38,21-54-25.67-7.08-66.5-92.5-66.5-92.5C472,326.34,362,300.33,362,300.33s36.22,75,0,126l-33,47-38,2c-46.76-2.88-45.85-15.26,2-37,55.74-45.91-17-102.17-73.5-105.5-55.3-13.6-118.91-17.75-114-101Z"/>
        <path class="cls-2" d="M63.23,38.43a236.87,236.87,0,0,1,52.28.92A37.11,37.11,0,0,1,147,83.89c17.79,65,7.17,127.85-40.45,187.94-21.84,34.41-40.94,40.6-56,5l-12-49c-15.39-3.82-18.18-21.52-13-48,4-12,4.21-25.56-2-42l-5-45A49.19,49.19,0,0,1,63.23,38.43Z"/>
        <path class="cls-3" d="M9.53,23.83c-1.64,25,1.91,43,13.54,50,4.89,8.92,2.32,18.25-2.6,27.71C-4.5,80-3.51,53.16,9.53,23.83Z"/>
        <path class="cls-3" d="M152.53,19.83c34.24,67.53,7.08,82.94-27,86-6.1-11.4-7.94-22.75-1-34C145.27,82.52,154.45,64.82,152.53,19.83Z"/>
        <ellipse cx="108.03" cy="125.33" rx="6.5" ry="4.5"/>
        <path class="cls-4" d="M23.94,186.41c13.56-4.56,26.12-6.2,36.59-1.58,22.83,9.61,20.06,25.19,12,42-8.67,11.2-20,15-31,12l-3-11C23.85,224.51,20.2,209.41,23.94,186.41Z"/>
        <line class="cls-5" x1="38.53" y1="227.83" x2="72.53" y2="226.83"/>
        <path class="cls-5" d="M62.53,200.83l-12.3,1.54a2.92,2.92,0,0,0-2.36,3.95l3.66,9.51"/>
        <path class="cls-2" d="M664.53,219.83l14-6c11.44,30.81,9.59,78-1,136Q643.36,280.31,664.53,219.83Z"/>
      </g>
    </g>
  </g>
</svg>
