<svg xmlns="http://www.w3.org/2000/svg" viewBox="0 0 98.03 53.31">
  <defs>
    <style>
      .cls-1 {
        fill: #624631;
      }

      .cls-1, .cls-2, .cls-4, .cls-5, .cls-6, .cls-7, .cls-8, .cls-9 {
        stroke: #000;
        stroke-miterlimit: 10;
      }

      .cls-1, .cls-2, .cls-4, .cls-5, .cls-8, .cls-9 {
        stroke-width: 0.13px;
      }

      .cls-2 {
        fill: #c1beb8;
      }

      .cls-3 {
        fill: #fff;
      }

      .cls-4 {
        fill: #f8f7f4;
      }

      .cls-5, .cls-6 {
        fill: #f2f2f2;
      }

      .cls-6, .cls-7 {
        stroke-width: 0.25px;
      }

      .cls-7, .cls-8 {
        fill: none;
      }

      .cls-9 {
        fill: #c44823;
      }
    </style>
  </defs>
  <title>cottages</title>
  <g id="Layer_2" data-name="Layer 2">
    <g id="map">
      <g id="cottage">
        <polygon class="cls-1" points="63.32 12.52 81.82 0.15 34.14 7.31 20.59 15.91 63.32 12.52"/>
        <path id="roofShadow" class="cls-2" d="M63.26,12.59,20.91,15.72l-.13,1.43a313.17,313.17,0,0,0,43-3.39L81.37,2.43,95.44,14.8l2.47-1L82,.08Z"/>
        <g>
          <polygon class="cls-3" points="44.49 20.47 63.98 13.59 64.1 14.68 44.62 21.82 44.49 20.47"/>
          <path d="M63.93,13.68l.1.91L44.67,21.72l-.1-1.16,19.36-6.88M64,13.5l-19.61,7,.13,1.43,19.61-7.23L64,13.5Z"/>
        </g>
        <g>
          <polygon class="cls-3" points="0.26 23.14 44.56 20.54 44.76 21.92 0.26 24.51 0.26 23.14"/>
          <path d="M44.45,20.61l.22,1.17L.33,24.44V23.27l44.12-2.66m.11-.14L.2,23.14v1.44L44.82,21.9l-.26-1.43Z"/>
        </g>
        <g>
          <polygon class="cls-4" points="63.78 13.76 64.56 49.85 96.74 49.07 95.44 14.8 81.37 2.43 63.78 13.76"/>
          <polygon class="cls-4" points="63.91 14.67 64.56 49.85 45.02 50.5 44.73 21.79 63.91 14.67"/>
          <polygon class="cls-4" points="0.33 24.58 0.07 51.16 45.02 50.5 44.76 21.84 0.33 24.58"/>
        </g>
        <polygon class="cls-2" points="84.88 38.26 77.59 38.39 77.2 21.84 84.62 21.84 84.88 38.26"/>
        <polygon class="cls-5" points="78.11 23.01 78.37 37.21 83.84 37.21 83.65 23.08 78.11 23.01"/>
        <g>
          <polygon class="cls-6" points="61.33 38 50.39 38.25 50.06 23.79 61.01 23.8 61.33 38"/>
          <line class="cls-7" x1="52.54" y1="23.86" x2="52.87" y2="38.19"/>
          <line class="cls-7" x1="55.28" y1="23.87" x2="55.6" y2="38.2"/>
          <line class="cls-7" x1="58.14" y1="23.8" x2="58.47" y2="38.13"/>
          <line class="cls-7" x1="50.14" y1="27.31" x2="61.09" y2="27.32"/>
          <line class="cls-7" x1="50.23" y1="31.21" x2="61.18" y2="31.23"/>
          <line class="cls-7" x1="50.31" y1="34.6" x2="61.26" y2="34.61"/>
        </g>
        <polygon class="cls-6" points="16.99 28.09 17.13 38.65 8.4 38.78 8.26 28.66 16.99 28.09"/>
        <line class="cls-8" x1="26.07" y1="28.74" x2="32.12" y2="33.57"/>
        <line class="cls-8" x1="12.83" y1="30.18" x2="17.13" y2="33.17"/>
        <line class="cls-8" x1="3.58" y1="30.83" x2="8.4" y2="34.09"/>
        <polygon class="cls-6" points="41.27 26.09 41.5 37.73 32.12 38 31.86 26.66 41.27 26.09"/>
        <polygon class="cls-7" points="20.65 25.23 20.91 49.46 27.43 49.33 26.91 24.84 20.65 25.23"/>
        <polygon class="cls-5" points="26.12 37.21 21.69 37.34 21.69 26.27 25.86 26.01 26.12 37.21"/>
        <line class="cls-8" x1="21.69" y1="29.79" x2="25.86" y2="29.53"/>
        <line class="cls-8" x1="21.69" y1="33.91" x2="25.99" y2="33.78"/>
        <line class="cls-8" x1="22.87" y1="26.14" x2="22.87" y2="37.21"/>
        <line class="cls-8" x1="24.43" y1="26.07" x2="24.56" y2="37.28"/>
        <path class="cls-1" d="M20.72,16.82.13,23.34l44.23-2.8,19.74-7C61.07,14.74,22.07,17.74,20.72,16.82Z"/>
        <g id="trim">
          <g id="trimFront">
            <path class="cls-3" d="M22.4,16.47a3.08,3.08,0,0,1-1.35-.5l-.26-.14,42.6-3.1a7.09,7.09,0,0,1-3,1,1.91,1.91,0,0,1-.89-.19,3.69,3.69,0,0,1-1.92.69,2.3,2.3,0,0,1-1.3-.43,3.54,3.54,0,0,1-2,.77,3.07,3.07,0,0,1-1.47-.4,2.51,2.51,0,0,1-1.68.73,3.09,3.09,0,0,1-1.54-.47,2.82,2.82,0,0,1-1.79.79,2.85,2.85,0,0,1-1.58-.55,1.89,1.89,0,0,1-1.31.44,5,5,0,0,1-1.64-.32,5.41,5.41,0,0,1-2,.57,1.43,1.43,0,0,1-.94-.29,3.77,3.77,0,0,1-1.75.57,1.81,1.81,0,0,1-1.19-.44,3.51,3.51,0,0,1-1.77.53,3.79,3.79,0,0,1-1.34-.28,3.4,3.4,0,0,1-1.7.54,2.57,2.57,0,0,1-1.1-.26,3.9,3.9,0,0,1-1.6.39,3,3,0,0,1-1.2-.26,2.78,2.78,0,0,1-1.56.56A2.58,2.58,0,0,1,26,16.11a4.81,4.81,0,0,1-1.68.35,2.83,2.83,0,0,1-1.12-.22A1.5,1.5,0,0,1,22.4,16.47Z"/>
            <path d="M63.06,12.82a6.47,6.47,0,0,1-2.69.8,1.91,1.91,0,0,1-.86-.18l-.07,0-.07,0a3.22,3.22,0,0,1-1.81.68,2.16,2.16,0,0,1-1.26-.42l-.08-.06-.08.06a2.84,2.84,0,0,1-3.37.37L52.69,14l-.08.07a2.14,2.14,0,0,1-1.55.71,3.09,3.09,0,0,1-1.51-.47l-.09-.05-.07.07a2.44,2.44,0,0,1-1.66.76,2.85,2.85,0,0,1-1.54-.53l-.1-.07L46,14.6a1.55,1.55,0,0,1-1.18.4,5.28,5.28,0,0,1-1.61-.31l-.07,0,0,0a4.71,4.71,0,0,1-1.9.56,1.42,1.42,0,0,1-.9-.28l-.07-.06-.08.05a3.18,3.18,0,0,1-1.64.56,1.81,1.81,0,0,1-1.15-.42L37.3,15l-.09.06a3,3,0,0,1-1.65.52,3.53,3.53,0,0,1-1.31-.27l-.06,0-.06,0a3.08,3.08,0,0,1-1.61.52,2.57,2.57,0,0,1-1.07-.25l-.06,0-.06,0a3.44,3.44,0,0,1-1.51.38,3,3,0,0,1-1.18-.25l-.07,0-.06,0a2.4,2.4,0,0,1-1.45.53A2.46,2.46,0,0,1,26,16l-.06,0-.05,0a4.21,4.21,0,0,1-1.6.36,3,3,0,0,1-1.1-.22l-.07,0-.06,0a1.13,1.13,0,0,1-.64.21,3.12,3.12,0,0,1-1.32-.49l0,0,42-3.06m.64-.19L20.54,15.78a4.93,4.93,0,0,0,1.86.76,1.24,1.24,0,0,0,.72-.24,2.88,2.88,0,0,0,1.15.23,4.35,4.35,0,0,0,1.65-.36,2.73,2.73,0,0,0,1.14.28,2.45,2.45,0,0,0,1.53-.57,3,3,0,0,0,1.23.27,3.55,3.55,0,0,0,1.57-.4,2.62,2.62,0,0,0,1.13.26,3.12,3.12,0,0,0,1.68-.54,3.54,3.54,0,0,0,1.36.29,3,3,0,0,0,1.73-.55,1.87,1.87,0,0,0,1.23.46,3.42,3.42,0,0,0,1.71-.58,1.54,1.54,0,0,0,1,.3,4.78,4.78,0,0,0,2-.57,5.31,5.31,0,0,0,1.66.32,1.71,1.71,0,0,0,1.28-.45,2.9,2.9,0,0,0,1.61.56,2.5,2.5,0,0,0,1.75-.8,3.28,3.28,0,0,0,1.58.48,2.3,2.3,0,0,0,1.65-.74,3.2,3.2,0,0,0,1.5.41,3.17,3.17,0,0,0,2-.79,2.32,2.32,0,0,0,1.34.45,3.43,3.43,0,0,0,1.89-.7,2,2,0,0,0,.92.2,7.55,7.55,0,0,0,3.33-1.13Z"/>
          </g>
          <g id="trimSide">
            <g>
              <path class="cls-3" d="M64,12.7a.91.91,0,0,1-.58-.17L81.8.28c-.66.92-1.89,2.54-3.12,2.64a2.86,2.86,0,0,1-2.54,1.83H76a3.27,3.27,0,0,1-2.86,2.07,2.63,2.63,0,0,1-2.66,1.83,3,3,0,0,1-3.1,1.72h-.06l-.06.07C67.25,11.32,65.26,12.7,64,12.7Z"/>
              <path d="M81.46.58c-.67,1-1.73,2.19-2.78,2.27h-.07l0,.06a2.7,2.7,0,0,1-2.44,1.76h-.2l0,.08a3,3,0,0,1-2.75,2h-.08l0,.08A2.47,2.47,0,0,1,70.5,8.58h-.09l0,.08c-.45,1.36-1.87,1.64-3,1.64h-.17v.12c0,.87-2,2.2-3.22,2.2a1,1,0,0,1-.47-.1L81.46.58m.33-.36h0L63.32,12.52a.91.91,0,0,0,.69.24c1.24,0,3.31-1.36,3.35-2.32h0c1.39,0,2.68-.44,3.1-1.73a2.6,2.6,0,0,0,2.66-1.83A3.18,3.18,0,0,0,76,4.81h.11A2.83,2.83,0,0,0,78.69,3C79.84,2.89,81,1.52,81.82.28a0,0,0,0,0,0-.06Z"/>
            </g>
            <g>
              <path class="cls-3" d="M96.9,14.14a2.69,2.69,0,0,1-1.85-.83,1.65,1.65,0,0,1-.51-1.22A2.67,2.67,0,0,1,92,9.83a2.64,2.64,0,0,1-2.4-2.16,3.26,3.26,0,0,1-2.55-2.44,2.85,2.85,0,0,1-2.4-2.17c-1.21-.29-2.2-2-2.68-2.95L97.92,13.82a1.77,1.77,0,0,1-1,.32Z"/>
              <path d="M82.18.33,97.77,13.78a1.27,1.27,0,0,1-.87.29,2.65,2.65,0,0,1-1.81-.81,1.63,1.63,0,0,1-.49-1.17V12h-.12a2.47,2.47,0,0,1-2.4-2.14l0-.09H92a2.46,2.46,0,0,1-2.29-2.06l0-.09-.08,0a3,3,0,0,1-2.46-2.34l0-.08H87A2.67,2.67,0,0,1,84.73,3l0-.07h-.07c-1-.23-1.94-1.65-2.45-2.63M82,0a.08.08,0,0,0-.07.11c.65,1.3,1.6,2.71,2.68,2.94A2.81,2.81,0,0,0,87,5.25a3.17,3.17,0,0,0,2.55,2.43A2.61,2.61,0,0,0,92,9.84a2.62,2.62,0,0,0,2.51,2.25c0,1.17,1.32,2.11,2.43,2.11A1.35,1.35,0,0,0,98,13.77L82.05.05l0,0Z"/>
            </g>
          </g>
        </g>
        <line class="cls-8" x1="36.94" y1="28.09" x2="41.37" y2="31.87"/>
        <polygon class="cls-2" points="31.6 37.87 41.89 37.6 41.89 38.52 31.6 38.78 31.6 37.87"/>
        <polygon class="cls-2" points="7.82 38.13 17.46 37.87 17.46 38.78 7.82 39.04 7.82 38.13"/>
        <circle class="cls-2" cx="26.38" cy="38.39" r="0.39"/>
        <line class="cls-8" x1="78.24" y1="29.53" x2="83.71" y2="29.53"/>
        <line class="cls-8" x1="80.98" y1="23.01" x2="81.24" y2="37.21"/>
        <polygon class="cls-2" points="48.78 37.32 62.98 37.11 63.01 38.16 48.81 38.36 48.78 37.32"/>
        <polygon class="cls-1" points="0.07 51.16 45.02 50.5 64.56 49.85 96.74 49.07 96.74 51.28 64.56 52.2 44.63 52.46 0.07 53.24 0.07 51.16"/>
        <line class="cls-8" x1="45.02" y1="50.44" x2="45.02" y2="52.52"/>
        <line class="cls-8" x1="64.56" y1="49.79" x2="64.56" y2="52.13"/>
        <line class="cls-8" x1="36.68" y1="37.74" x2="36.42" y2="26.4"/>
        <line class="cls-8" x1="12.57" y1="38" x2="12.31" y2="29.92"/>
        <path class="cls-9" d="M30.81,26.36,25.6,28.88l11.34-.79,4.16-1.91A.2.2,0,0,0,41,25.8Z"/>
        <path class="cls-9" d="M6.71,28.44,1.5,31l11.33-.78L17,28.25a.23.23,0,0,0-.11-.44Z"/>
        <line class="cls-8" x1="8.4" y1="33.83" x2="17.13" y2="33.7"/>
        <line class="cls-8" x1="32.11" y1="33.17" x2="41.37" y2="32.91"/>
      </g>
    </g>
  </g>
</svg>
