<svg xmlns="http://www.w3.org/2000/svg" viewBox="0 0 21.51 21.13">
  <defs>
    <style>
      .cls-1 {
        fill: #aed6df;
        stroke: #f7fafc;
        stroke-width: 1.21px;
      }

      .cls-1, .cls-2, .cls-3, .cls-4 {
        stroke-miterlimit: 10;
      }

      .cls-2 {
        fill: #f7fafc;
        stroke-width: 0.25px;
      }

      .cls-2, .cls-3, .cls-4 {
        stroke: #b3b3b3;
      }

      .cls-3, .cls-4 {
        fill: none;
        stroke-width: 0.05px;
      }

      .cls-3 {
        stroke-linecap: round;
      }
    </style>
  </defs>
  <title>fountain</title>
  <g id="Layer_2" data-name="Layer 2">
    <g id="Layer_1-2" data-name="Layer 1">
      <g>
        <path class="cls-1" d="M3.6,12.64,9.67,7.73l.17-.14a5.83,5.83,0,0,1,6.89-1.3,7.55,7.55,0,0,1,3.38,2.84,4.56,4.56,0,0,1-.45,5.69,8.55,8.55,0,0,1-1.35,1.34A18.05,18.05,0,0,1,6.74,20.53a6.48,6.48,0,0,1-3-.7c-4.46-2.27-3.86-4.62-.43-7Z"/>
        <g>
          <path class="cls-2" d="M10,1.45c.29-2.07,2.66-1.48,2.17.2.63.22.89.74.79,1.57a7.15,7.15,0,0,1-.3,2.27.7.7,0,0,1,.25.9.46.46,0,0,0-.05.2h0a1.33,1.33,0,0,0,.07.45,2.77,2.77,0,0,1-.07,1.6,4.59,4.59,0,0,1,.79,3.16,1.35,1.35,0,0,0,.62.7.34.34,0,0,1,.17.29v1a9,9,0,0,1-7.5.4v-.93a.36.36,0,0,1,.23-.34,3.08,3.08,0,0,0,1-.51,5.18,5.18,0,0,1,.59-1.58c-.17-1.13-.24-2.17.4-2.56a2.64,2.64,0,0,1-.2-2.77V2.93A1.44,1.44,0,0,1,10,1.45Z"/>
          <g>
            <path class="cls-3" d="M12,2.93A4.76,4.76,0,0,0,12,4.21a.3.3,0,0,1-.39.3,2.41,2.41,0,0,0-1.9,0"/>
            <path class="cls-3" d="M12,1.94c-.59.79-1,1.19-1.78,0"/>
            <path class="cls-3" d="M9.87,2.93a1.36,1.36,0,0,1,0,1.18"/>
            <path class="cls-3" d="M9.08,5.49a3,3,0,0,0,1.92,0l.1,0a3.69,3.69,0,0,1,1.33,0"/>
          </g>
          <path class="cls-4" d="M10,5.4a1,1,0,0,1,1.18-.6"/>
          <path class="cls-4" d="M10.76,8c1.31,0,1.89.56,1.6,1.68a.28.28,0,0,0,0,.18,3.83,3.83,0,0,1,.73,1.6.13.13,0,0,0,.09.11.6.6,0,0,1,.31.18"/>
        </g>
      </g>
    </g>
  </g>
</svg>
