<svg xmlns="http://www.w3.org/2000/svg" viewBox="0 0 893.83 888.63">
  <defs>
    <style>
      .cls-1, .cls-33, .cls-34, .cls-35, .cls-43 {
        fill: none;
      }

      .cls-1, .cls-10, .cls-11, .cls-12, .cls-13, .cls-14, .cls-15, .cls-16, .cls-17, .cls-18, .cls-19, .cls-2, .cls-20, .cls-21, .cls-22, .cls-23, .cls-24, .cls-25, .cls-26, .cls-27, .cls-28, .cls-29, .cls-3, .cls-30, .cls-31, .cls-32, .cls-34, .cls-35, .cls-36, .cls-37, .cls-38, .cls-39, .cls-4, .cls-40, .cls-41, .cls-42, .cls-43, .cls-5, .cls-6, .cls-7, .cls-8 {
        stroke: #000;
      }

      .cls-1, .cls-10, .cls-11, .cls-12, .cls-13, .cls-14, .cls-15, .cls-16, .cls-17, .cls-18, .cls-19, .cls-2, .cls-20, .cls-21, .cls-22, .cls-23, .cls-24, .cls-25, .cls-26, .cls-27, .cls-28, .cls-29, .cls-3, .cls-30, .cls-31, .cls-32, .cls-33, .cls-34, .cls-35, .cls-36, .cls-37, .cls-38, .cls-39, .cls-4, .cls-40, .cls-41, .cls-42, .cls-43, .cls-5, .cls-6, .cls-7, .cls-8 {
        stroke-miterlimit: 10;
      }

      .cls-1, .cls-2 {
        stroke-width: 1.06px;
      }

      .cls-2 {
        fill: #717178;
      }

      .cls-3 {
        fill: #3b3f52;
      }

      .cls-12, .cls-13, .cls-14, .cls-18, .cls-19, .cls-20, .cls-21, .cls-22, .cls-23, .cls-24, .cls-25, .cls-26, .cls-27, .cls-28, .cls-29, .cls-4 {
        fill: #271e1e;
      }

      .cls-4, .cls-43 {
        stroke-width: 1px;
      }

      .cls-5 {
        fill: #5f5f67;
      }

      .cls-6, .cls-7 {
        fill: #726a67;
      }

      .cls-6 {
        stroke-width: 0.99px;
      }

      .cls-8, .cls-9 {
        fill: #767879;
      }

      .cls-10 {
        fill: #373231;
      }

      .cls-11 {
        fill: #a59b8e;
      }

      .cls-13 {
        stroke-width: 1.03px;
      }

      .cls-14 {
        stroke-width: 1.03px;
      }

      .cls-15, .cls-16, .cls-17, .cls-37, .cls-40 {
        fill: #717071;
      }

      .cls-15, .cls-35 {
        stroke-width: 0.95px;
      }

      .cls-16 {
        stroke-width: 1.06px;
      }

      .cls-17 {
        stroke-width: 0.96px;
      }

      .cls-18 {
        stroke-width: 1.01px;
      }

      .cls-19 {
        stroke-width: 1.02px;
      }

      .cls-20 {
        stroke-width: 1.03px;
      }

      .cls-21 {
        stroke-width: 1.04px;
      }

      .cls-22 {
        stroke-width: 1.04px;
      }

      .cls-23 {
        stroke-width: 1.05px;
      }

      .cls-24 {
        stroke-width: 1.06px;
      }

      .cls-25 {
        stroke-width: 1.07px;
      }

      .cls-26 {
        stroke-width: 1.08px;
      }

      .cls-27 {
        stroke-width: 1.08px;
      }

      .cls-28 {
        stroke-width: 1.09px;
      }

      .cls-29 {
        stroke-width: 1.1px;
      }

      .cls-30 {
        fill: #66676f;
      }

      .cls-31 {
        fill: #1c171c;
      }

      .cls-32 {
        fill: #2b2a28;
      }

      .cls-33 {
        stroke: #3a3436;
      }

      .cls-36 {
        fill: #7b7c7e;
      }

      .cls-37 {
        stroke-width: 1px;
      }

      .cls-38 {
        fill: #383637;
      }

      .cls-39 {
        fill: #44423d;
      }

      .cls-40 {
        stroke-width: 1.05px;
      }

      .cls-41 {
        fill: #65899b;
      }

      .cls-42 {
        fill: #535254;
      }
    </style>
  </defs>
  <title>gazebo</title>
  <g id="Layer_2" data-name="Layer 2">
    <g id="Layer_1-2" data-name="Layer 1">
      <g>
        <g>
          <g>
            <line class="cls-1" x1="414.66" y1="25.94" x2="425.66" y2="20.94"/>
            <line class="cls-1" x1="414.66" y1="31.69" x2="425.66" y2="26.69"/>
            <line class="cls-1" x1="414.66" y1="37.44" x2="425.66" y2="32.44"/>
            <line class="cls-1" x1="414.66" y1="43.19" x2="425.66" y2="38.19"/>
            <line class="cls-1" x1="414.66" y1="48.94" x2="425.66" y2="43.94"/>
          </g>
          <g>
            <line class="cls-1" x1="460.66" y1="26.94" x2="449.66" y2="21.94"/>
            <line class="cls-1" x1="460.66" y1="32.69" x2="449.66" y2="27.69"/>
            <line class="cls-1" x1="460.66" y1="38.44" x2="449.66" y2="33.44"/>
            <line class="cls-1" x1="460.66" y1="44.19" x2="449.66" y2="39.19"/>
            <line class="cls-1" x1="460.66" y1="49.94" x2="449.66" y2="44.94"/>
          </g>
          <g>
            <line class="cls-1" x1="429.66" y1="15.94" x2="447.66" y2="15.94"/>
            <line class="cls-1" x1="428.66" y1="20.94" x2="447.66" y2="20.94"/>
            <line class="cls-1" x1="428.66" y1="26.94" x2="447.66" y2="26.94"/>
            <line class="cls-1" x1="427.66" y1="31.94" x2="448.66" y2="31.94"/>
            <line class="cls-1" x1="428.66" y1="37.94" x2="448.66" y2="37.94"/>
            <line class="cls-1" x1="427.66" y1="43.94" x2="446.66" y2="43.94"/>
          </g>
        </g>
        <g>
          <polygon class="cls-2" points="424.81 16.37 424.5 52.94 430.17 52.88 431.17 11.44 424.81 16.37"/>
          <polygon class="cls-2" points="445.67 11.94 445.14 53.68 451.1 53.99 450.67 11.94 445.67 11.94"/>
          <polygon class="cls-2" points="460.67 21.94 460.72 53.67 462.91 55.56 463.67 20.94 460.67 21.94"/>
          <polygon class="cls-2" points="411.67 20.94 411.46 56.5 414.6 55.24 414.67 18.94 411.67 20.94"/>
        </g>
        <path class="cls-3" d="M440.66,1l30.76,16.7a4.29,4.29,0,0,1,2.24,3.77v6.66a4.19,4.19,0,0,1-1.54,3.3,8,8,0,0,1-2.65,1.42,4.26,4.26,0,0,1-5.39-3.44l-.18-1.11A4.24,4.24,0,0,0,462.66,26C445.79,9.61,429.85,8.34,414.93,23.6a4.38,4.38,0,0,0-1.27,3h0a4.28,4.28,0,0,1-6,3.93,14.73,14.73,0,0,1-2.08-1.17,4.29,4.29,0,0,1-1.88-3.56V20.56A4.3,4.3,0,0,1,406,16.74L436.64,1A4.3,4.3,0,0,1,440.66,1Z"/>
        <g>
          <polygon class="cls-4" points="89.92 595.86 137.18 595.09 137.41 605.13 91.89 603.68 89.92 595.86"/>
          <polygon class="cls-4" points="89.87 688.94 129.44 688.52 134.25 677.88 94.5 680.92 89.87 688.94"/>
          <polygon class="cls-5" points="251.66 154.94 252.66 213.94 270.95 207.69 271.67 138.94 251.66 154.94"/>
          <polygon class="cls-5" points="626.66 154.94 625.66 213.94 607.38 207.69 606.66 138.94 626.66 154.94"/>
          <polygon class="cls-5" points="344.67 104.94 346.67 184.94 364.67 189.94 363.67 101.94 344.67 104.94"/>
          <polygon class="cls-5" points="509.67 104.94 511.67 184.94 529.66 189.94 528.66 101.94 509.67 104.94"/>
          <g>
            <g>
              <polygon class="cls-6" points="602.16 143.74 601.17 208.25 595.22 206.26 596.21 141.75 602.16 143.74"/>
              <polygon class="cls-6" points="590.45 138.98 589.46 204.68 583.51 202.69 584.5 136.99 590.45 138.98"/>
              <polygon class="cls-6" points="578.74 134.21 577.75 201.1 571.8 199.12 572.79 132.23 578.74 134.21"/>
              <polygon class="cls-6" points="567.03 129.45 566.04 197.53 560.09 195.54 561.08 127.46 567.03 129.45"/>
              <polygon class="cls-6" points="555.32 124.69 554.33 193.96 548.38 191.97 549.37 122.7 555.32 124.69"/>
              <polygon class="cls-6" points="543.61 119.92 542.62 190.38 536.66 188.4 537.66 117.94 543.61 119.92"/>
            </g>
            <g>
              <polygon class="cls-7" points="273.67 144.94 274.67 209.94 280.67 207.94 279.67 142.94 273.67 144.94"/>
              <polygon class="cls-7" points="285.46 140.14 286.46 206.34 292.46 204.34 291.46 138.14 285.46 140.14"/>
              <polygon class="cls-7" points="297.26 135.34 298.26 202.74 304.26 200.74 303.26 133.34 297.26 135.34"/>
              <polygon class="cls-7" points="309.06 130.54 310.06 199.14 316.06 197.14 315.06 128.54 309.06 130.54"/>
              <polygon class="cls-7" points="320.87 125.74 321.87 195.54 327.87 193.54 326.87 123.74 320.87 125.74"/>
              <polygon class="cls-7" points="332.67 120.94 333.67 191.94 339.67 189.94 338.67 118.94 332.67 120.94"/>
            </g>
            <g>
              <polygon class="cls-7" points="378.21 115.14 378.67 184.94 384.67 184.94 383.93 114.26 378.21 115.14"/>
              <polygon class="cls-7" points="397.71 114.8 398.17 184.6 404.17 184.6 403.43 113.92 397.71 114.8"/>
              <polygon class="cls-7" points="417.21 114.47 417.67 184.27 423.67 184.27 422.93 113.59 417.21 114.47"/>
              <polygon class="cls-7" points="436.71 114.14 437.17 183.94 443.17 183.94 442.43 113.26 436.71 114.14"/>
              <polygon class="cls-7" points="456.21 113.8 456.67 183.6 462.67 183.6 461.93 112.92 456.21 113.8"/>
              <polygon class="cls-7" points="475.71 113.47 476.17 183.27 482.17 183.27 481.43 112.59 475.71 113.47"/>
              <polygon class="cls-7" points="495.21 113.14 495.67 182.94 501.67 182.94 500.93 112.26 495.21 113.14"/>
            </g>
          </g>
          <polygon class="cls-8" points="0.17 302.44 252.16 214.44 346.17 184.44 532.16 182.44 892.66 296.94 892.66 297.94 662.66 234.94 216.66 239.94 0.17 302.44"/>
          <polygon class="cls-9" points="424.5 52.94 339.67 88.94 534.66 87.94 451.1 53.99 424.5 52.94"/>
          <polygon class="cls-10" points="805.16 707.44 808.16 810.44 692.16 835.44 175.46 825.25 70.17 813.44 71.17 715.44 253.66 723.94 625.16 723.94 805.16 707.44"/>
          <polygon class="cls-11" points="70.67 714.94 189.09 700.12 314.67 699.94 536.66 698.94 688.78 700.12 804.66 706.94 627.66 729.94 253.66 723.94 70.67 714.94"/>
          <path class="cls-12" d="M701,427.07c9.61,1.81,17.79,6.86,24.76,14.66l.9,23.21c-8.19-22.27-19-32.33-33-30l-1-11,7-1Z"/>
          <path class="cls-12" d="M741.66,408.94l20-18,14.09-1c-.42,9.6-16.06,20.93-31.36,32.22Z"/>
          <path class="cls-12" d="M1.66,325.94l138,69,184,24,223-1,181-20,79-12,86-62-232-58-445,3C141,275.5,7.27,271.61,1.66,325.94Z"/>
          <g>
            <g>
              <polygon class="cls-4" points="341.67 606.94 346.67 606.94 344.67 683.94 340.67 683.94 341.67 606.94"/>
              <polygon class="cls-4" points="355.97 606.78 360.97 606.78 358.97 683.78 354.97 683.78 355.97 606.78"/>
              <polygon class="cls-4" points="370.28 606.63 375.28 606.63 373.28 683.63 369.28 683.63 370.28 606.63"/>
              <polygon class="cls-4" points="384.59 606.48 389.59 606.48 387.59 683.48 383.59 683.48 384.59 606.48"/>
              <polygon class="cls-4" points="398.9 606.32 403.9 606.32 401.9 683.32 397.9 683.32 398.9 606.32"/>
              <polygon class="cls-4" points="413.2 606.17 418.2 606.17 416.2 683.17 412.2 683.17 413.2 606.17"/>
              <polygon class="cls-4" points="427.51 606.01 432.51 606.01 430.51 683.01 426.51 683.01 427.51 606.01"/>
              <polygon class="cls-4" points="441.82 605.86 446.82 605.86 444.82 682.86 440.82 682.86 441.82 605.86"/>
              <polygon class="cls-4" points="456.13 605.71 461.13 605.71 459.13 682.71 455.13 682.71 456.13 605.71"/>
              <polygon class="cls-4" points="470.43 605.55 475.43 605.55 473.43 682.55 469.43 682.55 470.43 605.55"/>
              <polygon class="cls-4" points="484.74 605.4 489.74 605.4 487.74 682.4 483.74 682.4 484.74 605.4"/>
              <polygon class="cls-4" points="499.05 605.25 504.05 605.25 502.05 682.25 498.05 682.25 499.05 605.25"/>
              <polygon class="cls-4" points="513.36 605.09 518.36 605.09 516.36 682.09 512.36 682.09 513.36 605.09"/>
              <polygon class="cls-4" points="527.66 604.94 532.66 604.94 530.66 681.94 526.66 681.94 527.66 604.94"/>
            </g>
            <polygon class="cls-13" points="332.55 599.94 539.4 598.85 540.16 606.12 332.17 606.85 332.55 599.94"/>
            <polygon class="cls-14" points="335.55 682.94 541.4 681.85 542.16 689.12 335.17 689.85 335.55 682.94"/>
          </g>
          <g>
            <g>
              <polygon class="cls-4" points="563.66 606.94 568.66 606.94 566.66 683.94 562.66 683.94 563.66 606.94"/>
              <polygon class="cls-4" points="577.97 606.78 582.97 606.78 580.97 683.78 576.97 683.78 577.97 606.78"/>
              <polygon class="cls-4" points="592.28 606.63 597.28 606.63 595.28 683.63 591.28 683.63 592.28 606.63"/>
              <polygon class="cls-4" points="606.59 606.48 611.59 606.48 609.59 683.48 605.59 683.48 606.59 606.48"/>
              <polygon class="cls-4" points="620.9 606.32 625.9 606.32 623.9 683.32 619.9 683.32 620.9 606.32"/>
              <polygon class="cls-4" points="635.2 606.17 640.2 606.17 638.2 683.17 634.2 683.17 635.2 606.17"/>
              <polygon class="cls-4" points="649.51 606.01 654.51 606.01 652.51 683.01 648.51 683.01 649.51 606.01"/>
              <polygon class="cls-4" points="663.82 605.86 668.82 605.86 666.82 682.86 662.82 682.86 663.82 605.86"/>
              <polygon class="cls-4" points="678.13 605.71 683.13 605.71 681.13 682.71 677.13 682.71 678.13 605.71"/>
              <polygon class="cls-4" points="692.43 605.55 697.43 605.55 695.43 682.55 691.43 682.55 692.43 605.55"/>
              <polygon class="cls-4" points="706.74 605.4 711.74 605.4 709.74 682.4 705.74 682.4 706.74 605.4"/>
              <polygon class="cls-4" points="721.05 605.25 726.05 605.25 724.05 682.25 720.05 682.25 721.05 605.25"/>
              <polygon class="cls-4" points="735.36 605.09 740.36 605.09 738.36 682.09 734.36 682.09 735.36 605.09"/>
              <polygon class="cls-4" points="749.66 604.94 754.66 604.94 752.66 681.94 748.66 681.94 749.66 604.94"/>
            </g>
            <polygon class="cls-13" points="554.55 599.94 776.66 598.94 780.66 606.94 554.16 606.85 554.55 599.94"/>
            <polygon class="cls-14" points="557.55 682.94 763.4 681.85 764.16 689.12 557.16 689.85 557.55 682.94"/>
          </g>
          <polygon class="cls-12" points="720.54 350.21 722.66 379.94 728.11 711.97 747.26 714.7 743.66 416.94 741.66 348.94 720.54 350.21"/>
          <polygon class="cls-4" points="100.53 395.89 131.16 422.44 132.06 406.84 111.92 390.2 98.34 379.69 93.17 379.44 92.21 393.7 100.53 395.89"/>
          <polygon class="cls-4" points="130.66 366.94 129.66 709.94 149.66 709.94 153.09 370.49 130.66 366.94"/>
          <polygon class="cls-15" points="95.03 684.25 274.67 681.94 272.28 693.46 94.11 693.46 95.03 684.25"/>
          <g>
            <polygon class="cls-15" points="107.91 685.84 101.91 686.11 100.42 584.07 107.46 584.76 107.91 685.84"/>
            <polygon class="cls-15" points="120.11 685.84 114.11 686.11 112.62 584.07 119.66 584.76 120.11 685.84"/>
            <polygon class="cls-15" points="132.31 685.84 126.31 686.11 124.82 584.07 131.86 584.76 132.31 685.84"/>
            <polygon class="cls-15" points="144.51 685.84 138.51 686.11 137.02 584.07 144.06 584.76 144.51 685.84"/>
            <polygon class="cls-15" points="156.71 685.84 150.71 686.11 149.22 584.07 156.26 584.76 156.71 685.84"/>
            <polygon class="cls-15" points="168.91 685.84 162.91 686.11 161.42 584.07 168.46 584.76 168.91 685.84"/>
            <polygon class="cls-15" points="181.11 685.84 175.11 686.11 173.62 584.07 180.66 584.76 181.11 685.84"/>
            <polygon class="cls-15" points="193.31 685.84 187.31 686.11 185.82 584.07 192.86 584.76 193.31 685.84"/>
            <polygon class="cls-15" points="205.51 685.84 199.51 686.11 198.02 584.07 205.06 584.76 205.51 685.84"/>
            <polygon class="cls-15" points="217.71 685.84 211.71 686.11 210.22 584.07 217.26 584.76 217.71 685.84"/>
            <polygon class="cls-15" points="229.91 685.84 223.91 686.11 222.42 584.07 229.46 584.76 229.91 685.84"/>
          </g>
          <polygon class="cls-15" points="95.03 580.67 254.66 572.94 254.66 583.94 90.67 592.94 95.03 580.67"/>
          <polygon class="cls-16" points="75.67 327.94 70.67 714.94 94.67 715.94 97.67 312.94 75.67 327.94"/>
          <g>
            <polygon class="cls-16" points="623.98 279.44 622.58 337.27 627.71 338.44 629.11 280.11 623.98 279.44"/>
            <polygon class="cls-16" points="636.55 282.17 635.28 340 640.41 341.16 641.68 282.83 636.55 282.17"/>
            <polygon class="cls-16" points="649.12 284.9 647.98 342.74 653.11 343.88 654.25 285.55 649.12 284.9"/>
            <polygon class="cls-16" points="661.69 287.63 660.68 345.47 665.82 346.6 666.82 288.27 661.69 287.63"/>
            <polygon class="cls-16" points="674.25 290.37 673.38 348.21 678.52 349.33 679.39 290.99 674.25 290.37"/>
            <polygon class="cls-16" points="686.83 293.1 686.08 350.94 691.22 352.05 691.96 293.71 686.83 293.1"/>
            <polygon class="cls-16" points="699.39 295.83 698.78 353.67 703.93 354.77 704.53 296.43 699.39 295.83"/>
            <polygon class="cls-16" points="711.96 298.56 711.48 356.41 716.63 357.49 717.1 299.15 711.96 298.56"/>
            <polygon class="cls-16" points="724.53 301.3 724.18 359.14 729.33 360.21 729.67 301.87 724.53 301.3"/>
            <polygon class="cls-16" points="737.1 304.03 736.89 361.88 742.04 362.94 742.24 304.59 737.1 304.03"/>
            <polygon class="cls-16" points="749.67 306.76 749.59 364.61 754.74 365.66 754.81 307.31 749.67 306.76"/>
            <polygon class="cls-16" points="762.24 309.49 762.29 367.34 767.44 368.38 767.38 310.03 762.24 309.49"/>
          </g>
          <g>
            <polygon class="cls-16" points="98.98 370.38 97.58 312.55 102.71 311.38 104.11 369.71 98.98 370.38"/>
            <polygon class="cls-16" points="111.55 367.65 110.28 309.81 115.41 308.66 116.68 366.99 111.55 367.65"/>
            <polygon class="cls-16" points="124.12 364.92 122.98 307.08 128.11 305.94 129.25 364.27 124.12 364.92"/>
            <polygon class="cls-16" points="136.69 362.18 135.68 304.35 140.82 303.21 141.82 361.55 136.69 362.18"/>
            <polygon class="cls-16" points="149.25 359.45 148.38 301.61 153.52 300.49 154.39 358.83 149.25 359.45"/>
            <polygon class="cls-16" points="161.82 356.72 161.08 298.88 166.22 297.77 166.96 356.11 161.82 356.72"/>
            <polygon class="cls-16" points="174.39 353.99 173.78 296.14 178.93 295.05 179.53 353.39 174.39 353.99"/>
            <polygon class="cls-16" points="186.96 351.25 186.48 293.41 191.63 292.33 192.1 350.67 186.96 351.25"/>
            <polygon class="cls-16" points="199.53 348.52 199.19 290.68 204.33 289.6 204.67 347.95 199.53 348.52"/>
            <polygon class="cls-16" points="212.1 345.79 211.89 287.94 217.04 286.88 217.24 345.23 212.1 345.79"/>
            <polygon class="cls-16" points="224.67 343.06 224.59 285.21 229.74 284.16 229.81 342.51 224.67 343.06"/>
            <polygon class="cls-16" points="237.24 340.32 237.29 282.48 242.44 281.44 242.38 339.79 237.24 340.32"/>
          </g>
          <polygon class="cls-15" points="774.41 572.03 776.66 712.94 804.66 706.94 802.25 572.03 774.41 572.03"/>
          <polygon class="cls-15" points="777.66 562.94 798.66 562.94 802.66 314.94 775.66 312.94 777.66 562.94"/>
          <path class="cls-15" d="M729.66,691.94l-2,26c5.85,1.14,13.18-1.86,18-3l-1-24Z"/>
          <g>
            <polygon class="cls-17" points="776.66 579.44 777.66 692.94 784.66 692.94 783.66 580.47 776.66 579.44"/>
            <polygon class="cls-17" points="764.66 579.44 765.66 692.94 772.66 692.94 771.66 580.47 764.66 579.44"/>
            <polygon class="cls-17" points="752.66 579.44 753.66 692.94 760.66 692.94 759.66 580.47 752.66 579.44"/>
            <polygon class="cls-17" points="740.66 579.44 741.66 692.94 748.66 692.94 747.66 580.47 740.66 579.44"/>
            <polygon class="cls-17" points="728.66 579.44 729.66 692.94 736.66 692.94 735.66 580.47 728.66 579.44"/>
            <polygon class="cls-17" points="716.66 579.44 717.66 692.94 724.66 692.94 723.66 580.47 716.66 579.44"/>
            <polygon class="cls-17" points="704.66 579.44 705.66 692.94 712.66 692.94 711.66 580.47 704.66 579.44"/>
            <polygon class="cls-17" points="692.66 579.44 693.66 692.94 700.66 692.94 699.66 580.47 692.66 579.44"/>
            <polygon class="cls-17" points="680.66 579.44 681.66 692.94 688.66 692.94 687.66 580.47 680.66 579.44"/>
            <polygon class="cls-17" points="668.66 579.44 669.66 692.94 676.66 692.94 675.66 580.47 668.66 579.44"/>
            <polygon class="cls-17" points="656.66 579.44 657.66 692.94 664.66 692.94 663.66 580.47 656.66 579.44"/>
            <polygon class="cls-17" points="644.66 579.44 645.66 692.94 652.66 692.94 651.66 580.47 644.66 579.44"/>
          </g>
          <polygon class="cls-15" points="791.66 696.94 791.66 677.94 595.66 673.94 597.66 692.94 791.66 696.94"/>
          <polygon class="cls-15" points="620.73 568.77 793.66 578.94 793.66 588.94 623.66 581.94 620.73 568.77"/>
          <g>
            <g>
              <polyline class="cls-4" points="563.66 399.94 563.66 436.94 567.66 436.94 568.66 396.94 563.66 398.94"/>
              <polyline class="cls-4" points="575.75 398.19 575.75 435.19 579.75 435.19 580.75 395.19 575.75 397.19"/>
              <polyline class="cls-4" points="587.83 396.44 587.83 433.44 591.83 433.44 592.83 393.44 587.83 395.44"/>
              <polyline class="cls-4" points="599.91 394.69 599.91 431.69 603.91 431.69 604.91 391.69 599.91 393.69"/>
              <polyline class="cls-4" points="612 392.94 612 429.94 616 429.94 617 389.94 612 391.94"/>
              <polyline class="cls-4" points="624.08 391.19 624.08 428.19 628.08 428.19 629.08 388.19 624.08 390.19"/>
              <polyline class="cls-4" points="636.16 389.44 636.16 426.44 640.16 426.44 641.16 386.44 636.16 388.44"/>
              <polyline class="cls-4" points="648.25 387.69 648.25 424.69 652.25 424.69 653.25 384.69 648.25 386.69"/>
              <polyline class="cls-4" points="660.33 385.94 660.33 422.94 664.33 422.94 665.33 382.94 660.33 384.94"/>
              <polyline class="cls-4" points="672.41 384.19 672.41 421.19 676.41 421.19 677.41 381.19 672.41 383.19"/>
              <polyline class="cls-4" points="684.5 382.44 684.5 419.44 688.5 419.44 689.5 379.44 684.5 381.44"/>
              <polyline class="cls-4" points="696.58 380.69 696.58 417.69 700.58 417.69 701.58 377.69 696.58 379.69"/>
              <polyline class="cls-4" points="708.66 378.94 708.66 415.94 712.66 415.94 713.66 375.94 708.66 377.94"/>
            </g>
            <polygon class="cls-4" points="557.66 434.94 556.66 443.94 724.66 422.94 724.66 412.94 557.66 434.94"/>
            <polygon class="cls-4" points="560.66 379.94 559.66 405.94 722.66 379.94 722.66 362.94 689.73 356.75 560.66 379.94"/>
          </g>
          <g>
            <polygon class="cls-4" points="311.67 398.94 310.96 435.1 314.54 435.58 315.67 398.94 311.67 398.94"/>
            <polygon class="cls-18" points="299.58 396.98 298.88 433.75 302.45 434.23 303.58 396.98 299.58 396.98"/>
            <polygon class="cls-19" points="287.5 395.02 286.8 432.39 290.37 432.89 291.5 395.02 287.5 395.02"/>
            <polygon class="cls-20" points="275.42 393.06 274.71 431.04 278.29 431.54 279.42 393.06 275.42 393.06"/>
            <polygon class="cls-21" points="263.33 391.1 262.63 429.69 266.2 430.2 267.33 391.1 263.33 391.1"/>
            <polygon class="cls-22" points="251.25 389.14 250.55 428.33 254.12 428.85 255.25 389.14 251.25 389.14"/>
            <polygon class="cls-23" points="239.16 387.19 238.46 426.98 242.04 427.51 243.16 387.19 239.16 387.19"/>
            <polygon class="cls-24" points="227.08 385.23 226.38 425.63 229.95 426.16 231.08 385.23 227.08 385.23"/>
            <polygon class="cls-25" points="215 383.27 214.3 424.28 217.87 424.82 219 383.27 215 383.27"/>
            <polygon class="cls-26" points="202.91 381.31 202.21 422.92 205.79 423.47 206.91 381.31 202.91 381.31"/>
            <polygon class="cls-27" points="190.83 379.35 190.13 421.57 193.7 422.13 194.83 379.35 190.83 379.35"/>
            <polygon class="cls-28" points="178.75 377.39 178.05 420.22 181.62 420.78 182.75 377.39 178.75 377.39"/>
            <polygon class="cls-29" points="166.66 375.44 165.96 418.87 169.54 419.44 170.66 375.44 166.66 375.44"/>
          </g>
          <polygon class="cls-29" points="131.66 373.94 320.67 404.94 320.67 379.94 190.2 360.78 131.66 373.94"/>
          <polygon class="cls-4" points="152.66 414.94 152.66 424.94 321.67 444.94 321.67 435.94 152.66 414.94"/>
          <path class="cls-4" d="M592.66,436.94l2,12c-20.13-1-27.61,15.8-30,36h-6v-13h3c.23-10.42,6.52-24.84,23-28l1-6Z"/>
          <path class="cls-4" d="M183.66,423.94v12c-14.13,1.07-18.84,4.81-30,22h-2v-13h2c6.55-12.11,23-15,23-15v-5Z"/>
          <path class="cls-4" d="M499.66,441.94v12c19.11-2.23,30.39,9.1,35,32h6v-13h-3c-5.54-16.17-16.07-24.52-31-26l.44-3.81Z"/>
          <path class="cls-4" d="M283.66,440.94v9c19.11-2.23,26.39,11.1,31,34l8,1v-13h-3c-5.54-16.17-11.07-26.52-26-28v-4Z"/>
          <path class="cls-30" d="M654.65,351.77l1,5.18a4.06,4.06,0,0,1-3.86,4.79c-21.87.91-29.33,27.33-30.11,39.31a5.52,5.52,0,0,1-6,5.19,3.32,3.32,0,0,1-3-2.3s1-24.93-1.11-23c-.74.7,15.5-29.15,35.17-30.75a18.12,18.12,0,0,0,3.51-1.12A3.49,3.49,0,0,1,654.65,351.77Z"/>
          <path class="cls-30" d="M220.57,355.77l-1,5.18a4.06,4.06,0,0,0,3.86,4.79c21.87.91,29.33,27.33,30.11,39.31a5.51,5.51,0,0,0,6,5.19,3.3,3.3,0,0,0,3-2.3s-.95-24.93,1.11-23c.75.7-15.49-29.15-35.16-30.75a18.12,18.12,0,0,1-3.51-1.12A3.49,3.49,0,0,0,220.57,355.77Z"/>
          <path class="cls-30" d="M125.68,379l1.16,5.14c.55,2.43-1.2,5.07-3.68,4.93-27.19-1.55-33,25.52-28.64,40.4.87,3-2.69,5.63-5.77,5.4a3.29,3.29,0,0,1-3.1-2.19s0-24.95-2-22.94c-.72.73,14.38-30.48,34-32.81C118.89,376.79,125.2,376.9,125.68,379Z"/>
          <path class="cls-30" d="M744.57,372l-.79,5.21c-.37,2.45,1.56,5,4,4.65,27-3.48,34.76,23.1,31.44,38.26-.66,3,3.09,5.43,6.14,5a3.3,3.3,0,0,0,2.94-2.41s-1.81-24.88.32-23c.77.67-16.51-29.38-36.22-30.31C751.19,369.31,744.9,369.87,744.57,372Z"/>
          <polygon class="cls-2" points="217.16 235.8 662.66 234.94 660.66 265.94 216.16 269.44 217.16 235.8"/>
          <polygon class="cls-2" points="662.66 234.94 892.66 296.94 892.66 323.94 660.66 265.94 662.66 234.94"/>
          <polygon class="cls-2" points="0.67 301.94 216.66 235.94 215.66 268.94 1.67 325.94 0.67 301.94"/>
          <polygon class="cls-2" points="334.67 93.94 335.67 109.94 538.66 105.94 537.66 88.94 334.67 93.94"/>
          <polygon class="cls-2" points="661.66 148.94 538.66 105.94 537.66 88.94 664.66 133.94 661.66 148.94"/>
          <polygon class="cls-2" points="213.66 138.94 213.66 154.94 335.67 109.94 334.67 93.94 213.66 138.94"/>
          <polygon class="cls-31" points="252.66 205.94 234.66 201.94 213.66 154.94 335.67 109.94 538.66 105.94 661.66 148.94 640.66 200.94 625.66 202.94 624.66 150.94 524.66 114.94 352.67 114.94 263.67 150.94 251.66 154.94 252.66 205.94"/>
          <polygon class="cls-7" points="281.67 331.94 592.66 327.94 589.66 339.94 281.67 343.94 281.67 331.94"/>
          <polygon class="cls-7" points="618.66 330.94 793.66 364.94 792.66 375.94 618.66 343.94 618.66 330.94"/>
          <polygon class="cls-7" points="82.67 371.94 261.67 330.94 256.67 347.94 85.67 382.94 82.67 371.94"/>
          <polygon class="cls-32" points="618.66 721.94 592.66 775.94 677.68 865.09 694.19 863.85 693.78 804.83 618.66 721.94"/>
          <polygon class="cls-32" points="253.66 723.94 185.66 804.94 183.66 862.94 255.66 810.94 253.66 723.94"/>
          <polygon class="cls-16" points="253.66 289.94 261.67 559.94 255.66 559.94 254.66 572.94 273.67 571.94 274.67 726.94 293.67 723.94 291.67 570.94 299.67 570.94 298.67 559.94 289.67 558.94 284.67 283.94 263.67 282.94 253.66 289.94"/>
          <polygon class="cls-15" points="586.66 284.94 587.66 551.94 576.66 551.94 576.66 560.94 582.66 560.94 582.66 723.94 600.66 723.94 598.66 562.94 615.66 563.94 615.66 553.94 607.66 552.94 620.66 282.94 612.66 277.94 586.66 284.94"/>
          <line class="cls-33" x1="587.66" y1="551.94" x2="607.66" y2="552.94"/>
          <line class="cls-33" x1="582.66" y1="560.94" x2="602.66" y2="562.94"/>
          <line class="cls-34" x1="261.66" y1="559.94" x2="289.66" y2="558.94"/>
          <line class="cls-34" x1="273.66" y1="570.94" x2="291.66" y2="570.94"/>
          <polygon class="cls-15" points="690.66 666.94 693.66 879.94 714.66 887.94 712.66 685.94 690.66 666.94"/>
          <line class="cls-35" x1="702.66" y1="682.94" x2="704.66" y2="866.94"/>
          <polygon class="cls-36" points="202.66 764.94 194.66 770.94 188.81 659.27 196.45 651.24 202.66 764.94"/>
          <polygon class="cls-36" points="213.66 750.94 206.66 755.94 199.82 648.71 206.66 644.94 213.66 750.94"/>
          <polygon class="cls-36" points="224.66 741.94 218.66 746.94 210.66 636.94 216.5 631.03 224.66 741.94"/>
          <polygon class="cls-36" points="235.66 728.94 228.66 733.94 221.33 626.93 229.01 618.95 235.66 728.94"/>
          <polygon class="cls-36" points="248.66 717.94 240.66 721.94 232.53 610.35 240.19 602.34 248.66 717.94"/>
          <polygon class="cls-36" points="259.66 713.45 253.86 717.73 246.59 603.9 254.04 595.7 259.66 713.45"/>
          <polygon class="cls-36" points="271.91 701.92 266.09 706.17 259.25 592.32 266.74 584.15 271.91 701.92"/>
          <polygon class="cls-37" points="274.67 681.94 274.67 698.94 179.66 800.94 179.66 777.94 274.67 681.94"/>
          <path class="cls-15" d="M185.8,662l3.86,212.92-17.1,8.55a4.83,4.83,0,0,1-7-4.26l-2.45-199Z"/>
          <line class="cls-35" x1="173.23" y1="677.57" x2="175.66" y2="854.44"/>
          <path class="cls-38" d="M177.3,675.72l-5.15,3.82c-10.71,9.11-26,7.36-27,0l-.72-8,33.16-3.81Z"/>
          <path class="cls-15" d="M281.49,561.41l-17,.38L147.86,668.39a5.51,5.51,0,0,0,.43,8.5c3.29,2.42,8.29,2.8,15.59.27a20.09,20.09,0,0,0,7.16-4.33L282,569.24Z"/>
          <polygon class="cls-38" points="281.67 577.56 282.2 569.44 177.58 667.73 177.29 675.72 281.67 577.56"/>
          <g>
            <polygon class="cls-39" points="253.66 723.94 249.66 730.94 250.66 750.94 232.66 754.94 228.66 762.94 229.66 782.94 210.66 788.94 210.66 796.94 211.66 812.94 188.66 821.94 188.66 829.94 192.65 829.86 192.66 848.94 168.66 856.94 168.66 864.94 171.66 873.94 170.66 881.94 714.66 887.94 714.66 865.94 688.66 860.94 687.89 835.5 691.66 834.94 690.66 827.94 667.66 822.94 666.27 797.91 670.66 797.94 667.66 790.94 644.66 784.94 645.13 762.67 648.66 761.94 646.66 755.94 639.96 755.62 626.66 749.94 627.66 729.94 624.66 723.94 253.66 723.94"/>
            <polygon class="cls-40" points="210.66 788.94 210.66 796.94 670.66 797.94 667.66 790.94 210.66 788.94"/>
            <polygon class="cls-37" points="228.66 754.94 228.66 762.94 649.16 761.94 646.66 755.94 228.66 754.94"/>
            <polygon class="cls-15" points="253.66 723.94 250.16 730.94 627.66 729.94 625.16 723.94 253.66 723.94"/>
            <polygon class="cls-40" points="188.66 821.94 188.66 829.94 691.66 834.94 690.66 827.94 188.66 821.94"/>
            <polygon class="cls-40" points="168.7 857.33 168.64 865.33 713.66 872.94 714.66 865.94 168.7 857.33"/>
          </g>
          <g>
            <g>
              <polygon class="cls-36" points="680.66 774.94 686.66 778.94 688.5 664.89 680.67 657.05 680.66 774.94"/>
              <polygon class="cls-36" points="669.66 764.94 675.66 768.94 677.5 654.89 669.67 647.05 669.66 764.94"/>
              <polygon class="cls-36" points="658.66 752.94 664.66 756.94 666.5 642.89 658.67 635.05 658.66 752.94"/>
              <polygon class="cls-36" points="646.66 740.37 652.66 744.37 654.5 630.33 646.67 622.49 646.66 740.37"/>
              <polygon class="cls-36" points="635.66 730.37 641.66 734.37 643.5 620.33 635.67 612.49 635.66 730.37"/>
              <polygon class="cls-36" points="624.66 718.37 630.66 722.37 632.5 608.33 624.67 600.49 624.66 718.37"/>
              <polygon class="cls-36" points="612.66 705.37 618.66 709.37 620.5 595.33 612.67 587.49 612.66 705.37"/>
              <polygon class="cls-36" points="601.66 695.37 607.66 699.37 609.5 585.33 601.67 577.49 601.66 695.37"/>
            </g>
            <polygon class="cls-37" points="599.66 679.94 599.66 700.94 692.66 797.94 692.66 775.94 599.66 679.94"/>
          </g>
          <path class="cls-38" d="M698.66,680.94l5,4c10.38,9.49,25.73,8.29,27,1l1-8-33-5Z"/>
          <path class="cls-15" d="M598.66,562.94l17,1L728.35,674.68a5.5,5.5,0,0,1-.74,8.47c-3.38,2.3-8.38,2.51-15.59-.29a20.2,20.2,0,0,1-7-4.58L597.91,570.74Z"/>
          <polygon class="cls-38" points="597.91 579.07 597.66 570.94 698.66 672.94 698.66 680.94 597.91 579.07"/>
          <g>
            <polygon class="cls-7" points="574.66 277.94 574.43 328.07 580.59 328.07 581.66 277.94 574.66 277.94"/>
            <polygon class="cls-7" points="553.13 278.25 552.89 328.38 559.05 328.38 560.13 278.25 553.13 278.25"/>
            <polygon class="cls-7" points="531.59 278.55 531.35 328.68 537.51 328.68 538.59 278.55 531.59 278.55"/>
            <polygon class="cls-7" points="510.05 278.86 509.81 328.99 515.97 328.99 517.05 278.86 510.05 278.86"/>
            <polygon class="cls-7" points="488.51 279.17 488.27 329.3 494.43 329.3 495.51 279.17 488.51 279.17"/>
            <polygon class="cls-7" points="466.97 279.48 466.74 329.61 472.89 329.61 473.97 279.48 466.97 279.48"/>
            <polygon class="cls-7" points="445.43 279.78 445.2 329.92 451.36 329.92 452.43 279.78 445.43 279.78"/>
            <polygon class="cls-7" points="423.9 280.09 423.66 330.22 429.82 330.22 430.9 280.09 423.9 280.09"/>
            <polygon class="cls-7" points="402.36 280.4 402.12 330.53 408.28 330.53 409.36 280.4 402.36 280.4"/>
            <polygon class="cls-7" points="380.82 280.71 380.58 330.84 386.74 330.84 387.82 280.71 380.82 280.71"/>
            <polygon class="cls-7" points="359.28 281.01 359.04 331.15 365.2 331.15 366.28 281.01 359.28 281.01"/>
            <polygon class="cls-7" points="337.74 281.32 337.5 331.45 343.66 331.45 344.74 281.32 337.74 281.32"/>
            <polygon class="cls-7" points="316.2 281.63 315.96 331.76 322.13 331.76 323.2 281.63 316.2 281.63"/>
            <polygon class="cls-7" points="294.67 281.94 294.43 332.07 300.59 332.07 301.67 281.94 294.67 281.94"/>
          </g>
          <polygon class="cls-41" points="217.66 235.94 217.66 235.94 346.67 183.94 532.66 181.94 662.66 234.94 649.66 234.94 525.66 184.94 353.67 186.94 234.66 235.94 217.66 235.94"/>
          <polygon class="cls-41" points="339.67 88.94 332.67 87.94 420.67 51.94 430.67 50.94 456.67 51.94 540.66 85.94 534.66 87.94 447.67 53.94 428.67 53.94 339.67 88.94"/>
          <polygon class="cls-31" points="213.03 148.81 206.66 136.94 332.67 87.94 534.66 87.94 537.07 87.14 540.66 85.94 668.66 131.94 661.66 148.94 664.66 133.94 540.79 91.13 334.67 93.94 213.66 138.94 213.03 148.81"/>
          <g>
            <g>
              <polygon class="cls-12" points="530.66 402.94 530.66 439.94 533.66 439.94 534.66 399.94 530.66 402.94"/>
              <polygon class="cls-12" points="516.28 402.94 516.28 439.94 519.28 439.94 520.28 399.94 516.28 402.94"/>
              <polygon class="cls-12" points="501.9 402.94 501.9 439.94 504.9 439.94 505.9 399.94 501.9 402.94"/>
              <polygon class="cls-12" points="487.51 402.94 487.51 439.94 490.51 439.94 491.51 399.94 487.51 402.94"/>
              <polygon class="cls-12" points="473.13 402.94 473.13 439.94 476.13 439.94 477.13 399.94 473.13 402.94"/>
              <polygon class="cls-12" points="458.74 402.94 458.74 439.94 461.74 439.94 462.74 399.94 458.74 402.94"/>
              <polygon class="cls-12" points="444.36 402.94 444.36 439.94 447.36 439.94 448.36 399.94 444.36 402.94"/>
              <polygon class="cls-12" points="429.97 402.94 429.97 439.94 432.97 439.94 433.97 399.94 429.97 402.94"/>
              <polygon class="cls-12" points="415.59 402.94 415.59 439.94 418.59 439.94 419.59 399.94 415.59 402.94"/>
              <polygon class="cls-12" points="401.2 402.94 401.2 439.94 404.2 439.94 405.2 399.94 401.2 402.94"/>
              <polygon class="cls-12" points="386.82 402.94 386.82 439.94 389.82 439.94 390.82 399.94 386.82 402.94"/>
              <polygon class="cls-12" points="372.43 402.94 372.43 439.94 375.43 439.94 376.43 399.94 372.43 402.94"/>
              <polygon class="cls-12" points="358.05 402.94 358.05 439.94 361.05 439.94 362.05 399.94 358.05 402.94"/>
              <polygon class="cls-12" points="343.67 402.94 343.67 439.94 346.67 439.94 347.67 399.94 343.67 402.94"/>
            </g>
            <polygon class="cls-12" points="338.67 436.94 338.67 443.94 540.66 443.94 540.66 435.94 338.67 436.94"/>
            <polygon class="cls-4" points="338.17 381.94 338.17 407.94 540.66 406.94 540.66 380.94 338.17 381.94"/>
          </g>
          <path class="cls-4" d="M378.66,442.94v12c-19.1-2.23-30.38,9.1-35,32h-6v-13h3c5.55-16.17,16.08-24.52,31-26l-.43-3.81Z"/>
          <polygon class="cls-4" points="613.66 265.94 612.66 277.94 620.66 282.94 806.66 328.94 806.66 302.53 660.66 265.94 613.66 265.94"/>
          <polygon class="cls-4" points="613.66 265.94 612.66 277.94 586.66 284.94 284.67 283.94 263.67 282.94 261.73 268.82 613.66 265.94"/>
          <polygon class="cls-4" points="69.41 308.61 69.67 331.94 253.66 289.94 263.67 282.94 261.67 268.94 215.66 268.94 69.41 308.61"/>
          <polygon class="cls-15" points="770.66 560.94 805.66 561.94 805.66 572.94 770.66 570.94 770.66 560.94"/>
          <polygon class="cls-4" points="320.67 379.94 338.67 381.94 336.67 590.94 318.67 589.94 320.67 379.94"/>
          <polygon class="cls-4" points="540.66 380.94 560.66 379.94 556.66 588.94 538.66 587.94 540.66 380.94"/>
          <polygon class="cls-42" points="535.66 586.94 560.66 586.94 559.66 698.94 536.66 698.94 535.66 586.94"/>
          <polygon class="cls-42" points="314.17 589.44 339.17 590.44 338.17 700.44 314.17 699.44 314.17 589.44"/>
          <line class="cls-43" x1="313.66" y1="594.94" x2="338.66" y2="595.94"/>
          <line class="cls-43" x1="535.66" y1="592.94" x2="560.66" y2="592.94"/>
        </g>
      </g>
    </g>
  </g>
</svg>
