<svg xmlns="http://www.w3.org/2000/svg" viewBox="0 0 165.04 143.67">
  <defs>
    <style>
      .cls-1 {
        fill: #bebebe;
        stroke: #000;
        stroke-miterlimit: 10;
        stroke-width: 1.22px;
      }

      .cls-2 {
        fill: #666;
      }
    </style>
  </defs>
  <title>graves</title>
  <g id="Layer_2" data-name="Layer 2">
    <g id="Layer_1-2" data-name="Layer 1">
      <g>
        <g>
          <polygon class="cls-1" points="70.12 107.78 147.12 105.78 163.12 116.78 79.12 117.78 70.12 107.78"/>
          <polygon class="cls-1" points="70.12 107.78 70.12 129.78 78.12 141.78 79.12 117.78 70.12 107.78"/>
          <polygon class="cls-1" points="79.12 117.78 163.12 116.78 163.12 141.78 78.12 141.78 79.12 117.78"/>
          <path class="cls-1" d="M80.28,107.6l5.84,3.18V25l32-24.23c-25-2-37,14-37,25C81.12,25.78,80.18,74.53,80.28,107.6Z"/>
          <path class="cls-1" d="M149.12,110.78h-63v-82c0-38,62-37,63,0Z"/>
          <g>
            <path class="cls-2" d="M101.57,43.49h.33a.56.56,0,0,1,.41.13.66.66,0,0,1,.12.44.77.77,0,0,1-.11.47.46.46,0,0,1-.39.13h-1.66a.26.26,0,0,1-.25-.15.89.89,0,0,1-.09-.45.73.73,0,0,1,.1-.44.38.38,0,0,1,.32-.13h.45V35.94h-.29a.65.65,0,0,1-.47-.12.61.61,0,0,1-.11-.44A.89.89,0,0,1,100,35a.28.28,0,0,1,.26-.14h2.09a4,4,0,0,1,1.13.12,1.41,1.41,0,0,1,.63.41,2.72,2.72,0,0,1,.52,1,4.34,4.34,0,0,1,.19,1.32,3.64,3.64,0,0,1-.35,1.64,2,2,0,0,1-1,1,1.34,1.34,0,0,1,.23.29,3,3,0,0,1,.2.4l1,2.55h.16a.45.45,0,0,1,.38.13.71.71,0,0,1,.11.44.89.89,0,0,1-.09.45.27.27,0,0,1-.25.15h-.56q-.24,0-.48-.6l0-.08-1-2.41a4,4,0,0,0-.48-1,.66.66,0,0,0-.5-.21h-.66Zm0-7.55v3.35h1a1.27,1.27,0,0,0,1-.42,1.92,1.92,0,0,0,.35-1.25,2,2,0,0,0-.34-1.26,1.24,1.24,0,0,0-1-.42Z"/>
            <path class="cls-2" d="M109.8,43.3a1.89,1.89,0,0,1,.27-1.06.81.81,0,0,1,1.41,0,2.26,2.26,0,0,1,0,2.14.83.83,0,0,1-.71.41.81.81,0,0,1-.7-.41A1.91,1.91,0,0,1,109.8,43.3Z"/>
            <path class="cls-2" d="M120.38,43.49a.66.66,0,0,1,.48.12.7.7,0,0,1,.11.45.75.75,0,0,1-.11.47c-.07.09-.23.13-.48.13h-3.24a.29.29,0,0,1-.27-.15.89.89,0,0,1-.09-.45.64.64,0,0,1,.11-.45c.07-.08.23-.12.49-.12h1.11V36h-1.11a.65.65,0,0,1-.49-.13.69.69,0,0,1-.11-.47.89.89,0,0,1,.09-.45.32.32,0,0,1,.28-.14h3.46a.29.29,0,0,1,.27.15.88.88,0,0,1,.09.44.75.75,0,0,1-.11.47.64.64,0,0,1-.48.13h-1.12v7.48Z"/>
            <path class="cls-2" d="M126,43.3a2,2,0,0,1,.26-1.06.81.81,0,0,1,1.41,0,2.26,2.26,0,0,1,0,2.14.83.83,0,0,1-.71.41.81.81,0,0,1-.7-.41A1.91,1.91,0,0,1,126,43.3Z"/>
            <path class="cls-2" d="M135.28,43.49a.42.42,0,0,1,.35.14.71.71,0,0,1,.11.43.77.77,0,0,1-.11.47.46.46,0,0,1-.39.13h-2.42a.29.29,0,0,1-.26-.15.91.91,0,0,1-.08-.45.84.84,0,0,1,.08-.43.31.31,0,0,1,.27-.14h.64V36h-.35c-.29,0-.47,0-.54-.13a.76.76,0,0,1-.1-.47.89.89,0,0,1,.08-.44.29.29,0,0,1,.26-.15h2.29a2.18,2.18,0,0,1,1.82.78,3.58,3.58,0,0,1,.63,2.3,3.63,3.63,0,0,1-.62,2.29,2.21,2.21,0,0,1-1.83.77h-.86v2.53Zm-1-7.48v3.85h.92a1.4,1.4,0,0,0,1.16-.48,2.87,2.87,0,0,0,0-2.89,1.41,1.41,0,0,0-1.16-.48Z"/>
          </g>
        </g>
        <g>
          <path class="cls-1" d="M1.62,80.28h6c10-19,30-18,37,0h6v62H.62Z"/>
          <g>
            <path class="cls-2" d="M9.57,99.49H9.9a.56.56,0,0,1,.41.13.66.66,0,0,1,.12.44.77.77,0,0,1-.11.47.46.46,0,0,1-.39.13H8.27a.26.26,0,0,1-.25-.15.89.89,0,0,1-.09-.45.73.73,0,0,1,.1-.44.38.38,0,0,1,.32-.13H8.8V91.94H8.51A.65.65,0,0,1,8,91.82a.61.61,0,0,1-.11-.44A.89.89,0,0,1,8,91a.28.28,0,0,1,.26-.14h2.09a4,4,0,0,1,1.13.12,1.41,1.41,0,0,1,.63.41,2.72,2.72,0,0,1,.52,1,4.34,4.34,0,0,1,.19,1.32,3.64,3.64,0,0,1-.35,1.64,2,2,0,0,1-1,1,1.34,1.34,0,0,1,.23.29,3,3,0,0,1,.2.4l1,2.55h.16a.45.45,0,0,1,.38.13.71.71,0,0,1,.11.44.89.89,0,0,1-.09.45.27.27,0,0,1-.25.15h-.56q-.24,0-.48-.6l0-.08-.95-2.41a4,4,0,0,0-.48-1,.66.66,0,0,0-.5-.21H9.57Zm0-7.55v3.35h1a1.27,1.27,0,0,0,1-.42A1.92,1.92,0,0,0,12,93.62a2,2,0,0,0-.34-1.26,1.24,1.24,0,0,0-1-.42Z"/>
            <path class="cls-2" d="M17.8,99.3a1.89,1.89,0,0,1,.27-1.06.81.81,0,0,1,1.41,0,2.26,2.26,0,0,1,0,2.14.83.83,0,0,1-.71.41.81.81,0,0,1-.7-.41A1.91,1.91,0,0,1,17.8,99.3Z"/>
            <path class="cls-2" d="M28.38,99.49a.66.66,0,0,1,.48.12.7.7,0,0,1,.11.45.75.75,0,0,1-.11.47c-.07.09-.23.13-.48.13H25.14a.29.29,0,0,1-.27-.15.89.89,0,0,1-.09-.45.64.64,0,0,1,.11-.45c.07-.08.23-.12.49-.12h1.11V92H25.38a.65.65,0,0,1-.49-.13.69.69,0,0,1-.11-.47.89.89,0,0,1,.09-.45.32.32,0,0,1,.28-.14h3.46a.29.29,0,0,1,.27.15.88.88,0,0,1,.09.44.75.75,0,0,1-.11.47.64.64,0,0,1-.48.13H27.26v7.48Z"/>
            <path class="cls-2" d="M34,99.3a2,2,0,0,1,.26-1.06.81.81,0,0,1,1.41,0,2.26,2.26,0,0,1,0,2.14.83.83,0,0,1-.71.41.81.81,0,0,1-.7-.41A1.91,1.91,0,0,1,34,99.3Z"/>
            <path class="cls-2" d="M43.28,99.49a.42.42,0,0,1,.35.14.71.71,0,0,1,.11.43.77.77,0,0,1-.11.47.46.46,0,0,1-.39.13H40.82a.29.29,0,0,1-.26-.15.91.91,0,0,1-.08-.45.84.84,0,0,1,.08-.43.31.31,0,0,1,.27-.14h.64V92h-.35c-.29,0-.47,0-.54-.13a.76.76,0,0,1-.1-.47.89.89,0,0,1,.08-.44.29.29,0,0,1,.26-.15h2.29a2.18,2.18,0,0,1,1.82.78,3.58,3.58,0,0,1,.63,2.3,3.63,3.63,0,0,1-.62,2.29,2.21,2.21,0,0,1-1.83.77h-.86v2.53Zm-1-7.48v3.85h.92a1.4,1.4,0,0,0,1.16-.48,2.87,2.87,0,0,0,0-2.89A1.41,1.41,0,0,0,43.17,92Z"/>
          </g>
        </g>
      </g>
    </g>
  </g>
</svg>
