<svg xmlns="http://www.w3.org/2000/svg" viewBox="0 0 520.59 300.67">
  <defs>
    <style>
      .cls-1 {
        fill: #7e624e;
      }

      .cls-1, .cls-10, .cls-11, .cls-12, .cls-14, .cls-16, .cls-17, .cls-18, .cls-20, .cls-21, .cls-22, .cls-23, .cls-24, .cls-25, .cls-26, .cls-27, .cls-28, .cls-29, .cls-3, .cls-30, .cls-33, .cls-34, .cls-35, .cls-36, .cls-37, .cls-38, .cls-4, .cls-41, .cls-42, .cls-44, .cls-46, .cls-47, .cls-48, .cls-49, .cls-50, .cls-51, .cls-53, .cls-54, .cls-6, .cls-7, .cls-9 {
        stroke: #000;
      }

      .cls-1, .cls-10, .cls-11, .cls-12, .cls-13, .cls-14, .cls-16, .cls-17, .cls-18, .cls-19, .cls-20, .cls-21, .cls-22, .cls-23, .cls-24, .cls-25, .cls-26, .cls-27, .cls-28, .cls-29, .cls-3, .cls-30, .cls-31, .cls-32, .cls-33, .cls-34, .cls-35, .cls-36, .cls-37, .cls-38, .cls-39, .cls-4, .cls-40, .cls-41, .cls-42, .cls-43, .cls-44, .cls-45, .cls-46, .cls-47, .cls-48, .cls-49, .cls-50, .cls-51, .cls-52, .cls-53, .cls-54, .cls-6, .cls-7, .cls-8, .cls-9 {
        stroke-miterlimit: 10;
      }

      .cls-1, .cls-10, .cls-11, .cls-12, .cls-13, .cls-14, .cls-16, .cls-17, .cls-18, .cls-19, .cls-20, .cls-21, .cls-22, .cls-23, .cls-24, .cls-25, .cls-26, .cls-27, .cls-28, .cls-29, .cls-3, .cls-31, .cls-32, .cls-33, .cls-37, .cls-4, .cls-40, .cls-47, .cls-50, .cls-51, .cls-52, .cls-53, .cls-54, .cls-7, .cls-8, .cls-9 {
        stroke-width: 0.75px;
      }

      .cls-2 {
        fill: #74523a;
      }

      .cls-3 {
        fill: #b49e92;
      }

      .cls-4 {
        fill: #604332;
      }

      .cls-5 {
        fill: #372d25;
      }

      .cls-33, .cls-6 {
        fill: #241e26;
      }

      .cls-6 {
        stroke-width: 0.47px;
      }

      .cls-7 {
        fill: #8c7060;
      }

      .cls-11, .cls-13, .cls-19, .cls-31, .cls-32, .cls-39, .cls-40, .cls-43, .cls-45, .cls-52, .cls-8 {
        fill: none;
      }

      .cls-8 {
        stroke: #5a3e2d;
      }

      .cls-9 {
        fill: #453d56;
      }

      .cls-10 {
        fill: #483a46;
      }

      .cls-12 {
        fill: #aba49f;
      }

      .cls-13 {
        stroke: #4e3729;
      }

      .cls-14, .cls-34, .cls-35, .cls-38, .cls-42, .cls-44 {
        fill: #8b7364;
      }

      .cls-15 {
        fill: #b9cbd4;
      }

      .cls-16, .cls-36, .cls-48 {
        fill: #543925;
      }

      .cls-17, .cls-49 {
        fill: #857466;
      }

      .cls-18 {
        fill: #b7aca4;
      }

      .cls-19 {
        stroke: #584031;
      }

      .cls-20 {
        fill: #8c6f61;
      }

      .cls-21 {
        fill: #29232e;
      }

      .cls-22 {
        fill: #362e40;
      }

      .cls-23 {
        fill: #372c39;
      }

      .cls-24 {
        fill: #a49d9f;
      }

      .cls-25, .cls-46 {
        fill: #7e695c;
      }

      .cls-26 {
        fill: #ada8a6;
      }

      .cls-27 {
        fill: #b3b0a9;
      }

      .cls-28 {
        fill: #aca098;
      }

      .cls-29 {
        fill: #836655;
      }

      .cls-30 {
        fill: #92776b;
        stroke-width: 0.72px;
      }

      .cls-31 {
        stroke: #66493d;
      }

      .cls-32 {
        stroke: #fff;
        opacity: 0.11;
      }

      .cls-34 {
        stroke-width: 0.78px;
      }

      .cls-35 {
        stroke-width: 0.87px;
      }

      .cls-36 {
        stroke-width: 0.83px;
      }

      .cls-37, .cls-41 {
        fill: #5a7da1;
      }

      .cls-38 {
        stroke-width: 0.53px;
      }

      .cls-39, .cls-40, .cls-43, .cls-45 {
        stroke: #5e4130;
      }

      .cls-39 {
        stroke-width: 0.37px;
      }

      .cls-41, .cls-45, .cls-46 {
        stroke-width: 0.71px;
      }

      .cls-42 {
        stroke-width: 0.5px;
      }

      .cls-43 {
        stroke-width: 0.35px;
      }

      .cls-44 {
        stroke-width: 0.74px;
      }

      .cls-47 {
        fill: #332b1e;
      }

      .cls-48, .cls-49 {
        stroke-width: 0.6px;
      }

      .cls-50 {
        fill: #5c4435;
      }

      .cls-51 {
        fill: #39281f;
      }

      .cls-52 {
        stroke: #402f26;
      }

      .cls-53 {
        fill: #2a1e18;
      }

      .cls-54 {
        fill: #2c1809;
      }
    </style>
  </defs>
  <title>guy</title>
  <g id="Layer_2" data-name="Layer 2">
    <g id="Layer_1-2" data-name="Layer 1">
      <g>
        <polygon class="cls-1" points="435.13 96.57 488.65 31.72 509.54 151.08 508.42 182.03 509.17 207.41 506.56 286.86 505.81 292.08 431.3 284.16 435.13 96.57"/>
        <polygon class="cls-2" points="20.19 122 15.67 283.13 428.97 286.12 431.95 95.13 20.19 122"/>
        <polygon class="cls-3" points="191.73 183.16 225.24 182.95 225.3 279.4 190.24 278.65 191.73 183.16"/>
        <polygon class="cls-4" points="188.27 170.14 191.73 168.99 190.24 278.65 185.76 278.65 188.27 170.14"/>
        <polygon class="cls-5" points="191.73 170.48 191.73 183.16 225.24 182.95 225.56 168.44 191.73 170.48"/>
        <g>
          <rect class="cls-6" x="210.32" y="171.13" width="6.34" height="4.1" transform="translate(-3.4 4.28) rotate(-1.14)"/>
          <rect class="cls-6" x="200.62" y="171.32" width="6.34" height="4.1" transform="translate(-3.41 4.09) rotate(-1.14)"/>
          <rect class="cls-6" x="193.17" y="171.47" width="6.34" height="4.1" transform="translate(-3.41 3.94) rotate(-1.14)"/>
          <rect class="cls-6" x="217.78" y="170.98" width="6.34" height="4.1" transform="translate(-3.4 4.43) rotate(-1.14)"/>
          <rect class="cls-6" x="217.9" y="176.95" width="6.34" height="4.1" transform="translate(-3.52 4.43) rotate(-1.14)"/>
          <rect class="cls-6" x="210.44" y="177.1" width="6.34" height="4.1" transform="translate(-3.52 4.29) rotate(-1.14)"/>
          <rect class="cls-6" x="200.74" y="177.29" width="6.34" height="4.1" transform="translate(-3.53 4.09) rotate(-1.14)"/>
          <rect class="cls-6" x="193.28" y="177.44" width="6.34" height="4.1" transform="translate(-3.53 3.94) rotate(-1.14)"/>
        </g>
        <polygon class="cls-7" points="225.56 168.44 225.3 279.4 234.25 279.4 233.51 167.5 225.56 168.44"/>
        <polygon class="cls-7" points="180.29 168.38 178.05 279.32 187 279.48 188.25 167.58 180.29 168.38"/>
        <g>
          <polygon class="cls-3" points="427.85 100.73 426.73 281.64 431.95 281.64 434.19 282.39 436.8 102.22 433.44 100.35 427.85 100.73"/>
          <line class="cls-8" x1="431.95" y1="293.2" x2="434.19" y2="101.1"/>
        </g>
        <g id="chimneyRight">
          <polygon class="cls-9" points="449.11 7.1 449.11 1.88 467.76 0.39 474.48 7.1 474.48 11.58 467.76 5.61 449.11 7.1"/>
          <polygon class="cls-10" points="449.11 35.45 449.86 7.1 467.76 5.61 473.77 11.05 473.73 28.73 468.51 30.97 467.02 34.7 449.11 35.45"/>
          <line class="cls-11" x1="467.76" y1="0.39" x2="467.02" y2="34.7"/>
        </g>
        <polygon class="cls-12" points="453.73 77.49 467.76 86.92 466.27 89.16 465.52 144.37 463.29 142.88 464.03 91.4 454.33 84.69 454.33 136.91 452.1 136.91 452.1 79.47 453.73 77.49"/>
        <line class="cls-13" x1="452.1" y1="79.46" x2="466.27" y2="89.16"/>
        <path class="cls-14" d="M454.33,84.69V91.4l6.72,3.73-.75,45.51,2.79,2.05a.12.12,0,0,0,.2-.08L464,91.4Z"/>
        <polygon class="cls-15" points="454.33 90.66 461.05 95.13 460.3 140.64 454.33 136.91 454.33 90.66"/>
        <polygon class="cls-14" points="454.33 113.04 460.3 116.77 460.3 120.5 454.33 116.77 454.33 113.04"/>
        <g>
          <path class="cls-16" d="M452.14,137.09l.61,2.42a.14.14,0,0,0,.27,0l1.21-2.42a.14.14,0,0,0-.13-.21h-1.82A.15.15,0,0,0,452.14,137.09Z"/>
          <path class="cls-17" d="M454.33,136.91l11.94,8.21-.75,2.23L453,140a.18.18,0,0,1-.07-.24Z"/>
        </g>
        <polygon class="cls-18" points="489.02 102.97 487.9 156.31 489.4 156.31 490.14 109.31 497.6 116.02 496.11 161.53 497.6 162.28 498.99 115.84 496.84 109.39 489.02 102.97"/>
        <line class="cls-19" x1="489.4" y1="104.83" x2="499.1" y2="112.29"/>
        <polygon class="cls-15" points="490.55 116.43 493.87 119 493.13 158.54 489.4 156.31 490.55 116.43"/>
        <polygon class="cls-14" points="490.14 133.18 493.87 135.42 493.87 138.4 490.14 136.16 490.14 133.18"/>
        <polygon class="cls-14" points="490.14 109.31 490.11 116.03 493.87 119 492.84 158.42 496.09 160.13 497.6 116.02 490.14 109.31"/>
        <polygon class="cls-20" points="436.43 83.94 14.18 112.29 19.4 116.77 19.02 126.09 208.14 114.53 208.14 107.81 240.22 107.07 240.33 112.37 434.19 100.35 434.19 89.16 436.43 83.94"/>
        <path id="roof" class="cls-21" d="M97,59.32,2.24,107.07,441.65,76.48l48.49-47.75-.74-2.23C360.73,43.18,229.8,53.78,97,59.32Z"/>
        <g id="chimneyLeft">
          <g id="chimneyLeft-2" data-name="chimneyLeft">
            <polygon class="cls-22" points="106.68 36.94 106.68 31.72 120.11 30.97 132.05 36.94 132.05 42.16 119.36 36.2 106.68 36.94"/>
            <polygon class="cls-23" points="105.94 62.31 106.68 36.94 120.11 36.2 132.05 42.16 132.05 59.32 125.33 59.32 120.11 62.31 105.94 62.31"/>
          </g>
          <line class="cls-11" x1="120.11" y1="30.97" x2="120.11" y2="61.93"/>
        </g>
        <polygon class="cls-24" points="441.65 76.48 490.14 28.73 519.98 138.4 516.25 136.16 488.65 39.18 449.11 82.45 441.65 76.48"/>
        <path class="cls-25" d="M.37,106.7v6.71c151-8.78,298.43-19.69,441.65-29.84l12.37,8a.24.24,0,0,0,.37-.17l.69-4.85-13.8-10.07C314.81,86.85,163.28,96.85.37,106.7Z"/>
        <path class="cls-14" d="M436.43,83.94l10.82,7.83h7a.15.15,0,0,0,.1-.27l-9.7-7.69a2.4,2.4,0,0,0-1.75-.52Z"/>
        <path class="cls-26" d="M444.26,106,445,95.5l2.24-3.73L437,84.32a.53.53,0,0,0-.79.2l-2.34,5v11.19Z"/>
        <path class="cls-27" d="M517.42,142.63l-5.27-4.6v-2.24l.75-2.24,6.72,4.71a1,1,0,0,1,.33,1.32l-1.41,2.83A.71.71,0,0,1,517.42,142.63Z"/>
        <polygon class="cls-28" points="504.32 137.66 503.57 148.1 509.54 152.58 509.54 145.12 511.03 143.62 512.52 143.62 512.52 141.39 504.32 137.66"/>
        <path class="cls-14" d="M517.62,142.9l-5.1.72L504.83,138a.2.2,0,0,1,.12-.37h6.83l5.87,5.13A.06.06,0,0,1,517.62,142.9Z"/>
        <path class="cls-29" d="M504.32,133.18v4.48l7.83.37v-2.24l.37-.37.23-1.14a.64.64,0,0,0-.6-.76Z"/>
        <polygon class="cls-14" points="484.18 44.4 488.65 39.18 516.25 136.16 512.52 133.18 511.03 133.18 484.18 44.4"/>
        <polygon class="cls-28" points="484.18 44.4 479.06 49.85 504.32 133.18 511.03 133.18 484.18 44.4"/>
        <polygon class="cls-28" points="18.65 125.72 14.92 277.91 17.91 278.65 21.64 125.72 18.65 125.72"/>
        <polygon class="cls-30" points="208.14 107.81 208.14 136.91 240.22 136.22 240.22 106.69 208.14 107.81"/>
        <polyline class="cls-31" points="237.24 132.81 237.24 110.05 211.13 110.05 211.13 133.18"/>
        <line class="cls-32" x1="211.46" y1="132.64" x2="236.87" y2="132.43"/>
        <rect class="cls-33" x="225.3" y="112.29" width="8.95" height="7.46"/>
        <rect class="cls-33" x="214.11" y="121.99" width="8.95" height="8.21"/>
        <rect class="cls-33" x="225.3" y="121.99" width="8.95" height="8.21"/>
        <rect class="cls-33" x="214.11" y="112.29" width="8.95" height="7.46"/>
        <polygon class="cls-14" points="453.59 172.72 463.29 177.94 462.54 252.54 458.81 251.05 460.3 180.18 453.2 176.6 453.59 172.72"/>
        <polygon class="cls-15" points="454.49 177.22 460.3 180.18 458.81 251.05 453.59 250.31 454.49 177.22"/>
        <polygon class="cls-14" points="453.82 215.44 459.18 217.46 459.18 219.97 453.99 217.79 453.82 215.44"/>
        <path class="cls-18" d="M452.1,249.11V166l14.17,7.46-.73,79.14a1.1,1.1,0,0,1-1.76.87l-1.24-.93.75-74.6-9-4.48v76.85h0A1.44,1.44,0,0,1,452.1,249.11Z"/>
        <line class="cls-19" x1="452.1" y1="168.24" x2="466.27" y2="175.7"/>
        <polygon class="cls-15" points="489.19 195.87 493.64 197.34 492.15 257.77 488.65 257.77 489.19 195.87"/>
        <polygon class="cls-14" points="489.25 224.4 494.62 226.41 494.62 228.92 489.42 226.74 489.25 224.4"/>
        <polygon class="cls-14" points="489.4 191.37 495.37 194.35 494.62 260 492.38 257.77 493.13 197.34 489.19 195.87 489.4 191.37"/>
        <polygon class="cls-18" points="487.16 185.4 486.41 258.51 488.65 257.77 489.4 191.37 495.37 194.35 494.45 260.2 496.04 260.57 497.6 190.62 487.16 185.4"/>
        <polygon class="cls-18" points="502.93 210.86 508.59 213.2 506.56 289.85 502.08 289.85 504.32 217.48 499.1 215.24 499.02 212.42 499.18 209.56 502.93 210.86"/>
        <g>
          <path class="cls-34" d="M496.86,258.51l-.75,3c.11.07-9.7-1.5-9.7-1.5l.75-3Z"/>
          <path class="cls-16" d="M486.38,259.86l-.71-2.84h1.49l-.71,2.84A0,0,0,0,1,486.38,259.86Z"/>
        </g>
        <g>
          <path class="cls-35" d="M467,251.8l-1.5,2.24c.13.08-13.3-2.85-13.3-2.85l1.22-2.88Z"/>
          <path class="cls-36" d="M452.2,251l-.59-2.91,1.83.18-1.16,2.74S452.2,251.08,452.2,251Z"/>
        </g>
        <polygon class="cls-37" points="310.35 172.72 343.18 171.97 342.43 245.83 309.6 246.58 310.35 172.72"/>
        <rect class="cls-38" x="324.52" y="172.72" width="1.87" height="73.11"/>
        <line class="cls-39" x1="326.76" y1="172.72" x2="326.76" y2="245.46"/>
        <rect class="cls-34" x="309.6" y="207.78" width="32.83" height="2.24"/>
        <line class="cls-40" x1="309.98" y1="210.77" x2="342.43" y2="210.77"/>
        <polygon class="cls-34" points="302.14 161.53 301.4 246.58 309.6 246.58 310.35 172.72 343.18 171.97 342.43 245.83 350.63 248.07 351.38 160.04 302.14 161.53"/>
        <polygon class="cls-34" points="298.41 245.83 298.41 256.27 341.68 256.27 341.68 248.07 346.9 249.56 350.63 248.07 342.43 245.83 298.41 245.83"/>
        <polygon class="cls-25" points="341.68 248.07 341.68 256.27 346.16 257.02 346.9 249.56 341.68 248.07"/>
        <polygon class="cls-41" points="81.85 176.88 113.06 176.16 112.35 246.38 81.14 247.09 81.85 176.88"/>
        <rect class="cls-42" x="95.32" y="176.87" width="1.77" height="69.51"/>
        <line class="cls-43" x1="97.45" y1="176.87" x2="97.45" y2="246.03"/>
        <rect class="cls-44" x="81.14" y="210.21" width="31.21" height="2.13"/>
        <line class="cls-45" x1="81.49" y1="213.05" x2="112.35" y2="213.05"/>
        <polygon class="cls-44" points="74.05 166.24 73.34 247.09 81.14 247.09 81.85 176.88 113.06 176.16 112.35 246.38 120.15 248.51 120.86 164.82 74.05 166.24"/>
        <path class="cls-44" d="M70.5,246.38v9.93h41.14v-7.8l5,1.42,3.13-1.25a.15.15,0,0,0,0-.29l-7.36-2Z"/>
        <polygon class="cls-46" points="111.64 248.51 111.64 256.31 115.89 257.02 116.6 249.93 111.64 248.51"/>
        <polygon class="cls-47" points="13.43 277.91 13.43 289.85 118.38 290.35 120.41 278.82 13.43 277.91"/>
        <line class="cls-11" x1="431.95" y1="281.27" x2="431.95" y2="292.46"/>
        <polygon class="cls-18" points="499.1 215.24 500.59 215.99 499.1 289.85 497.6 289.85 499.1 215.24"/>
        <g>
          <path class="cls-48" d="M488.11,156l.56,2a.11.11,0,0,0,.21,0l.85-2.07a.13.13,0,0,0-.11-.17l-1.41.06A.12.12,0,0,0,488.11,156Z"/>
          <path class="cls-49" d="M489.8,155.8l9.59,6.47-1,2.24-9.48-6.09a.17.17,0,0,1-.06-.2Z"/>
        </g>
        <g>
          <g>
            <polygon class="cls-7" points="126.25 240.78 126.08 273.43 128.32 273.43 128.32 241.35 126.25 240.78"/>
            <polygon class="cls-7" points="131.47 241.53 131.3 274.18 133.54 274.18 133.54 242.1 131.47 241.53"/>
            <polygon class="cls-7" points="137.44 241.53 137.27 274.18 139.51 274.18 139.51 242.1 137.44 241.53"/>
            <polygon class="cls-7" points="143.34 242.32 143.17 274.97 145.41 274.97 145.41 242.89 143.34 242.32"/>
            <polygon class="cls-7" points="148.56 243.06 148.39 275.71 150.63 275.71 150.63 243.63 148.56 243.06"/>
            <polygon class="cls-7" points="154.53 243.06 154.36 275.71 156.6 275.71 156.6 243.63 154.53 243.06"/>
            <polygon class="cls-7" points="160.5 243.81 160.33 276.46 162.57 276.46 162.57 244.38 160.5 243.81"/>
            <polygon class="cls-7" points="165.72 244.56 165.55 276.46 167.79 276.46 167.79 245.13 165.72 244.56"/>
          </g>
          <polygon class="cls-7" points="211.87 239.86 251.41 245.08 251.41 247.32 211.94 242.56 211.87 239.86"/>
          <polygon class="cls-50" points="115.26 280.52 115.02 288.09 211.89 289.44 212.25 281.27 115.26 280.52"/>
          <polygon class="cls-7" points="211.04 273.14 250.67 275.67 250.67 277.91 210.94 275.51 211.04 273.14"/>
          <g id="frontPorch">
            <path class="cls-51" d="M122.35,166.75l43.27,9.7c1.94.91,3.68,3.38,4.57,4.84a.35.35,0,0,0,.65-.19v-9.36a1.3,1.3,0,0,1,1.26-1.3l57.58-1.75.1-6.42-65.65-.74Z"/>
            <path class="cls-21" d="M161.52,140.27l97.73-3.73-47,13.42-106,4.84s-.06-.06,0-.07Z"/>
            <path class="cls-7" d="M253.65,145.12l-.75,34.31c-1.17-3.09-3.19-5.3-6.71-6l-26.86-8.2c-3.36-.69-5.62,0-6,3L211.13,279.4l-8.21-.74,3-108.93c-.11-3.28-1.16-5.92-6-6l-67.15,3q-6.1-.27-7.46,4.48l-.74,106.68h-5.22l1.26-117.72,92.74-3.88Z"/>
            <polygon class="cls-7" points="260.37 136.91 260.37 143.62 213.37 156.31 107.43 160.78 105.19 154.81 211.87 150.34 260.37 136.91"/>
            <line class="cls-52" x1="213.37" y1="156.68" x2="211.87" y2="150.34"/>
            <polygon class="cls-50" points="110.41 290.59 110.04 298.43 208.89 300.29 208.89 292.08 110.41 290.59"/>
            <polygon class="cls-20" points="253.65 282.39 253.65 299.54 208.89 300.29 208.89 292.08 211.87 289.1 211.87 280.89 253.65 282.39"/>
            <polygon class="cls-53" points="112.65 278.65 112.65 280.89 209.62 281.1 253.65 282.39 253.65 279.4 209.63 278.65 112.65 278.65"/>
            <rect class="cls-54" x="104.82" y="288.73" width="109.67" height="2.24" transform="translate(4.31 -2.33) rotate(0.85)"/>
            <line class="cls-11" x1="211.87" y1="279.03" x2="211.87" y2="281.27"/>
          </g>
          <polygon class="cls-7" points="124.81 239.57 170.09 245.08 170.09 247.32 124.71 242.67 124.81 239.57"/>
          <polygon class="cls-7" points="124.59 271.97 169.35 274.93 169.35 277.16 124.51 275.4 124.59 271.97"/>
          <polygon class="cls-47" points="253.65 279.4 431.95 281.64 506.18 289.56 506.18 299.56 431.95 292.83 253.29 289.5 253.65 279.4"/>
          <g>
            <polygon class="cls-7" points="213.37 240.61 213.37 274.18 215.6 274.93 215.6 241.35 213.37 240.61"/>
            <polygon class="cls-7" points="219.5 241.53 218.59 274.18 220.82 274.93 221.57 242.1 219.5 241.53"/>
            <polygon class="cls-7" points="224.66 242.32 224.56 274.93 226.79 275.67 226.73 242.89 224.66 242.32"/>
            <polygon class="cls-7" points="230.63 243.06 230.52 274.93 232.7 275.71 232.7 243.63 230.63 243.06"/>
            <polygon class="cls-7" points="236.49 243.59 236.49 275.67 238.73 276.42 238.73 244.34 236.49 243.59"/>
            <polygon class="cls-7" points="242.46 244.34 242.46 275.67 244.63 276.46 244.7 245.08 242.46 244.34"/>
            <polygon class="cls-7" points="247.68 245.08 247.68 275.67 249.85 276.46 249.92 245.83 247.68 245.08"/>
          </g>
        </g>
        <rect class="cls-6" x="196.95" y="190.62" width="7.46" height="14.17"/>
        <rect class="cls-6" x="212.62" y="190.62" width="7.46" height="14.17"/>
        <rect class="cls-6" x="212.62" y="205.54" width="7.46" height="14.17"/>
        <rect class="cls-6" x="196.95" y="205.54" width="7.46" height="14.17"/>
        <rect class="cls-6" x="196.95" y="220.46" width="7.46" height="14.17"/>
        <rect class="cls-6" x="212.62" y="220.46" width="7.46" height="14.17"/>
        <circle class="cls-51" cx="221.2" cy="238.74" r="1.87"/>
      </g>
    </g>
  </g>
</svg>
