<?xml version="1.0"?>
<svg xmlns:rdf="http://www.w3.org/1999/02/22-rdf-syntax-ns#" xmlns="http://www.w3.org/2000/svg" xmlns:ns="http://creativecommons.org/ns#" xmlns:cc="http://web.resource.org/cc/" xmlns:xlink="http://www.w3.org/1999/xlink" xmlns:dc="http://purl.org/dc/elements/1.1/" xmlns:svg="http://www.w3.org/2000/svg" id="svg2" viewBox="0 0 450.43 233.16" version="1.0">
  <g id="layer2" transform="translate(503,67)">
    <g id="g3470">
      <path id="rect3467" d="m-353.9 74.192l63.06 0.906-0.4 84.592-61.21-0.17-1.45-85.328z" fill="#0f0714"/>
      <path id="path2429" d="m-348.4 159.73l-137.6-0.55-0.77-76.003-16.23-0.177v-7l126.77-65.53 0.88-32.47h-4.65l-1-1 49-20.881 17.23 2.823 1.77-7.942-8-2-3-6 31-8 30 13-2 4-8.59-0.588v19.295l21 4.058 0.59-7.765-8-4-2-4 23-9 30 14v4h-9l0.41 16.707 8.65 2.646 53.23 20.824-1.29 1.823-7-2-3.12 0.3524 0.57 20.732 112.96 48.958 0.002 6.781-10.059-0.588 2.235 74.585-89.798 4.34-144.76-1.8-0.13-83.856-55.36 0.439 3.06 81.787z" fill="#bd3235" fill-rule="evenodd"/>
      <path id="path3457" d="m-258.31-19.41l-73.98-27.559 122.22 31.363 52.54 21.5-100.78-25.304z" fill-rule="evenodd" stroke="#be845f" stroke-width="1px" fill="#9d6451"/>
      <path id="path3424" d="m-266.98-16.833l8.28 2.645 88.13 20.045 0.55 4.476-96.39-23.121-0.57-4.045z" fill="#511419" fill-rule="evenodd"/>
      <path id="path3434" d="m-284.12-33.625l-0.46-17.871-29.42 0.496-0.25 8.25 30.13 9.125zm17.62 21.125l95.38 22.137 0.3 18.241-95.36-17.05-0.32-23.328zm11.75-22.5l0.25 8 27.5 7.5-0.25-15.75-27.5 0.25z" fill-rule="evenodd" stroke="#a4382e" stroke-width="1px" fill="#bf3032"/>
      <path id="path3403" d="m-281.5-56.5l-43.25 1.25 29.75-11.25 29.75 13.75-16.32-3.761-13.18-9.989" fill-rule="evenodd" stroke="#b27062" stroke-width="1px" fill="#5c454f"/>
      <path id="path3405" d="m-224-40l-40 1.5 28.5-9.75 25.75 12.25-14.32-4.011-12.43-7.739" fill-rule="evenodd" stroke="#b27062" stroke-width="1px" fill="#5c454f"/>
      <path id="path3409" d="m-226.75-36.75l0.25 17.25 6.75 2.25v-17.25l-7-2.25z" fill-rule="evenodd" stroke="#e75c49" stroke-width="1px" fill="#f6f8ee"/>
      <path id="path3411" d="m-282.75-52.75l0.25 19.25 6.75 2.25v-20l-7-1.5z" fill-rule="evenodd" stroke="#e75c49" stroke-width="1px" fill="#f6f8ee"/>
      <path id="path3452" d="m-288.95 11.385l15.25 0.177-1.64 4.588 125.77 53.957 0.55 9.976-139.21-61.527m15.39-28.817l-32.28-13.913-70.36 1.532 42.16-19.105 60.71 21.45-1.64 3.77 2.29 3.598-0.88 2.668z" fill="#461624" fill-rule="evenodd"/>
      <path id="path3438" d="m-273.41 9.2895l138.98 61.002 80.899 9.134-0.198 5.242-81.361-8.551-137.96-60.543-0.36-6.2845z" fill-rule="evenodd" stroke="#a4382e" stroke-width="1px" fill="#e23e45"/>
      <path id="path3454" d="m-133.07 70.769l-138.97-60.715 103.66 19.869 115.31 49.794-80-8.948z" fill-rule="evenodd" stroke="#be845f" stroke-width="1px" fill="#9d6451"/>
      <path id="path3459" d="m-261.41-16.315l-71.38-26.133-0.18-4.988 71.99 27.69-0.43 3.431z" fill-rule="evenodd" stroke="#be845f" stroke-width="1px" fill="#633c35"/>
      <path id="path3461" d="m-156.3 9.6113l-104.04-25.349-0.23-4.445 104.71 26.364-0.44 3.4303z" fill-rule="evenodd" stroke="#7f2524" stroke-width="1px" fill="#ae2d32"/>
      <path id="path3463" d="m-378.43-23.719l44.95-22.854 0.91 5.07-41.54 19.983-4.32-2.199z" fill-rule="evenodd" stroke="#7f2524" stroke-width="1px" fill="#ae2d32"/>
      <path id="path2432" d="m-322.75 71.839l-1.75-62.839-11.5 31.5 12.55 29.926-23.55 0.248m56.84 8.326l1.16 79.5m-62.12-78.921l53.01-1.167m-125.33 53.588l3.94 4 0.5 5.67m219.19-1.11l-0.69-5.06-5-3.94m-20.15-5.21l29.46-0.36 0.17 5.13-28.59 0.04-0.19-6.32m-211.54 16.66l0.18-5.77-3.56-3.95-3 0.22 0.22-4.5 28.98 0.51-0.14 4.1-26.03-0.42m26.28-8.72l-29.53-0.78-0.3-28.465 16.24 0.279 14.56 0.5-0.97 28.466zm-70.68-47.578l1.09 85.598m-3.54-85.885l6.65-0.155m183.89-66.95v62l-12-30 12-32m1.35 0.2942l-25.35 0.7058 12.15 31.03-10.94 30.822m-107.9 22.839l0.01 28.719m71.68-42.41l-38.5 1 2.5 75.06 17.5-36.06 18.5 36.56m134-25.81l4.02 4.66-0.14 5.28m7.1-50.506l12.96-0.215 0.69 31.671-28.63 0.07-1-31.005m-165 65.355l37.5-0.5-2-75.06-18 37-16.5-35.5m229.5 81.5l-0.5-67.5-27.56-0.597-0.77 68.427m125.33-5.83l-2-74m-206.25-70l137.75 60m-53.5-72v23.75m40 54.25l0.17 84.66m-22.17-158.66l0.25 23m-35.75-30.25l0.5 24.25m-20.5-29.5l-0.5 25.5m-19.75-30l-0.25 26m-16.75-52.25l39.25-1.25 10.75 2.5m-110.5-17l42.25-2.25 15 4.25m-83.32 59.646l2.04 63.052 10.78-30.698-12-31 25.35-0.7645m2.6-1.3382l2.09 62.984 24-0.734m24.87-86.677v25.707m42.47 81.528l17.1-0.521 1.02 32.026m-45-43.71l-17 39-19-38.5h37.5l1.91 77.82-38.41 0.92 19.5-40.51 17.5 39.27m-120-177.5l-0.33 35.116-128.35 67.62" stroke="#f6f7ee" stroke-width="3" fill="none"/>
      <path id="path3465" d="m-406.69 77.36c123.79-0.313 170.99-2.501 170.99-2.501" stroke="#af6a65" stroke-width="2" fill="none"/>
    </g>
  </g>
  <metadata>
    <rdf:RDF>
      <cc:Work>
        <dc:format>image/svg+xml</dc:format>
        <dc:type rdf:resource="http://purl.org/dc/dcmitype/StillImage"/>
        <cc:license rdf:resource="http://creativecommons.org/licenses/publicdomain/"/>
        <dc:publisher>
          <cc:Agent rdf:about="http://openclipart.org/">
            <dc:title>Openclipart</dc:title>
          </cc:Agent>
        </dc:publisher>
        <dc:title>Red barn</dc:title>
        <dc:date>2010-02-10T09:41:37</dc:date>
        <dc:description>A typical red barn</dc:description>
        <dc:source>http://openclipart.org/detail/29228/red-barn-by-rfc1394</dc:source>
        <dc:creator>
          <cc:Agent>
            <dc:title>Rfc1394</dc:title>
          </cc:Agent>
        </dc:creator>
        <dc:subject>
          <rdf:Bag>
            <rdf:li>barn</rdf:li>
            <rdf:li>building</rdf:li>
            <rdf:li>clip art</rdf:li>
            <rdf:li>clipart</rdf:li>
            <rdf:li>farm</rdf:li>
            <rdf:li>farming</rdf:li>
            <rdf:li>image</rdf:li>
            <rdf:li>media</rdf:li>
            <rdf:li>png</rdf:li>
            <rdf:li>public domain</rdf:li>
            <rdf:li>red</rdf:li>
            <rdf:li>rural</rdf:li>
            <rdf:li>svg</rdf:li>
            <rdf:li>unchecked</rdf:li>
          </rdf:Bag>
        </dc:subject>
      </cc:Work>
      <cc:License rdf:about="http://creativecommons.org/licenses/publicdomain/">
        <cc:permits rdf:resource="http://creativecommons.org/ns#Reproduction"/>
        <cc:permits rdf:resource="http://creativecommons.org/ns#Distribution"/>
        <cc:permits rdf:resource="http://creativecommons.org/ns#DerivativeWorks"/>
      </cc:License>
    </rdf:RDF>
  </metadata>
</svg>
