<svg xmlns="http://www.w3.org/2000/svg" viewBox="0 0 65.68 112.26">
  <defs>
    <style>
      .cls-1 {
        fill: #bb936f;
      }

      .cls-1, .cls-3 {
        stroke: #000;
      }

      .cls-1, .cls-2, .cls-3 {
        stroke-miterlimit: 10;
      }

      .cls-1, .cls-2 {
        stroke-width: 0.52px;
      }

      .cls-2 {
        fill: none;
        stroke: #624631;
      }

      .cls-3 {
        fill: #624631;
        stroke-width: 0.69px;
      }
    </style>
  </defs>
  <title>teepee</title>
  <g id="Layer_2" data-name="Layer 2">
    <g id="map">
      <g id="teepee">
        <path class="cls-1" d="M.35,98.31,27.59,45.55c3.78,2,8,1.9,12.38.76l25.38,54.3c-7.81,5.25-23.08,17-25.16,8.27.3-20.89-11.93-23.95-14.25-1.19C24.5,115.91,9.21,102.87.35,98.31Z"/>
        <path class="cls-2" d="M4.68,90.67c7.69,2.85,11.34,9.55,23.21,6.71,4.33-10.95,10.8-2.34,11.22.69,0,0,15.66-1.57,23.14-4.35"/>
        <path class="cls-2" d="M9,81.49C25.92,88.09,42,88.76,57.3,83"/>
        <path class="cls-2" d="M14,71.55c13.93,7.65,26.81,6.12,38.38.76"/>
        <path class="cls-2" d="M19.54,60.84c9.24,4.39,18.52,5.51,27.86,1.53"/>
        <path class="cls-2" d="M23.87,52.43c6.44,2,13.27,2.15,19.19,0"/>
        <path class="cls-3" d="M28.34,45.91a15.74,15.74,0,0,0,10.88.62.47.47,0,0,0,.11-.78c-3.6-3-7.28-3.46-11-.74A.55.55,0,0,0,28.34,45.91Z"/>
        <line class="cls-2" x1="23.56" y1="0.05" x2="32.23" y2="45.93"/>
        <line class="cls-2" x1="34.7" y1="8.46" x2="33.47" y2="45.17"/>
        <line class="cls-2" x1="43.99" y1="16.87" x2="34.7" y2="45.93"/>
        <line class="cls-2" x1="29.75" y1="13.81" x2="33.47" y2="44.4"/>
        <line class="cls-2" x1="37.8" y1="21.46" x2="34.09" y2="44.4"/>
      </g>
    </g>
  </g>
</svg>
