<svg xmlns="http://www.w3.org/2000/svg" viewBox="0 0 590.25 136.32">
  <defs>
    <style>
      .cls-1 {
        fill: #9ba97d;
      }

      .cls-1, .cls-2 {
        stroke: #000;
        stroke-miterlimit: 10;
      }

      .cls-2 {
        fill: #bfd19a;
      }
    </style>
  </defs>
  <title>title</title>
  <g id="Layer_2" data-name="Layer 2">
    <g id="map">
      <g>
        <g>
          <g>
            <path class="cls-1" d="M489.75,72.71,508.9,98.26,523,77.82C516,74.33,504.85,73.29,489.75,72.71Z"/>
            <path class="cls-1" d="M88.37,58l-7-25.54-14,20.43C74.25,56.41,73.27,57.45,88.37,58Z"/>
          </g>
          <path class="cls-2" d="M67.29,52.91,67,133.06c35.45,20.76,416.57-83.26,455.66-54.6l1-72.48C471.54-24.36,115.51,82.61,67.29,52.91Z"/>
          <path class="cls-2" d="M523,22.21c14.13,2.72,37.86,5.4,66.34,22.4L563.83,65.05l11.49,36.4L508.9,98.26,523,77.82Z"/>
          <path class="cls-2" d="M67.22,108.53c-14.14-2.72-37.86-5.4-66.34-22.41L26.42,65.69,14.93,29.29l66.41,3.19-14,20.43Z"/>
        </g>
        <g>
          <path d="M96,112.63l1-.09c1.47-.12,1.73-.42,1.6-1.89l-1.84-22c-.12-1.46-.42-1.72-1.89-1.6l-1,.09-.13-1.46,13.43-1.12.13,1.46-1,.09c-1.47.12-1.72.42-1.6,1.89l1.79,21.35c.16,1.91.55,2.48,1.64,2.39,3.31-.28,6.28-6.39,6.26-10.78l1.47-.12.68,11.56L96.15,114.1Zm7.19-25.36a3.21,3.21,0,0,1,.13-.93l-5.48.46a4,4,0,0,1,.32.89Zm.07,1.75-.07-.91-4.92.41.07.91Zm.15,1.78-.07-.91-4.92.41.07.91Zm.15,1.74-.08-.91L98.59,92l.08.91Zm.14,1.74-.07-.9-4.92.41.07.91Zm.15,1.78-.08-.9-4.91.41.07.9Zm.15,1.75L104,96.9,99,97.31l.08.91Zm.14,1.74-.07-.91-4.92.42.07.9Zm.15,1.78-.07-.91-4.92.41.07.91Zm.15,1.74-.08-.9-4.92.41.08.91Zm.15,1.78-.08-.9-4.92.41.08.9Zm.14,1.75-.07-.91-4.92.41.07.91Zm.15,1.74-.08-.91-4.92.42.08.9Zm.68,3.49a4.21,4.21,0,0,1-.33-.88l-5.09.42a4.82,4.82,0,0,1-.17.93Zm-.5-1.71-.09-.66,0-.25-4.92.41.08.91Zm9.88.93,0-.91-2.27.19c-.29.34-.58.68-.9,1Zm-.08-1.72-.07-.9-1,.08c-.18.33-.37.63-.58,1Zm-.1-1.67-.12-1a11.24,11.24,0,0,1-.54,1.1Z"/>
          <path d="M125.17,109.83l.59-.09a2.43,2.43,0,0,0,2.11-2l4.83-26.46,3.36-.48,12,24.53a1.72,1.72,0,0,0,1.84,1l.59-.08.2,1.45-13.34,1.9-.2-1.46,1.31-.18c.8-.12,1-.6.91-1a1.52,1.52,0,0,0-.13-.41l-2.44-5.23-6.41.91-.81,5a3.5,3.5,0,0,0,0,.78c.11.8.7,1.18,1.77,1l1-.14.21,1.45-7.17,1Zm4.16-.56a2.1,2.1,0,0,1-.64-1,3.31,3.31,0,0,1-.78,1.21Zm6.8-9.42-4-8.45-1.52,9.23Zm2-11.59-.4-.86-4.72.67-.18,1Zm.8,1.66-.4-.87-5.44.78.4.86Zm-1.64-3.34-.4-.86-3.54.5-.18,1Zm-.8-1.69L136,84l-2.39.34-.18.94Zm-.84-1.65-.4-.86-1.25.18-.19.94Zm4.09,8.36-.41-.86-5.47.78.4.86Zm.84,1.69-.44-.86-5.48.78.41.86Zm.84,1.68-.44-.86-5.51.79.41.86Zm.8,1.65-.44-.85-5.54.79.4.86Zm.84,1.69-.44-.86-5.58.8.41.86Zm.77,1.69-.4-.86-5.62.8.41.86Zm.84,1.65-.41-.86-5.65.8.41.86Zm.8,1.69-.4-.86-5.68.81.4.86Zm.84,1.68-.4-.86-5.72.81.41.87Zm1,1.67a8.73,8.73,0,0,1-.5-.74l0-.1-5.86.83a4,4,0,0,1-.08.93Z"/>
          <path d="M158.15,105l1-.18c1.38-.22,1.65-.52,1.48-1.77L157,81c-.27-1.44-.59-1.67-2.05-1.43l-1,.17-.24-1.45L167,76.12l.24,1.45-1,.17c-1.45.24-1.68.56-1.44,2l1.63,9.88,7.52-12.28a.66.66,0,0,0,.1-.48c0-.24-.28-.38-.63-.32l-1.65.28-.24-1.45,7.28-1.21.24,1.45-1.69.28a1.67,1.67,0,0,0-1.12.75l-4.58,7.5L182.85,100c.47.67.81.83,1.44.73l.72-.12.24,1.45-12.78,2.11-.24-1.45.87-.14a1.08,1.08,0,0,0,1-1.16,1.44,1.44,0,0,0-.24-.56l-6.51-9.57-.5.83,1.56,9.46c.24,1.45.56,1.68,2,1.44l.66-.11.24,1.45-12.91,2.14Zm5.12-25.86a3.38,3.38,0,0,1,.06-.93l-5.45.9a5,5,0,0,1,.39.86Zm.22,1.74-.15-.9-4.9.81.15.9Zm.28,1.72-.14-.89-4.91.81.15.89Zm.3,1.77-.15-.9-4.91.81.15.9Zm.28,1.72-.15-.9-4.9.81.15.9Zm.29,1.76-.15-.9-4.9.82.18.89Zm.29,1.73-.15-.9-4.9.81.14.9Zm.28,1.73-.15-.9-4.9.81.15.9Zm.29,1.76-.15-.9-4.9.81.15.9Zm.29,1.72-.15-.89-4.9.81.15.89Zm.28,1.73-.14-.9-4.91.81.15.9Zm.3,1.76-.15-.9-4.91.81.15.9Zm.28,1.73-.15-.9-4.87.8.15.9Zm.29,1.72-.15-.89-4.87.8.15.9Zm.56,1.72a3.4,3.4,0,0,1-.39-.86l-5,.82a3.66,3.66,0,0,1-.06.94Zm6.41-13.58-.56-.83-5.18.85.6.83Zm-1.14-1.59-.57-.83-3,.51-.64,1ZM175,91.5l-.56-.83-5.21.86.56.83Zm-3.43-4.89-.92-1.09-.91,1.39Zm4.58,6.48-.56-.83-5.25.86.56.83Zm1.12,1.58-.57-.82-5.28.87.56.83Zm1.15,1.62-.56-.83-5.32.88.56.83Zm1.15,1.59-.6-.83-5.35.89.56.83Zm-4.09-21.71-.89.15a1.26,1.26,0,0,1,.43.67C175.19,76.75,175.34,76.41,175.51,76.17Zm5.2,23.3-.59-.83-5.39.89.33.48a2.45,2.45,0,0,1,.2.36Zm1.16,1.61-.6-.82-5.73.95a2.09,2.09,0,0,1-.06.93Z"/>
          <path d="M193.39,99.11l1-.19c1.45-.25,1.68-.58,1.42-2L192,75.14c-.26-1.44-.58-1.67-2-1.41l-1,.18-.26-1.45,21-3.71L211.3,78l-1.55.27c-.89-5.06-5.2-7.11-9.24-6.47-.35.06-1.07.23-1,.47l2,11.27c2.31-.41,3.86-3.28,3.25-6.76l1.55-.27,2.4,13.58-1.56.27c-.71-4-3.08-5.78-5.39-5.37l1.83,10.55c.24,1.38.61,1.85,1.89,1.62,4.17-.73,6.77-7,6.21-11.33l1.55-.28,1.63,11.27-21.2,3.74Zm4.77-25.91-.16-.89-5.13.9a3.27,3.27,0,0,1,.36.86Zm.3,1.73-.15-.9-4.86.86.15.9Zm.31,1.75-.15-.89-4.86.86.15.89Zm.31,1.73-.16-.9-4.86.86.16.9Zm.3,1.72-.16-.89-4.86.85.16.9Zm.31,1.76-.15-.9-4.86.86.15.9Zm.31,1.72-.16-.89-4.86.86.16.89Zm.3,1.73-.16-.9-4.86.86.16.89Zm.31,1.75-.15-.89-4.86.86.15.89Zm.31,1.73-.16-.9-4.86.86.16.9Zm.27,1.76-.12-.9-4.86.86.16.89Zm.31,1.72-.16-.89-4.83.85.16.9Zm.3,1.73-.16-.9-4.82.85.16.9Zm.31,1.76-.16-.9-4.82.85.16.9Zm.55,1.68a3.78,3.78,0,0,1-.37-.86l-4.93.87a3.08,3.08,0,0,1,0,.93ZM205.93,83l-.27-1.55a4.65,4.65,0,0,1-1.45,1.86Zm.17.93-1.73.31a4.57,4.57,0,0,1,2,1.17Zm2.51-12.71-.13-.75-2.65.46c.38.19.77.37,1.13.59Zm.14.76-.93.17A9.33,9.33,0,0,1,209,73.32Zm4.42,23.64-.12-.9-2.59.46c-.29.37-.58.74-.87,1.07ZM212.91,94l-.12-.9-1.21.21a5.75,5.75,0,0,1-.56,1Zm-.22-1.67L212.51,91a14.47,14.47,0,0,1-.51,1.37Z"/>
          <path d="M242.82,62.71l.27,1.45-1.11.2A1.75,1.75,0,0,0,240.5,66l-3,27-2.37.43L221.48,69.32a1.75,1.75,0,0,0-1.87-.87l-1.17.22-.27-1.45L232,64.7l.26,1.44-1.34.25a1,1,0,0,0-.86,1.15,2.23,2.23,0,0,0,.14.37l7.06,12.69,1.46-14.36a.87.87,0,0,0,0-.32,1,1,0,0,0-1.23-.74l-1.45.27L235.76,64Zm-19.88,6.06,5.71-1a3.59,3.59,0,0,1,0-.93L222.36,68a2.41,2.41,0,0,1,.47.63Zm.9,1.61,5.54-1-.47-.84-5.54,1Zm.94,1.65,5.51-1-.44-.85-5.54,1Zm.91,1.64,5.51-1-.48-.84-5.5,1Zm.93,1.61,5.51-1-.47-.83-5.51,1Zm.91,1.65,5.47-1-.47-.84-5.47,1Zm.93,1.61,5.48-1-.48-.84-5.47,1Zm.91,1.65,5.44-1-.47-.84-5.44,1Zm.94,1.6,5.43-1-.47-.84-5.44,1Zm.9,1.65,5.41-1-.48-.83-5.4,1Zm5.8.76.07-.94-.12.09,0-.07-5.3,1,.47.83Zm-.13.87-4.3.79.47.84,3.76-.69Zm-.16,1.85-3.2.58.51.83,2.58-.47Zm-.2,1.81-2.06.38.47.84,1.51-.28Zm-.19,1.85-1,.18.58,1,.27-.05Zm3.79-25.92-.9.17a1.21,1.21,0,0,1,.45.66C239.8,65.26,240,64.91,240.12,64.66Z"/>
          <path d="M256,87.78l1-.2c1.38-.25,1.67-.59,1.45-1.8l-4.09-22c-.27-1.44-.63-1.66-2.08-1.39l-1,.19L251,61.19l13.25-2.47.27,1.44-1,.2c-1.45.26-1.67.59-1.4,2l4,21.71c.27,1.44.6,1.67,2,1.4l1-.19.27,1.44-13.21,2.46Zm4.57-25.95a3.15,3.15,0,0,1,0-.94l-5.41,1a3.06,3.06,0,0,1,.41.85Zm.25,1.73-.17-.89-4.85.9.17.89Zm.32,1.72-.17-.89-4.85.9.17.89Zm.32,1.76-.16-.9-4.85.9.16.9Zm.32,1.72-.16-.9-4.85.9.16.9Zm.33,1.75-.16-.89-4.86.9.17.89Zm.32,1.72-.16-.89-4.86.9.17.89Zm.32,1.72-.16-.89-4.85.9.16.89Zm.33,1.76-.17-.9-4.85.9.17.9Zm.32,1.72-.17-.9-4.85.91.17.89Zm.32,1.72-.17-.9-4.85.91.17.89ZM264,80.9l-.17-.89-4.85.9.17.9Zm.32,1.72-.17-.89-4.85.9.17.9Zm.32,1.72-.17-.89-4.85.9.17.9Zm.6,1.71a3.78,3.78,0,0,1-.37-.86l-5,.92a3.53,3.53,0,0,1-.07.94Z"/>
          <path d="M278.69,83.54l1-.19c1.44-.27,1.67-.6,1.39-2L277,59.6c-.27-1.44-.6-1.66-2-1.39l-1,.19L273.7,57,294.64,53l1.73,9.22-1.55.29c-.94-5.05-5.27-7.05-9.31-6.37-.34.07-1.06.24-1,.48l2.11,11.24c2.3-.43,3.82-3.31,3.17-6.79l1.55-.29,2.54,13.55-1.54.29c-.76-4-3.15-5.74-5.45-5.31l1.94,10.53c.26,1.38.63,1.84,1.9,1.6,4.16-.78,6.69-7,6.09-11.4l1.54-.29L300.11,81,279,85Zm4.49-25.94-.17-.9-5.12,1a3.27,3.27,0,0,1,.37.86Zm.32,1.72-.16-.9-4.85.91.16.9Zm.33,1.75-.17-.89-4.85.91L279,62Zm.33,1.72L284,61.9l-4.85.91.17.89Zm.32,1.72-.17-.89-4.85.91.17.89Zm.33,1.75-.17-.89-4.85.91.17.89Zm.32,1.72-.17-.89-4.85.91.17.89Zm.32,1.72-.17-.89-4.85.91.17.89Zm.33,1.76-.17-.9-4.85.91.17.9Zm.32,1.72-.16-.9-4.85.91.17.9Zm.3,1.76-.13-.9-4.85.91.16.89Zm.32,1.72-.17-.9-4.81.91.17.89Zm.32,1.72-.16-.9-4.82.91.17.89Zm.33,1.75-.16-.89-4.82.9.17.89Zm.57,1.68a3.39,3.39,0,0,1-.38-.86l-4.92.92a3.18,3.18,0,0,1,0,.94Zm3.11-14.51-.29-1.55a4.56,4.56,0,0,1-1.43,1.87Zm.18.93-1.72.32a4.69,4.69,0,0,1,2,1.16Zm2.38-12.73-.14-.76-2.65.5a9.32,9.32,0,0,1,1.14.57Zm.14.75-.93.18A9.24,9.24,0,0,1,294,57.59Zm4.68,23.59-.14-.9-2.58.48c-.28.37-.57.75-.86,1.09Zm-.28-1.66-.13-.9-1.21.22a5.38,5.38,0,0,1-.55,1Zm-.24-1.66-.2-1.25a11.29,11.29,0,0,1-.49,1.37Z"/>
          <path d="M342,44.12l.27,1.45-.93.17a1.84,1.84,0,0,0-1.51,1.68L337.55,74l-2.76.52-10-18.82-2.44,21.15-2.75.52-13.1-23.87a1.7,1.7,0,0,0-1.84-.86l-1,.19-.27-1.44,13.9-2.61.27,1.44-1.58.3a1,1,0,0,0-.85,1.19,1.28,1.28,0,0,0,.1.34L322,65l1.36-11.93L322,50.57a1.65,1.65,0,0,0-1.83-.87l-.35.06-.27-1.44,12.73-2.39.27,1.45-1.31.24a1,1,0,0,0-.84,1.19,1.28,1.28,0,0,0,.1.34l6.46,13,1-14.47a1.12,1.12,0,0,0,0-.32.93.93,0,0,0-1.17-.74l-1.48.28L335,45.42Zm-34.08,8.82,5.75-1.08a3.51,3.51,0,0,1,0-.93l-6.37,1.19a2.54,2.54,0,0,1,.47.62Zm.91,1.61,5.54-1-.44-.84-5.58,1Zm.87,1.62,5.51-1-.44-.84-5.54,1Zm.88,1.61,5.47-1-.45-.85-5.5,1Zm.9,1.61,5.44-1-.44-.84-5.47,1Zm.88,1.62,5.4-1-.44-.85-5.44,1Zm.91,1.65,5.37-1-.44-.84-5.41,1Zm.87,1.61,5.34-1-.44-.84-5.37,1Zm.88,1.62,5.3-1-.45-.85-5.33,1Zm.91,1.61,5.26-1-.44-.84-5.3,1Zm6,.44-.33-.65-5.27,1,.48.84,5.09-1ZM321.77,69l-4.58.86.48.84,4-.75Zm-.23,1.83-3.48.65.48.84,2.89-.55Zm-.22,1.86-2.38.44.48.84,1.79-.34Zm-.2,1.81-1.27.24.53.94.62-.12Zm1.73-25.33a2.7,2.7,0,0,1,.43.56l.12.27L329,49a2.06,2.06,0,0,1,0-.93Zm1.46,2.44,5.33-1-.41-.85-5.4,1Zm.84,1.62,5.3-1-.41-.85-5.34,1,.22.39Zm.87,1.62,5.23-1-.41-.85-5.3,1Zm.84,1.62,5.19-1-.4-.85-5.23,1Zm.91,1.61,5.12-1-.44-.84-5.16,1Zm.84,1.66,5.09-1-.44-.85-5.09,1Zm.88,1.62,5-.94-.4-.85-5.06.95Zm.83,1.62,5-.93-.41-.85-5,.94Zm.91,1.61,4.89-.91-.41-.85-5,.93Zm5.58.52-.3-.65-4.88.91.44.85,4.75-.89Zm-.11,1.09-4.23.8.47.83,3.69-.69ZM336.57,68l-3.23.6.44.85,2.69-.51Zm-.15,1.84-2.2.41.48.84,1.65-.31Zm-.16,1.81-1.17.22.5.94.59-.11Zm3-25.61-.9.17a1.29,1.29,0,0,1,.45.67C339,46.68,339.13,46.33,339.3,46.08Z"/>
          <path d="M371.51,66.2l1-.19c1.45-.26,1.68-.59,1.42-2L370,42.24c-.27-1.44-.59-1.67-2-1.41L367,41l-.26-1.45,11.71-2.11c4.82-.88,11.06-.62,12.26,6.07s-4.5,9.35-9.32,10.22l-1.2.21,1.55,8.61c.27,1.45.59,1.68,2,1.41l1-.18.26,1.44-13.26,2.4Zm4.67-25.92-.16-.9-5.13.93a5.24,5.24,0,0,1,.4.85Zm.31,1.72-.16-.9-4.86.88.17.9Zm.31,1.72-.16-.89-4.86.87.17.9Zm.32,1.76-.16-.9-4.86.88.16.9Zm.31,1.72-.16-.9-4.86.88.17.9Zm.32,1.76-.16-.9-4.86.88.16.89Zm.31,1.72-.16-.9-4.86.88.16.9Zm.31,1.72-.16-.9-4.86.88.16.9Zm.32,1.76-.16-.9-4.86.88.16.9Zm.31,1.72-.16-.9-4.86.88.16.9Zm.31,1.72-.16-.89-4.86.87.17.9Zm.32,1.76-.16-.9-4.86.88.16.9Zm.31,1.72-.16-.9-4.86.88.16.9Zm.31,1.72-.16-.89-4.86.87.17.9Zm.59,1.71a6.14,6.14,0,0,1-.4-.85l-4.92.89a6.73,6.73,0,0,1-.08.94ZM383.22,45c-.94-5.2-2.87-6.59-5-6.22a2.78,2.78,0,0,0-.8.26l2.44,13.5a2.71,2.71,0,0,0,.84-.05C382.66,52.12,384.21,50.46,383.22,45Zm1.47-6.24a12.46,12.46,0,0,0-3-.38,6.38,6.38,0,0,1,.78.78Zm2.55,1.32a7.78,7.78,0,0,0-1.1-.73l-3.09.56a6.75,6.75,0,0,1,.43.85Zm1.27,1.55a9.07,9.07,0,0,0-.54-.83l-4.17.75a7.47,7.47,0,0,1,.3.87Zm.59,1.7a3.39,3.39,0,0,0-.26-.87l-4.51.81a7.33,7.33,0,0,1,.19.89Zm-2,6.59-2.38.43a4.44,4.44,0,0,1-.38,1.06A9.38,9.38,0,0,0,387.1,49.9Zm2.25-4.85a7.47,7.47,0,0,0-.06-.92l-4.58.83c.05.31.11.62.13.9Zm-1.2,3.8a4.92,4.92,0,0,0,.63-1l-3.82.69a7.15,7.15,0,0,1-.08.94Zm1-2c.08-.34.13-.63.18-1l-4.41.8.06.91Z"/>
          <path d="M398.32,61.35l.59-.1a2.45,2.45,0,0,0,2-2.09l4-26.59,3.35-.58L421,56.15a1.71,1.71,0,0,0,1.87,1l.58-.1.25,1.45-13.27,2.29-.25-1.45,1.31-.23c.79-.13,1-.62.88-1.07a2,2,0,0,0-.14-.41l-2.6-5.16-6.38,1.1-.66,5a3.42,3.42,0,0,0,0,.78c.14.79.73,1.15,1.8,1l1-.18.25,1.45-7.14,1.23Zm4.14-.68a2.06,2.06,0,0,1-.66-1,3.57,3.57,0,0,1-.75,1.23ZM409,51.06l-4.2-8.33L403.52,52Zm1.62-11.64-.43-.85-4.69.81-.16.95Zm.85,1.63L411,40.2l-5.42.93L406,42Zm-1.74-3.29-.43-.85-3.52.61-.16.95Zm-.86-1.66-.43-.85-2.38.41-.15,1ZM408,34.47l-.43-.84-1.24.21-.16.95Zm4.33,8.24-.43-.85-5.45.94.43.85Zm.89,1.66-.46-.84-5.45.94.43.85Zm.89,1.66-.47-.85-5.48,1,.43.85Zm.85,1.63-.47-.85-5.51.95.43.85Zm.89,1.65-.47-.84-5.55,1,.43.85Zm.82,1.67-.43-.85-5.59,1L411,52Zm.88,1.63-.43-.85-5.62,1,.43.85Zm.86,1.66-.43-.85-5.66,1,.43.85Zm.89,1.66-.43-.85-5.69,1,.43.85Zm1,1.64a8.06,8.06,0,0,1-.51-.73l-.06-.1-5.82,1a4.08,4.08,0,0,1-.06.93Z"/>
          <path d="M445,47.76c-1.22-4-2.32-6.59-4.91-6.19a1.44,1.44,0,0,0-.45.1l1.64,10.72c.22,1.46.54,1.69,2,1.47l1-.16.22,1.45-13.14,2-.22-1.45,1-.16c1.46-.22,1.69-.54,1.47-2l-3.33-21.83c-.22-1.45-.54-1.69-2-1.47l-1,.16L427.09,29,439.82,27c6.82-1,10.68.38,11.42,5.19.61,4-1.44,7.05-5,8l0,.14c5.86.13,7.35,6.17,7.73,7.74.16.64.23,1.76,1,1.65s1-1.31.82-3.17l1.49,0c.48,4.07-1.06,7.21-5,7.81C447.31,55.19,445.86,50.6,445,47.76ZM436.38,30l-.14-.9-5,.76a5,5,0,0,1,.38.86Zm.26,1.73-.14-.9-4.7.72.14.9Zm.27,1.76-.14-.9-4.7.72.14.9Zm.27,1.73-.14-.9-4.71.72.14.9Zm.26,1.73-.14-.9-4.7.72.13.9Zm.27,1.77-.14-.9-4.7.71.13.9Zm.26,1.73-.13-.9-4.71.71.14.9Zm.27,1.72-.14-.89-4.71.71.14.9Zm.27,1.77-.14-.9-4.71.72.14.9Zm.26,1.73-.14-.9-4.7.72.13.9Zm.27,1.76-.14-.9-4.7.72.13.9Zm.26,1.73-.13-.9-4.71.72.14.9Zm.27,1.73-.14-.9-4.71.72.14.9Zm.27,1.77-.14-.9-4.71.71.14.9Zm.54,1.68a3.36,3.36,0,0,1-.35-.86l-4.81.73a5.31,5.31,0,0,1-.1.94Zm2.89-20.44c-.58-3.84-2.12-5.8-4.78-5.39a3.05,3.05,0,0,0-.82.23l1.78,11.66a2.21,2.21,0,0,0,.89,0C443,40,443.84,37.6,443.27,33.86Zm3.4-5.37a11.39,11.39,0,0,0-4.44-.31,7.31,7.31,0,0,1,.74.88Zm.49,13a7.53,7.53,0,0,0-3.76-.28,4.16,4.16,0,0,1,.65.76ZM448.74,30a4.66,4.66,0,0,0-.8-.8l-4.46.69a6.69,6.69,0,0,1,.41.85Zm-1.21,8.33-3.15.48a4.87,4.87,0,0,1-.58,1A7.23,7.23,0,0,0,447.53,38.31Zm2.06-6.65a3.94,3.94,0,0,0-.34-.87l-5,.77a6.83,6.83,0,0,1,.28.87Zm-.09,11.2a7.25,7.25,0,0,0-1-.76l-3.91.59a6.94,6.94,0,0,1,.48.85Zm-.93-5.59a4.84,4.84,0,0,0,.66-1l-4.43.68-.17.95Zm1.3-3.81a6.4,6.4,0,0,0-.07-.88v0l-5.12.78.05.34a2.48,2.48,0,0,1,0,.56Zm-.25,1.84a5.6,5.6,0,0,0,.21-.95l-4.95.75c0,.32,0,.6,0,.92Zm1.21,9.12a6.3,6.3,0,0,0-.62-.82l-4.84.74.34.87Zm.92,1.6a8.58,8.58,0,0,0-.41-.86L446,46l.27.87Zm.64,1.64-.31-.88-5.57.85.27.88Zm.43,1.67a4.6,4.6,0,0,1-.24-.85v0l-5.54.85a8.55,8.55,0,0,0,.38.86Zm1,1.62a2.53,2.53,0,0,1-.63-.83l-5.29.81a9,9,0,0,0,.62.83Zm1.05.65-5.6.86A3.77,3.77,0,0,0,452,53,4.47,4.47,0,0,0,454.83,51.6Z"/>
          <path d="M466.21,50.34l1.05-.09c1.39-.11,1.68-.38,1.62-1.64l-1.83-22.25c-.16-1.47-.46-1.72-1.93-1.6l-1,.08L464,23.38l13.46-1.11.12,1.47-1.05.08c-1.46.12-1.72.43-1.6,1.89l.83,10,8.49-11.62a.63.63,0,0,0,.13-.47c0-.24-.24-.4-.59-.37l-1.67.13L482,21.9l7.36-.61.12,1.47-1.71.14a1.62,1.62,0,0,0-1.18.66l-5.17,7.1,9.87,16.67c.41.71.74.89,1.36.84l.74-.06.12,1.46-12.91,1.06-.12-1.46.87-.07A1.08,1.08,0,0,0,482.38,48a1.47,1.47,0,0,0-.18-.58l-5.71-10.07-.57.78.78,9.56c.12,1.47.43,1.72,1.89,1.6l.66,0,.13,1.46L466.33,51.8ZM473.43,25a3.59,3.59,0,0,1,.13-.93l-5.51.46a4.43,4.43,0,0,1,.32.88Zm.07,1.75-.07-.91-4.95.41.07.91Zm.15,1.74-.08-.9-4.95.4.07.91Zm.14,1.78-.07-.91-5,.41.07.91Zm.15,1.74-.08-.9-4.95.41.07.9Zm.14,1.78-.07-.9-4.95.41.11.9Zm.15,1.75-.08-.91L469.2,35l.07.91Zm.14,1.74-.07-.9-5,.4.08.91Zm.15,1.78-.08-.91-4.95.41.07.91Zm.14,1.75-.07-.91-5,.41.08.9Zm.14,1.74-.07-.91-5,.41.07.91Zm.15,1.78-.07-.91-5,.41.08.91Zm.14,1.74-.07-.9-4.92.4.08.91Zm.57,3.5a3.65,3.65,0,0,1-.32-.88l-5,.41a3.85,3.85,0,0,1-.13.92Zm-.42-1.75-.08-.91-4.92.4.08.91Zm7.92-11.26-.49-.87-5.24.43L478,37Zm-1-1.67-.49-.88-3.07.26-.73,1Zm2,3.38-.49-.87-5.27.43.5.87Zm-3-5.16-.83-1.16-1,1.31Zm4,6.83-.49-.87-5.31.44.5.87Zm1,1.68-.49-.88-5.34.44.49.88Zm1,1.7-.49-.87-5.38.44.5.88Zm1,1.68-.52-.87-5.41.44.49.87Zm1,1.67-.52-.87-5.45.45.29.5a1.56,1.56,0,0,1,.17.38Zm1,1.71-.53-.87-5.79.48a1.93,1.93,0,0,1-.13.92ZM485.88,23l-.91.07a1.26,1.26,0,0,1,.37.71A7.78,7.78,0,0,1,485.88,23Z"/>
        </g>
        <g>
          <path d="M349.11,114.66c0,2.73,1.13,4.91,3.68,4.91a3.14,3.14,0,0,0,3.19-2.3h2.67a5.76,5.76,0,0,1-6,4.53c-4.64,0-6.29-3.57-6.29-7.72,0-3.62,1.8-7.62,6.41-7.62s6.09,3.59,6.09,7.07c0,.12,0,1,0,1.13Zm7.1-1.91c-.08-2.35-1-4.15-3.48-4.15-2.78,0-3.42,2.47-3.57,4.15Z"/>
          <path d="M369.17,117.19a2.92,2.92,0,0,0,3.17,2.52c1.91,0,2.69-1,2.69-2.17s-.93-1.92-3.36-2.59c-3.69-1-4.61-2.32-4.61-4.32s1.3-4.17,5.07-4.17,5.08,2,5.25,4.29h-2.64a2.44,2.44,0,0,0-2.72-2.24c-1.54,0-2.3.76-2.3,1.89s.56,1.6,3,2.23c3.8,1,5,2.32,5,4.67,0,2.79-2.26,4.47-5.48,4.47s-5.45-1.48-5.74-4.58Z"/>
          <path d="M384.75,106.75H387v-4.24h2.69v4.24h2.91v2.17h-2.91v8.93c0,1.19.29,1.69,1.54,1.69a6.2,6.2,0,0,0,1.1-.09v2a6.13,6.13,0,0,1-2,.26c-2.26,0-3.3-.87-3.3-3.39v-9.37h-2.29Z"/>
          <path d="M401.3,121.54v-4.12h2.64v4.12Z"/>
          <path d="M427.69,121.51V105.29a14.77,14.77,0,0,1-3.19.93v-2.09a8.25,8.25,0,0,0,4-2h1.88v19.43Z"/>
          <path d="M443.06,117.36a2.84,2.84,0,0,0,3.08,2.26c3.28,0,3.57-4.35,3.71-7.22a4.47,4.47,0,0,1-4.12,1.92c-3.22,0-5.74-2.3-5.74-6.07,0-3.51,2.26-6.41,6.18-6.41,4.81,0,6.38,3.72,6.38,8.85,0,6.32-1.39,11.11-6.61,11.11-3.72,0-5.23-2.2-5.55-4.44Zm-.32-9.28c0,2.64,1.45,4,3.49,4a3.16,3.16,0,0,0,3.48-3.45c0-2.38-.84-4.7-3.54-4.7C444.19,104,442.74,105.41,442.74,108.08Z"/>
          <path d="M460.72,121.51v-.15c0-2.17,1-5.19,5.54-8.81,2.7-2.21,3.78-3.11,3.78-5.25a3,3,0,0,0-3.14-3.25c-2.23,0-3.22,1.45-3.45,3.74h-2.61c.2-3.13,1.94-5.92,6.18-5.92,3.89,0,5.77,2.47,5.77,5.4,0,2.75-1.28,4.2-4.7,6.9a12.45,12.45,0,0,0-4.12,5h9.4l-.38,2.32Z"/>
          <path d="M494.11,111.36c0,5.31-1.22,10.44-6.36,10.44-5.3,0-6.41-5.28-6.41-10.36s1.74-9.57,6.44-9.57C492.63,101.87,494.11,106.17,494.11,111.36Zm-10,0c0,4.7.78,8.23,3.62,8.23,3,0,3.6-3.56,3.6-8.2,0-4.12-.81-7.4-3.57-7.4S484.13,107.27,484.13,111.39Z"/>
        </g>
      </g>
    </g>
  </g>
</svg>
