<svg xmlns="http://www.w3.org/2000/svg" viewBox="0 0 227.53 138.33">
  <defs>
    <style>
      .cls-1, .cls-18, .cls-19 {
        fill: none;
      }

      .cls-1, .cls-19 {
        stroke: #745d4e;
      }

      .cls-1, .cls-10, .cls-11, .cls-12, .cls-13, .cls-14, .cls-15, .cls-16, .cls-18, .cls-19, .cls-2, .cls-20, .cls-4, .cls-5, .cls-6, .cls-7, .cls-8, .cls-9 {
        stroke-miterlimit: 10;
      }

      .cls-1 {
        stroke-width: 9.85px;
      }

      .cls-2 {
        fill: #e8cb97;
      }

      .cls-10, .cls-11, .cls-12, .cls-13, .cls-14, .cls-15, .cls-16, .cls-18, .cls-2, .cls-20, .cls-4, .cls-5, .cls-6, .cls-7, .cls-8, .cls-9 {
        stroke: #000;
      }

      .cls-3 {
        opacity: 0.65;
      }

      .cls-10, .cls-11, .cls-12, .cls-13, .cls-14, .cls-15, .cls-4, .cls-5, .cls-6, .cls-7, .cls-8, .cls-9 {
        fill: #f2f2f2;
      }

      .cls-4 {
        stroke-width: 0.94px;
      }

      .cls-5 {
        stroke-width: 1.03px;
      }

      .cls-6 {
        stroke-width: 1.17px;
      }

      .cls-7 {
        stroke-width: 1.1px;
      }

      .cls-9 {
        stroke-width: 0.8px;
      }

      .cls-10 {
        stroke-width: 0.88px;
      }

      .cls-11 {
        stroke-width: 0.77px;
      }

      .cls-12 {
        stroke-width: 0.74px;
      }

      .cls-13 {
        stroke-width: 0.71px;
      }

      .cls-14 {
        stroke-width: 0.61px;
      }

      .cls-15 {
        stroke-width: 0.58px;
      }

      .cls-16 {
        fill: #803c1f;
      }

      .cls-17 {
        fill: #0a030c;
      }

      .cls-19 {
        stroke-width: 8px;
      }

      .cls-20 {
        fill: #c44823;
      }
    </style>
  </defs>
  <title>streetcar</title>
  <g id="Layer_2" data-name="Layer 2">
    <g id="Layer_1-2" data-name="Layer 1">
      <g>
        <path class="cls-1" d="M168.52,115.17l.83,2.1c1.16,2.9,5.65,4.64,10.05,3.88L197.69,118c5-.85,8.25-4,7.78-7.32L204.39,103c-.48-3.4-5.28-5.8-10.37-5.18l-21.31,2.59Z"/>
        <path class="cls-2" d="M1,79.52l.9-36.65A43.53,43.53,0,0,1,46.61.51H47c26.34.49,52.78.8,79.7,6.58,24,5.17,47.61,9.9,70.3,12.42,3.46.38,11.54,1.24,15,2,10,2.2,14.14,8,14.35,18.16L227,72.52l-137,7Z"/>
        <g class="cls-3">
          <rect class="cls-4" x="140.02" y="39.52" width="7" height="30" rx="2.64"/>
          <rect class="cls-4" x="129.02" y="39.52" width="7" height="30" rx="1.23"/>
          <rect class="cls-5" x="117.02" y="38.52" width="8" height="32" rx="1.23"/>
          <rect class="cls-6" x="102.02" y="37.52" width="10" height="33" rx="1.23"/>
          <rect class="cls-7" x="91.02" y="34.52" width="8" height="36" rx="1.23"/>
          <rect class="cls-8" x="151.02" y="40.52" width="6" height="28" rx="1.26"/>
          <rect class="cls-9" x="160.02" y="41.52" width="4" height="27" rx="1.26"/>
          <rect class="cls-10" x="168.02" y="42.52" width="5" height="26" rx="1.26"/>
          <rect class="cls-11" x="177.02" y="43.52" width="4" height="25" rx="1.26"/>
          <rect class="cls-12" x="191.02" y="44.52" width="4" height="23" rx="1.26"/>
          <rect class="cls-13" x="198.02" y="45.52" width="4" height="21" rx="1.26"/>
          <rect class="cls-14" x="205.02" y="45.52" width="3" height="21" rx="1.26"/>
          <rect class="cls-14" x="210.02" y="45.52" width="3" height="21" rx="1.26"/>
          <rect class="cls-14" x="215.02" y="45.52" width="3" height="21" rx="1.26"/>
          <rect class="cls-15" x="221.02" y="46.52" width="3" height="19" rx="1.26"/>
          <rect class="cls-11" x="184.02" y="43.52" width="4" height="25" rx="1.26"/>
          <path class="cls-7" d="M76.54,69.73,45,70.52l4-32a99.65,99.65,0,0,1,20-1.6A16.29,16.29,0,0,1,85,53.17V61A8.69,8.69,0,0,1,76.54,69.73Z"/>
          <path class="cls-7" d="M42,39.52l-3,31H10.82A6,6,0,0,1,5,63l1.89-7.33C10,43.36,21.81,35,34.37,36.78A18.39,18.39,0,0,1,42,39.52Z"/>
        </g>
        <path class="cls-16" d="M91,29.52l3-7c12.35-9.53,78.24,4.27,131.76,12.69l.24,4.31C173,36.52,105.67,21.36,91,29.52Z"/>
        <ellipse class="cls-17" cx="131.02" cy="121.52" rx="13.5" ry="11.5"/>
        <rect class="cls-16" x="14.02" y="21.52" width="59" height="9" rx="2.17"/>
        <path class="cls-18" d="M90,32.52c29,1.08,76.89,5.92,136,13"/>
        <line class="cls-18" x1="8.02" y1="34.52" x2="83.02" y2="33.52"/>
        <path class="cls-2" d="M128,7.52l4-6c19-2.57,38.4.44,58,8l2,6,7,2,.06,1.77C181.41,18.23,155.66,13.33,128,7.52Z"/>
        <path class="cls-19" d="M121.1,128.17l.55,2.1a5.43,5.43,0,0,0,6.63,3.88L140.35,131a6.9,6.9,0,0,0,5.13-7.32l-.71-7.72a5.81,5.81,0,0,0-6.85-5.18l-14.06,2.59Z"/>
        <path class="cls-20" d="M.52,79h89l137-7v35l-1.9.38a3.59,3.59,0,0,1-4.1-2.38h0c1.16-3.89-1.38-4.43-5-4h-6a6.6,6.6,0,0,0-6,6l-.47,3.33a5.3,5.3,0,0,1-4.15,4.43l-28.66,6a7.58,7.58,0,0,1-8.33-4l-.39-.78c-.13-3.28-4.2-3.76-10-3l-11,2c-5.14.89-8.66,2.87-9,7-3.09,5.72-5.9,9.65-8,9l-45.1,5.64a5.09,5.09,0,0,1-4.21-1.36c-1.89-1.86-5-3.21-8.69-4.28h-48l-9,6q-6.61-.84-6-12Z"/>
        <line class="cls-18" x1="89.52" y1="79.02" x2="89.52" y2="136.02"/>
        <line class="cls-18" x1="3.02" y1="114.52" x2="90.02" y2="113.52"/>
        <line class="cls-18" x1="2.02" y1="123.52" x2="89.02" y2="121.52"/>
        <line class="cls-18" x1="226.02" y1="97.52" x2="89.02" y2="121.52"/>
        <circle class="cls-7" cx="38.52" cy="99.02" r="6.5"/>
      </g>
    </g>
  </g>
</svg>
