<svg xmlns="http://www.w3.org/2000/svg" viewBox="0 0 131.9 292.11">
  <defs>
    <style>
      .cls-1 {
        fill: #4a0;
      }

      .cls-1, .cls-2 {
        stroke: #4a0;
        stroke-linecap: round;
        stroke-linejoin: round;
        stroke-width: 0.3px;
      }

      .cls-2 {
        fill: #250;
      }
    </style>
  </defs>
  <title>tree</title>
  <g id="Layer_2" data-name="Layer 2">
    <g id="svg2">
      <g id="layer4">
        <g id="g4535">
          <g id="g5975">
            <g id="g5965">
              <path id="path5967" class="cls-1" d="M131.19,125.1c-6.34,7.21-66.75,4-75.87,4-6.62,0-53.22,3-55-4-2.5-9.66,30.21-65.7,34.77-74.4C38.37,44.39,59.32-1.58,65.74.2c8.84,2.45,36.54,61.68,41.1,70.38,3.31,6.31,29,49.28,24.35,54.52Z"/>
              <path id="path5969" class="cls-1" d="M131.19,180.64c-6.34,7.21-66.75,4-75.87,4-6.62,0-53.22,3-55-4-2.5-9.66,30.21-65.7,34.77-74.4C38.37,99.93,59.32,54,65.74,55.74c8.84,2.45,36.54,61.68,41.1,70.38,3.31,6.31,29,49.28,24.35,54.52Z"/>
              <path id="path5971" class="cls-2" d="M67.49,215.45c8,0,9.26,7.11,9.26,15.94L82,276C82,284.85,75.5,292,67.49,292S53,284.85,53,276l5.21-44.63c0-8.83,1.24-15.94,9.26-15.94Z"/>
              <path id="path5973" class="cls-1" d="M131.19,226.08c-6.34,7.21-66.75,4-75.87,4-6.62,0-53.22,3-55-4-2.5-9.65,30.21-65.7,34.77-74.39,3.31-6.32,24.26-52.28,30.68-50.5,8.84,2.44,36.54,61.67,41.1,70.37,3.31,6.32,29,49.29,24.35,54.52Z"/>
            </g>
          </g>
        </g>
      </g>
    </g>
  </g>
</svg>
